<?xml version="1.0" encoding="UTF-8"?>
<svg xmlns="http://www.w3.org/2000/svg" xmlns:xlink="http://www.w3.org/1999/xlink" width="342.15748pt" height="257.11811pt" viewBox="0 0 342.15748 257.11811" version="1.1">
<g id="surface1">
<path style=" stroke:none;fill-rule:nonzero;fill:rgb(100%,100%,100%);fill-opacity:1;" d="M -0.417969 257.535156 L 342.574219 257.535156 L 342.574219 -0.417969 L -0.417969 -0.417969 Z M -0.417969 257.535156 "/>
<path style="fill:none;stroke-width:0.02;stroke-linecap:butt;stroke-linejoin:miter;stroke:rgb(0%,0%,0%);stroke-opacity:1;stroke-miterlimit:10;" d="M 0.645749 1.780044 L 0.750755 1.780044 " transform="matrix(28.346457,0,0,-28.346457,1,256.11811)"/>
<path style="fill:none;stroke-width:0.02;stroke-linecap:butt;stroke-linejoin:miter;stroke:rgb(0%,0%,0%);stroke-opacity:1;stroke-miterlimit:10;" d="M 0.645749 3.181647 L 0.750755 3.181647 " transform="matrix(28.346457,0,0,-28.346457,1,256.11811)"/>
<path style="fill:none;stroke-width:0.02;stroke-linecap:butt;stroke-linejoin:miter;stroke:rgb(0%,0%,0%);stroke-opacity:1;stroke-miterlimit:10;" d="M 0.645749 4.583388 L 0.750755 4.583388 " transform="matrix(28.346457,0,0,-28.346457,1,256.11811)"/>
<path style="fill:none;stroke-width:0.02;stroke-linecap:butt;stroke-linejoin:miter;stroke:rgb(0%,0%,0%);stroke-opacity:1;stroke-miterlimit:10;" d="M 0.645749 5.98499 L 0.750755 5.98499 " transform="matrix(28.346457,0,0,-28.346457,1,256.11811)"/>
<path style="fill:none;stroke-width:0.02;stroke-linecap:butt;stroke-linejoin:miter;stroke:rgb(0%,0%,0%);stroke-opacity:1;stroke-miterlimit:10;" d="M 0.645749 7.386593 L 0.750755 7.386593 " transform="matrix(28.346457,0,0,-28.346457,1,256.11811)"/>
<path style="fill:none;stroke-width:0.02;stroke-linecap:round;stroke-linejoin:miter;stroke:rgb(0%,0%,0%);stroke-opacity:1;stroke-miterlimit:10;" d="M 0.645749 0.378442 L 0.645749 8.788333 " transform="matrix(28.346457,0,0,-28.346457,1,256.11811)"/>
<path style=" stroke:none;fill-rule:nonzero;fill:rgb(0%,0%,0%);fill-opacity:1;" d="M 3.742188 246.03125 L 3.742188 246.476562 L 1.664062 246.476562 L 1.664062 246.03125 Z M 3.742188 246.03125 Z M 3.742188 246.03125 "/>
<path style=" stroke:none;fill-rule:nonzero;fill:rgb(0%,0%,0%);fill-opacity:1;" d="M 6.328125 242.648438 C 7.082031 242.707031 7.582031 243.394531 7.71875 244.09375 C 7.789062 244.410156 7.804688 244.714844 7.835938 245.03125 L 7.835938 245.839844 C 7.796875 246.664062 7.597656 247.753906 6.703125 248.085938 C 5.925781 248.394531 5.011719 247.910156 4.78125 247.117188 C 4.605469 246.699219 4.589844 246.269531 4.550781 245.839844 L 4.550781 245.03125 C 4.589844 244.207031 4.765625 243.109375 5.65625 242.746094 L 5.695312 242.730469 L 5.726562 242.722656 L 5.765625 242.707031 L 5.882812 242.671875 L 5.957031 242.65625 L 6.042969 242.65625 L 6.058594 242.648438 Z M 6.328125 242.648438 Z M 6.082031 243.132812 C 5.417969 243.214844 5.21875 244.015625 5.171875 244.554688 L 5.171875 244.769531 L 5.15625 244.785156 L 5.15625 245.886719 C 5.203125 246.460938 5.242188 247.199219 5.765625 247.578125 C 6.25 247.910156 6.894531 247.539062 7.027344 247.023438 C 7.171875 246.640625 7.203125 246.269531 7.234375 245.886719 L 7.234375 244.785156 C 7.1875 244.207031 7.105469 243.394531 6.441406 243.164062 L 6.382812 243.148438 L 6.367188 243.132812 L 6.296875 243.132812 L 6.28125 243.117188 L 6.097656 243.117188 Z M 6.082031 243.132812 Z M 6.082031 243.132812 "/>
<path style=" stroke:none;fill-rule:nonzero;fill:rgb(0%,0%,0%);fill-opacity:1;" d="M 9.605469 247.363281 L 9.605469 248 L 8.964844 248 L 8.964844 247.363281 Z M 9.605469 247.363281 Z M 9.605469 247.363281 "/>
<path style=" stroke:none;fill-rule:nonzero;fill:rgb(0%,0%,0%);fill-opacity:1;" d="M 12.410156 242.648438 C 13.328125 242.671875 14.058594 243.617188 13.917969 244.507812 C 13.820312 245.394531 12.988281 245.902344 12.394531 246.460938 L 12.140625 246.722656 L 12.105469 246.738281 L 11.789062 247.046875 L 11.765625 247.0625 L 11.449219 247.378906 L 11.417969 247.394531 L 11.34375 247.46875 L 11.359375 247.476562 L 13.933594 247.476562 L 13.933594 248 L 10.789062 248 L 10.789062 247.523438 L 12.066406 246.246094 C 12.679688 245.714844 13.394531 245.023438 13.28125 244.148438 C 13.21875 243.640625 12.789062 243.171875 12.265625 243.132812 C 11.734375 243.054688 11.265625 243.476562 11.148438 243.984375 L 11.132812 244.007812 L 11.113281 244.0625 L 11.089844 244.148438 L 11.042969 244.324219 L 11.035156 244.363281 C 10.925781 244.230469 10.804688 244.085938 10.71875 243.933594 C 10.878906 243.285156 11.402344 242.671875 12.089844 242.648438 Z M 12.410156 242.648438 Z M 12.410156 242.648438 "/>
<path style=" stroke:none;fill-rule:nonzero;fill:rgb(0%,0%,0%);fill-opacity:1;" d="M 6.328125 202.917969 C 7.082031 202.972656 7.582031 203.664062 7.71875 204.363281 C 7.789062 204.679688 7.804688 204.980469 7.835938 205.300781 L 7.835938 206.109375 C 7.796875 206.933594 7.597656 208.019531 6.703125 208.355469 C 5.925781 208.664062 5.011719 208.179688 4.78125 207.386719 C 4.605469 206.964844 4.589844 206.535156 4.550781 206.109375 L 4.550781 205.300781 C 4.589844 204.472656 4.765625 203.378906 5.65625 203.011719 L 5.695312 202.996094 L 5.726562 202.988281 L 5.765625 202.972656 L 5.882812 202.941406 L 5.957031 202.925781 L 6.042969 202.925781 L 6.058594 202.917969 Z M 6.328125 202.917969 Z M 6.082031 203.402344 C 5.417969 203.480469 5.21875 204.28125 5.171875 204.824219 L 5.171875 205.035156 L 5.15625 205.054688 L 5.15625 206.15625 C 5.203125 206.726562 5.242188 207.464844 5.765625 207.847656 C 6.25 208.179688 6.894531 207.808594 7.027344 207.292969 C 7.171875 206.910156 7.203125 206.535156 7.234375 206.15625 L 7.234375 205.054688 C 7.1875 204.472656 7.105469 203.664062 6.441406 203.433594 L 6.382812 203.417969 L 6.367188 203.402344 L 6.296875 203.402344 L 6.28125 203.386719 L 6.097656 203.386719 Z M 6.082031 203.402344 Z M 6.082031 203.402344 "/>
<path style=" stroke:none;fill-rule:nonzero;fill:rgb(0%,0%,0%);fill-opacity:1;" d="M 9.605469 207.632812 L 9.605469 208.265625 L 8.964844 208.265625 L 8.964844 207.632812 Z M 9.605469 207.632812 Z M 9.605469 207.632812 "/>
<path style=" stroke:none;fill-rule:nonzero;fill:rgb(0%,0%,0%);fill-opacity:1;" d="M 12.496094 202.917969 C 13.25 202.972656 13.75 203.664062 13.886719 204.363281 C 13.957031 204.679688 13.972656 204.980469 14.003906 205.300781 L 14.003906 206.109375 C 13.964844 206.933594 13.765625 208.019531 12.871094 208.355469 C 12.089844 208.664062 11.179688 208.179688 10.949219 207.386719 C 10.773438 206.964844 10.757812 206.535156 10.71875 206.109375 L 10.71875 205.300781 C 10.757812 204.472656 10.933594 203.378906 11.820312 203.011719 L 11.859375 202.996094 L 11.894531 202.988281 L 11.933594 202.972656 L 12.050781 202.941406 L 12.125 202.925781 L 12.210938 202.925781 L 12.226562 202.917969 Z M 12.496094 202.917969 Z M 12.25 203.402344 C 11.582031 203.480469 11.386719 204.28125 11.335938 204.824219 L 11.335938 205.035156 L 11.320312 205.054688 L 11.320312 206.15625 C 11.367188 206.726562 11.410156 207.464844 11.933594 207.847656 C 12.417969 208.179688 13.058594 207.808594 13.195312 207.292969 C 13.335938 206.910156 13.371094 206.535156 13.402344 206.15625 L 13.402344 205.054688 C 13.351562 204.472656 13.273438 203.664062 12.605469 203.433594 L 12.550781 203.417969 L 12.535156 203.402344 L 12.464844 203.402344 L 12.449219 203.386719 L 12.265625 203.386719 Z M 12.25 203.402344 Z M 12.25 203.402344 "/>
<path style=" stroke:none;fill-rule:nonzero;fill:rgb(0%,0%,0%);fill-opacity:1;" d="M 6.328125 163.1875 C 7.082031 163.242188 7.582031 163.933594 7.71875 164.628906 C 7.789062 164.949219 7.804688 165.25 7.835938 165.566406 L 7.835938 166.375 C 7.796875 167.203125 7.597656 168.289062 6.703125 168.621094 C 5.925781 168.933594 5.011719 168.449219 4.78125 167.65625 C 4.605469 167.234375 4.589844 166.804688 4.550781 166.375 L 4.550781 165.566406 C 4.589844 164.742188 4.765625 163.644531 5.65625 163.28125 L 5.695312 163.265625 L 5.726562 163.257812 L 5.765625 163.242188 L 5.882812 163.210938 L 5.957031 163.195312 L 6.042969 163.195312 L 6.058594 163.1875 Z M 6.328125 163.1875 Z M 6.082031 163.671875 C 5.417969 163.75 5.21875 164.550781 5.171875 165.089844 L 5.171875 165.304688 L 5.15625 165.320312 L 5.15625 166.425781 C 5.203125 166.996094 5.242188 167.734375 5.765625 168.113281 C 6.25 168.449219 6.894531 168.074219 7.027344 167.558594 C 7.171875 167.179688 7.203125 166.804688 7.234375 166.425781 L 7.234375 165.320312 C 7.1875 164.742188 7.105469 163.933594 6.441406 163.703125 L 6.382812 163.6875 L 6.367188 163.671875 L 6.296875 163.671875 L 6.28125 163.652344 L 6.097656 163.652344 Z M 6.082031 163.671875 Z M 6.082031 163.671875 "/>
<path style=" stroke:none;fill-rule:nonzero;fill:rgb(0%,0%,0%);fill-opacity:1;" d="M 9.605469 167.902344 L 9.605469 168.535156 L 8.964844 168.535156 L 8.964844 167.902344 Z M 9.605469 167.902344 Z M 9.605469 167.902344 "/>
<path style=" stroke:none;fill-rule:nonzero;fill:rgb(0%,0%,0%);fill-opacity:1;" d="M 12.410156 163.1875 C 13.328125 163.210938 14.058594 164.152344 13.917969 165.042969 C 13.820312 165.933594 12.988281 166.441406 12.394531 166.996094 L 12.140625 167.257812 L 12.105469 167.273438 L 11.789062 167.582031 L 11.765625 167.597656 L 11.449219 167.917969 L 11.417969 167.933594 L 11.34375 168.003906 L 11.359375 168.011719 L 13.933594 168.011719 L 13.933594 168.535156 L 10.789062 168.535156 L 10.789062 168.058594 L 12.066406 166.78125 C 12.679688 166.25 13.394531 165.558594 13.28125 164.6875 C 13.21875 164.179688 12.789062 163.710938 12.265625 163.671875 C 11.734375 163.589844 11.265625 164.011719 11.148438 164.519531 L 11.132812 164.542969 L 11.113281 164.597656 L 11.089844 164.6875 L 11.042969 164.859375 L 11.035156 164.898438 C 10.925781 164.765625 10.804688 164.621094 10.71875 164.472656 C 10.878906 163.820312 11.402344 163.210938 12.089844 163.1875 Z M 12.410156 163.1875 Z M 12.410156 163.1875 "/>
<path style=" stroke:none;fill-rule:nonzero;fill:rgb(0%,0%,0%);fill-opacity:1;" d="M 6.328125 123.453125 C 7.082031 123.507812 7.582031 124.199219 7.71875 124.898438 C 7.789062 125.214844 7.804688 125.519531 7.835938 125.835938 L 7.835938 126.644531 C 7.796875 127.46875 7.597656 128.558594 6.703125 128.890625 C 5.925781 129.199219 5.011719 128.714844 4.78125 127.921875 C 4.605469 127.503906 4.589844 127.074219 4.550781 126.644531 L 4.550781 125.835938 C 4.589844 125.011719 4.765625 123.914062 5.65625 123.550781 L 5.695312 123.535156 L 5.726562 123.527344 L 5.765625 123.507812 L 5.882812 123.476562 L 5.957031 123.460938 L 6.042969 123.460938 L 6.058594 123.453125 Z M 6.328125 123.453125 Z M 6.082031 123.9375 C 5.417969 124.019531 5.21875 124.820312 5.171875 125.359375 L 5.171875 125.574219 L 5.15625 125.589844 L 5.15625 126.691406 C 5.203125 127.265625 5.242188 128.003906 5.765625 128.382812 C 6.25 128.714844 6.894531 128.34375 7.027344 127.828125 C 7.171875 127.445312 7.203125 127.074219 7.234375 126.691406 L 7.234375 125.589844 C 7.1875 125.011719 7.105469 124.199219 6.441406 123.96875 L 6.382812 123.953125 L 6.367188 123.9375 L 6.296875 123.9375 L 6.28125 123.921875 L 6.097656 123.921875 Z M 6.082031 123.9375 Z M 6.082031 123.9375 "/>
<path style=" stroke:none;fill-rule:nonzero;fill:rgb(0%,0%,0%);fill-opacity:1;" d="M 9.605469 128.167969 L 9.605469 128.804688 L 8.964844 128.804688 L 8.964844 128.167969 Z M 9.605469 128.167969 Z M 9.605469 128.167969 "/>
<path style=" stroke:none;fill-rule:nonzero;fill:rgb(0%,0%,0%);fill-opacity:1;" d="M 13.3125 123.621094 L 13.3125 126.960938 L 13.328125 126.976562 L 14.117188 126.976562 L 14.117188 127.453125 L 13.328125 127.453125 L 13.3125 127.460938 L 13.3125 128.804688 L 12.710938 128.804688 L 12.710938 127.460938 L 12.695312 127.453125 L 10.597656 127.453125 L 10.597656 126.960938 C 11.265625 125.851562 11.933594 124.730469 12.597656 123.621094 Z M 13.3125 123.621094 Z M 12.726562 123.921875 C 12.566406 124.746094 12.058594 125.453125 11.679688 126.175781 C 11.527344 126.4375 11.328125 126.722656 11.21875 126.976562 L 12.742188 126.976562 L 12.75 126.960938 L 12.75 123.921875 L 12.742188 123.90625 Z M 12.726562 123.921875 Z M 12.726562 123.921875 "/>
<path style=" stroke:none;fill-rule:nonzero;fill:rgb(0%,0%,0%);fill-opacity:1;" d="M 6.328125 83.722656 C 7.082031 83.777344 7.582031 84.46875 7.71875 85.167969 C 7.789062 85.484375 7.804688 85.785156 7.835938 86.101562 L 7.835938 86.914062 C 7.796875 87.738281 7.597656 88.824219 6.703125 89.160156 C 5.925781 89.46875 5.011719 88.984375 4.78125 88.191406 C 4.605469 87.769531 4.589844 87.339844 4.550781 86.914062 L 4.550781 86.101562 C 4.589844 85.277344 4.765625 84.183594 5.65625 83.816406 L 5.695312 83.800781 L 5.726562 83.792969 L 5.765625 83.777344 L 5.882812 83.746094 L 5.957031 83.730469 L 6.042969 83.730469 L 6.058594 83.722656 Z M 6.328125 83.722656 Z M 6.082031 84.207031 C 5.417969 84.285156 5.21875 85.085938 5.171875 85.628906 L 5.171875 85.839844 L 5.15625 85.855469 L 5.15625 86.960938 C 5.203125 87.53125 5.242188 88.269531 5.765625 88.652344 C 6.25 88.984375 6.894531 88.613281 7.027344 88.09375 C 7.171875 87.714844 7.203125 87.339844 7.234375 86.960938 L 7.234375 85.855469 C 7.1875 85.277344 7.105469 84.46875 6.441406 84.238281 L 6.382812 84.222656 L 6.367188 84.207031 L 6.296875 84.207031 L 6.28125 84.191406 L 6.097656 84.191406 Z M 6.082031 84.207031 Z M 6.082031 84.207031 "/>
<path style=" stroke:none;fill-rule:nonzero;fill:rgb(0%,0%,0%);fill-opacity:1;" d="M 9.605469 88.4375 L 9.605469 89.070312 L 8.964844 89.070312 L 8.964844 88.4375 Z M 9.605469 88.4375 Z M 9.605469 88.4375 "/>
<path style=" stroke:none;fill-rule:nonzero;fill:rgb(0%,0%,0%);fill-opacity:1;" d="M 13.011719 83.722656 C 13.21875 83.753906 13.457031 83.777344 13.65625 83.875 L 13.65625 84.332031 C 13.105469 84.09375 12.394531 84.0625 11.964844 84.546875 C 11.582031 84.953125 11.410156 85.554688 11.394531 86.085938 C 11.851562 85.476562 12.894531 85.136719 13.457031 85.769531 C 14.019531 86.421875 14.117188 87.359375 13.863281 88.152344 C 13.582031 88.785156 12.941406 89.367188 12.226562 89.230469 C 11.257812 89.152344 10.820312 88.070312 10.773438 87.246094 C 10.589844 86.078125 10.867188 84.609375 11.980469 83.945312 L 11.996094 83.9375 L 12.164062 83.847656 L 12.210938 83.832031 L 12.234375 83.816406 L 12.480469 83.746094 L 12.550781 83.730469 L 12.640625 83.730469 L 12.65625 83.722656 Z M 13.011719 83.722656 Z M 12.234375 85.929688 C 11.542969 86.046875 11.320312 86.882812 11.410156 87.445312 C 11.449219 87.976562 11.65625 88.683594 12.265625 88.792969 C 12.917969 88.882812 13.335938 88.183594 13.351562 87.621094 C 13.386719 87.046875 13.351562 86.398438 12.851562 86.023438 L 12.742188 85.96875 L 12.65625 85.945312 L 12.582031 85.929688 L 12.566406 85.914062 L 12.25 85.914062 Z M 12.234375 85.929688 Z M 12.234375 85.929688 "/>
<path style=" stroke:none;fill-rule:nonzero;fill:rgb(0%,0%,0%);fill-opacity:1;" d="M 6.328125 43.992188 C 7.082031 44.046875 7.582031 44.738281 7.71875 45.433594 C 7.789062 45.753906 7.804688 46.054688 7.835938 46.371094 L 7.835938 47.179688 C 7.796875 48.007812 7.597656 49.09375 6.703125 49.425781 C 5.925781 49.738281 5.011719 49.253906 4.78125 48.460938 C 4.605469 48.039062 4.589844 47.609375 4.550781 47.179688 L 4.550781 46.371094 C 4.589844 45.546875 4.765625 44.449219 5.65625 44.085938 L 5.695312 44.070312 L 5.726562 44.0625 L 5.765625 44.046875 L 5.882812 44.015625 L 5.957031 44 L 6.042969 44 L 6.058594 43.992188 Z M 6.328125 43.992188 Z M 6.082031 44.476562 C 5.417969 44.554688 5.21875 45.355469 5.171875 45.894531 L 5.171875 46.109375 L 5.15625 46.125 L 5.15625 47.230469 C 5.203125 47.800781 5.242188 48.539062 5.765625 48.917969 C 6.25 49.253906 6.894531 48.878906 7.027344 48.363281 C 7.171875 47.984375 7.203125 47.609375 7.234375 47.230469 L 7.234375 46.125 C 7.1875 45.546875 7.105469 44.738281 6.441406 44.507812 L 6.382812 44.492188 L 6.367188 44.476562 L 6.296875 44.476562 L 6.28125 44.457031 L 6.097656 44.457031 Z M 6.082031 44.476562 Z M 6.082031 44.476562 "/>
<path style=" stroke:none;fill-rule:nonzero;fill:rgb(0%,0%,0%);fill-opacity:1;" d="M 9.605469 48.707031 L 9.605469 49.339844 L 8.964844 49.339844 L 8.964844 48.707031 Z M 9.605469 48.707031 Z M 9.605469 48.707031 "/>
<path style=" stroke:none;fill-rule:nonzero;fill:rgb(0%,0%,0%);fill-opacity:1;" d="M 12.511719 43.992188 C 13.351562 44.023438 14.148438 44.925781 13.8125 45.769531 C 13.671875 46.15625 13.273438 46.394531 12.949219 46.5625 C 13.757812 46.800781 14.25 47.746094 13.886719 48.523438 C 13.503906 49.53125 12.058594 49.847656 11.265625 49.117188 C 10.542969 48.546875 10.519531 47.308594 11.320312 46.800781 C 11.441406 46.671875 11.664062 46.632812 11.765625 46.539062 C 11.074219 46.339844 10.605469 45.539062 10.933594 44.863281 C 11.195312 44.261719 11.871094 43.925781 12.511719 43.992188 Z M 12.511719 43.992188 Z M 12.210938 44.441406 C 11.625 44.457031 11.210938 45.125 11.410156 45.648438 C 11.640625 46.554688 13.15625 46.523438 13.328125 45.59375 C 13.488281 45.078125 13.074219 44.457031 12.511719 44.441406 L 12.496094 44.433594 L 12.226562 44.433594 Z M 12.210938 44.441406 Z M 12.226562 46.800781 C 11.535156 46.847656 11.195312 47.671875 11.378906 48.261719 C 11.496094 49.09375 12.6875 49.339844 13.15625 48.671875 C 13.605469 48.0625 13.386719 46.96875 12.566406 46.800781 L 12.496094 46.800781 L 12.480469 46.785156 L 12.234375 46.785156 Z M 12.226562 46.800781 Z M 12.226562 46.800781 "/>
<path style=" stroke:none;fill-rule:nonzero;fill:rgb(0%,0%,0%);fill-opacity:1;" d="M 6.574219 4.257812 L 6.574219 9.15625 L 6.582031 9.171875 L 7.558594 9.171875 L 7.558594 9.609375 L 4.980469 9.609375 L 4.980469 9.171875 L 5.957031 9.171875 L 5.972656 9.15625 L 5.972656 5.042969 C 5.636719 5.15625 5.289062 5.226562 4.941406 5.21875 L 4.941406 4.773438 C 5.464844 4.78125 6.035156 4.640625 6.433594 4.257812 Z M 6.574219 4.257812 Z M 6.574219 4.257812 "/>
<path style=" stroke:none;fill-rule:nonzero;fill:rgb(0%,0%,0%);fill-opacity:1;" d="M 9.605469 8.972656 L 9.605469 9.609375 L 8.964844 9.609375 L 8.964844 8.972656 Z M 9.605469 8.972656 Z M 9.605469 8.972656 "/>
<path style=" stroke:none;fill-rule:nonzero;fill:rgb(0%,0%,0%);fill-opacity:1;" d="M 12.496094 4.257812 C 13.25 4.3125 13.75 5.003906 13.886719 5.703125 C 13.957031 6.019531 13.972656 6.324219 14.003906 6.640625 L 14.003906 7.449219 C 13.964844 8.273438 13.765625 9.363281 12.871094 9.695312 C 12.089844 10.003906 11.179688 9.519531 10.949219 8.726562 C 10.773438 8.304688 10.757812 7.878906 10.71875 7.449219 L 10.71875 6.640625 C 10.757812 5.8125 10.933594 4.71875 11.820312 4.355469 L 11.859375 4.339844 L 11.894531 4.332031 L 11.933594 4.3125 L 12.050781 4.28125 L 12.125 4.265625 L 12.210938 4.265625 L 12.226562 4.257812 Z M 12.496094 4.257812 Z M 12.25 4.742188 C 11.582031 4.820312 11.386719 5.625 11.335938 6.164062 L 11.335938 6.378906 L 11.320312 6.394531 L 11.320312 7.496094 C 11.367188 8.070312 11.410156 8.804688 11.933594 9.1875 C 12.417969 9.519531 13.058594 9.148438 13.195312 8.632812 C 13.335938 8.25 13.371094 7.878906 13.402344 7.496094 L 13.402344 6.394531 C 13.351562 5.8125 13.273438 5.003906 12.605469 4.773438 L 12.550781 4.757812 L 12.535156 4.742188 L 12.464844 4.742188 L 12.449219 4.726562 L 12.265625 4.726562 Z M 12.25 4.742188 Z M 12.25 4.742188 "/>
<path style="fill:none;stroke-width:0.02;stroke-linecap:butt;stroke-linejoin:miter;stroke:rgb(0%,0%,0%);stroke-opacity:1;stroke-miterlimit:10;" d="M 11.701198 1.780044 L 11.596191 1.780044 " transform="matrix(28.346457,0,0,-28.346457,1,256.11811)"/>
<path style="fill:none;stroke-width:0.02;stroke-linecap:butt;stroke-linejoin:miter;stroke:rgb(0%,0%,0%);stroke-opacity:1;stroke-miterlimit:10;" d="M 11.701198 3.181647 L 11.596191 3.181647 " transform="matrix(28.346457,0,0,-28.346457,1,256.11811)"/>
<path style="fill:none;stroke-width:0.02;stroke-linecap:butt;stroke-linejoin:miter;stroke:rgb(0%,0%,0%);stroke-opacity:1;stroke-miterlimit:10;" d="M 11.701198 4.583388 L 11.596191 4.583388 " transform="matrix(28.346457,0,0,-28.346457,1,256.11811)"/>
<path style="fill:none;stroke-width:0.02;stroke-linecap:butt;stroke-linejoin:miter;stroke:rgb(0%,0%,0%);stroke-opacity:1;stroke-miterlimit:10;" d="M 11.701198 5.98499 L 11.596191 5.98499 " transform="matrix(28.346457,0,0,-28.346457,1,256.11811)"/>
<path style="fill:none;stroke-width:0.02;stroke-linecap:butt;stroke-linejoin:miter;stroke:rgb(0%,0%,0%);stroke-opacity:1;stroke-miterlimit:10;" d="M 11.701198 7.386593 L 11.596191 7.386593 " transform="matrix(28.346457,0,0,-28.346457,1,256.11811)"/>
<path style="fill:none;stroke-width:0.02;stroke-linecap:round;stroke-linejoin:miter;stroke:rgb(0%,0%,0%);stroke-opacity:1;stroke-miterlimit:10;" d="M 11.701198 0.378442 L 11.701198 8.788333 " transform="matrix(28.346457,0,0,-28.346457,1,256.11811)"/>
<path style="fill:none;stroke-width:0.02;stroke-linecap:butt;stroke-linejoin:miter;stroke:rgb(0%,0%,0%);stroke-opacity:1;stroke-miterlimit:10;" d="M 2.225118 0.378442 L 2.225118 0.483448 " transform="matrix(28.346457,0,0,-28.346457,1,256.11811)"/>
<path style="fill:none;stroke-width:0.02;stroke-linecap:butt;stroke-linejoin:miter;stroke:rgb(0%,0%,0%);stroke-opacity:1;stroke-miterlimit:10;" d="M 3.804488 0.378442 L 3.804488 0.483448 " transform="matrix(28.346457,0,0,-28.346457,1,256.11811)"/>
<path style="fill:none;stroke-width:0.02;stroke-linecap:butt;stroke-linejoin:miter;stroke:rgb(0%,0%,0%);stroke-opacity:1;stroke-miterlimit:10;" d="M 5.383857 0.378442 L 5.383857 0.483448 " transform="matrix(28.346457,0,0,-28.346457,1,256.11811)"/>
<path style="fill:none;stroke-width:0.02;stroke-linecap:butt;stroke-linejoin:miter;stroke:rgb(0%,0%,0%);stroke-opacity:1;stroke-miterlimit:10;" d="M 6.963227 0.378442 L 6.963227 0.483448 " transform="matrix(28.346457,0,0,-28.346457,1,256.11811)"/>
<path style="fill:none;stroke-width:0.02;stroke-linecap:butt;stroke-linejoin:miter;stroke:rgb(0%,0%,0%);stroke-opacity:1;stroke-miterlimit:10;" d="M 8.542597 0.378442 L 8.542597 0.483448 " transform="matrix(28.346457,0,0,-28.346457,1,256.11811)"/>
<path style="fill:none;stroke-width:0.02;stroke-linecap:butt;stroke-linejoin:miter;stroke:rgb(0%,0%,0%);stroke-opacity:1;stroke-miterlimit:10;" d="M 10.121828 0.378442 L 10.121828 0.483448 " transform="matrix(28.346457,0,0,-28.346457,1,256.11811)"/>
<path style="fill:none;stroke-width:0.02;stroke-linecap:round;stroke-linejoin:miter;stroke:rgb(0%,0%,0%);stroke-opacity:1;stroke-miterlimit:10;" d="M 0.645749 0.378442 L 11.701198 0.378442 " transform="matrix(28.346457,0,0,-28.346457,1,256.11811)"/>
<path style=" stroke:none;fill-rule:nonzero;fill:rgb(0%,0%,0%);fill-opacity:1;" d="M 16.359375 250.210938 C 17.113281 250.265625 17.613281 250.957031 17.746094 251.652344 C 17.816406 251.972656 17.832031 252.273438 17.867188 252.589844 L 17.867188 253.398438 C 17.824219 254.226562 17.628906 255.3125 16.730469 255.644531 C 15.953125 255.957031 15.039062 255.472656 14.808594 254.679688 C 14.636719 254.257812 14.621094 253.828125 14.578125 253.398438 L 14.578125 252.589844 C 14.621094 251.765625 14.792969 250.667969 15.683594 250.304688 L 15.722656 250.289062 L 15.753906 250.28125 L 15.792969 250.265625 L 15.914062 250.234375 L 15.984375 250.21875 L 16.070312 250.21875 L 16.085938 250.210938 Z M 16.359375 250.210938 Z M 16.113281 250.695312 C 15.445312 250.773438 15.246094 251.574219 15.199219 252.113281 L 15.199219 252.328125 L 15.183594 252.34375 L 15.183594 253.449219 C 15.230469 254.019531 15.269531 254.757812 15.792969 255.136719 C 16.277344 255.472656 16.921875 255.097656 17.054688 254.582031 C 17.199219 254.203125 17.230469 253.828125 17.261719 253.449219 L 17.261719 252.34375 C 17.214844 251.765625 17.136719 250.957031 16.46875 250.726562 L 16.414062 250.710938 L 16.398438 250.695312 L 16.324219 250.695312 L 16.308594 250.679688 L 16.128906 250.679688 Z M 16.113281 250.695312 Z M 16.113281 250.695312 "/>
<path style=" stroke:none;fill-rule:nonzero;fill:rgb(0%,0%,0%);fill-opacity:1;" d="M 19.636719 254.925781 L 19.636719 255.558594 L 18.992188 255.558594 L 18.992188 254.925781 Z M 19.636719 254.925781 Z M 19.636719 254.925781 "/>
<path style=" stroke:none;fill-rule:nonzero;fill:rgb(0%,0%,0%);fill-opacity:1;" d="M 22.523438 250.210938 C 23.277344 250.265625 23.777344 250.957031 23.914062 251.652344 C 23.984375 251.972656 24 252.273438 24.03125 252.589844 L 24.03125 253.398438 C 23.992188 254.226562 23.792969 255.3125 22.898438 255.644531 C 22.121094 255.957031 21.207031 255.472656 20.976562 254.679688 C 20.800781 254.257812 20.785156 253.828125 20.746094 253.398438 L 20.746094 252.589844 C 20.785156 251.765625 20.960938 250.667969 21.851562 250.304688 L 21.890625 250.289062 L 21.921875 250.28125 L 21.960938 250.265625 L 22.082031 250.234375 L 22.152344 250.21875 L 22.238281 250.21875 L 22.253906 250.210938 Z M 22.523438 250.210938 Z M 22.277344 250.695312 C 21.613281 250.773438 21.414062 251.574219 21.367188 252.113281 L 21.367188 252.328125 L 21.351562 252.34375 L 21.351562 253.449219 C 21.398438 254.019531 21.4375 254.757812 21.960938 255.136719 C 22.445312 255.472656 23.089844 255.097656 23.222656 254.582031 C 23.367188 254.203125 23.398438 253.828125 23.429688 253.449219 L 23.429688 252.34375 C 23.382812 251.765625 23.300781 250.957031 22.636719 250.726562 L 22.582031 250.710938 L 22.5625 250.695312 L 22.492188 250.695312 L 22.476562 250.679688 L 22.292969 250.679688 Z M 22.277344 250.695312 Z M 22.277344 250.695312 "/>
<path style=" stroke:none;fill-rule:nonzero;fill:rgb(0%,0%,0%);fill-opacity:1;" d="M 61.125 250.210938 C 61.878906 250.265625 62.378906 250.957031 62.515625 251.652344 C 62.585938 251.972656 62.601562 252.273438 62.632812 252.589844 L 62.632812 253.398438 C 62.59375 254.226562 62.394531 255.3125 61.5 255.644531 C 60.722656 255.957031 59.808594 255.472656 59.578125 254.679688 C 59.402344 254.257812 59.386719 253.828125 59.347656 253.398438 L 59.347656 252.589844 C 59.386719 251.765625 59.5625 250.667969 60.453125 250.304688 L 60.492188 250.289062 L 60.523438 250.28125 L 60.5625 250.265625 L 60.683594 250.234375 L 60.753906 250.21875 L 60.839844 250.21875 L 60.855469 250.210938 Z M 61.125 250.210938 Z M 60.878906 250.695312 C 60.214844 250.773438 60.015625 251.574219 59.96875 252.113281 L 59.96875 252.328125 L 59.953125 252.34375 L 59.953125 253.449219 C 60 254.019531 60.039062 254.757812 60.5625 255.136719 C 61.046875 255.472656 61.691406 255.097656 61.824219 254.582031 C 61.96875 254.203125 62 253.828125 62.03125 253.449219 L 62.03125 252.34375 C 61.984375 251.765625 61.902344 250.957031 61.238281 250.726562 L 61.183594 250.710938 L 61.167969 250.695312 L 61.09375 250.695312 L 61.078125 250.679688 L 60.894531 250.679688 Z M 60.878906 250.695312 Z M 60.878906 250.695312 "/>
<path style=" stroke:none;fill-rule:nonzero;fill:rgb(0%,0%,0%);fill-opacity:1;" d="M 64.40625 254.925781 L 64.40625 255.558594 L 63.761719 255.558594 L 63.761719 254.925781 Z M 64.40625 254.925781 Z M 64.40625 254.925781 "/>
<path style=" stroke:none;fill-rule:nonzero;fill:rgb(0%,0%,0%);fill-opacity:1;" d="M 68.46875 250.375 L 68.46875 250.867188 L 66.40625 250.867188 L 66.386719 250.875 L 66.386719 252.503906 C 66.578125 252.375 66.847656 252.210938 67.101562 252.203125 C 68 252.105469 68.691406 252.988281 68.730469 253.804688 C 68.855469 254.84375 67.878906 255.875 66.832031 255.71875 C 66.308594 255.703125 65.800781 255.390625 65.5 254.964844 C 65.585938 254.84375 65.660156 254.636719 65.761719 254.566406 C 66.132812 255.296875 67.339844 255.589844 67.824219 254.820312 C 68.136719 254.242188 68.125 253.503906 67.769531 252.949219 C 67.355469 252.417969 66.539062 252.742188 66.347656 253.304688 L 65.832031 253.304688 L 65.832031 250.375 Z M 68.46875 250.375 Z M 68.46875 250.375 "/>
<path style=" stroke:none;fill-rule:nonzero;fill:rgb(0%,0%,0%);fill-opacity:1;" d="M 106.140625 250.210938 L 106.140625 255.105469 L 106.148438 255.121094 L 107.125 255.121094 L 107.125 255.558594 L 104.546875 255.558594 L 104.546875 255.121094 L 105.523438 255.121094 L 105.539062 255.105469 L 105.539062 250.996094 C 105.203125 251.105469 104.855469 251.179688 104.507812 251.171875 L 104.507812 250.726562 C 105.03125 250.734375 105.601562 250.589844 106 250.210938 Z M 106.140625 250.210938 Z M 106.140625 250.210938 "/>
<path style=" stroke:none;fill-rule:nonzero;fill:rgb(0%,0%,0%);fill-opacity:1;" d="M 109.171875 254.925781 L 109.171875 255.558594 L 108.53125 255.558594 L 108.53125 254.925781 Z M 109.171875 254.925781 Z M 109.171875 254.925781 "/>
<path style=" stroke:none;fill-rule:nonzero;fill:rgb(0%,0%,0%);fill-opacity:1;" d="M 112.0625 250.210938 C 112.816406 250.265625 113.316406 250.957031 113.453125 251.652344 C 113.523438 251.972656 113.539062 252.273438 113.570312 252.589844 L 113.570312 253.398438 C 113.53125 254.226562 113.332031 255.3125 112.433594 255.644531 C 111.65625 255.957031 110.746094 255.472656 110.515625 254.679688 C 110.339844 254.257812 110.324219 253.828125 110.285156 253.398438 L 110.285156 252.589844 C 110.324219 251.765625 110.5 250.667969 111.386719 250.304688 L 111.425781 250.289062 L 111.460938 250.28125 L 111.5 250.265625 L 111.617188 250.234375 L 111.6875 250.21875 L 111.777344 250.21875 L 111.792969 250.210938 Z M 112.0625 250.210938 Z M 111.816406 250.695312 C 111.148438 250.773438 110.949219 251.574219 110.902344 252.113281 L 110.902344 252.328125 L 110.886719 252.34375 L 110.886719 253.449219 C 110.933594 254.019531 110.976562 254.757812 111.5 255.136719 C 111.984375 255.472656 112.625 255.097656 112.761719 254.582031 C 112.902344 254.203125 112.933594 253.828125 112.96875 253.449219 L 112.96875 252.34375 C 112.917969 251.765625 112.839844 250.957031 112.171875 250.726562 L 112.117188 250.710938 L 112.101562 250.695312 L 112.03125 250.695312 L 112.015625 250.679688 L 111.832031 250.679688 Z M 111.816406 250.695312 Z M 111.816406 250.695312 "/>
<path style=" stroke:none;fill-rule:nonzero;fill:rgb(0%,0%,0%);fill-opacity:1;" d="M 150.910156 250.210938 L 150.910156 255.105469 L 150.917969 255.121094 L 151.894531 255.121094 L 151.894531 255.558594 L 149.316406 255.558594 L 149.316406 255.121094 L 150.292969 255.121094 L 150.308594 255.105469 L 150.308594 250.996094 C 149.972656 251.105469 149.625 251.179688 149.273438 251.171875 L 149.273438 250.726562 C 149.800781 250.734375 150.371094 250.589844 150.765625 250.210938 Z M 150.910156 250.210938 Z M 150.910156 250.210938 "/>
<path style=" stroke:none;fill-rule:nonzero;fill:rgb(0%,0%,0%);fill-opacity:1;" d="M 153.941406 254.925781 L 153.941406 255.558594 L 153.300781 255.558594 L 153.300781 254.925781 Z M 153.941406 254.925781 Z M 153.941406 254.925781 "/>
<path style=" stroke:none;fill-rule:nonzero;fill:rgb(0%,0%,0%);fill-opacity:1;" d="M 158.003906 250.375 L 158.003906 250.867188 L 155.941406 250.867188 L 155.925781 250.875 L 155.925781 252.503906 C 156.117188 252.375 156.386719 252.210938 156.640625 252.203125 C 157.539062 252.105469 158.226562 252.988281 158.269531 253.804688 C 158.394531 254.84375 157.417969 255.875 156.371094 255.71875 C 155.847656 255.703125 155.339844 255.390625 155.039062 254.964844 C 155.125 254.84375 155.195312 254.636719 155.300781 254.566406 C 155.671875 255.296875 156.878906 255.589844 157.363281 254.820312 C 157.671875 254.242188 157.664062 253.503906 157.308594 252.949219 C 156.894531 252.417969 156.078125 252.742188 155.886719 253.304688 L 155.371094 253.304688 L 155.371094 250.375 Z M 158.003906 250.375 Z M 158.003906 250.375 "/>
<path style=" stroke:none;fill-rule:nonzero;fill:rgb(0%,0%,0%);fill-opacity:1;" d="M 195.34375 250.210938 C 196.265625 250.234375 196.996094 251.179688 196.855469 252.066406 C 196.757812 252.957031 195.925781 253.464844 195.328125 254.019531 L 195.074219 254.28125 L 195.042969 254.296875 L 194.726562 254.605469 L 194.703125 254.621094 L 194.386719 254.941406 L 194.355469 254.957031 L 194.28125 255.027344 L 194.296875 255.035156 L 196.871094 255.035156 L 196.871094 255.558594 L 193.726562 255.558594 L 193.726562 255.082031 L 195.003906 253.804688 C 195.617188 253.273438 196.328125 252.582031 196.21875 251.710938 C 196.15625 251.203125 195.726562 250.734375 195.203125 250.695312 C 194.671875 250.613281 194.203125 251.035156 194.082031 251.542969 L 194.066406 251.566406 L 194.050781 251.621094 L 194.027344 251.710938 L 193.980469 251.882812 L 193.972656 251.925781 C 193.863281 251.789062 193.742188 251.644531 193.65625 251.496094 C 193.8125 250.84375 194.335938 250.234375 195.027344 250.210938 Z M 195.34375 250.210938 Z M 195.34375 250.210938 "/>
<path style=" stroke:none;fill-rule:nonzero;fill:rgb(0%,0%,0%);fill-opacity:1;" d="M 198.710938 254.925781 L 198.710938 255.558594 L 198.066406 255.558594 L 198.066406 254.925781 Z M 198.710938 254.925781 Z M 198.710938 254.925781 "/>
<path style=" stroke:none;fill-rule:nonzero;fill:rgb(0%,0%,0%);fill-opacity:1;" d="M 201.601562 250.210938 C 202.355469 250.265625 202.855469 250.957031 202.988281 251.652344 C 203.058594 251.972656 203.078125 252.273438 203.109375 252.589844 L 203.109375 253.398438 C 203.070312 254.226562 202.871094 255.3125 201.972656 255.644531 C 201.195312 255.957031 200.28125 255.472656 200.050781 254.679688 C 199.878906 254.257812 199.863281 253.828125 199.820312 253.398438 L 199.820312 252.589844 C 199.863281 251.765625 200.035156 250.667969 200.925781 250.304688 L 200.964844 250.289062 L 200.996094 250.28125 L 201.035156 250.265625 L 201.15625 250.234375 L 201.226562 250.21875 L 201.3125 250.21875 L 201.332031 250.210938 Z M 201.601562 250.210938 Z M 201.355469 250.695312 C 200.6875 250.773438 200.488281 251.574219 200.441406 252.113281 L 200.441406 252.328125 L 200.425781 252.34375 L 200.425781 253.449219 C 200.472656 254.019531 200.511719 254.757812 201.035156 255.136719 C 201.519531 255.472656 202.164062 255.097656 202.296875 254.582031 C 202.441406 254.203125 202.472656 253.828125 202.503906 253.449219 L 202.503906 252.34375 C 202.457031 251.765625 202.378906 250.957031 201.710938 250.726562 L 201.65625 250.710938 L 201.640625 250.695312 L 201.566406 250.695312 L 201.550781 250.679688 L 201.371094 250.679688 Z M 201.355469 250.695312 Z M 201.355469 250.695312 "/>
<path style=" stroke:none;fill-rule:nonzero;fill:rgb(0%,0%,0%);fill-opacity:1;" d="M 240.113281 250.210938 C 241.035156 250.234375 241.765625 251.179688 241.621094 252.066406 C 241.527344 252.957031 240.695312 253.464844 240.097656 254.019531 L 239.84375 254.28125 L 239.8125 254.296875 L 239.496094 254.605469 L 239.472656 254.621094 L 239.152344 254.941406 L 239.121094 254.957031 L 239.050781 255.027344 L 239.066406 255.035156 L 241.636719 255.035156 L 241.636719 255.558594 L 238.496094 255.558594 L 238.496094 255.082031 L 239.773438 253.804688 C 240.382812 253.273438 241.097656 252.582031 240.988281 251.710938 C 240.925781 251.203125 240.496094 250.734375 239.972656 250.695312 C 239.441406 250.613281 238.972656 251.035156 238.851562 251.542969 L 238.835938 251.566406 L 238.820312 251.621094 L 238.796875 251.710938 L 238.75 251.882812 L 238.742188 251.925781 C 238.628906 251.789062 238.511719 251.644531 238.425781 251.496094 C 238.582031 250.84375 239.105469 250.234375 239.796875 250.210938 Z M 240.113281 250.210938 Z M 240.113281 250.210938 "/>
<path style=" stroke:none;fill-rule:nonzero;fill:rgb(0%,0%,0%);fill-opacity:1;" d="M 243.480469 254.925781 L 243.480469 255.558594 L 242.835938 255.558594 L 242.835938 254.925781 Z M 243.480469 254.925781 Z M 243.480469 254.925781 "/>
<path style=" stroke:none;fill-rule:nonzero;fill:rgb(0%,0%,0%);fill-opacity:1;" d="M 247.542969 250.375 L 247.542969 250.867188 L 245.480469 250.867188 L 245.464844 250.875 L 245.464844 252.503906 C 245.65625 252.375 245.925781 252.210938 246.179688 252.203125 C 247.074219 252.105469 247.765625 252.988281 247.804688 253.804688 C 247.933594 254.84375 246.957031 255.875 245.910156 255.71875 C 245.382812 255.703125 244.875 255.390625 244.574219 254.964844 C 244.664062 254.84375 244.734375 254.636719 244.835938 254.566406 C 245.210938 255.296875 246.417969 255.589844 246.902344 254.820312 C 247.210938 254.242188 247.203125 253.503906 246.84375 252.949219 C 246.433594 252.417969 245.613281 252.742188 245.425781 253.304688 L 244.910156 253.304688 L 244.910156 250.375 Z M 247.542969 250.375 Z M 247.542969 250.375 "/>
<path style=" stroke:none;fill-rule:nonzero;fill:rgb(0%,0%,0%);fill-opacity:1;" d="M 284.988281 250.210938 C 285.683594 250.242188 286.414062 250.882812 286.25 251.621094 C 286.167969 252.121094 285.820312 252.535156 285.382812 252.757812 C 286.089844 252.980469 286.636719 253.726562 286.445312 254.464844 C 286.257812 255.425781 285.152344 255.957031 284.265625 255.664062 C 283.835938 255.535156 283.398438 255.265625 283.191406 254.867188 C 283.242188 254.75 283.222656 254.542969 283.28125 254.464844 C 283.699219 255.082031 284.589844 255.503906 285.289062 255.15625 C 286.050781 254.671875 285.929688 253.257812 285.011719 253.019531 L 284.9375 253.019531 L 284.921875 253.003906 L 284.183594 253.003906 L 284.183594 252.527344 C 284.636719 252.519531 285.199219 252.464844 285.453125 251.996094 C 285.726562 251.589844 285.699219 250.925781 285.183594 250.726562 C 284.574219 250.488281 283.820312 250.875 283.589844 251.496094 C 283.496094 251.359375 283.398438 251.226562 283.304688 251.082031 C 283.628906 250.496094 284.320312 250.144531 284.988281 250.210938 Z M 284.988281 250.210938 Z M 284.988281 250.210938 "/>
<path style=" stroke:none;fill-rule:nonzero;fill:rgb(0%,0%,0%);fill-opacity:1;" d="M 288.25 254.925781 L 288.25 255.558594 L 287.605469 255.558594 L 287.605469 254.925781 Z M 288.25 254.925781 Z M 288.25 254.925781 "/>
<path style=" stroke:none;fill-rule:nonzero;fill:rgb(0%,0%,0%);fill-opacity:1;" d="M 291.136719 250.210938 C 291.890625 250.265625 292.390625 250.957031 292.527344 251.652344 C 292.597656 251.972656 292.613281 252.273438 292.644531 252.589844 L 292.644531 253.398438 C 292.605469 254.226562 292.40625 255.3125 291.511719 255.644531 C 290.734375 255.957031 289.820312 255.472656 289.589844 254.679688 C 289.414062 254.257812 289.398438 253.828125 289.359375 253.398438 L 289.359375 252.589844 C 289.398438 251.765625 289.574219 250.667969 290.464844 250.304688 L 290.503906 250.289062 L 290.535156 250.28125 L 290.574219 250.265625 L 290.691406 250.234375 L 290.765625 250.21875 L 290.851562 250.21875 L 290.867188 250.210938 Z M 291.136719 250.210938 Z M 290.890625 250.695312 C 290.226562 250.773438 290.027344 251.574219 289.980469 252.113281 L 289.980469 252.328125 L 289.964844 252.34375 L 289.964844 253.449219 C 290.011719 254.019531 290.050781 254.757812 290.574219 255.136719 C 291.058594 255.472656 291.703125 255.097656 291.835938 254.582031 C 291.980469 254.203125 292.011719 253.828125 292.042969 253.449219 L 292.042969 252.34375 C 291.996094 251.765625 291.914062 250.957031 291.25 250.726562 L 291.191406 250.710938 L 291.175781 250.695312 L 291.105469 250.695312 L 291.089844 250.679688 L 290.90625 250.679688 Z M 290.890625 250.695312 Z M 290.890625 250.695312 "/>
<path style=" stroke:none;fill-rule:nonzero;fill:rgb(0%,0%,0%);fill-opacity:1;" d="M 329.753906 250.210938 C 330.453125 250.242188 331.183594 250.882812 331.015625 251.621094 C 330.9375 252.121094 330.589844 252.535156 330.152344 252.757812 C 330.859375 252.980469 331.40625 253.726562 331.214844 254.464844 C 331.023438 255.425781 329.921875 255.957031 329.03125 255.664062 C 328.605469 255.535156 328.167969 255.265625 327.960938 254.867188 C 328.007812 254.75 327.992188 254.542969 328.050781 254.464844 C 328.46875 255.082031 329.359375 255.503906 330.058594 255.15625 C 330.820312 254.671875 330.699219 253.257812 329.777344 253.019531 L 329.707031 253.019531 L 329.691406 253.003906 L 328.953125 253.003906 L 328.953125 252.527344 C 329.40625 252.519531 329.96875 252.464844 330.222656 251.996094 C 330.492188 251.589844 330.46875 250.925781 329.953125 250.726562 C 329.34375 250.488281 328.589844 250.875 328.359375 251.496094 C 328.261719 251.359375 328.167969 251.226562 328.074219 251.082031 C 328.398438 250.496094 329.089844 250.144531 329.753906 250.210938 Z M 329.753906 250.210938 Z M 329.753906 250.210938 "/>
<path style=" stroke:none;fill-rule:nonzero;fill:rgb(0%,0%,0%);fill-opacity:1;" d="M 333.015625 254.925781 L 333.015625 255.558594 L 332.375 255.558594 L 332.375 254.925781 Z M 333.015625 254.925781 Z M 333.015625 254.925781 "/>
<path style=" stroke:none;fill-rule:nonzero;fill:rgb(0%,0%,0%);fill-opacity:1;" d="M 337.082031 250.375 L 337.082031 250.867188 L 335.019531 250.867188 L 335 250.875 L 335 252.503906 C 335.191406 252.375 335.460938 252.210938 335.714844 252.203125 C 336.613281 252.105469 337.304688 252.988281 337.34375 253.804688 C 337.46875 254.84375 336.492188 255.875 335.445312 255.71875 C 334.921875 255.703125 334.414062 255.390625 334.113281 254.964844 C 334.199219 254.84375 334.273438 254.636719 334.375 254.566406 C 334.746094 255.296875 335.953125 255.589844 336.4375 254.820312 C 336.746094 254.242188 336.738281 253.503906 336.382812 252.949219 C 335.96875 252.417969 335.152344 252.742188 334.960938 253.304688 L 334.445312 253.304688 L 334.445312 250.375 Z M 337.082031 250.375 Z M 337.082031 250.375 "/>
<path style="fill:none;stroke-width:0.02;stroke-linecap:butt;stroke-linejoin:miter;stroke:rgb(0%,0%,0%);stroke-opacity:1;stroke-miterlimit:10;" d="M 2.225118 8.788333 L 2.225118 8.683327 " transform="matrix(28.346457,0,0,-28.346457,1,256.11811)"/>
<path style="fill:none;stroke-width:0.02;stroke-linecap:butt;stroke-linejoin:miter;stroke:rgb(0%,0%,0%);stroke-opacity:1;stroke-miterlimit:10;" d="M 3.804488 8.788333 L 3.804488 8.683327 " transform="matrix(28.346457,0,0,-28.346457,1,256.11811)"/>
<path style="fill:none;stroke-width:0.02;stroke-linecap:butt;stroke-linejoin:miter;stroke:rgb(0%,0%,0%);stroke-opacity:1;stroke-miterlimit:10;" d="M 5.383857 8.788333 L 5.383857 8.683327 " transform="matrix(28.346457,0,0,-28.346457,1,256.11811)"/>
<path style="fill:none;stroke-width:0.02;stroke-linecap:butt;stroke-linejoin:miter;stroke:rgb(0%,0%,0%);stroke-opacity:1;stroke-miterlimit:10;" d="M 6.963227 8.788333 L 6.963227 8.683327 " transform="matrix(28.346457,0,0,-28.346457,1,256.11811)"/>
<path style="fill:none;stroke-width:0.02;stroke-linecap:butt;stroke-linejoin:miter;stroke:rgb(0%,0%,0%);stroke-opacity:1;stroke-miterlimit:10;" d="M 8.542597 8.788333 L 8.542597 8.683327 " transform="matrix(28.346457,0,0,-28.346457,1,256.11811)"/>
<path style="fill:none;stroke-width:0.02;stroke-linecap:butt;stroke-linejoin:miter;stroke:rgb(0%,0%,0%);stroke-opacity:1;stroke-miterlimit:10;" d="M 10.121828 8.788333 L 10.121828 8.683327 " transform="matrix(28.346457,0,0,-28.346457,1,256.11811)"/>
<path style="fill:none;stroke-width:0.02;stroke-linecap:round;stroke-linejoin:miter;stroke:rgb(0%,0%,0%);stroke-opacity:1;stroke-miterlimit:10;" d="M 0.645749 8.788333 L 11.701198 8.788333 " transform="matrix(28.346457,0,0,-28.346457,1,256.11811)"/>
<path style="fill:none;stroke-width:0.05;stroke-linecap:butt;stroke-linejoin:miter;stroke:rgb(33%,47%,64%);stroke-opacity:1;stroke-miterlimit:10;" d="M 0.645749 7.677221 L 0.66573 7.700648 L 0.685574 7.723248 L 0.705418 7.744883 L 0.725399 7.765691 L 0.745243 7.785535 L 0.765087 7.804552 L 0.785068 7.822466 L 0.804912 7.839554 L 0.824756 7.855677 L 0.8446 7.870836 L 0.864581 7.885029 L 0.884425 7.898121 L 0.904269 7.910385 L 0.92425 7.921547 L 0.944094 7.931607 L 0.963938 7.940702 L 0.983919 7.948695 L 1.003763 7.955723 L 1.023607 7.961648 L 1.043588 7.966471 L 1.063432 7.97033 L 1.083276 7.972948 L 1.10312 7.974464 L 1.123101 7.975015 L 1.142945 7.974326 L 1.162789 7.972535 L 1.18277 7.969641 L 1.202614 7.965645 L 1.222458 7.960408 L 1.242439 7.954069 L 1.262283 7.946628 L 1.282127 7.937946 L 1.302108 7.928162 L 1.321952 7.917138 L 1.341796 7.905011 L 1.361777 7.891644 L 1.381621 7.877174 L 1.401465 7.861603 L 1.421309 7.844653 L 1.44129 7.8266 L 1.461134 7.807446 L 1.480978 7.787051 L 1.500959 7.765416 L 1.520803 7.742678 L 1.540647 7.718838 L 1.560628 7.69362 L 1.580472 7.667437 L 1.600316 7.639876 L 1.620297 7.611351 L 1.640141 7.581585 L 1.659985 7.550579 L 1.679829 7.518471 L 1.69981 7.48526 L 1.719654 7.450947 L 1.739498 7.415394 L 1.759479 7.378738 L 1.779323 7.34098 L 1.799167 7.302119 L 1.819148 7.262156 L 1.838992 7.221228 L 1.858836 7.17906 L 1.878817 7.135928 L 1.898661 7.091693 L 1.918505 7.046355 L 1.938349 7.000053 L 1.95833 6.952786 L 1.978174 6.904417 L 1.998018 6.855084 L 2.017999 6.804923 L 2.037843 6.75366 L 2.057687 6.701432 L 2.077668 6.648378 L 2.097512 6.594497 L 2.117356 6.539651 L 2.137337 6.483978 L 2.157181 6.42734 L 2.177025 6.370014 L 2.197006 6.311861 L 2.21685 6.253019 L 2.236694 6.19335 L 2.256538 6.132854 L 2.276519 6.071807 L 2.296363 6.010071 L 2.316207 5.947645 L 2.336188 5.884531 L 2.356032 5.820866 L 2.375876 5.756649 L 2.395857 5.691882 L 2.415701 5.626563 L 2.435545 5.560692 L 2.455526 5.494546 L 2.47537 5.427849 L 2.495214 5.360739 L 2.515058 5.293353 L 2.535039 5.225553 L 2.554883 5.157478 L 2.574727 5.08899 L 2.594708 5.020501 L 2.634396 4.882697 L 2.654377 4.81352 L 2.674221 4.744205 L 2.694065 4.675027 L 2.714046 4.605574 L 2.753734 4.466943 L 2.773715 4.397766 L 2.793559 4.328588 L 2.813403 4.259549 L 2.833247 4.190785 L 2.853228 4.122158 L 2.873072 4.053808 L 2.892916 3.985732 L 2.912897 3.918071 L 2.932741 3.850685 L 2.952585 3.783712 L 2.972566 3.717153 L 2.99241 3.651145 L 3.012254 3.58555 L 3.032235 3.520645 L 3.052079 3.456152 L 3.071923 3.392487 L 3.091766 3.329373 L 3.111748 3.266948 L 3.131592 3.205212 L 3.151436 3.144302 L 3.171417 3.08422 L 3.191261 3.025102 L 3.211105 2.966673 L 3.231086 2.909209 L 3.25093 2.852709 L 3.270774 2.797174 L 3.290755 2.742742 L 3.310599 2.689274 L 3.330443 2.636909 L 3.350286 2.585783 L 3.370268 2.535623 L 3.390112 2.486702 L 3.409956 2.439022 L 3.429937 2.392582 L 3.449781 2.347383 L 3.469625 2.303423 L 3.489606 2.260842 L 3.50945 2.219639 L 3.529294 2.179813 L 3.549275 2.141366 L 3.569119 2.104297 L 3.588963 2.068606 L 3.608944 2.034568 L 3.628788 2.001909 L 3.648632 1.970627 L 3.668475 1.940999 L 3.688457 1.912887 L 3.708301 1.886291 L 3.728145 1.861349 L 3.748126 1.837922 L 3.76797 1.816011 L 3.787814 1.795754 L 3.807795 1.777151 L 3.827639 1.760063 L 3.847483 1.744629 L 3.867464 1.730711 L 3.887308 1.718584 L 3.907152 1.707973 L 3.926995 1.699016 L 3.946977 1.691574 L 3.966821 1.685787 L 3.986664 1.681653 L 4.006646 1.679034 L 4.02649 1.67807 L 4.046334 1.678621 L 4.066315 1.680688 L 4.086159 1.684409 L 4.106003 1.689507 L 4.125984 1.69626 L 4.145828 1.70439 L 4.165672 1.714036 L 4.185515 1.725061 L 4.205497 1.737463 L 4.225341 1.751381 L 4.245184 1.76654 L 4.265166 1.783076 L 4.28501 1.800853 L 4.304854 1.81987 L 4.324835 1.840127 L 4.344679 1.861487 L 4.364523 1.884086 L 4.384504 1.907789 L 4.404348 1.932456 L 4.424192 1.958087 L 4.444173 1.984683 L 4.464017 2.012244 L 4.483861 2.040632 L 4.503704 2.069846 L 4.523686 2.099887 L 4.54353 2.13048 L 4.563373 2.161761 L 4.583355 2.193594 L 4.603199 2.226115 L 4.623043 2.258913 L 4.643024 2.292123 L 4.662868 2.325748 L 4.682712 2.359647 L 4.702693 2.393823 L 4.722537 2.427998 L 4.742381 2.462311 L 4.762224 2.496762 L 4.782206 2.531075 L 4.80205 2.565251 L 4.821893 2.599288 L 4.841875 2.63305 L 4.861719 2.666536 L 4.881562 2.699747 L 4.901544 2.732407 L 4.921388 2.764515 L 4.941232 2.79621 L 4.961213 2.827078 L 4.981057 2.857395 L 5.000901 2.886885 L 5.020744 2.915548 L 5.040726 2.943247 L 5.06057 2.970118 L 5.080413 2.995888 L 5.100395 3.020692 L 5.120239 3.044257 L 5.140082 3.066719 L 5.160064 3.087941 L 5.179908 3.107922 L 5.199752 3.126526 L 5.219733 3.143751 L 5.239577 3.159461 L 5.259421 3.173792 L 5.279402 3.186608 L 5.299246 3.197908 L 5.31909 3.207554 L 5.338933 3.215685 L 5.358915 3.222161 L 5.378759 3.226847 L 5.398602 3.230016 L 5.418584 3.231394 L 5.438428 3.231119 L 5.458271 3.229052 L 5.478253 3.225331 L 5.498097 3.219819 L 5.517941 3.212515 L 5.537922 3.203558 L 5.557766 3.192809 L 5.57761 3.180407 L 5.597453 3.166213 L 5.617435 3.150503 L 5.637279 3.133002 L 5.657122 3.113985 L 5.677104 3.093315 L 5.696948 3.070991 L 5.716791 3.047288 L 5.736773 3.02207 L 5.756617 2.995474 L 5.776461 2.9675 L 5.796442 2.938148 L 5.816286 2.907555 L 5.83613 2.87586 L 5.855973 2.843063 L 5.875955 2.809163 L 5.895799 2.774299 L 5.915642 2.73847 L 5.935624 2.701952 L 5.955468 2.664607 L 5.975311 2.626711 L 5.995293 2.588264 L 6.015137 2.549265 L 6.03498 2.509991 L 6.054962 2.470442 L 6.074806 2.430754 L 6.09465 2.390929 L 6.114631 2.351241 L 6.134475 2.311554 L 6.154319 2.27228 L 6.174162 2.233281 L 6.194144 2.194696 L 6.213988 2.156662 L 6.233831 2.119317 L 6.253813 2.082662 L 6.273657 2.046833 L 6.2935 2.012106 L 6.313482 1.978206 L 6.333326 1.945547 L 6.353169 1.914128 L 6.373151 1.884086 L 6.392995 1.855285 L 6.412839 1.828 L 6.432682 1.802369 L 6.452664 1.778253 L 6.472508 1.755791 L 6.492351 1.73512 L 6.512333 1.716241 L 6.532177 1.699154 L 6.55202 1.683857 L 6.572002 1.670628 L 6.591846 1.659191 L 6.611689 1.64982 L 6.631671 1.642378 L 6.651515 1.636866 L 6.671359 1.633283 L 6.691202 1.631768 L 6.711184 1.632043 L 6.731028 1.634386 L 6.750871 1.638382 L 6.770853 1.644308 L 6.790697 1.652025 L 6.81054 1.661395 L 6.830522 1.672282 L 6.850366 1.684822 L 6.870209 1.69874 L 6.890191 1.714036 L 6.910035 1.730573 L 6.929878 1.748212 L 6.94986 1.766953 L 6.969704 1.786521 L 6.989548 1.806916 L 7.009391 1.827862 L 7.029373 1.849222 L 7.049217 1.870857 L 7.06906 1.892768 L 7.089042 1.914679 L 7.108886 1.936452 L 7.128729 1.957811 L 7.148711 1.978758 L 7.168555 1.999015 L 7.188398 2.018583 L 7.20838 2.037049 L 7.228224 2.054412 L 7.248067 2.070397 L 7.267911 2.085004 L 7.287893 2.097958 L 7.307737 2.109258 L 7.32758 2.118628 L 7.347562 2.125932 L 7.367406 2.131031 L 7.387249 2.133925 L 7.407231 2.134614 L 7.427075 2.132684 L 7.446918 2.128275 L 7.4669 2.121247 L 7.486744 2.1116 L 7.506587 2.099336 L 7.526431 2.084315 L 7.546413 2.066539 L 7.566257 2.046144 L 7.5861 2.022993 L 7.606082 1.997361 L 7.625926 1.969111 L 7.645769 1.938381 L 7.665751 1.905308 L 7.685595 1.87003 L 7.705438 1.832548 L 7.72542 1.793274 L 7.745264 1.75207 L 7.765107 1.709351 L 7.785089 1.665254 L 7.804933 1.620054 L 7.824776 1.57389 L 7.84462 1.527174 L 7.864602 1.479908 L 7.884446 1.432641 L 7.904289 1.385512 L 7.924271 1.338797 L 7.944115 1.292908 L 7.963958 1.248122 L 7.98394 1.204576 L 8.003784 1.162821 L 8.023627 1.122996 L 8.043609 1.085513 L 8.063453 1.050649 L 8.083296 1.018678 L 8.10314 0.989877 L 8.123122 0.964384 L 8.142965 0.942611 L 8.162809 0.924834 L 8.182791 0.911191 L 8.202635 0.901683 L 8.222478 0.89686 L 8.24246 0.896584 L 8.262304 0.900994 L 8.282147 0.910227 L 8.302129 0.924283 L 8.321973 0.943162 L 8.341816 0.967002 L 8.361798 0.995527 L 8.381642 1.028738 L 8.401485 1.066634 L 8.421329 1.108802 L 8.441311 1.155104 L 8.461155 1.205403 L 8.480998 1.259422 L 8.50098 1.316748 L 8.520824 1.377106 L 8.540667 1.439945 L 8.560649 1.505126 L 8.580493 1.571961 L 8.600336 1.640311 L 8.620318 1.709351 L 8.660005 1.847982 L 8.679849 1.91647 L 8.699831 1.983856 L 8.719674 2.049451 L 8.739518 2.112841 L 8.7595 2.173474 L 8.779344 2.230801 L 8.799187 2.284406 L 8.819169 2.334016 L 8.839013 2.37894 L 8.858856 2.418903 L 8.878838 2.453492 L 8.898682 2.482568 L 8.918525 2.505719 L 8.938369 2.522945 L 8.958351 2.533831 L 8.978194 2.538655 L 8.998038 2.537001 L 9.01802 2.529146 L 9.037863 2.51509 L 9.057707 2.494971 L 9.077689 2.469201 L 9.097533 2.43792 L 9.117376 2.401402 L 9.137358 2.360199 L 9.157202 2.314586 L 9.177045 2.26539 L 9.197027 2.212748 L 9.216871 2.157627 L 9.236714 2.100301 L 9.256558 2.041596 L 9.27654 1.982203 L 9.296383 1.922671 L 9.316227 1.863829 L 9.336209 1.806089 L 9.356053 1.750417 L 9.375896 1.697087 L 9.395878 1.646788 L 9.415722 1.600211 L 9.435565 1.557767 L 9.455547 1.519733 L 9.475391 1.48666 L 9.495234 1.458686 L 9.515078 1.436224 L 9.53506 1.419136 L 9.554903 1.407699 L 9.574747 1.401773 L 9.594729 1.401222 L 9.614572 1.405907 L 9.634416 1.415553 L 9.654398 1.429609 L 9.674242 1.447799 L 9.694085 1.46971 L 9.714067 1.494515 L 9.733911 1.521938 L 9.753754 1.551015 L 9.773598 1.581331 L 9.79358 1.612199 L 9.813423 1.642792 L 9.833267 1.672695 L 9.853249 1.701083 L 9.873092 1.727403 L 9.892936 1.751243 L 9.912918 1.77219 L 9.932762 1.789829 L 9.952605 1.803747 L 9.972587 1.813944 L 9.992431 1.820421 L 10.012274 1.822901 L 10.032256 1.821799 L 10.0521 1.817252 L 10.071943 1.809535 L 10.091787 1.799337 L 10.111769 1.786935 L 10.131612 1.773154 L 10.151456 1.758409 L 10.171438 1.743664 L 10.191281 1.72947 L 10.211125 1.716655 L 10.231107 1.705768 L 10.250951 1.697776 L 10.270794 1.69309 L 10.290776 1.692263 L 10.31062 1.695709 L 10.330463 1.703701 L 10.350307 1.716517 L 10.370289 1.734018 L 10.390132 1.756204 L 10.409976 1.782663 L 10.429958 1.81298 L 10.449801 1.846328 L 10.469645 1.882019 L 10.489627 1.919089 L 10.50947 1.956433 L 10.529314 1.993089 L 10.549296 2.027678 L 10.56914 2.058822 " transform="matrix(28.346457,0,0,-28.346457,1,256.11811)"/>
</g>
</svg>
