<?xml version="1.0" encoding="utf-8" standalone="no"?>
<!DOCTYPE svg PUBLIC "-//W3C//DTD SVG 1.1//EN"
  "http://www.w3.org/Graphics/SVG/1.1/DTD/svg11.dtd">
<svg xmlns:xlink="http://www.w3.org/1999/xlink" width="483.703125pt" height="363.718125pt" viewBox="0 0 483.703125 363.718125" xmlns="http://www.w3.org/2000/svg" version="1.1">
 <metadata>
  <rdf:RDF xmlns:dc="http://purl.org/dc/elements/1.1/" xmlns:cc="http://creativecommons.org/ns#" xmlns:rdf="http://www.w3.org/1999/02/22-rdf-syntax-ns#">
   <cc:Work>
    <dc:type rdf:resource="http://purl.org/dc/dcmitype/StillImage"/>
    <dc:date>2022-02-13T20:21:10.521233</dc:date>
    <dc:format>image/svg+xml</dc:format>
    <dc:creator>
     <cc:Agent>
      <dc:title>Matplotlib v3.5.1, https://matplotlib.org/</dc:title>
     </cc:Agent>
    </dc:creator>
   </cc:Work>
  </rdf:RDF>
 </metadata>
 <defs>
  <style type="text/css">*{stroke-linejoin: round; stroke-linecap: butt}</style>
 </defs>
 <g id="figure_1">
  <g id="patch_1">
   <path d="M 0 363.718125 
L 483.703125 363.718125 
L 483.703125 0 
L 0 0 
z
" style="fill: #ffffff"/>
  </g>
  <g id="axes_1">
   <g id="patch_2">
    <path d="M 30.103125 339.84 
L 476.503125 339.84 
L 476.503125 7.2 
L 30.103125 7.2 
z
" style="fill: #ffffff"/>
   </g>
   <g id="matplotlib.axis_1">
    <g id="xtick_1">
     <g id="line2d_1">
      <defs>
       <path id="m7569b89e1d" d="M 0 0 
L 0 3.5 
" style="stroke: #000000; stroke-width: 0.8"/>
      </defs>
      <g>
       <use xlink:href="#m7569b89e1d" x="50.394034" y="339.84" style="stroke: #000000; stroke-width: 0.8"/>
      </g>
     </g>
     <g id="text_1">
      <!-- 0.0 -->
      <g transform="translate(42.442472 354.438438)scale(0.1 -0.1)">
       <defs>
        <path id="DejaVuSans-30" d="M 2034 4250 
Q 1547 4250 1301 3770 
Q 1056 3291 1056 2328 
Q 1056 1369 1301 889 
Q 1547 409 2034 409 
Q 2525 409 2770 889 
Q 3016 1369 3016 2328 
Q 3016 3291 2770 3770 
Q 2525 4250 2034 4250 
z
M 2034 4750 
Q 2819 4750 3233 4129 
Q 3647 3509 3647 2328 
Q 3647 1150 3233 529 
Q 2819 -91 2034 -91 
Q 1250 -91 836 529 
Q 422 1150 422 2328 
Q 422 3509 836 4129 
Q 1250 4750 2034 4750 
z
" transform="scale(0.015625)"/>
        <path id="DejaVuSans-2e" d="M 684 794 
L 1344 794 
L 1344 0 
L 684 0 
L 684 794 
z
" transform="scale(0.015625)"/>
       </defs>
       <use xlink:href="#DejaVuSans-30"/>
       <use xlink:href="#DejaVuSans-2e" x="63.623047"/>
       <use xlink:href="#DejaVuSans-30" x="95.410156"/>
      </g>
     </g>
    </g>
    <g id="xtick_2">
     <g id="line2d_2">
      <g>
       <use xlink:href="#m7569b89e1d" x="114.982004" y="339.84" style="stroke: #000000; stroke-width: 0.8"/>
      </g>
     </g>
     <g id="text_2">
      <!-- 0.5 -->
      <g transform="translate(107.030441 354.438438)scale(0.1 -0.1)">
       <defs>
        <path id="DejaVuSans-35" d="M 691 4666 
L 3169 4666 
L 3169 4134 
L 1269 4134 
L 1269 2991 
Q 1406 3038 1543 3061 
Q 1681 3084 1819 3084 
Q 2600 3084 3056 2656 
Q 3513 2228 3513 1497 
Q 3513 744 3044 326 
Q 2575 -91 1722 -91 
Q 1428 -91 1123 -41 
Q 819 9 494 109 
L 494 744 
Q 775 591 1075 516 
Q 1375 441 1709 441 
Q 2250 441 2565 725 
Q 2881 1009 2881 1497 
Q 2881 1984 2565 2268 
Q 2250 2553 1709 2553 
Q 1456 2553 1204 2497 
Q 953 2441 691 2322 
L 691 4666 
z
" transform="scale(0.015625)"/>
       </defs>
       <use xlink:href="#DejaVuSans-30"/>
       <use xlink:href="#DejaVuSans-2e" x="63.623047"/>
       <use xlink:href="#DejaVuSans-35" x="95.410156"/>
      </g>
     </g>
    </g>
    <g id="xtick_3">
     <g id="line2d_3">
      <g>
       <use xlink:href="#m7569b89e1d" x="179.569973" y="339.84" style="stroke: #000000; stroke-width: 0.8"/>
      </g>
     </g>
     <g id="text_3">
      <!-- 1.0 -->
      <g transform="translate(171.618411 354.438438)scale(0.1 -0.1)">
       <defs>
        <path id="DejaVuSans-31" d="M 794 531 
L 1825 531 
L 1825 4091 
L 703 3866 
L 703 4441 
L 1819 4666 
L 2450 4666 
L 2450 531 
L 3481 531 
L 3481 0 
L 794 0 
L 794 531 
z
" transform="scale(0.015625)"/>
       </defs>
       <use xlink:href="#DejaVuSans-31"/>
       <use xlink:href="#DejaVuSans-2e" x="63.623047"/>
       <use xlink:href="#DejaVuSans-30" x="95.410156"/>
      </g>
     </g>
    </g>
    <g id="xtick_4">
     <g id="line2d_4">
      <g>
       <use xlink:href="#m7569b89e1d" x="244.157943" y="339.84" style="stroke: #000000; stroke-width: 0.8"/>
      </g>
     </g>
     <g id="text_4">
      <!-- 1.5 -->
      <g transform="translate(236.20638 354.438438)scale(0.1 -0.1)">
       <use xlink:href="#DejaVuSans-31"/>
       <use xlink:href="#DejaVuSans-2e" x="63.623047"/>
       <use xlink:href="#DejaVuSans-35" x="95.410156"/>
      </g>
     </g>
    </g>
    <g id="xtick_5">
     <g id="line2d_5">
      <g>
       <use xlink:href="#m7569b89e1d" x="308.745913" y="339.84" style="stroke: #000000; stroke-width: 0.8"/>
      </g>
     </g>
     <g id="text_5">
      <!-- 2.0 -->
      <g transform="translate(300.79435 354.438438)scale(0.1 -0.1)">
       <defs>
        <path id="DejaVuSans-32" d="M 1228 531 
L 3431 531 
L 3431 0 
L 469 0 
L 469 531 
Q 828 903 1448 1529 
Q 2069 2156 2228 2338 
Q 2531 2678 2651 2914 
Q 2772 3150 2772 3378 
Q 2772 3750 2511 3984 
Q 2250 4219 1831 4219 
Q 1534 4219 1204 4116 
Q 875 4013 500 3803 
L 500 4441 
Q 881 4594 1212 4672 
Q 1544 4750 1819 4750 
Q 2544 4750 2975 4387 
Q 3406 4025 3406 3419 
Q 3406 3131 3298 2873 
Q 3191 2616 2906 2266 
Q 2828 2175 2409 1742 
Q 1991 1309 1228 531 
z
" transform="scale(0.015625)"/>
       </defs>
       <use xlink:href="#DejaVuSans-32"/>
       <use xlink:href="#DejaVuSans-2e" x="63.623047"/>
       <use xlink:href="#DejaVuSans-30" x="95.410156"/>
      </g>
     </g>
    </g>
    <g id="xtick_6">
     <g id="line2d_6">
      <g>
       <use xlink:href="#m7569b89e1d" x="373.333882" y="339.84" style="stroke: #000000; stroke-width: 0.8"/>
      </g>
     </g>
     <g id="text_6">
      <!-- 2.5 -->
      <g transform="translate(365.38232 354.438438)scale(0.1 -0.1)">
       <use xlink:href="#DejaVuSans-32"/>
       <use xlink:href="#DejaVuSans-2e" x="63.623047"/>
       <use xlink:href="#DejaVuSans-35" x="95.410156"/>
      </g>
     </g>
    </g>
    <g id="xtick_7">
     <g id="line2d_7">
      <g>
       <use xlink:href="#m7569b89e1d" x="437.921852" y="339.84" style="stroke: #000000; stroke-width: 0.8"/>
      </g>
     </g>
     <g id="text_7">
      <!-- 3.0 -->
      <g transform="translate(429.970289 354.438438)scale(0.1 -0.1)">
       <defs>
        <path id="DejaVuSans-33" d="M 2597 2516 
Q 3050 2419 3304 2112 
Q 3559 1806 3559 1356 
Q 3559 666 3084 287 
Q 2609 -91 1734 -91 
Q 1441 -91 1130 -33 
Q 819 25 488 141 
L 488 750 
Q 750 597 1062 519 
Q 1375 441 1716 441 
Q 2309 441 2620 675 
Q 2931 909 2931 1356 
Q 2931 1769 2642 2001 
Q 2353 2234 1838 2234 
L 1294 2234 
L 1294 2753 
L 1863 2753 
Q 2328 2753 2575 2939 
Q 2822 3125 2822 3475 
Q 2822 3834 2567 4026 
Q 2313 4219 1838 4219 
Q 1578 4219 1281 4162 
Q 984 4106 628 3988 
L 628 4550 
Q 988 4650 1302 4700 
Q 1616 4750 1894 4750 
Q 2613 4750 3031 4423 
Q 3450 4097 3450 3541 
Q 3450 3153 3228 2886 
Q 3006 2619 2597 2516 
z
" transform="scale(0.015625)"/>
       </defs>
       <use xlink:href="#DejaVuSans-33"/>
       <use xlink:href="#DejaVuSans-2e" x="63.623047"/>
       <use xlink:href="#DejaVuSans-30" x="95.410156"/>
      </g>
     </g>
    </g>
   </g>
   <g id="matplotlib.axis_2">
    <g id="ytick_1">
     <g id="line2d_8">
      <defs>
       <path id="m63d6729928" d="M 0 0 
L -3.5 0 
" style="stroke: #000000; stroke-width: 0.8"/>
      </defs>
      <g>
       <use xlink:href="#m63d6729928" x="30.103125" y="286.974896" style="stroke: #000000; stroke-width: 0.8"/>
      </g>
     </g>
     <g id="text_8">
      <!-- 0.0 -->
      <g transform="translate(7.2 290.774114)scale(0.1 -0.1)">
       <use xlink:href="#DejaVuSans-30"/>
       <use xlink:href="#DejaVuSans-2e" x="63.623047"/>
       <use xlink:href="#DejaVuSans-30" x="95.410156"/>
      </g>
     </g>
    </g>
    <g id="ytick_2">
     <g id="line2d_9">
      <g>
       <use xlink:href="#m63d6729928" x="30.103125" y="227.094859" style="stroke: #000000; stroke-width: 0.8"/>
      </g>
     </g>
     <g id="text_9">
      <!-- 0.2 -->
      <g transform="translate(7.2 230.894078)scale(0.1 -0.1)">
       <use xlink:href="#DejaVuSans-30"/>
       <use xlink:href="#DejaVuSans-2e" x="63.623047"/>
       <use xlink:href="#DejaVuSans-32" x="95.410156"/>
      </g>
     </g>
    </g>
    <g id="ytick_3">
     <g id="line2d_10">
      <g>
       <use xlink:href="#m63d6729928" x="30.103125" y="167.214822" style="stroke: #000000; stroke-width: 0.8"/>
      </g>
     </g>
     <g id="text_10">
      <!-- 0.4 -->
      <g transform="translate(7.2 171.014041)scale(0.1 -0.1)">
       <defs>
        <path id="DejaVuSans-34" d="M 2419 4116 
L 825 1625 
L 2419 1625 
L 2419 4116 
z
M 2253 4666 
L 3047 4666 
L 3047 1625 
L 3713 1625 
L 3713 1100 
L 3047 1100 
L 3047 0 
L 2419 0 
L 2419 1100 
L 313 1100 
L 313 1709 
L 2253 4666 
z
" transform="scale(0.015625)"/>
       </defs>
       <use xlink:href="#DejaVuSans-30"/>
       <use xlink:href="#DejaVuSans-2e" x="63.623047"/>
       <use xlink:href="#DejaVuSans-34" x="95.410156"/>
      </g>
     </g>
    </g>
    <g id="ytick_4">
     <g id="line2d_11">
      <g>
       <use xlink:href="#m63d6729928" x="30.103125" y="107.334786" style="stroke: #000000; stroke-width: 0.8"/>
      </g>
     </g>
     <g id="text_11">
      <!-- 0.6 -->
      <g transform="translate(7.2 111.134004)scale(0.1 -0.1)">
       <defs>
        <path id="DejaVuSans-36" d="M 2113 2584 
Q 1688 2584 1439 2293 
Q 1191 2003 1191 1497 
Q 1191 994 1439 701 
Q 1688 409 2113 409 
Q 2538 409 2786 701 
Q 3034 994 3034 1497 
Q 3034 2003 2786 2293 
Q 2538 2584 2113 2584 
z
M 3366 4563 
L 3366 3988 
Q 3128 4100 2886 4159 
Q 2644 4219 2406 4219 
Q 1781 4219 1451 3797 
Q 1122 3375 1075 2522 
Q 1259 2794 1537 2939 
Q 1816 3084 2150 3084 
Q 2853 3084 3261 2657 
Q 3669 2231 3669 1497 
Q 3669 778 3244 343 
Q 2819 -91 2113 -91 
Q 1303 -91 875 529 
Q 447 1150 447 2328 
Q 447 3434 972 4092 
Q 1497 4750 2381 4750 
Q 2619 4750 2861 4703 
Q 3103 4656 3366 4563 
z
" transform="scale(0.015625)"/>
       </defs>
       <use xlink:href="#DejaVuSans-30"/>
       <use xlink:href="#DejaVuSans-2e" x="63.623047"/>
       <use xlink:href="#DejaVuSans-36" x="95.410156"/>
      </g>
     </g>
    </g>
    <g id="ytick_5">
     <g id="line2d_12">
      <g>
       <use xlink:href="#m63d6729928" x="30.103125" y="47.454749" style="stroke: #000000; stroke-width: 0.8"/>
      </g>
     </g>
     <g id="text_12">
      <!-- 0.8 -->
      <g transform="translate(7.2 51.253968)scale(0.1 -0.1)">
       <defs>
        <path id="DejaVuSans-38" d="M 2034 2216 
Q 1584 2216 1326 1975 
Q 1069 1734 1069 1313 
Q 1069 891 1326 650 
Q 1584 409 2034 409 
Q 2484 409 2743 651 
Q 3003 894 3003 1313 
Q 3003 1734 2745 1975 
Q 2488 2216 2034 2216 
z
M 1403 2484 
Q 997 2584 770 2862 
Q 544 3141 544 3541 
Q 544 4100 942 4425 
Q 1341 4750 2034 4750 
Q 2731 4750 3128 4425 
Q 3525 4100 3525 3541 
Q 3525 3141 3298 2862 
Q 3072 2584 2669 2484 
Q 3125 2378 3379 2068 
Q 3634 1759 3634 1313 
Q 3634 634 3220 271 
Q 2806 -91 2034 -91 
Q 1263 -91 848 271 
Q 434 634 434 1313 
Q 434 1759 690 2068 
Q 947 2378 1403 2484 
z
M 1172 3481 
Q 1172 3119 1398 2916 
Q 1625 2713 2034 2713 
Q 2441 2713 2670 2916 
Q 2900 3119 2900 3481 
Q 2900 3844 2670 4047 
Q 2441 4250 2034 4250 
Q 1625 4250 1398 4047 
Q 1172 3844 1172 3481 
z
" transform="scale(0.015625)"/>
       </defs>
       <use xlink:href="#DejaVuSans-30"/>
       <use xlink:href="#DejaVuSans-2e" x="63.623047"/>
       <use xlink:href="#DejaVuSans-38" x="95.410156"/>
      </g>
     </g>
    </g>
   </g>
   <g id="line2d_13">
    <path d="M 50.394034 35.038329 
L 52.833823 32.149526 
L 55.273611 29.604067 
L 57.7134 27.416857 
L 60.153189 25.602073 
L 62.592977 24.173068 
L 64.219503 23.440904 
L 65.846029 22.889187 
L 67.472555 22.521149 
L 69.099081 22.339795 
L 70.725606 22.347896 
L 72.352132 22.547976 
L 73.978658 22.942296 
L 75.605184 23.532846 
L 77.231709 24.321331 
L 78.858235 25.309161 
L 80.484761 26.497435 
L 82.111287 27.886934 
L 84.551075 30.349373 
L 86.990864 33.265566 
L 89.430653 36.633772 
L 91.870441 40.450363 
L 94.31023 44.709757 
L 96.750019 49.404359 
L 99.189807 54.5245 
L 101.629596 60.058397 
L 104.882648 68.056129 
L 108.135699 76.725287 
L 111.388751 86.019807 
L 115.455065 98.435943 
L 119.52138 111.627248 
L 124.400957 128.289118 
L 130.90706 151.481371 
L 145.545792 204.21985 
L 150.425369 220.788362 
L 154.491684 233.787834 
L 157.744735 243.519653 
L 160.997787 252.555701 
L 164.250839 260.807674 
L 166.690627 266.433117 
L 169.130416 271.540986 
L 171.570205 276.103722 
L 174.009993 280.097446 
L 175.636519 282.433853 
L 177.263045 284.503693 
L 178.889571 286.303113 
L 180.516096 287.829234 
L 182.142622 289.080198 
L 183.769148 290.055206 
L 185.395674 290.754559 
L 187.0222 291.179688 
L 188.648725 291.333189 
L 190.275251 291.218849 
L 191.901777 290.841664 
L 193.528303 290.207858 
L 195.154828 289.324891 
L 196.781354 288.201467 
L 198.40788 286.847529 
L 200.034406 285.274248 
L 202.474194 282.530479 
L 204.913983 279.368114 
L 207.353772 275.839675 
L 210.606823 270.666427 
L 214.673138 263.660833 
L 226.058818 243.565895 
L 229.31187 238.465768 
L 231.751658 235.030308 
L 234.191447 232.005256 
L 235.817973 230.248005 
L 237.444499 228.718486 
L 239.071024 227.432325 
L 240.69755 226.403475 
L 242.324076 225.644041 
L 243.950602 225.164117 
L 245.577128 224.971628 
L 247.203653 225.072181 
L 248.830179 225.468939 
L 250.456705 226.162497 
L 252.083231 227.150789 
L 253.709756 228.429006 
L 255.336282 229.989542 
L 256.962808 231.821966 
L 258.589334 233.913018 
L 261.029122 237.498644 
L 263.468911 241.563745 
L 265.9087 246.029603 
L 269.161751 252.449396 
L 280.547432 275.575846 
L 282.98722 279.90198 
L 285.427009 283.759033 
L 287.053535 286.022538 
L 288.680061 288.010851 
L 290.306586 289.703104 
L 291.933112 291.082416 
L 293.559638 292.136346 
L 295.186164 292.857288 
L 296.81269 293.242828 
L 298.439215 293.29603 
L 300.065741 293.025652 
L 301.692267 292.446285 
L 303.318793 291.578387 
L 304.945318 290.448226 
L 306.571844 289.087707 
L 309.011633 286.697861 
L 312.264684 283.092707 
L 317.144262 277.618626 
L 319.58405 275.255867 
L 321.210576 273.946816 
L 322.837102 272.912098 
L 324.463628 272.200129 
L 326.090154 271.854083 
L 327.716679 271.910567 
L 329.343205 272.398338 
L 330.969731 273.337106 
L 332.596257 274.73645 
L 334.222782 276.594888 
L 335.849308 278.899155 
L 337.475834 281.623701 
L 339.10236 284.730474 
L 341.542149 289.993603 
L 344.7952 297.77944 
L 349.674777 309.700985 
L 352.114566 315.042059 
L 353.741092 318.134123 
L 355.367618 320.733851 
L 356.994143 322.748447 
L 357.807406 323.510122 
L 358.620669 324.09568 
L 359.433932 324.49702 
L 360.247195 324.707094 
L 361.060458 324.72 
L 361.873721 324.531063 
L 362.686984 324.136914 
L 363.500247 323.535564 
L 364.313509 322.726462 
L 365.126772 321.710551 
L 366.753298 319.069794 
L 368.379824 315.652068 
L 370.00635 311.52159 
L 371.632875 306.767597 
L 374.072664 298.72044 
L 378.138979 284.074596 
L 381.39203 272.758987 
L 383.018556 267.718315 
L 384.645082 263.311366 
L 386.271607 259.685191 
L 387.08487 258.204516 
L 387.898133 256.963055 
L 388.711396 255.971493 
L 389.524659 255.238303 
L 390.337922 254.769608 
L 391.151185 254.569063 
L 391.964448 254.637757 
L 392.777711 254.974147 
L 393.590973 255.574011 
L 394.404236 256.430442 
L 395.217499 257.533861 
L 396.030762 258.872071 
L 397.657288 262.191524 
L 399.283814 266.242896 
L 401.723602 273.293598 
L 407.416443 290.520291 
L 409.042968 294.656241 
L 410.669494 298.094452 
L 412.29602 300.70109 
L 413.109283 301.663875 
L 413.922546 302.391026 
L 414.735809 302.880515 
L 415.549071 303.133953 
L 416.362334 303.156591 
L 417.175597 302.957262 
L 417.98886 302.548268 
L 418.802123 301.94519 
L 419.615386 301.166647 
L 421.241912 299.170907 
L 422.868437 296.757573 
L 426.934752 290.350617 
L 428.561278 288.203467 
L 430.187803 286.558782 
L 431.001066 285.961205 
L 431.814329 285.524935 
L 432.627592 285.253111 
L 433.440855 285.14431 
L 434.254118 285.19249 
L 435.067381 285.38706 
L 436.693907 286.151403 
L 438.320432 287.271143 
L 441.573484 289.685384 
L 443.20001 290.490216 
L 444.013273 290.691369 
L 444.826535 290.727127 
L 445.639798 290.579459 
L 446.453061 290.235607 
L 447.266324 289.688778 
L 448.079587 288.938697 
L 448.89285 287.992006 
L 450.519376 285.571035 
L 452.145901 282.620462 
L 455.398953 276.398427 
L 456.212216 275.062621 
L 456.212216 275.062621 
" clip-path="url(#pe7756cebde)" style="fill: none; stroke: #1f77b4; stroke-width: 1.5; stroke-linecap: square"/>
   </g>
   <g id="patch_3">
    <path d="M 30.103125 339.84 
L 30.103125 7.2 
" style="fill: none; stroke: #000000; stroke-width: 0.8; stroke-linejoin: miter; stroke-linecap: square"/>
   </g>
   <g id="patch_4">
    <path d="M 476.503125 339.84 
L 476.503125 7.2 
" style="fill: none; stroke: #000000; stroke-width: 0.8; stroke-linejoin: miter; stroke-linecap: square"/>
   </g>
   <g id="patch_5">
    <path d="M 30.103125 339.84 
L 476.503125 339.84 
" style="fill: none; stroke: #000000; stroke-width: 0.8; stroke-linejoin: miter; stroke-linecap: square"/>
   </g>
   <g id="patch_6">
    <path d="M 30.103125 7.2 
L 476.503125 7.2 
" style="fill: none; stroke: #000000; stroke-width: 0.8; stroke-linejoin: miter; stroke-linecap: square"/>
   </g>
  </g>
 </g>
 <defs>
  <clipPath id="pe7756cebde">
   <rect x="30.103125" y="7.2" width="446.4" height="332.64"/>
  </clipPath>
 </defs>
</svg>
