<svg width="562.024" height="76.895" xmlns="http://www.w3.org/2000/svg"><path d="m8.691 35.254 1.465.489q.489.488 1.026.878a28.235 28.235 0 0 1 .964.733 25.776 25.776 0 0 1 .061.049q.746-.299 1.064-.825a1.575 1.575 0 0 0 .157-.347 29.565 29.565 0 0 1 .537-1.563q.293-1.074.683-2.148a15.477 15.477 0 0 1 .834-1.88 17.219 17.219 0 0 1 .143-.269q-.098-.878.098-1.562a16.172 16.172 0 0 1 .146-.485q.076-.239.153-.447a8.588 8.588 0 0 1 .091-.24q-.586-.488-.83-.537a2.666 2.666 0 0 1-.143-.034q-.242-.062-.667-.204a24.488 24.488 0 0 1-.02-.006 3.558 3.558 0 0 1-.586-.049q-.293-.049-.683-.146a16.002 16.002 0 0 1-.669-.516q-.637-.521-.989-.947a2.841 2.841 0 0 1-.247-.344 95.027 95.027 0 0 0-.686-1.126 106.349 106.349 0 0 0-.241-.388q-.489-.781-.879-1.367a7.026 7.026 0 0 0-.879-1.074l-1.172-.781.586-1.172a.646.646 0 0 0 .172-.32.969.969 0 0 0 .023-.217.903.903 0 0 0-.029-.213q-.052-.212-.197-.506a5.799 5.799 0 0 0-.164-.307 8.875 8.875 0 0 1-.093-.452q-.155-.879-.021-1.353a1.182 1.182 0 0 1 .016-.05l.195-1.172a104.074 104.074 0 0 0 .231-.301q.758-.993.843-1.164l.977-.977a99.9 99.9 0 0 0 4.443-1.272 108.59 108.59 0 0 0 .147-.046 151.759 151.759 0 0 0 4.59-1.514q2.246-.781 4.589-1.562a63.6 63.6 0 0 1 4.688-1.367 3.652 3.652 0 0 1 .898-.587 3.148 3.148 0 0 1 .811-.243 61.368 61.368 0 0 1 .891-.135 47.116 47.116 0 0 1 .818-.109 8.429 8.429 0 0 0 .777-.035 6.826 6.826 0 0 0 .492-.063 1.696 1.696 0 0 0 .391-.111 1.176 1.176 0 0 0 .488-.377 36.965 36.965 0 0 1 2.436-.769 32.346 32.346 0 0 1 .787-.208 117.654 117.654 0 0 1 1.581-.409q2.187-.551 5.145-1.223a375.279 375.279 0 0 1 .989-.223A67.701 67.701 0 0 1 50 .733a91.115 91.115 0 0 1 5.664-.635L57.715 0a4.744 4.744 0 0 0 .781.065 4.702 4.702 0 0 0 .391-.016A14.105 14.105 0 0 1 60.059 0a12.717 12.717 0 0 1 2.391.208q1.29.248 2.257.79a5.19 5.19 0 0 1 2.09 2.127q.976.489 1.758 1.221a68.32 68.32 0 0 1 .757.72 58.605 58.605 0 0 1 .708.696 23.906 23.906 0 0 0 .352.346q.282.271.526.484a9.735 9.735 0 0 0 .274.231q.126.103.24.187a4.41 4.41 0 0 0 .17.119l.781.782a7.361 7.361 0 0 1 .531 1.599q.309 1.516-.14 2.99a5.133 5.133 0 0 1-.299.525q-.352.535-.737.746a1.14 1.14 0 0 1-.234.097l-1.367.39-1.269.684q-.972-.075-1.572-.092a11.48 11.48 0 0 0-.333-.006h-1.416a61.395 61.395 0 0 0-2.741.066q-1.876.084-4.046.276a115.09 115.09 0 0 0-7.861.977q-4.004.634-7.813 1.562-3.808.928-6.64 2.002a6.329 6.329 0 0 1-.716.46q-.581.324-1.335.614a1.57 1.57 0 0 0-.165.067q-.184.086-.443.247a9.777 9.777 0 0 0-.271.174 6.197 6.197 0 0 1 .049.769 5.628 5.628 0 0 1-.049.745 9.92 9.92 0 0 1-.293 1.416q-.098.488-.146 1.026a14.671 14.671 0 0 1-.1.824 16.948 16.948 0 0 1-.047.299 8.229 8.229 0 0 0-1.957 5.461 10.205 10.205 0 0 0 .004.3l-.488.977q-.319.318-.54.864a4.366 4.366 0 0 0-.095.259q-.244.732-.049 1.514l.391 1.171a139.459 139.459 0 0 0 3.857-.439 466.376 466.376 0 0 0 1.966-.256 559.748 559.748 0 0 0 2.087-.281q2.734-.488 5.518-.83a46.65 46.65 0 0 1 4.683-.33 52.429 52.429 0 0 1 1.127-.012h3.809l-.879.879 1.074.098-.586 1.562 1.025.44a3.946 3.946 0 0 1 .617.329 3.675 3.675 0 0 1 .018.012l.684.977a2.197 2.197 0 0 1 .457.371q.223.234.422.557.39.634.488 1.709l-.293.976-4.59 5.86-.586.781-.976-.293a11.663 11.663 0 0 0-.613-.016 10.234 10.234 0 0 0-2.903.406 60.365 60.365 0 0 0-.806.208 72.765 72.765 0 0 0-.854.232q-.879.244-1.758.244-2.287.381-3.83.623a210.784 210.784 0 0 1-.076.012 102.987 102.987 0 0 1-3.125.439 403.179 403.179 0 0 1-3.14.559 361.389 361.389 0 0 1-1.011.174 19.719 19.719 0 0 0-3.092.781 17.762 17.762 0 0 0-.667.244 28.709 28.709 0 0 1-.315.027q-.79.063-.955.022a1.605 1.605 0 0 0-.39-.049q-.977 0-1.954.293a69.103 69.103 0 0 0-.952.293 59.859 59.859 0 0 0-.903.293 3.326 3.326 0 0 0-.385.373q-.188.218-.305.444a1.793 1.793 0 0 0-.091.208 42.792 42.792 0 0 0-.293.834 48.036 48.036 0 0 0-.098.289q-.195.684-.537 1.319a11.279 11.279 0 0 1-.458.771 14.185 14.185 0 0 1-.372.547l.098 1.758a28.063 28.063 0 0 0-.206.046q-.673.155-.673.198a.039.039 0 0 1-.024.037q-.019.009-.053.011a.329.329 0 0 1-.021.001 4.432 4.432 0 0 1-.146 1.15 4.041 4.041 0 0 1-.098.315 71.53 71.53 0 0 0-.232.659 56.16 56.16 0 0 0-.208.61 7.341 7.341 0 0 0-.132.28q-.062.138-.109.261a3.544 3.544 0 0 0-.052.143 1.845 1.845 0 0 0-.097.577 1.776 1.776 0 0 0 0 .009 5.185 5.185 0 0 1 .651 2.561q0 .694-.163 1.443a8.277 8.277 0 0 1-.999 2.583 7.74 7.74 0 0 1-.466.688 7.954 7.954 0 0 1-1.831 1.767 7.374 7.374 0 0 1-.708.43 11.426 11.426 0 0 1-.45.048q-1.222.104-1.845-.145a74.523 74.523 0 0 0-1.465-.568 80.471 80.471 0 0 0-.048-.018 11.619 11.619 0 0 0-.977-.342q-.488-.146-.977-.244l-1.171-.977q-.293-.586-.684-1.123a33.373 33.373 0 0 1-.733-1.05 36.409 36.409 0 0 1-.048-.073l-.977-1.367a8.244 8.244 0 0 1-.572-.931 10.127 10.127 0 0 1-.307-.631 23.649 23.649 0 0 1-.284-1.741q-.221-1.793-.071-3.214a9.116 9.116 0 0 1 .111-.758 32.297 32.297 0 0 1 1.221-4.541 50.063 50.063 0 0 1 .195-.757 41.533 41.533 0 0 1 .195-.708 41.533 41.533 0 0 0 .196-.708 50.063 50.063 0 0 0 .195-.757 11.145 11.145 0 0 1-4.492-4.687 18.176 18.176 0 0 1-1.106-2.593q-.508-1.529-.637-2.977A11.28 11.28 0 0 1 0 43.067a12.009 12.009 0 0 1 .272-1.475q.336-1.317.949-2.187a8.21 8.21 0 0 1 1.809-1.877 7.715 7.715 0 0 1 .388-.272 10.932 10.932 0 0 1 2.551-1.241 10.27 10.27 0 0 1 .086-.028 33.842 33.842 0 0 1 1.955-.567 29.232 29.232 0 0 1 .681-.166ZM254.395 16.7l1.464-.293a8.566 8.566 0 0 1 1.418 1.49 10.337 10.337 0 0 1 .487.707q.83 1.318 1.123 2.783.125.628.125 1.229a5.443 5.443 0 0 1-.223 1.554 3.202 3.202 0 0 1-1.062 1.574 4.69 4.69 0 0 1-.793.526 4.355 4.355 0 0 1 .034.193q.042.273.027.45a.799.799 0 0 1-.013.089 1.892 1.892 0 0 1-.075.273 1.556 1.556 0 0 1-.071.167.941.941 0 0 0-.079.22.798.798 0 0 0-.019.17.396.396 0 0 0 .021.118q.057.181.272.468a8.243 8.243 0 0 0-2.303 2.711 10.728 10.728 0 0 0-.626 1.391q-.786 2.122-1.003 3.865a10.858 10.858 0 0 0-.072.822q1.172-1.171 2.588-2.294a68.674 68.674 0 0 1 2.93-2.198 274.042 274.042 0 0 1 2.215-1.556 244.321 244.321 0 0 1 .715-.495q1.416-.976 2.588-1.953a48.816 48.816 0 0 1 2.967-2.499q1.445-1.118 2.837-1.992a29.783 29.783 0 0 1 .397-.245 136.498 136.498 0 0 0 3.064-1.917 168.471 168.471 0 0 0 3.235-2.136q.608-.152 1.009-.097a1.172 1.172 0 0 1 .211.048 15.712 15.712 0 0 1 .569.203 18.986 18.986 0 0 1 .359.139q0-.586-.342-.683-.342-.098-.244-.782a16.352 16.352 0 0 0 1.207-.369q.728-.256 1.332-.558a24.788 24.788 0 0 1 1.419-.653 29.864 29.864 0 0 1 .925-.373 28.694 28.694 0 0 1 1.66 1.807 3.147 3.147 0 0 0 1.598 1.008 4.254 4.254 0 0 0 .55.115 5.733 5.733 0 0 0 .394.73q.351.546.778.881a37.386 37.386 0 0 0 1.367 1.026q.684.488 1.221 1.172a2.335 2.335 0 0 1 .329.592q.243.617.306 1.556a226.674 226.674 0 0 0-.403.708 275.311 275.311 0 0 0-.427.757 10.322 10.322 0 0 0-.401.797q-.193.425-.375.913a17.479 17.479 0 0 0-.054.145 38.688 38.688 0 0 1-3.144 2.554 34.349 34.349 0 0 1-.811.571 107.757 107.757 0 0 1-4.053 2.637 238.27 238.27 0 0 1-4.199 2.539 38.087 38.087 0 0 0-2.724 1.778 46.549 46.549 0 0 0-1.671 1.249 5.323 5.323 0 0 1-.998 1.05 6.113 6.113 0 0 1-.222.171 60.953 60.953 0 0 1-1.514 1.074 17.362 17.362 0 0 0-1.465 1.123 4.35 4.35 0 0 0-1.074 1.368 1.845 1.845 0 0 1-.577.097 1.776 1.776 0 0 1-.009 0 1.843 1.843 0 0 0-.584.097 2.555 2.555 0 0 0-.002.001q-.293.683-.928 1.074a1.815 1.815 0 0 0-.83 1.074 14.157 14.157 0 0 0 1.45 2.454 10.533 10.533 0 0 0 2.359 2.331 15.559 15.559 0 0 0 5.273 2.393 26.122 26.122 0 0 0 4.157.676 31.626 31.626 0 0 0 2.191.105 484.563 484.563 0 0 0 5.292.046 547.544 547.544 0 0 0 1.837.003.71.71 0 0 0 .143-.051q.229-.114.201-.369a.574.574 0 0 0-.003-.019q-.048-.342.44-.244a10.714 10.714 0 0 1 1.667.707q.907.485 1.575 1.111a6.091 6.091 0 0 1 .371.379 20.811 20.811 0 0 0 1.583 1.577 26.399 26.399 0 0 0 1.445 1.206 11.913 11.913 0 0 1-.526 3.001 9.18 9.18 0 0 1-1.721 3.151q-2.05 2.442-5.468 3.907a74.471 74.471 0 0 1-2.274.061q-1.836.02-3.477-.061a42.156 42.156 0 0 1-2.501-.196 24.392 24.392 0 0 1-6.983-1.855.499.499 0 0 1-.122-.09q-.134-.13-.268-.398a3.602 3.602 0 0 0-.122-.226q-.066-.111-.133-.2a1.433 1.433 0 0 0-.136-.16 2.324 2.324 0 0 0-.657-.21q-.249-.042-.527-.042a3.955 3.955 0 0 0-.232.007 5.621 5.621 0 0 1-.243.01q-.648.01-1.133-.143a2.503 2.503 0 0 1-.04-.013 9.047 9.047 0 0 1-.445-.241q-.751-.43-1.996-1.273a165.674 165.674 0 0 1-1.587-1.086 127.199 127.199 0 0 1-1.441-1.013 76.482 76.482 0 0 1-2.527-2.051 68.834 68.834 0 0 1-.793-.684 19.381 19.381 0 0 1-2.511-2.638 17.86 17.86 0 0 1-.223-.291 1.065 1.065 0 0 0-.735-.434 1.309 1.309 0 0 0-.047-.006 2.701 2.701 0 0 1-.545-.109 2.276 2.276 0 0 1-.334-.135q-2.832 1.758-4.785 4.395a98.592 98.592 0 0 0-3.711 5.371 61.594 61.594 0 0 1-3.711 5.175 12.392 12.392 0 0 1-4.98 3.711 4.501 4.501 0 0 1-.83-.073 3.482 3.482 0 0 1-.733-.22q-.683-.293-1.269-.732-.586-.439-1.172-.83a4.506 4.506 0 0 0-1.269-.586q0-1.172-.44-2.148a52.05 52.05 0 0 0-.659-1.41 45.71 45.71 0 0 0-.22-.446 8.641 8.641 0 0 1-.417-.973 6.984 6.984 0 0 1-.218-.736 1.794 1.794 0 0 1-.048-.412q0-.613.439-1.199a5.29 5.29 0 0 0-.46-.405q-.52-.411-1.298-.865a2.861 2.861 0 0 0 .249-.281q.292-.381.292-.717a.76.76 0 0 0-.004-.076 3.533 3.533 0 0 0-.197-.854 3.99 3.99 0 0 0-.047-.123 7.718 7.718 0 0 1-.225-.648 9.502 9.502 0 0 1-.117-.426 1.313 1.313 0 0 1-.04-.319q0-.427.285-.853.364 0 .837-.108a6.607 6.607 0 0 0 .334-.087 11.729 11.729 0 0 1-.183-.251q-.387-.546-.355-.672a.063.063 0 0 1 .001-.005q.049-.146-.244-.439-.187-.561.163-.719a.531.531 0 0 1 .032-.014 8.132 8.132 0 0 0 .782-.341q.39-4.786 1.66-8.887a94.264 94.264 0 0 1 2.832-7.91 423.072 423.072 0 0 0 3.076-7.715 54.412 54.412 0 0 0 1.968-6.189 62.723 62.723 0 0 0 .522-2.21q1.075-1.074 1.709-2.539a59.065 59.065 0 0 1 1.367-2.929 28.574 28.574 0 0 1 1.661-2.881 6.609 6.609 0 0 1 1.943-1.916 8.119 8.119 0 0 1 .645-.379 5.833 5.833 0 0 1 1.576.325 5.122 5.122 0 0 1 .865.407 3.881 3.881 0 0 0 1.307.473q.614.109 1.33.064a14.52 14.52 0 0 1 .537.977 5.124 5.124 0 0 0 .362.61 6.302 6.302 0 0 0 .273.367Zm-62.696 38.867a1.743 1.743 0 0 0-1.175.845 2.215 2.215 0 0 0-.094.18 26.967 26.967 0 0 0-.733 1.709 29.994 29.994 0 0 1-.342.842 23.802 23.802 0 0 1-.341.77 1.625 1.625 0 0 1-.22.354 1.002 1.002 0 0 1-.806.378 2.936 2.936 0 0 1-.275.941 2.693 2.693 0 0 1-.262.426 16.071 16.071 0 0 0-.83 1.221q-.391.635-.586 1.367-.195.732.195 1.709a2.468 2.468 0 0 0-.896 1.321 3.311 3.311 0 0 0-.08.339 33.24 33.24 0 0 1-.321 1.557 29.415 29.415 0 0 1-.119.494 4.336 4.336 0 0 1-.382 1.006 3.677 3.677 0 0 1-.448.654 1.493 1.493 0 0 1-.591.409q-.555.222-1.436.183a6.563 6.563 0 0 1-.121-.006 1.781 1.781 0 0 0-.069.098q-.198.305-.029.39a.287.287 0 0 1 .102.094q.109.152.177.511a3.678 3.678 0 0 1 .014.079 4.802 4.802 0 0 0-.328-.049q-.708-.078-1.141.119a1.157 1.157 0 0 0-.142.076q-.537.342-1.318.44a6.443 6.443 0 0 1-3.077-2.051q-1.22-1.465-2.148-3.271a40.84 40.84 0 0 1-1.66-3.663 50.672 50.672 0 0 0-.632-1.53q-.3-.692-.591-1.298a28.478 28.478 0 0 0-.193-.394 4.873 4.873 0 0 0 .173-1.114q.017-.498-.076-.986a5.217 5.217 0 0 0-.227-.832q-.181-.492-.456-.877a1319.187 1319.187 0 0 1 5.005-10.498 1613.201 1613.201 0 0 1 5.444-11.181q5.664-11.524 10.742-22.754a48.97 48.97 0 0 1 4.444 2.002 22.957 22.957 0 0 1 3.762 2.394 21.233 21.233 0 0 1 .242.193q1.806 1.465 3.076 3.37a10.75 10.75 0 0 1 1.66 4.248 2.121 2.121 0 0 1-.06.159q-.172.405-.38.28a.381.381 0 0 0-.067-.032q-.168-.06-.311.099a.698.698 0 0 0-.061.08 7.313 7.313 0 0 1 .154.199q.247.332.285.484a.803.803 0 0 1 .025.195.803.803 0 0 1-.025.196q-.044.176-.048.472a4.494 4.494 0 0 0 0 .065q0 .342.293.928-.216-.054-.357-.019a.312.312 0 0 0-.181.116.235.235 0 0 1-.137.087q-.173.043-.497-.087.357.983.265 1.639a1.695 1.695 0 0 1-.021.119 4.903 4.903 0 0 1-.225.759 4.02 4.02 0 0 1-.215.462q-.293.537-.488 1.172a1.764 1.764 0 0 0-.069.356q-.043.466.116 1.073a5.27 5.27 0 0 0 .051.182.934.934 0 0 0-.165.014q-.173.031-.275.133a2.165 2.165 0 0 0-.147.162 1.695 1.695 0 0 0-.097.13 1.743 1.743 0 0 1-.125.165 2.229 2.229 0 0 1-.119.128q-.136.136-.398.062a.955.955 0 0 1-.041-.013 23.825 23.825 0 0 1 .219 3.223 23.654 23.654 0 0 1-.024 1.074q-.098 2.149-.147 4.346-.046 2.106.041 4.391a82.4 82.4 0 0 0 .008.199q.098 2.392.684 4.931a16.738 16.738 0 0 0 4.778-4.106 16.012 16.012 0 0 0 .837-1.167 29.896 29.896 0 0 0 2.804-5.512 34.691 34.691 0 0 0 .614-1.715 50.043 50.043 0 0 0 1.62-6.335 58.005 58.005 0 0 0 .382-2.258q.684-4.59 1.465-9.375.879-.879 1.367-2.149.488-1.269.879-2.685l.781-2.832a15.12 15.12 0 0 1 .597-1.754 12.757 12.757 0 0 1 .38-.834q1.465.195 2.49.927a18.034 18.034 0 0 1 1.904 1.563q.879.83 1.856 1.562a4.557 4.557 0 0 0 1.331.681 6.219 6.219 0 0 0 1.11.247 71.959 71.959 0 0 1 1.616 2.386 62.074 62.074 0 0 1 .533.837 9.008 9.008 0 0 1 1.269 3.32 5.912 5.912 0 0 0-.632 1.397 6.881 6.881 0 0 0-.1.361q-.244.976-.537 1.953-.293.977-.782 1.807a4.231 4.231 0 0 1-1.051 1.187 5.064 5.064 0 0 1-.316.229 58.829 58.829 0 0 1-.329 2.429 45.236 45.236 0 0 1-.403 2.209 889.582 889.582 0 0 1-.879 4.151 54.766 54.766 0 0 0-.714 4.111 59.5 59.5 0 0 0-.019.137 24.947 24.947 0 0 0-.188 2.156q-.031.676-.031 1.387a34.888 34.888 0 0 0 .024 1.291 3102.902 3102.902 0 0 0-.806 2.319 3725.937 3725.937 0 0 0-.854 2.466 59.491 59.491 0 0 0-.694 2.128q-.299.981-.528 1.875a35.222 35.222 0 0 0-.145.587q-1.563 1.269-2.442 3.027-.879 1.758-1.855 3.516-.377.376-.481.209a.165.165 0 0 1-.007-.014.287.287 0 0 0-.094-.102q-.153-.109-.511-.177a3.678 3.678 0 0 0-.079-.014q.092.369.01.564a.377.377 0 0 1-.01.022 1.305 1.305 0 0 1-.24.337 1.235 1.235 0 0 1-.004.005.585.585 0 0 0-.111.159q-.057.118-.085.28a.733.733 0 0 0-.009.097q-.009.27.153.677a3.582 3.582 0 0 0 .003.008 7.737 7.737 0 0 0-2.441 1.66 18.664 18.664 0 0 1-2.295 1.953q-1.221.879-2.93 1.172a4.781 4.781 0 0 1-.622.063q-1.56.061-3.821-.747a37.586 37.586 0 0 1-7.08-6.738 29.798 29.798 0 0 1-3.554-5.63 37.101 37.101 0 0 1-1.476-3.452Zm206.348 0a1.743 1.743 0 0 0-1.175.845 2.215 2.215 0 0 0-.095.18 26.967 26.967 0 0 0-.732 1.709 29.994 29.994 0 0 1-.342.842 23.802 23.802 0 0 1-.342.77 1.625 1.625 0 0 1-.219.354 1.002 1.002 0 0 1-.806.378 2.936 2.936 0 0 1-.275.941 2.693 2.693 0 0 1-.262.426 16.071 16.071 0 0 0-.83 1.221q-.391.635-.586 1.367-.195.732.195 1.709a2.468 2.468 0 0 0-.897 1.321 3.311 3.311 0 0 0-.079.339 33.24 33.24 0 0 1-.321 1.557 29.415 29.415 0 0 1-.119.494 4.336 4.336 0 0 1-.383 1.006 3.677 3.677 0 0 1-.447.654 1.493 1.493 0 0 1-.592.409q-.555.222-1.436.183a6.563 6.563 0 0 1-.12-.006 1.781 1.781 0 0 0-.069.098q-.199.305-.029.39a.287.287 0 0 1 .102.094q.109.152.177.511a3.678 3.678 0 0 1 .014.079 4.802 4.802 0 0 0-.328-.049q-.709-.078-1.142.119a1.157 1.157 0 0 0-.141.076q-.538.342-1.319.44a6.443 6.443 0 0 1-3.076-2.051q-1.221-1.465-2.148-3.271a40.84 40.84 0 0 1-1.661-3.663 50.672 50.672 0 0 0-.631-1.53q-.3-.692-.591-1.298a28.478 28.478 0 0 0-.194-.394 4.873 4.873 0 0 0 .173-1.114q.018-.498-.075-.986a5.217 5.217 0 0 0-.227-.832q-.182-.492-.456-.877a1319.187 1319.187 0 0 1 5.004-10.498 1613.201 1613.201 0 0 1 5.445-11.181q5.664-11.524 10.742-22.754a48.97 48.97 0 0 1 4.443 2.002 22.957 22.957 0 0 1 3.763 2.394 21.233 21.233 0 0 1 .241.193q1.807 1.465 3.076 3.37a10.75 10.75 0 0 1 1.661 4.248 2.121 2.121 0 0 1-.06.159q-.172.405-.38.28a.381.381 0 0 0-.068-.032q-.167-.06-.31.099a.698.698 0 0 0-.061.08 7.313 7.313 0 0 1 .154.199q.247.332.285.484a.803.803 0 0 1 .024.195.803.803 0 0 1-.024.196q-.044.176-.048.472a4.494 4.494 0 0 0-.001.065q0 .342.293.928-.215-.054-.357-.019a.312.312 0 0 0-.18.116.235.235 0 0 1-.137.087q-.173.043-.498-.087.358.983.266 1.639a1.695 1.695 0 0 1-.022.119 4.903 4.903 0 0 1-.225.759 4.02 4.02 0 0 1-.214.462q-.293.537-.488 1.172a1.764 1.764 0 0 0-.069.356q-.043.466.115 1.073a5.27 5.27 0 0 0 .051.182.934.934 0 0 0-.165.014q-.172.031-.274.133a2.165 2.165 0 0 0-.148.162 1.695 1.695 0 0 0-.096.13 1.743 1.743 0 0 1-.126.165 2.229 2.229 0 0 1-.118.128q-.136.136-.399.062a.955.955 0 0 1-.041-.013 23.825 23.825 0 0 1 .22 3.223 23.654 23.654 0 0 1-.025 1.074q-.097 2.149-.146 4.346-.047 2.106.041 4.391a82.4 82.4 0 0 0 .008.199q.098 2.392.683 4.931a16.738 16.738 0 0 0 4.779-4.106 16.012 16.012 0 0 0 .837-1.167 29.896 29.896 0 0 0 2.803-5.512 34.691 34.691 0 0 0 .615-1.715 50.043 50.043 0 0 0 1.62-6.335 58.005 58.005 0 0 0 .382-2.258q.683-4.59 1.464-9.375.879-.879 1.368-2.149.488-1.269.879-2.685l.781-2.832a15.12 15.12 0 0 1 .597-1.754 12.757 12.757 0 0 1 .379-.834q1.465.195 2.491.927a18.034 18.034 0 0 1 1.904 1.563q.879.83 1.855 1.562a4.557 4.557 0 0 0 1.332.681 6.219 6.219 0 0 0 1.11.247 71.959 71.959 0 0 1 1.616 2.386 62.074 62.074 0 0 1 .532.837 9.008 9.008 0 0 1 1.27 3.32 5.912 5.912 0 0 0-.632 1.397 6.881 6.881 0 0 0-.101.361q-.244.976-.537 1.953-.293.977-.781 1.807a4.231 4.231 0 0 1-1.051 1.187 5.064 5.064 0 0 1-.316.229 58.829 58.829 0 0 1-.33 2.429 45.236 45.236 0 0 1-.403 2.209 889.582 889.582 0 0 1-.879 4.151 54.766 54.766 0 0 0-.714 4.111 59.5 59.5 0 0 0-.018.137 24.947 24.947 0 0 0-.189 2.156q-.031.676-.031 1.387a34.888 34.888 0 0 0 .025 1.291 3102.902 3102.902 0 0 0-.806 2.319 3725.937 3725.937 0 0 0-.854 2.466 59.491 59.491 0 0 0-.695 2.128q-.298.981-.528 1.875a35.222 35.222 0 0 0-.145.587q-1.562 1.269-2.441 3.027-.879 1.758-1.856 3.516-.376.376-.48.209a.165.165 0 0 1-.008-.014.287.287 0 0 0-.093-.102q-.153-.109-.511-.177a3.678 3.678 0 0 0-.079-.014q.092.369.01.564a.377.377 0 0 1-.01.022 1.305 1.305 0 0 1-.24.337 1.235 1.235 0 0 1-.005.005.585.585 0 0 0-.111.159q-.057.118-.084.28a.733.733 0 0 0-.009.097q-.009.27.152.677a3.582 3.582 0 0 0 .004.008 7.737 7.737 0 0 0-2.442 1.66 18.664 18.664 0 0 1-2.295 1.953q-1.22.879-2.929 1.172a4.781 4.781 0 0 1-.623.063q-1.56.061-3.821-.747a37.586 37.586 0 0 1-7.08-6.738 29.798 29.798 0 0 1-3.554-5.63 37.101 37.101 0 0 1-1.475-3.452Zm73.73 17.773-1.269-.39a53.541 53.541 0 0 1-.461-.141q-.498-.154-.85-.276a13.639 13.639 0 0 1-.203-.072 45.093 45.093 0 0 0-.513-.183 32.928 32.928 0 0 0-.463-.158 6.396 6.396 0 0 0-.526-.15 8.184 8.184 0 0 0-.451-.095 7.814 7.814 0 0 0-.308-.048q-.522-.074-1.401-.147-1.465.586-2.734.586-1.758 0-3.809-1.465a5.505 5.505 0 0 1-1.215-1.24q-.98-1.334-1.765-3.614a27.374 27.374 0 0 1-.438-1.396 31.204 31.204 0 0 1 .199-1.539q.119-.76.268-1.429a18.034 18.034 0 0 1 .07-.303q.326-1.352.697-2.125a4.862 4.862 0 0 1 .036-.073 15.042 15.042 0 0 1 1.256-.66q1.314-.608 2.329-.693a3.858 3.858 0 0 1 .321-.014 10.914 10.914 0 0 1 3.564.586q1.709.586 3.369 1.27a13.817 13.817 0 0 1 .361.14q.494.202.714.348.293.195.488.293a.929.929 0 0 0 .328.092 1.141 1.141 0 0 0 .111.006h1.026q.374 0 .662-.029a3.962 3.962 0 0 0 .168-.02 6.575 6.575 0 0 0 .4-.071 8.278 8.278 0 0 0 .332-.076l.977.098a2.729 2.729 0 0 0 .798.25 3.631 3.631 0 0 0 .569.043 5.047 5.047 0 0 0 .729-.058q.376-.055.804-.162a12.609 12.609 0 0 0 .908-.268q.653-.28 1.083-.382a3.07 3.07 0 0 1 .041-.009 41.381 41.381 0 0 1 .451-.098 48.137 48.137 0 0 1 .476-.097l.782-.782q.572-.19.957-.422a2.412 2.412 0 0 0 .361-.261q.439-.391.781-.879a8.197 8.197 0 0 0 .485-.787 9.467 9.467 0 0 0 .15-.287 7.877 7.877 0 0 1 .317-.571q.205-.336.464-.699a19.076 19.076 0 0 0 .733-.976 19.076 19.076 0 0 1 .732-.977v-.976a55.435 55.435 0 0 0 2.246-5.909q.977-3.076 1.758-6.201a100.35 100.35 0 0 0 1.034-4.577 89.195 89.195 0 0 0 .284-1.478 396.917 396.917 0 0 0 .486-2.7q.226-1.279.417-2.421a237.844 237.844 0 0 0 .025-.152h-.977q-2.184 0-3.664.039a69.934 69.934 0 0 0-.339.01 39.707 39.707 0 0 0-1.49.073 29.358 29.358 0 0 0-1.343.122 28.551 28.551 0 0 0-1.644.24 34.347 34.347 0 0 0-1.041.2 95.314 95.314 0 0 1-.754.152q-1.199.238-2.811.531l-1.464.293a29.545 29.545 0 0 1-2.93 1.367 8.059 8.059 0 0 1-2.197.55 7.356 7.356 0 0 1-.733.036 5.518 5.518 0 0 1-4.074-1.716 7.083 7.083 0 0 1-.223-.237q-1.855-1.269-2.148-3.32a1.495 1.495 0 0 1-.287-.517q-.121-.392-.006-.85a8.717 8.717 0 0 1-.253-.912q-.101-.468-.128-.889a4.695 4.695 0 0 1-.01-.299v-3.076h1.27q.47-.47.668-.714a2.741 2.741 0 0 0 .015-.019 1.358 1.358 0 0 0 .171-.28q.074-.159.122-.354l1.075-.879a48.525 48.525 0 0 0 2.572-.376 55.945 55.945 0 0 0 .894-.161 357.317 357.317 0 0 0 2.793-.54 402.367 402.367 0 0 0 .967-.193q1.856-.39 3.174-.586a39.282 39.282 0 0 1 1.923-.238 34.586 34.586 0 0 1 .616-.055q1.221-.097 2.539-.146a64.067 64.067 0 0 1 1.051-.03q.463-.009.97-.014a112.26 112.26 0 0 1 1.055-.005h2.246q.196-.261.414-.37a.724.724 0 0 1 .221-.069 7.28 7.28 0 0 1 .162-.022q.175-.021.302-.026a1.892 1.892 0 0 1 .073-.001q.489 0 .782.097a5.191 5.191 0 0 1 .206.074q.1.038.185.076a2.506 2.506 0 0 1 .097.046 51.009 51.009 0 0 1 2.637-.403 39.647 39.647 0 0 1 2.441-.232q2.188-.137 3.951-.146a48.245 48.245 0 0 1 .248-.001h1.807a12.984 12.984 0 0 1 1.611.098h5.371a3.481 3.481 0 0 1 .281-.043q.32-.036.789-.049a19.166 19.166 0 0 1 .493-.006q1.562 0 2.002.049.36.04 1.214.179a98.404 98.404 0 0 1 .397.065 240.462 240.462 0 0 0 1.306.184 178.68 178.68 0 0 0 1.184.158 17.727 17.727 0 0 0 2.295.147h1.465l.293.976.781.977a2.238 2.238 0 0 0 .442.69 2.749 2.749 0 0 0 .193.189 19.353 19.353 0 0 1 .452.415 24.626 24.626 0 0 1 .476.464 17.784 17.784 0 0 1 1.201 1.335 21.628 21.628 0 0 1 .703.911 3.351 3.351 0 0 1 .506 1.065q.317 1.109.129 2.743l-.684 1.075q-.488.195-1.172.878l-.879.782a89.776 89.776 0 0 1-.764.066q-.301.025-.574.045a47.746 47.746 0 0 1-.517.035 25.043 25.043 0 0 1-1.563.049 46.262 46.262 0 0 1-2.978-.098 542.583 542.583 0 0 0-2.353-.146 622.053 622.053 0 0 0-.821-.049h-5.664a4.35 4.35 0 0 0-.272.01q-.285.018-.673.07a16.177 16.177 0 0 0-.129.018 46.567 46.567 0 0 1-.208 2.109q-.129 1.044-.298 1.964a27.012 27.012 0 0 1-.08.419q-.391 1.953-1.074 4.101a173.892 173.892 0 0 1-2.793 11.426 154.226 154.226 0 0 1-1.065 3.614 93.489 93.489 0 0 1-2.653 7.507 73.071 73.071 0 0 1-2.376 5.286 73.788 73.788 0 0 1-2.502 2.661 57.353 57.353 0 0 1-2.43 2.319 13.861 13.861 0 0 1-5.322 3.027 40.111 40.111 0 0 0-1.216.181q-.555.091-1.049.191a23.285 23.285 0 0 0-.323.068q-1.123.244-2.197.537a57.58 57.58 0 0 1-.76.146 66.014 66.014 0 0 1-.265.049 5.312 5.312 0 0 0-1.026.293 34.815 34.815 0 0 0-1.774-.309 29.113 29.113 0 0 0-1.009-.13 25.543 25.543 0 0 0-1.257-.11 18.617 18.617 0 0 0-1.136-.037ZM102.832 21.485v1.172a8.896 8.896 0 0 1 1.904 2.49 25.303 25.303 0 0 1 1.151 2.578 28.296 28.296 0 0 1 .168.449l1.172 3.223a23.838 23.838 0 0 0 1.367 3.076 3.568 3.568 0 0 0-.107.305q-.046.152-.068.287a1.482 1.482 0 0 0-.021.238 1.828 1.828 0 0 0 .044.389 2.484 2.484 0 0 0 .103.344 7.193 7.193 0 0 1 .244.781 1.531 1.531 0 0 1 .035.199q.036.319-.022.78a5.978 5.978 0 0 1-.013.095q-.293 4.297-2.783 6.934a20.161 20.161 0 0 1-5.143 3.904 23.257 23.257 0 0 1-.863.441 47.567 47.567 0 0 1-6.773 2.657 52.77 52.77 0 0 1-.747.224q-4.003 1.172-7.226 2.539a.65.65 0 0 0 .015.148q.047.201.24.236a.489.489 0 0 0 .087.007.335.335 0 0 1 .116.018q.207.077.128.47 2.344 1.465 3.711 2.344 1.367.879 2.588 1.465a18.67 18.67 0 0 0 1.941.796 21.442 21.442 0 0 0 .695.229 29.795 29.795 0 0 0 .779.229q1.272.357 3.176.797a781.904 781.904 0 0 1 1.2.277q1.164.271 2.03.477a210.923 210.923 0 0 1 .726.173q1.416.342 2.587.586 1.172.244 2.393.391a55.102 55.102 0 0 0 .674.076q.762.082 1.796.177a214.452 214.452 0 0 0 .997.089q.879.879 1.513 2.099a8.532 8.532 0 0 1 .633 1.564 7.308 7.308 0 0 1 .198.878q.13.813.13 1.584a8.764 8.764 0 0 1-.033.759q-.092 1.059-.618 1.727a2.474 2.474 0 0 1-.065.08q.092.277.403.248a.734.734 0 0 0 .036-.004q.342-.049.733.049-.586.391-.977.977l-.781 1.171a5.506 5.506 0 0 1-.7.856 5.014 5.014 0 0 1-.179.17q-.488.439-1.367.537a9.17 9.17 0 0 1-2.185.536q-2.316.289-5.299-.36a24.305 24.305 0 0 1-.134-.03q-4.589-1.025-11.621-3.759-3.515-1.368-5.713-2.393a40.535 40.535 0 0 1-1.931-.961q-.893-.477-1.661-.954a23.794 23.794 0 0 1-.216-.136q-1.611-1.025-2.93-2.197-.906-.806-2.066-1.842a1875.13 1875.13 0 0 1-1.108-.99 101.506 101.506 0 0 1-.522 1.834q-.581 1.97-1.083 3.312a23.156 23.156 0 0 1-.299.762 15.551 15.551 0 0 1-1.038 2.039q-.622 1.037-1.452 2.112-.959-.148-1.473.095a1.009 1.009 0 0 0-.285.198 7.026 7.026 0 0 1-1.074.878q-.879.196-1.27 0a3.834 3.834 0 0 1-.429-.249 3.13 3.13 0 0 1-.254-.19 3.755 3.755 0 0 0-.285-.214q-.15-.103-.327-.206a6.732 6.732 0 0 0-.121-.068 1.57 1.57 0 0 0-.345-.137q-.39-.107-.973-.107a16.407 16.407 0 0 0-.292-1.028 14.037 14.037 0 0 0-.148-.437q-.236-.662-1.252-.5a3.191 3.191 0 0 0-.066.011q.175-.698.115-1.202a1.898 1.898 0 0 0-.017-.116 7.939 7.939 0 0 0-.126-.573 6.201 6.201 0 0 0-.118-.403 8.849 8.849 0 0 1-.245-.879 1.373 1.373 0 0 1-.029-.209q-.02-.311.076-.717a4.263 4.263 0 0 1 .051-.197.664.664 0 0 1-.482-.211q-.169-.169-.299-.473a13.311 13.311 0 0 0-.635-1.282 14.548 14.548 0 0 0-.049-.085 182.172 182.172 0 0 1 .293-1.709 153.507 153.507 0 0 1 .293-1.612 25.25 25.25 0 0 1 .472-2.056 21.688 21.688 0 0 1 .261-.873 28.333 28.333 0 0 0 .732-2.735 4.39 4.39 0 0 0 .098-.922q0-.669-.201-1.36a5.941 5.941 0 0 0-.19-.55.826.826 0 0 0 .085.057q.287.163.455-.114a.79.79 0 0 0 .046-.089 2.859 2.859 0 0 0 .128-.354q.102-.349.165-.818.098-.732.098-1.465a9.092 9.092 0 0 0-.014-.505q-.012-.229-.037-.426a4.133 4.133 0 0 0-.047-.29 40.465 40.465 0 0 0 1.611-5.224q.635-2.686 1.172-5.322a204.963 204.963 0 0 1 1.123-5.176 25.939 25.939 0 0 1 .99-3.307 22.419 22.419 0 0 1 .573-1.381q.737-.134 1.589.031a6.372 6.372 0 0 1 .803.213 5.423 5.423 0 0 1 .594.235q.798.375 1.018.889 2.539-1.954 4.492-4.737 1.953-2.783 4.004-5.42 2.05-2.636 4.541-4.687a10.505 10.505 0 0 1 3.836-1.977 14.187 14.187 0 0 1 2.463-.465 60.836 60.836 0 0 0 2.474 1.757 75.9 75.9 0 0 0 1.871 1.222 12.74 12.74 0 0 1 3.955 3.955 8.599 8.599 0 0 1 .637.351q.38.232.682.479a10.092 10.092 0 0 0 .516.394q.272.194.587.397a18.282 18.282 0 0 0 .215.137Zm62.598 43.261-.196.391a14.36 14.36 0 0 1-.927 2.068 18.055 18.055 0 0 1-.782 1.301q-1.123 1.709-2.636 3.028-1.514 1.318-3.369 2.197a10.167 10.167 0 0 1-3.907.976q-.936-.216-1.421-.458a1.737 1.737 0 0 1-.288-.176q-.439-.342-.927-.635-.293-.195-.538-.342-.209-.126-.383-.216a4.649 4.649 0 0 0-.056-.028l-1.172-.488.391-1.27a2.864 2.864 0 0 0 .053-.263q.091-.595-.151-.958a2.879 2.879 0 0 0-.197-.257q-.224-.265-.594-.615a16.797 16.797 0 0 0-.381-.348l-.586-.586a4.329 4.329 0 0 1-.295-.325 3.389 3.389 0 0 1-.193-.261l-1.66-1.856 2.637-.683a12.548 12.548 0 0 0 1.183-.391q1.161-.454 1.786-1.038a2.766 2.766 0 0 0 .302-.329 2.722 2.722 0 0 0 .416-.806q.311-.928.244-2.394a13.206 13.206 0 0 0-.025-.413 12.584 12.584 0 0 0-.937-.153q-1.009-.123-1.818-.031a5.015 5.015 0 0 0-.517.086 46.492 46.492 0 0 0-2.685.684 43.58 43.58 0 0 1-3.565.83 19.38 19.38 0 0 1-2.266.285 24.516 24.516 0 0 1-1.689.057 22.19 22.19 0 0 1-.938-.02 18.215 18.215 0 0 1-.527-.029q-.683-.049-1.464-.147l-.977-.195a11.231 11.231 0 0 0-.073-.37q-.159-.732-.318-.851a3.421 3.421 0 0 1-.244-.202 4.12 4.12 0 0 1-.146-.14q-.489-.488-1.026-1.318a2.168 2.168 0 0 1-.331-.951q-.04-.358.017-.767a4.291 4.291 0 0 1 .07-.382 5.116 5.116 0 0 1-.426-.988 4.224 4.224 0 0 1-.16-.769 10.943 10.943 0 0 0-.879 2.441l-.39.977-.977.195a.427.427 0 0 0-.145.123q-.091.116-.148.316a3.832 3.832 0 0 0-.047.181q-.041.176-.049.302a.905.905 0 0 0-.001.054l-.489 1.661a3.931 3.931 0 0 1-.244.225 3.267 3.267 0 0 1-.146.116 3.421 3.421 0 0 0-.244.203 4.12 4.12 0 0 0-.147.139q-.195.879-.488 1.758a50.046 50.046 0 0 1-.403 1.162 42.728 42.728 0 0 1-.183.498 28.314 28.314 0 0 0-.731 2.146 25.495 25.495 0 0 0-.099.344q-.342 1.221-.244 2.393l-.391 1.074a4.384 4.384 0 0 1-.631.624 3.693 3.693 0 0 1-.443.304 20.689 20.689 0 0 1-1.172.635q-.165.164-.433.294a2.504 2.504 0 0 1-.104.048 18.384 18.384 0 0 0-.162.07q-.229.1-.375.174l-.293 1.074-1.172.195a108.382 108.382 0 0 0-.498.092q-.614.114-.942.185a11.258 11.258 0 0 0-.074.016q-.439.098-1.025.098l-.977-.098a73.094 73.094 0 0 1-.506-.418q-.547-.456-.933-.798a19.574 19.574 0 0 1-.221-.2 8.576 8.576 0 0 0-.787-.636 10.72 10.72 0 0 0-.58-.389 12.414 12.414 0 0 1-.369-.517q-.533-.792-.608-1.241a38.811 38.811 0 0 0-.097-.562 29.799 29.799 0 0 0-.098-.512q-.128-.385-.193-.685a3.344 3.344 0 0 1-.051-.292 1.472 1.472 0 0 0-.047-.233q-.036-.122-.093-.218a.687.687 0 0 0-.104-.135l-1.27-1.172 1.074-.879.098-1.66q1.953-4.98 4.15-9.57a1161.873 1161.873 0 0 1 4.541-9.375 137.187 137.187 0 0 0 1.514-3.125 137.187 137.187 0 0 1 1.514-3.125q-.092-.275-.097-.635a3.052 3.052 0 0 1-.001-.049 1.865 1.865 0 0 1 .038-.36q.034-.175.101-.366a3.541 3.541 0 0 1 .056-.153 47.511 47.511 0 0 0 .751-1.197q.399-.658.725-1.253a25.574 25.574 0 0 0 .282-.528 204.966 204.966 0 0 0 1.367-2.686 74.317 74.317 0 0 1 1.612-3.222 21.05 21.05 0 0 1 1.073-1.789 27.041 27.041 0 0 1 1.026-1.434l1.563-.684a14.936 14.936 0 0 0 .233-.08l.216-.077a26.877 26.877 0 0 0 .234-.087 2.277 2.277 0 0 1 .527-.126 2.919 2.919 0 0 1 .352-.02l1.465.195a14.618 14.618 0 0 0 4.785-3.564 41.404 41.404 0 0 0 2.01-2.441q.947-1.238 1.913-2.665a67.813 67.813 0 0 0 .277-.412l.976-1.367 1.27.781a3.512 3.512 0 0 0 .382.196q.408.181.985.341a86.792 86.792 0 0 1 .903.257 102.558 102.558 0 0 1 .952.28 42.382 42.382 0 0 1 2.502.634 36.724 36.724 0 0 1 .819.245 7.077 7.077 0 0 1 1.336.565 5.413 5.413 0 0 1 1.203.9q.586 1.563.683 2.344.098.781.293 1.562a117.356 117.356 0 0 1 .537 3.321 32.743 32.743 0 0 1 .208 1.758 44.306 44.306 0 0 1 .134 1.953q.488 1.66.83 3.271.342 1.611.635 3.272a354.264 354.264 0 0 0 .855 3.989 322.688 322.688 0 0 0 .122.552q.488 2.197 1.269 4.15a10.033 10.033 0 0 1 .272.003q.546.015.705.095a5.312 5.312 0 0 1 1.025-.293 27.217 27.217 0 0 1 .536-.092q.322-.052.685-.104l1.074-.097.391.976q.082.412.721.825a4.53 4.53 0 0 0 .255.152 6.598 6.598 0 0 1 .66.082q.775.139 1.196.455.586.439 1.074.928.363.363.726.557a2.231 2.231 0 0 0 .055.029l1.465.586-.781 1.464a11.588 11.588 0 0 1-1.362 1.932 15.419 15.419 0 0 1-1.421 1.438 17.202 17.202 0 0 1-4.053 2.685 15.827 15.827 0 0 1 .117.834 13.684 13.684 0 0 1 .029.289 4.619 4.619 0 0 0 .119.691 5.683 5.683 0 0 0 .125.432q.293 1.66.489 3.418a16.127 16.127 0 0 1 .097 1.782 17.483 17.483 0 0 1-.097 1.831Zm155.273 6.934-2.246.586a124.358 124.358 0 0 1-2.856.879 155.942 155.942 0 0 1-3.101.879q-3.223.879-6.445.879a15.821 15.821 0 0 1-3.115-.289q-1.885-.378-3.352-1.254a8.858 8.858 0 0 1-1.248-.899 11.534 11.534 0 0 0-.238-.494q-.348-.678-.641-.971a7.247 7.247 0 0 1-.537-.83 2.205 2.205 0 0 1-.157-.36q-.122-.36-.185-.86a10.457 10.457 0 0 1-1.712-2.812 11.967 11.967 0 0 1-.143-.362 16.313 16.313 0 0 1-.928-3.711 18.85 18.85 0 0 1-.153-2.4 19.488 19.488 0 0 1 .055-1.457 19.521 19.521 0 0 1 .491-3.157 17.669 17.669 0 0 1 .144-.554 2.553 2.553 0 0 0 .192-.507 2.2 2.2 0 0 0 .052-.275 10.195 10.195 0 0 1 .057-.387q.038-.232.09-.492a67.57 67.57 0 0 1 .83-3.027 9.214 9.214 0 0 1 .602-1.524 7.459 7.459 0 0 1 .618-1.015 2.259 2.259 0 0 1-.195-.928q0-.488.195-1.025a14.582 14.582 0 0 1 .527-1.267 12.031 12.031 0 0 1 .352-.686 1086.21 1086.21 0 0 0 .964-2.626q.751-2.056 1.331-3.673a238.258 238.258 0 0 1 1.904-5.127 282.933 282.933 0 0 0 3.125-8.691 92.739 92.739 0 0 0 1.717-5.639 110.934 110.934 0 0 0 .92-3.639 33.364 33.364 0 0 1 .366-.226q.513-.311.806-.457a21.591 21.591 0 0 1 .281-.092q.376-.12.656-.191a7.114 7.114 0 0 1 .04-.01 30.122 30.122 0 0 0 1.776.813q1.08.455 2.325.896a19.477 19.477 0 0 0 1.389.437q.699.19 1.311.288a7.671 7.671 0 0 0 1.206.105 12.989 12.989 0 0 1 .314.202q.51.339.663.53a5.712 5.712 0 0 0 .244.286 4.741 4.741 0 0 0 .147.154 19.564 19.564 0 0 1 1.499 2.013 17.365 17.365 0 0 1 .356.575 3.922 3.922 0 0 1 .46 1.217q.167.81.077 1.819a9.222 9.222 0 0 1-.049.43 7.138 7.138 0 0 1-.209.299q-.431.58-.67.58-.488 1.953-1.025 3.321a96.735 96.735 0 0 1-1.123 2.734 56.897 56.897 0 0 0-1.269 2.93q-.586 1.464-.977 3.613a4.972 4.972 0 0 0-.24.324q-.11.163-.188.314a2.166 2.166 0 0 0-.109.241q-.147.39-.342.879a22.725 22.725 0 0 1-.263.629 26.976 26.976 0 0 1-.176.396 2.498 2.498 0 0 1-.699.9 2.906 2.906 0 0 1-.034.028 23.856 23.856 0 0 1-.242 1.63q-.143.768-.327 1.418a10.255 10.255 0 0 1-.359 1.053 127.855 127.855 0 0 1-1.318 3.125 79.725 79.725 0 0 0-2.1 5.664 21.86 21.86 0 0 0-.779 3.23 29.341 29.341 0 0 0-.344 3.216 2.89 2.89 0 0 1 .469-.145 2.194 2.194 0 0 1 .459-.051h.83a6.456 6.456 0 0 1 .763.049q.37.044.781.128a12.394 12.394 0 0 1 .507.116q2.93-1.562 6.396-1.855 3.467-.293 6.885-.391h2.735a16.858 16.858 0 0 0 1.554-.069 13.653 13.653 0 0 0 .985-.126q.879.488 1.123.537a1.868 1.868 0 0 0 .156.024q.225.025.576.025a8.118 8.118 0 0 1 .485.014q.251.015.468.046a4.131 4.131 0 0 1 .219.038q.953.873 1.841 1.359a6.119 6.119 0 0 0 .405.203 23.001 23.001 0 0 0 2.246.879 40.232 40.232 0 0 1 2.1.83 8.241 8.241 0 0 1 1.387.766 9.865 9.865 0 0 1 .615.455l.683 4.199a7.772 7.772 0 0 1 .204.273q.464.654.382.899a2.49 2.49 0 0 1-.036.44q-.043.241-.138.43a1.158 1.158 0 0 1-.216.302l.195 1.074a12.734 12.734 0 0 0-.674.153q-.607.156-.989.336a2.093 2.093 0 0 0-.339.195q-.537.39-1.025.878a23.402 23.402 0 0 1-.364.043q-.338.037-.565.049a3.705 3.705 0 0 1-.194.006h-.635a9.703 9.703 0 0 0-1.108.069q-.558.064-1.188.189a21.191 21.191 0 0 0-1.024.23q-2.637-.879-5.469-.879a26.175 26.175 0 0 0-1.666.055 29.975 29.975 0 0 0-.58.043l-2.344.195a28.253 28.253 0 0 1-2.393.293q-1.22.098-2.49.098Zm218.067 0-2.247.586a124.358 124.358 0 0 1-2.856.879 155.942 155.942 0 0 1-3.101.879q-3.222.879-6.445.879a15.821 15.821 0 0 1-3.115-.289q-1.884-.378-3.352-1.254a8.858 8.858 0 0 1-1.248-.899 11.534 11.534 0 0 0-.238-.494q-.348-.678-.641-.971a7.247 7.247 0 0 1-.537-.83 2.205 2.205 0 0 1-.156-.36q-.123-.36-.186-.86a10.457 10.457 0 0 1-1.711-2.812 11.967 11.967 0 0 1-.144-.362 16.313 16.313 0 0 1-.928-3.711 18.85 18.85 0 0 1-.152-2.4 19.488 19.488 0 0 1 .055-1.457 19.521 19.521 0 0 1 .49-3.157 17.669 17.669 0 0 1 .144-.554 2.553 2.553 0 0 0 .192-.507 2.2 2.2 0 0 0 .052-.275 10.195 10.195 0 0 1 .057-.387q.038-.232.09-.492a67.57 67.57 0 0 1 .83-3.027 9.214 9.214 0 0 1 .603-1.524 7.459 7.459 0 0 1 .618-1.015 2.259 2.259 0 0 1-.196-.928q0-.488.196-1.025a14.582 14.582 0 0 1 .526-1.267 12.031 12.031 0 0 1 .353-.686 1086.21 1086.21 0 0 0 .963-2.626q.752-2.056 1.332-3.673a238.258 238.258 0 0 1 1.904-5.127 282.933 282.933 0 0 0 3.125-8.691 92.739 92.739 0 0 0 1.716-5.639 110.934 110.934 0 0 0 .921-3.639 33.364 33.364 0 0 1 .366-.226q.513-.311.805-.457a21.591 21.591 0 0 1 .281-.092q.376-.12.657-.191a7.114 7.114 0 0 1 .039-.01 30.122 30.122 0 0 0 1.777.813q1.079.455 2.325.896a19.477 19.477 0 0 0 1.388.437q.699.19 1.312.288a7.671 7.671 0 0 0 1.206.105 12.989 12.989 0 0 1 .314.202q.51.339.662.53a5.712 5.712 0 0 0 .245.286 4.741 4.741 0 0 0 .146.154 19.564 19.564 0 0 1 1.5 2.013 17.365 17.365 0 0 1 .355.575 3.922 3.922 0 0 1 .46 1.217q.167.81.077 1.819a9.222 9.222 0 0 1-.048.43 7.138 7.138 0 0 1-.21.299q-.431.58-.669.58-.488 1.953-1.026 3.321a96.735 96.735 0 0 1-1.123 2.734 56.897 56.897 0 0 0-1.269 2.93q-.586 1.464-.977 3.613a4.972 4.972 0 0 0-.239.324q-.11.163-.189.314a2.166 2.166 0 0 0-.109.241q-.146.39-.342.879a22.725 22.725 0 0 1-.263.629 26.976 26.976 0 0 1-.176.396 2.498 2.498 0 0 1-.698.9 2.906 2.906 0 0 1-.034.028 23.856 23.856 0 0 1-.242 1.63q-.143.768-.328 1.418a10.255 10.255 0 0 1-.358 1.053 127.855 127.855 0 0 1-1.319 3.125 79.725 79.725 0 0 0-2.099 5.664 21.86 21.86 0 0 0-.779 3.23 29.341 29.341 0 0 0-.344 3.216 2.89 2.89 0 0 1 .469-.145 2.194 2.194 0 0 1 .459-.051h.83a6.456 6.456 0 0 1 .762.049q.37.044.781.128a12.394 12.394 0 0 1 .507.116q2.93-1.562 6.397-1.855 3.467-.293 6.885-.391h2.734a16.858 16.858 0 0 0 1.555-.069 13.653 13.653 0 0 0 .984-.126q.879.488 1.123.537a1.868 1.868 0 0 0 .157.024q.225.025.576.025a8.118 8.118 0 0 1 .485.014q.25.015.468.046a4.131 4.131 0 0 1 .218.038q.953.873 1.842 1.359a6.119 6.119 0 0 0 .405.203 23.001 23.001 0 0 0 2.246.879 40.232 40.232 0 0 1 2.099.83 8.241 8.241 0 0 1 1.387.766 9.865 9.865 0 0 1 .615.455l.684 4.199a7.772 7.772 0 0 1 .203.273q.464.654.383.899a2.49 2.49 0 0 1-.037.44q-.043.241-.138.43a1.158 1.158 0 0 1-.216.302l.195 1.074a12.734 12.734 0 0 0-.674.153q-.607.156-.989.336a2.093 2.093 0 0 0-.339.195q-.537.39-1.025.878a23.402 23.402 0 0 1-.363.043q-.338.037-.565.049a3.705 3.705 0 0 1-.195.006h-.635a9.703 9.703 0 0 0-1.108.069q-.557.064-1.188.189a21.191 21.191 0 0 0-1.024.23q-2.637-.879-5.469-.879a26.175 26.175 0 0 0-1.666.055 29.975 29.975 0 0 0-.58.043l-2.344.195a28.253 28.253 0 0 1-2.392.293q-1.221.098-2.49.098Zm-172.413-.586a4.086 4.086 0 0 0 .119-.259q.674-1.623.223-4.331a41.058 41.058 0 0 1-.688-7.43 39.266 39.266 0 0 1 .053-2.042 60.473 60.473 0 0 1 1.221-9.327 86.051 86.051 0 0 1 2.49-9.228q1.514-4.59 3.272-9.277a1.745 1.745 0 0 1-.829-.647 2.48 2.48 0 0 1-.294-.574 7.044 7.044 0 0 1-.238-.786 8.565 8.565 0 0 1-.202-1.265 26.485 26.485 0 0 1-.097-2.295V21.68a4.374 4.374 0 0 1-.559-.331 3.27 3.27 0 0 1-1.101-1.28 9.684 9.684 0 0 1-.733-2.198l-.488-2.343a5.052 5.052 0 0 0-1.026-2.149 8.427 8.427 0 0 0-.27.005q-.579.018-1.085.117a4.761 4.761 0 0 0-1.135.367 11.605 11.605 0 0 0-.377.188 10.165 10.165 0 0 0-1.478.935 14.983 14.983 0 0 0-.052.039 16.228 16.228 0 0 0-1.56 1.377 10.891 10.891 0 0 1-1.66 1.367q.196 1.66-.537 3.174a48.305 48.305 0 0 1-.33.669q-.517 1.027-.891 1.626-.382.765-.375 1.35a1.566 1.566 0 0 0 .034.31 2.07 2.07 0 0 1 .029.177q.081.641-.176 1.581-.097.488-.586.634a1.486 1.486 0 0 0-.009.003q-.139.043-.247.106a.674.674 0 0 0-.33.428 1.848 1.848 0 0 0-.071.51q0 .236.058.483a2.744 2.744 0 0 0 .16.472 2.553 2.553 0 0 1 .217 1.034q0 .307-.071.626a53.773 53.773 0 0 1-2.099 7.715q-1.319 3.711-2.002 7.813a27.407 27.407 0 0 0-.089.741 31.216 31.216 0 0 0-.155 2.335 3356.923 3356.923 0 0 1-.098 3.174 47.253 47.253 0 0 1-.195 3.076 10.879 10.879 0 0 1-.194 1.259 8.253 8.253 0 0 1-.441 1.426 201.289 201.289 0 0 0 .113.477q.173.729.373 1.546a354.476 354.476 0 0 0 .442 1.786 79.711 79.711 0 0 0 1.22 4.346q.684 2.197 1.465 4.248a21.408 21.408 0 0 0 .224.563q.341.825.717 1.528a12.094 12.094 0 0 0 .817 1.327q1.318.22 2.747.22a19.311 19.311 0 0 0 .964-.025 9.345 9.345 0 0 0 1.064-.113 7.516 7.516 0 0 0 2.403-.815 5.401 5.401 0 0 0 1.136-.829 5.938 5.938 0 0 0 1.207-1.661Zm81.983-10.156.39.781a16.093 16.093 0 0 1 .189.848 12.771 12.771 0 0 1 .104.617 13.151 13.151 0 0 0 .141.8 16.555 16.555 0 0 0 .152.665 27.742 27.742 0 0 0-.57 1.555 24.676 24.676 0 0 0-.113.349 119.717 119.717 0 0 1-.586 1.807q-.239.558-.348.791a3.932 3.932 0 0 1-.043.088 1.728 1.728 0 0 0-.042.091q-.055.128-.055.202a.505.505 0 0 0 .005.073q.006.037.017.08a1.261 1.261 0 0 0 .026.091q.049.145.049.821a19.71 19.71 0 0 1 0 .009l-.39 1.172a3.754 3.754 0 0 1-.873.882 3.508 3.508 0 0 1-.299.192 13.454 13.454 0 0 1-1.282.647 12.394 12.394 0 0 1-.085.037q-.142.141-.387.258a2.581 2.581 0 0 1-.199.083 2.483 2.483 0 0 0-.241.104q-.216.108-.345.238l-.293 1.172-1.27.195a17.968 17.968 0 0 1-1.153.235q-.557.092-1.044.13a8.24 8.24 0 0 1-.635.026h-1.172a142.454 142.454 0 0 0-.555-.507q-.787-.714-1.3-1.153a12.103 12.103 0 0 0-1.465-1.074q-.939-1.315-1.065-1.952a1.176 1.176 0 0 1-.009-.05q-.098-.635-.293-1.221-.184-1.195-.454-1.611a.885.885 0 0 0-.034-.049l-1.368-1.367 1.172-.879-1.074-1.856q1.151-.863 1.736-1.255a12.657 12.657 0 0 1 .022-.014 5.771 5.771 0 0 0 .537-.403 4.393 4.393 0 0 0 .439-.427 9.731 9.731 0 0 0 .307-.364q.134-.166.277-.356a19.527 19.527 0 0 0 .295-.403q.45-.63 1.396-2.005a445.689 445.689 0 0 0 .167-.242l.879-1.269 1.269.684a1.341 1.341 0 0 0 .249.141q.421.191 1.273.36a15.378 15.378 0 0 0 .187.036 217.791 217.791 0 0 1 .941.176q.372.07.71.136a121.226 121.226 0 0 1 .644.127 29.466 29.466 0 0 0 1.806.472 23.412 23.412 0 0 0 1.319.261q1.351.225 2.204.907a3.53 3.53 0 0 1 .14.118ZM144.531 34.571l-.586.976a40.192 40.192 0 0 0-2.847 3.351 46.485 46.485 0 0 0-.912 1.239q-1.807 2.539-3.077 4.785l-1.171 1.758a25.471 25.471 0 0 0-1.075 1.758 7.167 7.167 0 0 1 .783-.088 6.172 6.172 0 0 1 .34-.01 5.331 5.331 0 0 0 .841-.064 4.788 4.788 0 0 0 .185-.033q2.929-.196 5.322-.44a48.152 48.152 0 0 0 2.522-.329q1.333-.207 2.8-.501a502.546 502.546 0 0 0-1.08-4.532 568.496 568.496 0 0 0-.385-1.571q-.781-3.174-1.66-6.299ZM86.768 32.52a18.344 18.344 0 0 0 2.392-2.832q1.131.357 2.207 1.185a10.875 10.875 0 0 1 1.358 1.256q1.709 1.856 2.099 4.883a2115.684 2115.684 0 0 1-3.418 1.404 2494.175 2494.175 0 0 1-3.613 1.477 31.348 31.348 0 0 1-2.798.994 24.781 24.781 0 0 1-4.331.91q.391-2.148 1.367-3.759a18.113 18.113 0 0 1 2.198-2.93 63.262 63.262 0 0 1 2.539-2.588Z" vector-effect="non-scaling-stroke" stroke-linecap="round" fill-rule="evenodd" font-size="12" stroke="#fff" stroke-width=".945" fill="#fff" style="stroke:#fff;stroke-width:.25mm;fill:#fff"/></svg>