<?xml version="1.0" encoding="utf-8"?>
<svg xmlns="http://www.w3.org/2000/svg" xmlns:xlink="http://www.w3.org/1999/xlink" width="500" height="300" viewBox="0 0 2000 1200">
<defs>
  <clipPath id="clip880">
    <rect x="0" y="0" width="2000" height="1200"/>
  </clipPath>
</defs>
<path clip-path="url(#clip880)" d="
M0 1200 L2000 1200 L2000 0 L0 0  Z
  " fill="#ffffff" fill-rule="evenodd" fill-opacity="1"/>
<defs>
  <clipPath id="clip881">
    <rect x="400" y="0" width="1401" height="1200"/>
  </clipPath>
</defs>
<path clip-path="url(#clip880)" d="
M182.274 1093.9 L1952.76 1093.9 L1952.76 47.2441 L182.274 47.2441  Z
  " fill="#ffffff" fill-rule="evenodd" fill-opacity="1"/>
<defs>
  <clipPath id="clip882">
    <rect x="182" y="47" width="1771" height="1048"/>
  </clipPath>
</defs>
<polyline clip-path="url(#clip882)" style="stroke:#000000; stroke-linecap:butt; stroke-linejoin:round; stroke-width:2; stroke-opacity:0.1; fill:none" points="
  232.382,1093.9 232.382,47.2441 
  "/>
<polyline clip-path="url(#clip882)" style="stroke:#000000; stroke-linecap:butt; stroke-linejoin:round; stroke-width:2; stroke-opacity:0.1; fill:none" points="
  649.948,1093.9 649.948,47.2441 
  "/>
<polyline clip-path="url(#clip882)" style="stroke:#000000; stroke-linecap:butt; stroke-linejoin:round; stroke-width:2; stroke-opacity:0.1; fill:none" points="
  1067.51,1093.9 1067.51,47.2441 
  "/>
<polyline clip-path="url(#clip882)" style="stroke:#000000; stroke-linecap:butt; stroke-linejoin:round; stroke-width:2; stroke-opacity:0.1; fill:none" points="
  1485.08,1093.9 1485.08,47.2441 
  "/>
<polyline clip-path="url(#clip882)" style="stroke:#000000; stroke-linecap:butt; stroke-linejoin:round; stroke-width:2; stroke-opacity:0.1; fill:none" points="
  1902.65,1093.9 1902.65,47.2441 
  "/>
<polyline clip-path="url(#clip880)" style="stroke:#000000; stroke-linecap:butt; stroke-linejoin:round; stroke-width:4; stroke-opacity:1; fill:none" points="
  182.274,1093.9 1952.76,1093.9 
  "/>
<polyline clip-path="url(#clip880)" style="stroke:#000000; stroke-linecap:butt; stroke-linejoin:round; stroke-width:4; stroke-opacity:1; fill:none" points="
  232.382,1093.9 232.382,1075.01 
  "/>
<polyline clip-path="url(#clip880)" style="stroke:#000000; stroke-linecap:butt; stroke-linejoin:round; stroke-width:4; stroke-opacity:1; fill:none" points="
  649.948,1093.9 649.948,1075.01 
  "/>
<polyline clip-path="url(#clip880)" style="stroke:#000000; stroke-linecap:butt; stroke-linejoin:round; stroke-width:4; stroke-opacity:1; fill:none" points="
  1067.51,1093.9 1067.51,1075.01 
  "/>
<polyline clip-path="url(#clip880)" style="stroke:#000000; stroke-linecap:butt; stroke-linejoin:round; stroke-width:4; stroke-opacity:1; fill:none" points="
  1485.08,1093.9 1485.08,1075.01 
  "/>
<polyline clip-path="url(#clip880)" style="stroke:#000000; stroke-linecap:butt; stroke-linejoin:round; stroke-width:4; stroke-opacity:1; fill:none" points="
  1902.65,1093.9 1902.65,1075.01 
  "/>
<path clip-path="url(#clip880)" d="M178.91 1136.28 L208.586 1136.28 L208.586 1140.21 L178.91 1140.21 L178.91 1136.28 Z" fill="#000000" fill-rule="evenodd" fill-opacity="1" /><path clip-path="url(#clip880)" d="M219.489 1149.17 L227.127 1149.17 L227.127 1122.8 L218.817 1124.47 L218.817 1120.21 L227.081 1118.54 L231.757 1118.54 L231.757 1149.17 L239.396 1149.17 L239.396 1153.1 L219.489 1153.1 L219.489 1149.17 Z" fill="#000000" fill-rule="evenodd" fill-opacity="1" /><path clip-path="url(#clip880)" d="M248.84 1147.22 L253.724 1147.22 L253.724 1153.1 L248.84 1153.1 L248.84 1147.22 Z" fill="#000000" fill-rule="evenodd" fill-opacity="1" /><path clip-path="url(#clip880)" d="M273.91 1121.62 Q270.298 1121.62 268.47 1125.19 Q266.664 1128.73 266.664 1135.86 Q266.664 1142.97 268.47 1146.53 Q270.298 1150.07 273.91 1150.07 Q277.544 1150.07 279.349 1146.53 Q281.178 1142.97 281.178 1135.86 Q281.178 1128.73 279.349 1125.19 Q277.544 1121.62 273.91 1121.62 M273.91 1117.92 Q279.72 1117.92 282.775 1122.53 Q285.854 1127.11 285.854 1135.86 Q285.854 1144.59 282.775 1149.19 Q279.72 1153.78 273.91 1153.78 Q268.099 1153.78 265.021 1149.19 Q261.965 1144.59 261.965 1135.86 Q261.965 1127.11 265.021 1122.53 Q268.099 1117.92 273.91 1117.92 Z" fill="#000000" fill-rule="evenodd" fill-opacity="1" /><path clip-path="url(#clip880)" d="M596.974 1136.28 L626.65 1136.28 L626.65 1140.21 L596.974 1140.21 L596.974 1136.28 Z" fill="#000000" fill-rule="evenodd" fill-opacity="1" /><path clip-path="url(#clip880)" d="M646.742 1121.62 Q643.131 1121.62 641.303 1125.19 Q639.497 1128.73 639.497 1135.86 Q639.497 1142.97 641.303 1146.53 Q643.131 1150.07 646.742 1150.07 Q650.377 1150.07 652.182 1146.53 Q654.011 1142.97 654.011 1135.86 Q654.011 1128.73 652.182 1125.19 Q650.377 1121.62 646.742 1121.62 M646.742 1117.92 Q652.553 1117.92 655.608 1122.53 Q658.687 1127.11 658.687 1135.86 Q658.687 1144.59 655.608 1149.19 Q652.553 1153.78 646.742 1153.78 Q640.932 1153.78 637.854 1149.19 Q634.798 1144.59 634.798 1135.86 Q634.798 1127.11 637.854 1122.53 Q640.932 1117.92 646.742 1117.92 Z" fill="#000000" fill-rule="evenodd" fill-opacity="1" /><path clip-path="url(#clip880)" d="M666.904 1147.22 L671.789 1147.22 L671.789 1153.1 L666.904 1153.1 L666.904 1147.22 Z" fill="#000000" fill-rule="evenodd" fill-opacity="1" /><path clip-path="url(#clip880)" d="M682.02 1118.54 L700.376 1118.54 L700.376 1122.48 L686.302 1122.48 L686.302 1130.95 Q687.321 1130.6 688.339 1130.44 Q689.358 1130.26 690.376 1130.26 Q696.163 1130.26 699.543 1133.43 Q702.923 1136.6 702.923 1142.02 Q702.923 1147.59 699.451 1150.7 Q695.978 1153.78 689.659 1153.78 Q687.483 1153.78 685.214 1153.4 Q682.969 1153.03 680.562 1152.29 L680.562 1147.59 Q682.645 1148.73 684.867 1149.28 Q687.089 1149.84 689.566 1149.84 Q693.571 1149.84 695.909 1147.73 Q698.247 1145.63 698.247 1142.02 Q698.247 1138.4 695.909 1136.3 Q693.571 1134.19 689.566 1134.19 Q687.691 1134.19 685.816 1134.61 Q683.964 1135.03 682.02 1135.9 L682.02 1118.54 Z" fill="#000000" fill-rule="evenodd" fill-opacity="1" /><path clip-path="url(#clip880)" d="M1044.9 1121.62 Q1041.29 1121.62 1039.46 1125.19 Q1037.65 1128.73 1037.65 1135.86 Q1037.65 1142.97 1039.46 1146.53 Q1041.29 1150.07 1044.9 1150.07 Q1048.53 1150.07 1050.34 1146.53 Q1052.17 1142.97 1052.17 1135.86 Q1052.17 1128.73 1050.34 1125.19 Q1048.53 1121.62 1044.9 1121.62 M1044.9 1117.92 Q1050.71 1117.92 1053.77 1122.53 Q1056.84 1127.11 1056.84 1135.86 Q1056.84 1144.59 1053.77 1149.19 Q1050.71 1153.78 1044.9 1153.78 Q1039.09 1153.78 1036.01 1149.19 Q1032.95 1144.59 1032.95 1135.86 Q1032.95 1127.11 1036.01 1122.53 Q1039.09 1117.92 1044.9 1117.92 Z" fill="#000000" fill-rule="evenodd" fill-opacity="1" /><path clip-path="url(#clip880)" d="M1065.06 1147.22 L1069.95 1147.22 L1069.95 1153.1 L1065.06 1153.1 L1065.06 1147.22 Z" fill="#000000" fill-rule="evenodd" fill-opacity="1" /><path clip-path="url(#clip880)" d="M1090.13 1121.62 Q1086.52 1121.62 1084.69 1125.19 Q1082.89 1128.73 1082.89 1135.86 Q1082.89 1142.97 1084.69 1146.53 Q1086.52 1150.07 1090.13 1150.07 Q1093.76 1150.07 1095.57 1146.53 Q1097.4 1142.97 1097.4 1135.86 Q1097.4 1128.73 1095.57 1125.19 Q1093.76 1121.62 1090.13 1121.62 M1090.13 1117.92 Q1095.94 1117.92 1099 1122.53 Q1102.07 1127.11 1102.07 1135.86 Q1102.07 1144.59 1099 1149.19 Q1095.94 1153.78 1090.13 1153.78 Q1084.32 1153.78 1081.24 1149.19 Q1078.19 1144.59 1078.19 1135.86 Q1078.19 1127.11 1081.24 1122.53 Q1084.32 1117.92 1090.13 1117.92 Z" fill="#000000" fill-rule="evenodd" fill-opacity="1" /><path clip-path="url(#clip880)" d="M1462.96 1121.62 Q1459.35 1121.62 1457.52 1125.19 Q1455.72 1128.73 1455.72 1135.86 Q1455.72 1142.97 1457.52 1146.53 Q1459.35 1150.07 1462.96 1150.07 Q1466.6 1150.07 1468.4 1146.53 Q1470.23 1142.97 1470.23 1135.86 Q1470.23 1128.73 1468.4 1125.19 Q1466.6 1121.62 1462.96 1121.62 M1462.96 1117.92 Q1468.77 1117.92 1471.83 1122.53 Q1474.91 1127.11 1474.91 1135.86 Q1474.91 1144.59 1471.83 1149.19 Q1468.77 1153.78 1462.96 1153.78 Q1457.15 1153.78 1454.07 1149.19 Q1451.02 1144.59 1451.02 1135.86 Q1451.02 1127.11 1454.07 1122.53 Q1457.15 1117.92 1462.96 1117.92 Z" fill="#000000" fill-rule="evenodd" fill-opacity="1" /><path clip-path="url(#clip880)" d="M1483.13 1147.22 L1488.01 1147.22 L1488.01 1153.1 L1483.13 1153.1 L1483.13 1147.22 Z" fill="#000000" fill-rule="evenodd" fill-opacity="1" /><path clip-path="url(#clip880)" d="M1498.24 1118.54 L1516.6 1118.54 L1516.6 1122.48 L1502.52 1122.48 L1502.52 1130.95 Q1503.54 1130.6 1504.56 1130.44 Q1505.58 1130.26 1506.6 1130.26 Q1512.38 1130.26 1515.76 1133.43 Q1519.14 1136.6 1519.14 1142.02 Q1519.14 1147.59 1515.67 1150.7 Q1512.2 1153.78 1505.88 1153.78 Q1503.7 1153.78 1501.44 1153.4 Q1499.19 1153.03 1496.78 1152.29 L1496.78 1147.59 Q1498.87 1148.73 1501.09 1149.28 Q1503.31 1149.84 1505.79 1149.84 Q1509.79 1149.84 1512.13 1147.73 Q1514.47 1145.63 1514.47 1142.02 Q1514.47 1138.4 1512.13 1136.3 Q1509.79 1134.19 1505.79 1134.19 Q1503.91 1134.19 1502.04 1134.61 Q1500.19 1135.03 1498.24 1135.9 L1498.24 1118.54 Z" fill="#000000" fill-rule="evenodd" fill-opacity="1" /><path clip-path="url(#clip880)" d="M1869.8 1149.17 L1877.44 1149.17 L1877.44 1122.8 L1869.13 1124.47 L1869.13 1120.21 L1877.39 1118.54 L1882.07 1118.54 L1882.07 1149.17 L1889.71 1149.17 L1889.71 1153.1 L1869.8 1153.1 L1869.8 1149.17 Z" fill="#000000" fill-rule="evenodd" fill-opacity="1" /><path clip-path="url(#clip880)" d="M1899.15 1147.22 L1904.04 1147.22 L1904.04 1153.1 L1899.15 1153.1 L1899.15 1147.22 Z" fill="#000000" fill-rule="evenodd" fill-opacity="1" /><path clip-path="url(#clip880)" d="M1924.22 1121.62 Q1920.61 1121.62 1918.78 1125.19 Q1916.98 1128.73 1916.98 1135.86 Q1916.98 1142.97 1918.78 1146.53 Q1920.61 1150.07 1924.22 1150.07 Q1927.86 1150.07 1929.66 1146.53 Q1931.49 1142.97 1931.49 1135.86 Q1931.49 1128.73 1929.66 1125.19 Q1927.86 1121.62 1924.22 1121.62 M1924.22 1117.92 Q1930.03 1117.92 1933.09 1122.53 Q1936.17 1127.11 1936.17 1135.86 Q1936.17 1144.59 1933.09 1149.19 Q1930.03 1153.78 1924.22 1153.78 Q1918.41 1153.78 1915.33 1149.19 Q1912.28 1144.59 1912.28 1135.86 Q1912.28 1127.11 1915.33 1122.53 Q1918.41 1117.92 1924.22 1117.92 Z" fill="#000000" fill-rule="evenodd" fill-opacity="1" /><polyline clip-path="url(#clip882)" style="stroke:#000000; stroke-linecap:butt; stroke-linejoin:round; stroke-width:2; stroke-opacity:0.1; fill:none" points="
  182.274,1064.28 1952.76,1064.28 
  "/>
<polyline clip-path="url(#clip882)" style="stroke:#000000; stroke-linecap:butt; stroke-linejoin:round; stroke-width:2; stroke-opacity:0.1; fill:none" points="
  182.274,799.742 1952.76,799.742 
  "/>
<polyline clip-path="url(#clip882)" style="stroke:#000000; stroke-linecap:butt; stroke-linejoin:round; stroke-width:2; stroke-opacity:0.1; fill:none" points="
  182.274,535.203 1952.76,535.203 
  "/>
<polyline clip-path="url(#clip882)" style="stroke:#000000; stroke-linecap:butt; stroke-linejoin:round; stroke-width:2; stroke-opacity:0.1; fill:none" points="
  182.274,270.664 1952.76,270.664 
  "/>
<polyline clip-path="url(#clip880)" style="stroke:#000000; stroke-linecap:butt; stroke-linejoin:round; stroke-width:4; stroke-opacity:1; fill:none" points="
  182.274,1093.9 182.274,47.2441 
  "/>
<polyline clip-path="url(#clip880)" style="stroke:#000000; stroke-linecap:butt; stroke-linejoin:round; stroke-width:4; stroke-opacity:1; fill:none" points="
  182.274,1064.28 201.172,1064.28 
  "/>
<polyline clip-path="url(#clip880)" style="stroke:#000000; stroke-linecap:butt; stroke-linejoin:round; stroke-width:4; stroke-opacity:1; fill:none" points="
  182.274,799.742 201.172,799.742 
  "/>
<polyline clip-path="url(#clip880)" style="stroke:#000000; stroke-linecap:butt; stroke-linejoin:round; stroke-width:4; stroke-opacity:1; fill:none" points="
  182.274,535.203 201.172,535.203 
  "/>
<polyline clip-path="url(#clip880)" style="stroke:#000000; stroke-linecap:butt; stroke-linejoin:round; stroke-width:4; stroke-opacity:1; fill:none" points="
  182.274,270.664 201.172,270.664 
  "/>
<path clip-path="url(#clip880)" d="M64.9365 1050.08 Q61.3254 1050.08 59.4967 1053.64 Q57.6912 1057.19 57.6912 1064.32 Q57.6912 1071.42 59.4967 1074.99 Q61.3254 1078.53 64.9365 1078.53 Q68.5707 1078.53 70.3763 1074.99 Q72.205 1071.42 72.205 1064.32 Q72.205 1057.19 70.3763 1053.64 Q68.5707 1050.08 64.9365 1050.08 M64.9365 1046.38 Q70.7467 1046.38 73.8022 1050.98 Q76.8809 1055.57 76.8809 1064.32 Q76.8809 1073.04 73.8022 1077.65 Q70.7467 1082.23 64.9365 1082.23 Q59.1264 1082.23 56.0477 1077.65 Q52.9921 1073.04 52.9921 1064.32 Q52.9921 1055.57 56.0477 1050.98 Q59.1264 1046.38 64.9365 1046.38 Z" fill="#000000" fill-rule="evenodd" fill-opacity="1" /><path clip-path="url(#clip880)" d="M85.0984 1075.68 L89.9827 1075.68 L89.9827 1081.56 L85.0984 1081.56 L85.0984 1075.68 Z" fill="#000000" fill-rule="evenodd" fill-opacity="1" /><path clip-path="url(#clip880)" d="M110.168 1050.08 Q106.557 1050.08 104.728 1053.64 Q102.922 1057.19 102.922 1064.32 Q102.922 1071.42 104.728 1074.99 Q106.557 1078.53 110.168 1078.53 Q113.802 1078.53 115.608 1074.99 Q117.436 1071.42 117.436 1064.32 Q117.436 1057.19 115.608 1053.64 Q113.802 1050.08 110.168 1050.08 M110.168 1046.38 Q115.978 1046.38 119.033 1050.98 Q122.112 1055.57 122.112 1064.32 Q122.112 1073.04 119.033 1077.65 Q115.978 1082.23 110.168 1082.23 Q104.358 1082.23 101.279 1077.65 Q98.2234 1073.04 98.2234 1064.32 Q98.2234 1055.57 101.279 1050.98 Q104.358 1046.38 110.168 1046.38 Z" fill="#000000" fill-rule="evenodd" fill-opacity="1" /><path clip-path="url(#clip880)" d="M140.33 1050.08 Q136.719 1050.08 134.89 1053.64 Q133.084 1057.19 133.084 1064.32 Q133.084 1071.42 134.89 1074.99 Q136.719 1078.53 140.33 1078.53 Q143.964 1078.53 145.769 1074.99 Q147.598 1071.42 147.598 1064.32 Q147.598 1057.19 145.769 1053.64 Q143.964 1050.08 140.33 1050.08 M140.33 1046.38 Q146.14 1046.38 149.195 1050.98 Q152.274 1055.57 152.274 1064.32 Q152.274 1073.04 149.195 1077.65 Q146.14 1082.23 140.33 1082.23 Q134.519 1082.23 131.441 1077.65 Q128.385 1073.04 128.385 1064.32 Q128.385 1055.57 131.441 1050.98 Q134.519 1046.38 140.33 1046.38 Z" fill="#000000" fill-rule="evenodd" fill-opacity="1" /><path clip-path="url(#clip880)" d="M66.1634 785.541 Q62.5523 785.541 60.7236 789.106 Q58.918 792.647 58.918 799.777 Q58.918 806.883 60.7236 810.448 Q62.5523 813.99 66.1634 813.99 Q69.7976 813.99 71.6031 810.448 Q73.4318 806.883 73.4318 799.777 Q73.4318 792.647 71.6031 789.106 Q69.7976 785.541 66.1634 785.541 M66.1634 781.837 Q71.9735 781.837 75.029 786.444 Q78.1077 791.027 78.1077 799.777 Q78.1077 808.504 75.029 813.11 Q71.9735 817.694 66.1634 817.694 Q60.3532 817.694 57.2745 813.11 Q54.219 808.504 54.219 799.777 Q54.219 791.027 57.2745 786.444 Q60.3532 781.837 66.1634 781.837 Z" fill="#000000" fill-rule="evenodd" fill-opacity="1" /><path clip-path="url(#clip880)" d="M86.3253 811.143 L91.2095 811.143 L91.2095 817.022 L86.3253 817.022 L86.3253 811.143 Z" fill="#000000" fill-rule="evenodd" fill-opacity="1" /><path clip-path="url(#clip880)" d="M111.395 785.541 Q107.783 785.541 105.955 789.106 Q104.149 792.647 104.149 799.777 Q104.149 806.883 105.955 810.448 Q107.783 813.99 111.395 813.99 Q115.029 813.99 116.834 810.448 Q118.663 806.883 118.663 799.777 Q118.663 792.647 116.834 789.106 Q115.029 785.541 111.395 785.541 M111.395 781.837 Q117.205 781.837 120.26 786.444 Q123.339 791.027 123.339 799.777 Q123.339 808.504 120.26 813.11 Q117.205 817.694 111.395 817.694 Q105.584 817.694 102.506 813.11 Q99.4502 808.504 99.4502 799.777 Q99.4502 791.027 102.506 786.444 Q105.584 781.837 111.395 781.837 Z" fill="#000000" fill-rule="evenodd" fill-opacity="1" /><path clip-path="url(#clip880)" d="M132.367 813.087 L140.006 813.087 L140.006 786.721 L131.695 788.388 L131.695 784.129 L139.959 782.462 L144.635 782.462 L144.635 813.087 L152.274 813.087 L152.274 817.022 L132.367 817.022 L132.367 813.087 Z" fill="#000000" fill-rule="evenodd" fill-opacity="1" /><path clip-path="url(#clip880)" d="M66.5337 521.002 Q62.9226 521.002 61.0939 524.567 Q59.2884 528.108 59.2884 535.238 Q59.2884 542.344 61.0939 545.909 Q62.9226 549.451 66.5337 549.451 Q70.168 549.451 71.9735 545.909 Q73.8022 542.344 73.8022 535.238 Q73.8022 528.108 71.9735 524.567 Q70.168 521.002 66.5337 521.002 M66.5337 517.298 Q72.3439 517.298 75.3994 521.905 Q78.4781 526.488 78.4781 535.238 Q78.4781 543.965 75.3994 548.571 Q72.3439 553.154 66.5337 553.154 Q60.7236 553.154 57.6449 548.571 Q54.5893 543.965 54.5893 535.238 Q54.5893 526.488 57.6449 521.905 Q60.7236 517.298 66.5337 517.298 Z" fill="#000000" fill-rule="evenodd" fill-opacity="1" /><path clip-path="url(#clip880)" d="M86.6956 546.603 L91.5799 546.603 L91.5799 552.483 L86.6956 552.483 L86.6956 546.603 Z" fill="#000000" fill-rule="evenodd" fill-opacity="1" /><path clip-path="url(#clip880)" d="M111.765 521.002 Q108.154 521.002 106.325 524.567 Q104.52 528.108 104.52 535.238 Q104.52 542.344 106.325 545.909 Q108.154 549.451 111.765 549.451 Q115.399 549.451 117.205 545.909 Q119.033 542.344 119.033 535.238 Q119.033 528.108 117.205 524.567 Q115.399 521.002 111.765 521.002 M111.765 517.298 Q117.575 517.298 120.631 521.905 Q123.709 526.488 123.709 535.238 Q123.709 543.965 120.631 548.571 Q117.575 553.154 111.765 553.154 Q105.955 553.154 102.876 548.571 Q99.8206 543.965 99.8206 535.238 Q99.8206 526.488 102.876 521.905 Q105.955 517.298 111.765 517.298 Z" fill="#000000" fill-rule="evenodd" fill-opacity="1" /><path clip-path="url(#clip880)" d="M135.955 548.548 L152.274 548.548 L152.274 552.483 L130.33 552.483 L130.33 548.548 Q132.992 545.793 137.575 541.164 Q142.181 536.511 143.362 535.168 Q145.607 532.645 146.487 530.909 Q147.39 529.15 147.39 527.46 Q147.39 524.705 145.445 522.969 Q143.524 521.233 140.422 521.233 Q138.223 521.233 135.769 521.997 Q133.339 522.761 130.561 524.312 L130.561 519.59 Q133.385 518.455 135.839 517.877 Q138.293 517.298 140.33 517.298 Q145.7 517.298 148.894 519.983 Q152.089 522.668 152.089 527.159 Q152.089 529.289 151.279 531.21 Q150.492 533.108 148.385 535.701 Q147.806 536.372 144.705 539.59 Q141.603 542.784 135.955 548.548 Z" fill="#000000" fill-rule="evenodd" fill-opacity="1" /><path clip-path="url(#clip880)" d="M65.5847 256.463 Q61.9736 256.463 60.1449 260.027 Q58.3393 263.569 58.3393 270.699 Q58.3393 277.805 60.1449 281.37 Q61.9736 284.911 65.5847 284.911 Q69.2189 284.911 71.0244 281.37 Q72.8531 277.805 72.8531 270.699 Q72.8531 263.569 71.0244 260.027 Q69.2189 256.463 65.5847 256.463 M65.5847 252.759 Q71.3948 252.759 74.4503 257.365 Q77.529 261.949 77.529 270.699 Q77.529 279.425 74.4503 284.032 Q71.3948 288.615 65.5847 288.615 Q59.7745 288.615 56.6958 284.032 Q53.6403 279.425 53.6403 270.699 Q53.6403 261.949 56.6958 257.365 Q59.7745 252.759 65.5847 252.759 Z" fill="#000000" fill-rule="evenodd" fill-opacity="1" /><path clip-path="url(#clip880)" d="M85.7466 282.064 L90.6308 282.064 L90.6308 287.944 L85.7466 287.944 L85.7466 282.064 Z" fill="#000000" fill-rule="evenodd" fill-opacity="1" /><path clip-path="url(#clip880)" d="M110.816 256.463 Q107.205 256.463 105.376 260.027 Q103.571 263.569 103.571 270.699 Q103.571 277.805 105.376 281.37 Q107.205 284.911 110.816 284.911 Q114.45 284.911 116.256 281.37 Q118.084 277.805 118.084 270.699 Q118.084 263.569 116.256 260.027 Q114.45 256.463 110.816 256.463 M110.816 252.759 Q116.626 252.759 119.682 257.365 Q122.76 261.949 122.76 270.699 Q122.76 279.425 119.682 284.032 Q116.626 288.615 110.816 288.615 Q105.006 288.615 101.927 284.032 Q98.8715 279.425 98.8715 270.699 Q98.8715 261.949 101.927 257.365 Q105.006 252.759 110.816 252.759 Z" fill="#000000" fill-rule="evenodd" fill-opacity="1" /><path clip-path="url(#clip880)" d="M145.144 269.31 Q148.501 270.027 150.376 272.296 Q152.274 274.564 152.274 277.898 Q152.274 283.013 148.756 285.814 Q145.237 288.615 138.756 288.615 Q136.58 288.615 134.265 288.175 Q131.973 287.759 129.519 286.902 L129.519 282.388 Q131.464 283.523 133.779 284.101 Q136.094 284.68 138.617 284.68 Q143.015 284.68 145.306 282.944 Q147.621 281.208 147.621 277.898 Q147.621 274.842 145.468 273.129 Q143.339 271.393 139.519 271.393 L135.492 271.393 L135.492 267.55 L139.705 267.55 Q143.154 267.55 144.982 266.185 Q146.811 264.796 146.811 262.203 Q146.811 259.541 144.913 258.129 Q143.038 256.694 139.519 256.694 Q137.598 256.694 135.399 257.111 Q133.2 257.527 130.561 258.407 L130.561 254.24 Q133.223 253.5 135.538 253.129 Q137.876 252.759 139.936 252.759 Q145.26 252.759 148.362 255.189 Q151.464 257.597 151.464 261.717 Q151.464 264.587 149.82 266.578 Q148.177 268.546 145.144 269.31 Z" fill="#000000" fill-rule="evenodd" fill-opacity="1" /><polyline clip-path="url(#clip882)" style="stroke:#009af9; stroke-linecap:butt; stroke-linejoin:round; stroke-width:4; stroke-opacity:1; fill:none" points="
  232.382,1064.28 237.968,1028.99 243.554,993.486 249.141,957.833 254.727,922.085 260.313,886.299 265.899,850.535 271.485,814.853 277.071,779.313 282.658,743.976 
  288.244,708.906 293.83,674.164 299.416,639.812 305.002,605.916 310.588,572.537 316.175,539.74 321.761,507.588 327.347,476.144 332.933,445.47 338.519,415.63 
  344.105,386.684 349.692,358.694 355.278,331.718 360.864,305.817 366.45,281.045 372.036,257.461 377.622,235.116 383.209,214.064 388.795,194.354 394.381,176.033 
  399.967,159.147 405.553,143.738 411.14,129.845 416.726,117.504 422.312,106.748 427.898,97.607 433.484,90.1057 439.07,84.2659 444.657,80.1049 450.243,77.6357 
  455.829,76.8665 461.415,77.8012 467.001,80.4382 472.587,84.7712 478.174,90.7886 483.76,98.4731 489.346,107.802 494.932,118.748 500.518,131.275 506.104,145.345 
  511.691,160.912 517.277,177.924 522.863,196.324 528.449,216.049 534.035,237.029 539.622,259.191 545.208,282.455 550.794,306.735 556.38,331.941 561.966,357.979 
  567.552,384.75 573.139,412.15 578.725,440.073 584.311,468.409 589.897,497.048 595.483,525.874 601.069,554.773 606.656,583.631 612.242,612.331 617.828,640.761 
  623.414,668.809 629,696.365 634.586,723.324 640.173,749.586 645.759,775.057 651.345,799.647 656.931,823.275 662.517,845.869 668.104,867.365 673.69,887.707 
  679.276,906.853 684.862,924.769 690.448,941.433 696.034,956.834 701.621,970.974 707.207,983.863 712.793,995.527 718.379,1006 723.965,1015.32 729.551,1023.54 
  735.138,1030.73 740.724,1036.96 746.31,1042.28 751.896,1046.79 757.482,1050.56 763.068,1053.68 768.655,1056.21 774.241,1058.23 779.827,1059.83 785.413,1061.07 
  790.999,1062.01 796.586,1062.72 802.172,1063.23 807.758,1063.59 813.344,1063.84 818.93,1064.01 824.516,1064.12 830.103,1064.19 835.689,1064.23 841.275,1064.25 
  846.861,1064.27 852.447,1064.27 858.033,1064.28 863.62,1064.28 869.206,1064.28 874.792,1064.28 880.378,1064.28 885.964,1064.28 891.55,1064.28 897.137,1064.28 
  902.723,1064.28 908.309,1064.28 913.895,1064.28 919.481,1064.28 925.068,1064.28 930.654,1064.28 936.24,1064.28 941.826,1064.28 947.412,1064.28 952.998,1064.28 
  958.585,1064.28 964.171,1064.28 969.757,1064.28 975.343,1064.28 980.929,1064.28 986.515,1064.28 992.102,1064.28 997.688,1064.28 1003.27,1064.28 1008.86,1064.28 
  1014.45,1064.28 1020.03,1064.28 1025.62,1064.28 1031.2,1064.28 1036.79,1064.28 1042.38,1064.28 1047.96,1064.28 1053.55,1064.28 1059.14,1064.28 1064.72,1064.28 
  1070.31,1064.28 1075.89,1064.28 1081.48,1064.28 1087.07,1064.28 1092.65,1064.28 1098.24,1064.28 1103.83,1064.28 1109.41,1064.28 1115,1064.28 1120.58,1064.28 
  1126.17,1064.28 1131.76,1064.28 1137.34,1064.28 1142.93,1064.28 1148.51,1064.28 1154.1,1064.28 1159.69,1064.28 1165.27,1064.28 1170.86,1064.28 1176.45,1064.28 
  1182.03,1064.28 1187.62,1064.28 1193.2,1064.28 1198.79,1064.28 1204.38,1064.28 1209.96,1064.28 1215.55,1064.28 1221.13,1064.28 1226.72,1064.28 1232.31,1064.28 
  1237.89,1064.28 1243.48,1064.28 1249.07,1064.28 1254.65,1064.28 1260.24,1064.28 1265.82,1064.28 1271.41,1064.28 1277,1064.28 1282.58,1064.27 1288.17,1064.27 
  1293.75,1064.25 1299.34,1064.23 1304.93,1064.19 1310.51,1064.12 1316.1,1064.01 1321.69,1063.84 1327.27,1063.59 1332.86,1063.23 1338.44,1062.72 1344.03,1062.01 
  1349.62,1061.07 1355.2,1059.83 1360.79,1058.23 1366.38,1056.21 1371.96,1053.68 1377.55,1050.56 1383.13,1046.79 1388.72,1042.28 1394.31,1036.96 1399.89,1030.73 
  1405.48,1023.54 1411.06,1015.32 1416.65,1006 1422.24,995.527 1427.82,983.863 1433.41,970.974 1439,956.834 1444.58,941.433 1450.17,924.769 1455.75,906.853 
  1461.34,887.707 1466.93,867.365 1472.51,845.869 1478.1,823.275 1483.68,799.647 1489.27,775.057 1494.86,749.586 1500.44,723.324 1506.03,696.365 1511.62,668.809 
  1517.2,640.761 1522.79,612.331 1528.37,583.631 1533.96,554.773 1539.55,525.874 1545.13,497.048 1550.72,468.409 1556.31,440.073 1561.89,412.15 1567.48,384.75 
  1573.06,357.979 1578.65,331.941 1584.24,306.735 1589.82,282.455 1595.41,259.191 1600.99,237.029 1606.58,216.049 1612.17,196.324 1617.75,177.924 1623.34,160.912 
  1628.93,145.345 1634.51,131.275 1640.1,118.748 1645.68,107.802 1651.27,98.4731 1656.86,90.7886 1662.44,84.7712 1668.03,80.4382 1673.61,77.8012 1679.2,76.8665 
  1684.79,77.6357 1690.37,80.1049 1695.96,84.2659 1701.55,90.1057 1707.13,97.607 1712.72,106.748 1718.3,117.504 1723.89,129.845 1729.48,143.738 1735.06,159.147 
  1740.65,176.033 1746.24,194.354 1751.82,214.064 1757.41,235.116 1762.99,257.461 1768.58,281.045 1774.17,305.817 1779.75,331.718 1785.34,358.694 1790.92,386.684 
  1796.51,415.63 1802.1,445.47 1807.68,476.144 1813.27,507.588 1818.86,539.74 1824.44,572.537 1830.03,605.916 1835.61,639.812 1841.2,674.164 1846.79,708.906 
  1852.37,743.976 1857.96,779.313 1863.54,814.853 1869.13,850.535 1874.72,886.299 1880.3,922.085 1885.89,957.833 1891.48,993.486 1897.06,1028.99 1902.65,1064.28 
  
  "/>
<path clip-path="url(#clip880)" d="
M1580.82 185.813 L1893.74 185.813 L1893.74 82.1328 L1580.82 82.1328  Z
  " fill="#ffffff" fill-rule="evenodd" fill-opacity="1"/>
<polyline clip-path="url(#clip880)" style="stroke:#000000; stroke-linecap:butt; stroke-linejoin:round; stroke-width:4; stroke-opacity:1; fill:none" points="
  1580.82,185.813 1893.74,185.813 1893.74,82.1328 1580.82,82.1328 1580.82,185.813 
  "/>
<polyline clip-path="url(#clip880)" style="stroke:#009af9; stroke-linecap:butt; stroke-linejoin:round; stroke-width:4; stroke-opacity:1; fill:none" points="
  1600.82,133.973 1720.82,133.973 
  "/>
<path clip-path="url(#clip880)" d="M1740.82 116.693 L1745.5 116.693 L1745.5 130.859 L1762.49 130.859 L1762.49 116.693 L1767.17 116.693 L1767.17 151.253 L1762.49 151.253 L1762.49 134.795 L1745.5 134.795 L1745.5 151.253 L1740.82 151.253 L1740.82 116.693 Z" fill="#000000" fill-rule="evenodd" fill-opacity="1" /><path clip-path="url(#clip880)" d="M1798.46 137.225 L1798.46 139.308 L1778.88 139.308 Q1779.16 143.706 1781.52 146.021 Q1783.9 148.313 1788.14 148.313 Q1790.59 148.313 1792.88 147.711 Q1795.2 147.109 1797.47 145.906 L1797.47 149.933 Q1795.18 150.906 1792.77 151.415 Q1790.36 151.924 1787.88 151.924 Q1781.68 151.924 1778.05 148.313 Q1774.43 144.702 1774.43 138.544 Q1774.43 132.179 1777.86 128.452 Q1781.31 124.702 1787.14 124.702 Q1792.37 124.702 1795.41 128.082 Q1798.46 131.438 1798.46 137.225 M1794.2 135.975 Q1794.16 132.48 1792.24 130.396 Q1790.34 128.313 1787.19 128.313 Q1783.62 128.313 1781.47 130.327 Q1779.34 132.341 1779.02 135.998 L1794.2 135.975 Z" fill="#000000" fill-rule="evenodd" fill-opacity="1" /><path clip-path="url(#clip880)" d="M1805.45 115.234 L1809.71 115.234 L1809.71 151.253 L1805.45 151.253 L1805.45 115.234 Z" fill="#000000" fill-rule="evenodd" fill-opacity="1" /><path clip-path="url(#clip880)" d="M1818.62 115.234 L1822.88 115.234 L1822.88 151.253 L1818.62 151.253 L1818.62 115.234 Z" fill="#000000" fill-rule="evenodd" fill-opacity="1" /><path clip-path="url(#clip880)" d="M1841.84 128.313 Q1838.42 128.313 1836.43 130.998 Q1834.43 133.66 1834.43 138.313 Q1834.43 142.966 1836.4 145.651 Q1838.39 148.313 1841.84 148.313 Q1845.24 148.313 1847.24 145.628 Q1849.23 142.943 1849.23 138.313 Q1849.23 133.707 1847.24 131.021 Q1845.24 128.313 1841.84 128.313 M1841.84 124.702 Q1847.4 124.702 1850.57 128.313 Q1853.74 131.924 1853.74 138.313 Q1853.74 144.679 1850.57 148.313 Q1847.4 151.924 1841.84 151.924 Q1836.26 151.924 1833.09 148.313 Q1829.94 144.679 1829.94 138.313 Q1829.94 131.924 1833.09 128.313 Q1836.26 124.702 1841.84 124.702 Z" fill="#000000" fill-rule="evenodd" fill-opacity="1" /></svg>
