<?xml version="1.0" encoding="utf-8"?>
<svg xmlns="http://www.w3.org/2000/svg" xmlns:xlink="http://www.w3.org/1999/xlink" width="500" height="300" viewBox="0 0 2000 1200">
<defs>
  <clipPath id="clip610">
    <rect x="0" y="0" width="2000" height="1200"/>
  </clipPath>
</defs>
<path clip-path="url(#clip610)" d="
M0 1200 L2000 1200 L2000 0 L0 0  Z
  " fill="#ffffff" fill-rule="evenodd" fill-opacity="1"/>
<defs>
  <clipPath id="clip611">
    <rect x="400" y="0" width="1401" height="1200"/>
  </clipPath>
</defs>
<path clip-path="url(#clip610)" d="
M152.598 1093.9 L1952.76 1093.9 L1952.76 47.2441 L152.598 47.2441  Z
  " fill="#ffffff" fill-rule="evenodd" fill-opacity="1"/>
<defs>
  <clipPath id="clip612">
    <rect x="152" y="47" width="1801" height="1048"/>
  </clipPath>
</defs>
<polyline clip-path="url(#clip612)" style="stroke:#000000; stroke-linecap:butt; stroke-linejoin:round; stroke-width:2; stroke-opacity:0.1; fill:none" points="
  203.546,1093.9 203.546,47.2441 
  "/>
<polyline clip-path="url(#clip612)" style="stroke:#000000; stroke-linecap:butt; stroke-linejoin:round; stroke-width:2; stroke-opacity:0.1; fill:none" points="
  744.12,1093.9 744.12,47.2441 
  "/>
<polyline clip-path="url(#clip612)" style="stroke:#000000; stroke-linecap:butt; stroke-linejoin:round; stroke-width:2; stroke-opacity:0.1; fill:none" points="
  1284.69,1093.9 1284.69,47.2441 
  "/>
<polyline clip-path="url(#clip612)" style="stroke:#000000; stroke-linecap:butt; stroke-linejoin:round; stroke-width:2; stroke-opacity:0.1; fill:none" points="
  1825.27,1093.9 1825.27,47.2441 
  "/>
<polyline clip-path="url(#clip610)" style="stroke:#000000; stroke-linecap:butt; stroke-linejoin:round; stroke-width:4; stroke-opacity:1; fill:none" points="
  152.598,1093.9 1952.76,1093.9 
  "/>
<polyline clip-path="url(#clip610)" style="stroke:#000000; stroke-linecap:butt; stroke-linejoin:round; stroke-width:4; stroke-opacity:1; fill:none" points="
  203.546,1093.9 203.546,1075.01 
  "/>
<polyline clip-path="url(#clip610)" style="stroke:#000000; stroke-linecap:butt; stroke-linejoin:round; stroke-width:4; stroke-opacity:1; fill:none" points="
  744.12,1093.9 744.12,1075.01 
  "/>
<polyline clip-path="url(#clip610)" style="stroke:#000000; stroke-linecap:butt; stroke-linejoin:round; stroke-width:4; stroke-opacity:1; fill:none" points="
  1284.69,1093.9 1284.69,1075.01 
  "/>
<polyline clip-path="url(#clip610)" style="stroke:#000000; stroke-linecap:butt; stroke-linejoin:round; stroke-width:4; stroke-opacity:1; fill:none" points="
  1825.27,1093.9 1825.27,1075.01 
  "/>
<path clip-path="url(#clip610)" d="M203.546 1121.62 Q199.935 1121.62 198.106 1125.19 Q196.301 1128.73 196.301 1135.86 Q196.301 1142.97 198.106 1146.53 Q199.935 1150.07 203.546 1150.07 Q207.18 1150.07 208.986 1146.53 Q210.815 1142.97 210.815 1135.86 Q210.815 1128.73 208.986 1125.19 Q207.18 1121.62 203.546 1121.62 M203.546 1117.92 Q209.356 1117.92 212.412 1122.53 Q215.49 1127.11 215.49 1135.86 Q215.49 1144.59 212.412 1149.19 Q209.356 1153.78 203.546 1153.78 Q197.736 1153.78 194.657 1149.19 Q191.602 1144.59 191.602 1135.86 Q191.602 1127.11 194.657 1122.53 Q197.736 1117.92 203.546 1117.92 Z" fill="#000000" fill-rule="evenodd" fill-opacity="1" /><path clip-path="url(#clip610)" d="M734.502 1149.17 L742.141 1149.17 L742.141 1122.8 L733.83 1124.47 L733.83 1120.21 L742.094 1118.54 L746.77 1118.54 L746.77 1149.17 L754.409 1149.17 L754.409 1153.1 L734.502 1153.1 L734.502 1149.17 Z" fill="#000000" fill-rule="evenodd" fill-opacity="1" /><path clip-path="url(#clip610)" d="M1279.35 1149.17 L1295.67 1149.17 L1295.67 1153.1 L1273.72 1153.1 L1273.72 1149.17 Q1276.38 1146.41 1280.97 1141.78 Q1285.57 1137.13 1286.75 1135.79 Q1289 1133.27 1289.88 1131.53 Q1290.78 1129.77 1290.78 1128.08 Q1290.78 1125.33 1288.84 1123.59 Q1286.92 1121.85 1283.81 1121.85 Q1281.61 1121.85 1279.16 1122.62 Q1276.73 1123.38 1273.95 1124.93 L1273.95 1120.21 Q1276.78 1119.08 1279.23 1118.5 Q1281.68 1117.92 1283.72 1117.92 Q1289.09 1117.92 1292.29 1120.6 Q1295.48 1123.29 1295.48 1127.78 Q1295.48 1129.91 1294.67 1131.83 Q1293.88 1133.73 1291.78 1136.32 Q1291.2 1136.99 1288.1 1140.21 Q1284.99 1143.4 1279.35 1149.17 Z" fill="#000000" fill-rule="evenodd" fill-opacity="1" /><path clip-path="url(#clip610)" d="M1829.51 1134.47 Q1832.87 1135.19 1834.75 1137.46 Q1836.64 1139.72 1836.64 1143.06 Q1836.64 1148.17 1833.13 1150.97 Q1829.61 1153.78 1823.13 1153.78 Q1820.95 1153.78 1818.63 1153.34 Q1816.34 1152.92 1813.89 1152.06 L1813.89 1147.55 Q1815.83 1148.68 1818.15 1149.26 Q1820.46 1149.84 1822.99 1149.84 Q1827.38 1149.84 1829.68 1148.1 Q1831.99 1146.37 1831.99 1143.06 Q1831.99 1140 1829.84 1138.29 Q1827.71 1136.55 1823.89 1136.55 L1819.86 1136.55 L1819.86 1132.71 L1824.07 1132.71 Q1827.52 1132.71 1829.35 1131.34 Q1831.18 1129.96 1831.18 1127.36 Q1831.18 1124.7 1829.28 1123.29 Q1827.41 1121.85 1823.89 1121.85 Q1821.97 1121.85 1819.77 1122.27 Q1817.57 1122.69 1814.93 1123.57 L1814.93 1119.4 Q1817.59 1118.66 1819.91 1118.29 Q1822.25 1117.92 1824.31 1117.92 Q1829.63 1117.92 1832.73 1120.35 Q1835.83 1122.76 1835.83 1126.88 Q1835.83 1129.75 1834.19 1131.74 Q1832.55 1133.71 1829.51 1134.47 Z" fill="#000000" fill-rule="evenodd" fill-opacity="1" /><polyline clip-path="url(#clip612)" style="stroke:#000000; stroke-linecap:butt; stroke-linejoin:round; stroke-width:2; stroke-opacity:0.1; fill:none" points="
  152.598,941.034 1952.76,941.034 
  "/>
<polyline clip-path="url(#clip612)" style="stroke:#000000; stroke-linecap:butt; stroke-linejoin:round; stroke-width:2; stroke-opacity:0.1; fill:none" points="
  152.598,745.51 1952.76,745.51 
  "/>
<polyline clip-path="url(#clip612)" style="stroke:#000000; stroke-linecap:butt; stroke-linejoin:round; stroke-width:2; stroke-opacity:0.1; fill:none" points="
  152.598,549.986 1952.76,549.986 
  "/>
<polyline clip-path="url(#clip612)" style="stroke:#000000; stroke-linecap:butt; stroke-linejoin:round; stroke-width:2; stroke-opacity:0.1; fill:none" points="
  152.598,354.462 1952.76,354.462 
  "/>
<polyline clip-path="url(#clip612)" style="stroke:#000000; stroke-linecap:butt; stroke-linejoin:round; stroke-width:2; stroke-opacity:0.1; fill:none" points="
  152.598,158.938 1952.76,158.938 
  "/>
<polyline clip-path="url(#clip610)" style="stroke:#000000; stroke-linecap:butt; stroke-linejoin:round; stroke-width:4; stroke-opacity:1; fill:none" points="
  152.598,1093.9 152.598,47.2441 
  "/>
<polyline clip-path="url(#clip610)" style="stroke:#000000; stroke-linecap:butt; stroke-linejoin:round; stroke-width:4; stroke-opacity:1; fill:none" points="
  152.598,941.034 171.496,941.034 
  "/>
<polyline clip-path="url(#clip610)" style="stroke:#000000; stroke-linecap:butt; stroke-linejoin:round; stroke-width:4; stroke-opacity:1; fill:none" points="
  152.598,745.51 171.496,745.51 
  "/>
<polyline clip-path="url(#clip610)" style="stroke:#000000; stroke-linecap:butt; stroke-linejoin:round; stroke-width:4; stroke-opacity:1; fill:none" points="
  152.598,549.986 171.496,549.986 
  "/>
<polyline clip-path="url(#clip610)" style="stroke:#000000; stroke-linecap:butt; stroke-linejoin:round; stroke-width:4; stroke-opacity:1; fill:none" points="
  152.598,354.462 171.496,354.462 
  "/>
<polyline clip-path="url(#clip610)" style="stroke:#000000; stroke-linecap:butt; stroke-linejoin:round; stroke-width:4; stroke-opacity:1; fill:none" points="
  152.598,158.938 171.496,158.938 
  "/>
<path clip-path="url(#clip610)" d="M65.4226 926.833 Q61.8115 926.833 59.9828 930.397 Q58.1773 933.939 58.1773 941.069 Q58.1773 948.175 59.9828 951.74 Q61.8115 955.281 65.4226 955.281 Q69.0569 955.281 70.8624 951.74 Q72.6911 948.175 72.6911 941.069 Q72.6911 933.939 70.8624 930.397 Q69.0569 926.833 65.4226 926.833 M65.4226 923.129 Q71.2328 923.129 74.2883 927.735 Q77.367 932.319 77.367 941.069 Q77.367 949.795 74.2883 954.402 Q71.2328 958.985 65.4226 958.985 Q59.6125 958.985 56.5338 954.402 Q53.4782 949.795 53.4782 941.069 Q53.4782 932.319 56.5338 927.735 Q59.6125 923.129 65.4226 923.129 Z" fill="#000000" fill-rule="evenodd" fill-opacity="1" /><path clip-path="url(#clip610)" d="M85.5845 952.434 L90.4688 952.434 L90.4688 958.314 L85.5845 958.314 L85.5845 952.434 Z" fill="#000000" fill-rule="evenodd" fill-opacity="1" /><path clip-path="url(#clip610)" d="M110.654 926.833 Q107.043 926.833 105.214 930.397 Q103.409 933.939 103.409 941.069 Q103.409 948.175 105.214 951.74 Q107.043 955.281 110.654 955.281 Q114.288 955.281 116.094 951.74 Q117.922 948.175 117.922 941.069 Q117.922 933.939 116.094 930.397 Q114.288 926.833 110.654 926.833 M110.654 923.129 Q116.464 923.129 119.52 927.735 Q122.598 932.319 122.598 941.069 Q122.598 949.795 119.52 954.402 Q116.464 958.985 110.654 958.985 Q104.844 958.985 101.765 954.402 Q98.7095 949.795 98.7095 941.069 Q98.7095 932.319 101.765 927.735 Q104.844 923.129 110.654 923.129 Z" fill="#000000" fill-rule="evenodd" fill-opacity="1" /><path clip-path="url(#clip610)" d="M67.0198 731.309 Q63.4087 731.309 61.58 734.873 Q59.7745 738.415 59.7745 745.545 Q59.7745 752.651 61.58 756.216 Q63.4087 759.757 67.0198 759.757 Q70.6541 759.757 72.4596 756.216 Q74.2883 752.651 74.2883 745.545 Q74.2883 738.415 72.4596 734.873 Q70.6541 731.309 67.0198 731.309 M67.0198 727.605 Q72.83 727.605 75.8855 732.211 Q78.9642 736.795 78.9642 745.545 Q78.9642 754.271 75.8855 758.878 Q72.83 763.461 67.0198 763.461 Q61.2097 763.461 58.131 758.878 Q55.0754 754.271 55.0754 745.545 Q55.0754 736.795 58.131 732.211 Q61.2097 727.605 67.0198 727.605 Z" fill="#000000" fill-rule="evenodd" fill-opacity="1" /><path clip-path="url(#clip610)" d="M87.1818 756.91 L92.066 756.91 L92.066 762.79 L87.1818 762.79 L87.1818 756.91 Z" fill="#000000" fill-rule="evenodd" fill-opacity="1" /><path clip-path="url(#clip610)" d="M106.279 758.855 L122.598 758.855 L122.598 762.79 L100.654 762.79 L100.654 758.855 Q103.316 756.1 107.899 751.47 Q112.506 746.818 113.686 745.475 Q115.932 742.952 116.811 741.216 Q117.714 739.457 117.714 737.767 Q117.714 735.012 115.77 733.276 Q113.848 731.54 110.746 731.54 Q108.547 731.54 106.094 732.304 Q103.663 733.068 100.885 734.619 L100.885 729.897 Q103.709 728.762 106.163 728.184 Q108.617 727.605 110.654 727.605 Q116.024 727.605 119.219 730.29 Q122.413 732.975 122.413 737.466 Q122.413 739.596 121.603 741.517 Q120.816 743.415 118.709 746.008 Q118.131 746.679 115.029 749.896 Q111.927 753.091 106.279 758.855 Z" fill="#000000" fill-rule="evenodd" fill-opacity="1" /><path clip-path="url(#clip610)" d="M64.9365 535.785 Q61.3254 535.785 59.4967 539.349 Q57.6912 542.891 57.6912 550.021 Q57.6912 557.127 59.4967 560.692 Q61.3254 564.234 64.9365 564.234 Q68.5707 564.234 70.3763 560.692 Q72.205 557.127 72.205 550.021 Q72.205 542.891 70.3763 539.349 Q68.5707 535.785 64.9365 535.785 M64.9365 532.081 Q70.7467 532.081 73.8022 536.687 Q76.8809 541.271 76.8809 550.021 Q76.8809 558.747 73.8022 563.354 Q70.7467 567.937 64.9365 567.937 Q59.1264 567.937 56.0477 563.354 Q52.9921 558.747 52.9921 550.021 Q52.9921 541.271 56.0477 536.687 Q59.1264 532.081 64.9365 532.081 Z" fill="#000000" fill-rule="evenodd" fill-opacity="1" /><path clip-path="url(#clip610)" d="M85.0984 561.386 L89.9827 561.386 L89.9827 567.266 L85.0984 567.266 L85.0984 561.386 Z" fill="#000000" fill-rule="evenodd" fill-opacity="1" /><path clip-path="url(#clip610)" d="M113.015 536.78 L101.209 555.229 L113.015 555.229 L113.015 536.78 M111.788 532.706 L117.668 532.706 L117.668 555.229 L122.598 555.229 L122.598 559.118 L117.668 559.118 L117.668 567.266 L113.015 567.266 L113.015 559.118 L97.4132 559.118 L97.4132 554.604 L111.788 532.706 Z" fill="#000000" fill-rule="evenodd" fill-opacity="1" /><path clip-path="url(#clip610)" d="M65.2606 340.261 Q61.6495 340.261 59.8208 343.825 Q58.0152 347.367 58.0152 354.497 Q58.0152 361.603 59.8208 365.168 Q61.6495 368.71 65.2606 368.71 Q68.8948 368.71 70.7004 365.168 Q72.5291 361.603 72.5291 354.497 Q72.5291 347.367 70.7004 343.825 Q68.8948 340.261 65.2606 340.261 M65.2606 336.557 Q71.0707 336.557 74.1263 341.163 Q77.205 345.747 77.205 354.497 Q77.205 363.224 74.1263 367.83 Q71.0707 372.413 65.2606 372.413 Q59.4504 372.413 56.3717 367.83 Q53.3162 363.224 53.3162 354.497 Q53.3162 345.747 56.3717 341.163 Q59.4504 336.557 65.2606 336.557 Z" fill="#000000" fill-rule="evenodd" fill-opacity="1" /><path clip-path="url(#clip610)" d="M85.4225 365.862 L90.3067 365.862 L90.3067 371.742 L85.4225 371.742 L85.4225 365.862 Z" fill="#000000" fill-rule="evenodd" fill-opacity="1" /><path clip-path="url(#clip610)" d="M111.071 352.599 Q107.922 352.599 106.071 354.751 Q104.242 356.904 104.242 360.654 Q104.242 364.381 106.071 366.557 Q107.922 368.71 111.071 368.71 Q114.219 368.71 116.047 366.557 Q117.899 364.381 117.899 360.654 Q117.899 356.904 116.047 354.751 Q114.219 352.599 111.071 352.599 M120.353 337.946 L120.353 342.205 Q118.594 341.372 116.788 340.932 Q115.006 340.492 113.246 340.492 Q108.617 340.492 106.163 343.617 Q103.733 346.742 103.385 353.062 Q104.751 351.048 106.811 349.983 Q108.871 348.895 111.348 348.895 Q116.557 348.895 119.566 352.066 Q122.598 355.214 122.598 360.654 Q122.598 365.978 119.45 369.196 Q116.302 372.413 111.071 372.413 Q105.075 372.413 101.904 367.83 Q98.7326 363.224 98.7326 354.497 Q98.7326 346.302 102.621 341.441 Q106.51 336.557 113.061 336.557 Q114.82 336.557 116.603 336.904 Q118.408 337.251 120.353 337.946 Z" fill="#000000" fill-rule="evenodd" fill-opacity="1" /><path clip-path="url(#clip610)" d="M65.5152 144.737 Q61.9041 144.737 60.0754 148.302 Q58.2699 151.843 58.2699 158.973 Q58.2699 166.079 60.0754 169.644 Q61.9041 173.186 65.5152 173.186 Q69.1494 173.186 70.955 169.644 Q72.7837 166.079 72.7837 158.973 Q72.7837 151.843 70.955 148.302 Q69.1494 144.737 65.5152 144.737 M65.5152 141.033 Q71.3254 141.033 74.3809 145.64 Q77.4596 150.223 77.4596 158.973 Q77.4596 167.7 74.3809 172.306 Q71.3254 176.889 65.5152 176.889 Q59.7051 176.889 56.6264 172.306 Q53.5708 167.7 53.5708 158.973 Q53.5708 150.223 56.6264 145.64 Q59.7051 141.033 65.5152 141.033 Z" fill="#000000" fill-rule="evenodd" fill-opacity="1" /><path clip-path="url(#clip610)" d="M85.6771 170.338 L90.5614 170.338 L90.5614 176.218 L85.6771 176.218 L85.6771 170.338 Z" fill="#000000" fill-rule="evenodd" fill-opacity="1" /><path clip-path="url(#clip610)" d="M110.746 159.806 Q107.413 159.806 105.492 161.589 Q103.594 163.371 103.594 166.496 Q103.594 169.621 105.492 171.403 Q107.413 173.186 110.746 173.186 Q114.08 173.186 116.001 171.403 Q117.922 169.598 117.922 166.496 Q117.922 163.371 116.001 161.589 Q114.103 159.806 110.746 159.806 M106.071 157.815 Q103.061 157.075 101.371 155.014 Q99.7048 152.954 99.7048 149.991 Q99.7048 145.848 102.645 143.44 Q105.608 141.033 110.746 141.033 Q115.908 141.033 118.848 143.44 Q121.788 145.848 121.788 149.991 Q121.788 152.954 120.098 155.014 Q118.432 157.075 115.445 157.815 Q118.825 158.602 120.7 160.894 Q122.598 163.186 122.598 166.496 Q122.598 171.519 119.52 174.204 Q116.464 176.889 110.746 176.889 Q105.029 176.889 101.95 174.204 Q98.8947 171.519 98.8947 166.496 Q98.8947 163.186 100.793 160.894 Q102.691 158.602 106.071 157.815 M104.358 150.431 Q104.358 153.116 106.024 154.621 Q107.714 156.126 110.746 156.126 Q113.756 156.126 115.445 154.621 Q117.158 153.116 117.158 150.431 Q117.158 147.746 115.445 146.241 Q113.756 144.737 110.746 144.737 Q107.714 144.737 106.024 146.241 Q104.358 147.746 104.358 150.431 Z" fill="#000000" fill-rule="evenodd" fill-opacity="1" /><polyline clip-path="url(#clip612)" style="stroke:#009af9; stroke-linecap:butt; stroke-linejoin:round; stroke-width:4; stroke-opacity:1; fill:none" points="
  203.546,118.395 206.949,115.129 210.353,111.985 213.756,108.963 217.159,106.065 220.563,103.294 223.966,100.651 227.369,98.138 230.773,95.7568 234.176,93.5091 
  237.579,91.3965 240.983,89.4207 244.386,87.5834 247.789,85.886 251.193,84.3301 254.596,82.9173 257.999,81.649 261.403,80.5266 264.806,79.5515 268.209,78.7251 
  271.613,78.0486 275.016,77.5233 278.419,77.1505 281.823,76.9312 285.226,76.8665 288.629,76.9576 292.033,77.2054 295.436,77.6109 298.839,78.175 302.243,78.8985 
  305.646,79.7822 309.049,80.8268 312.453,82.033 315.856,83.4014 319.259,84.9326 322.663,86.6269 326.066,88.4849 329.469,90.507 332.873,92.6932 336.276,95.044 
  339.679,97.5595 343.083,100.24 346.486,103.085 349.889,106.094 353.293,109.268 356.696,112.607 360.099,116.109 363.503,119.775 366.906,123.605 370.309,127.597 
  373.713,131.751 377.116,136.067 380.519,140.543 383.923,145.18 387.326,149.975 390.729,154.928 394.133,160.038 397.536,165.304 400.939,170.724 404.343,176.298 
  407.746,182.023 411.149,187.898 414.553,193.922 417.956,200.092 421.359,206.408 424.763,212.867 428.166,219.467 431.569,226.207 434.973,233.084 438.376,240.095 
  441.779,247.24 445.183,254.514 448.586,261.916 451.989,269.444 455.393,277.093 458.796,284.863 462.199,292.75 465.603,300.75 469.006,308.862 472.409,317.081 
  475.813,325.405 479.216,333.83 482.619,342.354 486.023,350.972 489.426,359.681 492.829,368.478 496.233,377.359 499.636,386.319 503.039,395.356 506.443,404.465 
  509.846,413.642 513.249,422.883 516.653,432.185 520.056,441.542 523.459,450.951 526.862,460.407 530.266,469.905 533.669,479.442 537.072,489.013 540.476,498.612 
  543.879,508.236 547.282,517.88 550.686,527.538 554.089,537.207 557.492,546.88 560.896,556.554 564.299,566.223 567.702,575.883 571.106,585.527 574.509,595.152 
  577.912,604.752 581.316,614.322 584.719,623.856 588.122,633.35 591.526,642.798 594.929,652.196 598.332,661.537 601.736,670.817 605.139,680.03 608.542,689.172 
  611.946,698.237 615.349,707.22 618.752,716.115 622.156,724.918 625.559,733.623 628.962,742.225 632.366,750.719 635.769,759.101 639.172,767.364 642.576,775.505 
  645.979,783.518 649.382,791.398 652.786,799.141 656.189,806.742 659.592,814.196 662.996,821.499 666.399,828.646 669.802,835.633 673.206,842.456 676.609,849.11 
  680.012,855.591 683.416,861.896 686.819,868.02 690.222,873.96 693.626,879.712 697.029,885.272 700.432,890.638 703.836,895.806 707.239,900.773 710.642,905.537 
  714.046,910.093 717.449,914.441 720.852,918.577 724.256,922.5 727.659,926.206 731.062,929.695 734.466,932.965 737.869,936.014 741.272,938.84 744.676,941.444 
  748.079,943.823 751.482,945.978 754.886,947.908 758.289,949.613 761.692,951.092 765.096,952.346 768.499,953.375 771.902,954.181 775.306,954.764 778.709,955.124 
  782.112,955.265 785.516,955.187 788.919,954.891 792.322,954.382 795.726,953.66 799.129,952.728 802.532,951.59 805.936,950.249 809.339,948.707 812.742,946.969 
  816.146,945.039 819.549,942.92 822.952,940.618 826.356,938.136 829.759,935.481 833.162,932.656 836.566,929.668 839.969,926.522 843.372,923.223 846.776,919.779 
  850.179,916.196 853.582,912.479 856.986,908.636 860.389,904.674 863.792,900.601 867.196,896.422 870.599,892.147 874.002,887.782 877.406,883.337 880.809,878.818 
  884.212,874.235 887.616,869.595 891.019,864.907 894.422,860.181 897.826,855.424 901.229,850.646 904.632,845.855 908.036,841.061 911.439,836.273 914.842,831.501 
  918.246,826.752 921.649,822.037 925.052,817.366 928.456,812.746 931.859,808.188 935.262,803.7 938.665,799.292 942.069,794.973 945.472,790.752 948.875,786.638 
  952.279,782.639 955.682,778.764 959.085,775.022 962.489,771.421 965.892,767.969 969.295,764.674 972.699,761.544 976.102,758.585 979.505,755.806 982.909,753.212 
  986.312,750.811 989.715,748.609 993.119,746.612 996.522,744.824 999.925,743.252 1003.33,741.9 1006.73,740.773 1010.14,739.873 1013.54,739.205 1016.94,738.773 
  1020.35,738.577 1023.75,738.621 1027.15,738.905 1030.56,739.432 1033.96,740.201 1037.36,741.212 1040.77,742.465 1044.17,743.959 1047.57,745.693 1050.98,747.662 
  1054.38,749.866 1057.78,752.301 1061.19,754.962 1064.59,757.845 1067.99,760.945 1071.4,764.257 1074.8,767.773 1078.2,771.488 1081.61,775.393 1085.01,779.481 
  1088.41,783.743 1091.82,788.171 1095.22,792.755 1098.62,797.484 1102.03,802.348 1105.43,807.337 1108.83,812.438 1112.24,817.641 1115.64,822.932 1119.04,828.299 
  1122.45,833.73 1125.85,839.21 1129.25,844.727 1132.66,850.267 1136.06,855.816 1139.46,861.36 1142.87,866.884 1146.27,872.375 1149.67,877.817 1153.08,883.197 
  1156.48,888.501 1159.88,893.714 1163.29,898.823 1166.69,903.813 1170.09,908.671 1173.5,913.384 1176.9,917.939 1180.3,922.323 1183.71,926.525 1187.11,930.533 
  1190.51,934.336 1193.92,937.924 1197.32,941.287 1200.72,944.416 1204.13,947.304 1207.53,949.942 1210.93,952.325 1214.34,954.446 1217.74,956.301 1221.14,957.887 
  1224.55,959.201 1227.95,960.241 1231.35,961.008 1234.76,961.5 1238.16,961.721 1241.56,961.674 1244.97,961.362 1248.37,960.791 1251.77,959.968 1255.18,958.899 
  1258.58,957.595 1261.98,956.065 1265.39,954.321 1268.79,952.375 1272.19,950.241 1275.6,947.933 1279,945.467 1282.4,942.86 1285.81,940.129 1289.21,937.294 
  1292.61,934.373 1296.02,931.387 1299.42,928.357 1302.82,925.305 1306.23,922.251 1309.63,919.219 1313.03,916.232 1316.44,913.312 1319.84,910.483 1323.24,907.767 
  1326.65,905.188 1330.05,902.768 1333.45,900.529 1336.86,898.494 1340.26,896.682 1343.66,895.115 1347.07,893.812 1350.47,892.79 1353.87,892.068 1357.28,891.66 
  1360.68,891.582 1364.08,891.845 1367.49,892.46 1370.89,893.438 1374.29,894.783 1377.7,896.503 1381.1,898.599 1384.5,901.072 1387.91,903.921 1391.31,907.14 
  1394.71,910.725 1398.12,914.664 1401.52,918.948 1404.92,923.561 1408.33,928.486 1411.73,933.705 1415.13,939.195 1418.54,944.933 1421.94,950.891 1425.34,957.04 
  1428.75,963.349 1432.15,969.785 1435.55,976.313 1438.96,982.896 1442.36,989.495 1445.76,996.071 1449.17,1002.58 1452.57,1008.99 1455.97,1015.24 1459.38,1021.3 
  1462.78,1027.13 1466.18,1032.68 1469.59,1037.91 1472.99,1042.78 1476.39,1047.24 1479.8,1051.27 1483.2,1054.81 1486.6,1057.84 1490.01,1060.33 1493.41,1062.24 
  1496.81,1063.55 1500.22,1064.24 1503.62,1064.28 1507.02,1063.66 1510.43,1062.38 1513.83,1060.41 1517.23,1057.77 1520.64,1054.45 1524.04,1050.47 1527.44,1045.83 
  1530.85,1040.56 1534.25,1034.67 1537.65,1028.2 1541.06,1021.19 1544.46,1013.66 1547.86,1005.66 1551.26,997.25 1554.67,988.472 1558.07,979.386 1561.47,970.053 
  1564.88,960.536 1568.28,950.902 1571.68,941.221 1575.09,931.564 1578.49,922.001 1581.89,912.608 1585.3,903.455 1588.7,894.615 1592.1,886.159 1595.51,878.156 
  1598.91,870.671 1602.31,863.766 1605.72,857.5 1609.12,851.926 1612.52,847.091 1615.93,843.037 1619.33,839.8 1622.73,837.406 1626.14,835.875 1629.54,835.22 
  1632.94,835.445 1636.35,836.543 1639.75,838.502 1643.15,841.298 1646.56,844.901 1649.96,849.271 1653.36,854.359 1656.77,860.11 1660.17,866.46 1663.57,873.338 
  1666.98,880.67 1670.38,888.373 1673.78,896.361 1677.19,904.545 1680.59,912.833 1683.99,921.132 1687.4,929.35 1690.8,937.395 1694.2,945.177 1697.61,952.61 
  1701.01,959.615 1704.41,966.115 1707.82,972.044 1711.22,977.342 1714.62,981.959 1718.03,985.853 1721.43,988.997 1724.83,991.372 1728.24,992.97 1731.64,993.797 
  1735.04,993.871 1738.45,993.22 1741.85,991.885 1745.25,989.916 1748.66,987.374 1752.06,984.328 1755.46,980.857 1758.87,977.044 1762.27,972.977 1765.67,968.748 
  1769.08,964.451 1772.48,960.177 1775.88,956.017 1779.29,952.056 1782.69,948.375 1786.09,945.045 1789.5,942.128 1792.9,939.675 1796.3,937.724 1799.71,936.299 
  1803.11,935.412 1806.51,935.056 1809.92,935.214 1813.32,935.849 1816.72,936.914 1820.13,938.345 1823.53,940.069 1826.93,942.001 1830.34,944.049 1833.74,946.113 
  1837.14,948.092 1840.55,949.884 1843.95,951.389 1847.35,952.512 1850.76,953.169 1854.16,953.286 1857.56,952.804 1860.97,951.681 1864.37,949.895 1867.77,947.446 
  1871.18,944.355 1874.58,940.667 1877.98,936.45 1881.39,931.795 1884.79,926.815 1888.19,921.642 1891.6,916.423 1895,911.319 1898.4,906.499 1901.81,902.137 
  
  "/>
<path clip-path="url(#clip610)" d="
M1579.82 185.813 L1892.75 185.813 L1892.75 82.1328 L1579.82 82.1328  Z
  " fill="#ffffff" fill-rule="evenodd" fill-opacity="1"/>
<polyline clip-path="url(#clip610)" style="stroke:#000000; stroke-linecap:butt; stroke-linejoin:round; stroke-width:4; stroke-opacity:1; fill:none" points="
  1579.82,185.813 1892.75,185.813 1892.75,82.1328 1579.82,82.1328 1579.82,185.813 
  "/>
<polyline clip-path="url(#clip610)" style="stroke:#009af9; stroke-linecap:butt; stroke-linejoin:round; stroke-width:4; stroke-opacity:1; fill:none" points="
  1599.82,133.973 1719.83,133.973 
  "/>
<path clip-path="url(#clip610)" d="M1739.83 116.693 L1744.51 116.693 L1744.51 130.859 L1761.5 130.859 L1761.5 116.693 L1766.17 116.693 L1766.17 151.253 L1761.5 151.253 L1761.5 134.795 L1744.51 134.795 L1744.51 151.253 L1739.83 151.253 L1739.83 116.693 Z" fill="#000000" fill-rule="evenodd" fill-opacity="1" /><path clip-path="url(#clip610)" d="M1797.47 137.225 L1797.47 139.308 L1777.89 139.308 Q1778.16 143.706 1780.53 146.021 Q1782.91 148.313 1787.15 148.313 Q1789.6 148.313 1791.89 147.711 Q1794.21 147.109 1796.47 145.906 L1796.47 149.933 Q1794.18 150.906 1791.78 151.415 Q1789.37 151.924 1786.89 151.924 Q1780.69 151.924 1777.05 148.313 Q1773.44 144.702 1773.44 138.544 Q1773.44 132.179 1776.87 128.452 Q1780.32 124.702 1786.15 124.702 Q1791.38 124.702 1794.41 128.082 Q1797.47 131.438 1797.47 137.225 M1793.21 135.975 Q1793.16 132.48 1791.24 130.396 Q1789.34 128.313 1786.2 128.313 Q1782.63 128.313 1780.48 130.327 Q1778.35 132.341 1778.03 135.998 L1793.21 135.975 Z" fill="#000000" fill-rule="evenodd" fill-opacity="1" /><path clip-path="url(#clip610)" d="M1804.46 115.234 L1808.72 115.234 L1808.72 151.253 L1804.46 151.253 L1804.46 115.234 Z" fill="#000000" fill-rule="evenodd" fill-opacity="1" /><path clip-path="url(#clip610)" d="M1817.63 115.234 L1821.89 115.234 L1821.89 151.253 L1817.63 151.253 L1817.63 115.234 Z" fill="#000000" fill-rule="evenodd" fill-opacity="1" /><path clip-path="url(#clip610)" d="M1840.85 128.313 Q1837.42 128.313 1835.43 130.998 Q1833.44 133.66 1833.44 138.313 Q1833.44 142.966 1835.41 145.651 Q1837.4 148.313 1840.85 148.313 Q1844.25 148.313 1846.24 145.628 Q1848.23 142.943 1848.23 138.313 Q1848.23 133.707 1846.24 131.021 Q1844.25 128.313 1840.85 128.313 M1840.85 124.702 Q1846.4 124.702 1849.58 128.313 Q1852.75 131.924 1852.75 138.313 Q1852.75 144.679 1849.58 148.313 Q1846.4 151.924 1840.85 151.924 Q1835.27 151.924 1832.1 148.313 Q1828.95 144.679 1828.95 138.313 Q1828.95 131.924 1832.1 128.313 Q1835.27 124.702 1840.85 124.702 Z" fill="#000000" fill-rule="evenodd" fill-opacity="1" /></svg>
