<?xml version="1.0" encoding="utf-8"?>
<svg xmlns="http://www.w3.org/2000/svg" xmlns:xlink="http://www.w3.org/1999/xlink" width="500" height="300" viewBox="0 0 2000 1200">
<defs>
  <clipPath id="clip160">
    <rect x="0" y="0" width="2000" height="1200"/>
  </clipPath>
</defs>
<path clip-path="url(#clip160)" d="
M0 1200 L2000 1200 L2000 0 L0 0  Z
  " fill="#ffffff" fill-rule="evenodd" fill-opacity="1"/>
<defs>
  <clipPath id="clip161">
    <rect x="400" y="0" width="1401" height="1200"/>
  </clipPath>
</defs>
<path clip-path="url(#clip160)" d="
M182.76 1093.9 L1952.76 1093.9 L1952.76 47.2441 L182.76 47.2441  Z
  " fill="#ffffff" fill-rule="evenodd" fill-opacity="1"/>
<defs>
  <clipPath id="clip162">
    <rect x="182" y="47" width="1771" height="1048"/>
  </clipPath>
</defs>
<polyline clip-path="url(#clip162)" style="stroke:#000000; stroke-linecap:butt; stroke-linejoin:round; stroke-width:2; stroke-opacity:0.1; fill:none" points="
  232.854,1093.9 232.854,47.2441 
  "/>
<polyline clip-path="url(#clip162)" style="stroke:#000000; stroke-linecap:butt; stroke-linejoin:round; stroke-width:2; stroke-opacity:0.1; fill:none" points="
  650.306,1093.9 650.306,47.2441 
  "/>
<polyline clip-path="url(#clip162)" style="stroke:#000000; stroke-linecap:butt; stroke-linejoin:round; stroke-width:2; stroke-opacity:0.1; fill:none" points="
  1067.76,1093.9 1067.76,47.2441 
  "/>
<polyline clip-path="url(#clip162)" style="stroke:#000000; stroke-linecap:butt; stroke-linejoin:round; stroke-width:2; stroke-opacity:0.1; fill:none" points="
  1485.21,1093.9 1485.21,47.2441 
  "/>
<polyline clip-path="url(#clip162)" style="stroke:#000000; stroke-linecap:butt; stroke-linejoin:round; stroke-width:2; stroke-opacity:0.1; fill:none" points="
  1902.66,1093.9 1902.66,47.2441 
  "/>
<polyline clip-path="url(#clip160)" style="stroke:#000000; stroke-linecap:butt; stroke-linejoin:round; stroke-width:4; stroke-opacity:1; fill:none" points="
  182.76,1093.9 1952.76,1093.9 
  "/>
<polyline clip-path="url(#clip160)" style="stroke:#000000; stroke-linecap:butt; stroke-linejoin:round; stroke-width:4; stroke-opacity:1; fill:none" points="
  232.854,1093.9 232.854,1075.01 
  "/>
<polyline clip-path="url(#clip160)" style="stroke:#000000; stroke-linecap:butt; stroke-linejoin:round; stroke-width:4; stroke-opacity:1; fill:none" points="
  650.306,1093.9 650.306,1075.01 
  "/>
<polyline clip-path="url(#clip160)" style="stroke:#000000; stroke-linecap:butt; stroke-linejoin:round; stroke-width:4; stroke-opacity:1; fill:none" points="
  1067.76,1093.9 1067.76,1075.01 
  "/>
<polyline clip-path="url(#clip160)" style="stroke:#000000; stroke-linecap:butt; stroke-linejoin:round; stroke-width:4; stroke-opacity:1; fill:none" points="
  1485.21,1093.9 1485.21,1075.01 
  "/>
<polyline clip-path="url(#clip160)" style="stroke:#000000; stroke-linecap:butt; stroke-linejoin:round; stroke-width:4; stroke-opacity:1; fill:none" points="
  1902.66,1093.9 1902.66,1075.01 
  "/>
<path clip-path="url(#clip160)" d="M179.382 1136.28 L209.058 1136.28 L209.058 1140.21 L179.382 1140.21 L179.382 1136.28 Z" fill="#000000" fill-rule="evenodd" fill-opacity="1" /><path clip-path="url(#clip160)" d="M219.961 1149.17 L227.6 1149.17 L227.6 1122.8 L219.29 1124.47 L219.29 1120.21 L227.553 1118.54 L232.229 1118.54 L232.229 1149.17 L239.868 1149.17 L239.868 1153.1 L219.961 1153.1 L219.961 1149.17 Z" fill="#000000" fill-rule="evenodd" fill-opacity="1" /><path clip-path="url(#clip160)" d="M249.313 1147.22 L254.197 1147.22 L254.197 1153.1 L249.313 1153.1 L249.313 1147.22 Z" fill="#000000" fill-rule="evenodd" fill-opacity="1" /><path clip-path="url(#clip160)" d="M274.382 1121.62 Q270.771 1121.62 268.942 1125.19 Q267.137 1128.73 267.137 1135.86 Q267.137 1142.97 268.942 1146.53 Q270.771 1150.07 274.382 1150.07 Q278.016 1150.07 279.822 1146.53 Q281.65 1142.97 281.65 1135.86 Q281.65 1128.73 279.822 1125.19 Q278.016 1121.62 274.382 1121.62 M274.382 1117.92 Q280.192 1117.92 283.248 1122.53 Q286.326 1127.11 286.326 1135.86 Q286.326 1144.59 283.248 1149.19 Q280.192 1153.78 274.382 1153.78 Q268.572 1153.78 265.493 1149.19 Q262.438 1144.59 262.438 1135.86 Q262.438 1127.11 265.493 1122.53 Q268.572 1117.92 274.382 1117.92 Z" fill="#000000" fill-rule="evenodd" fill-opacity="1" /><path clip-path="url(#clip160)" d="M597.332 1136.28 L627.008 1136.28 L627.008 1140.21 L597.332 1140.21 L597.332 1136.28 Z" fill="#000000" fill-rule="evenodd" fill-opacity="1" /><path clip-path="url(#clip160)" d="M647.1 1121.62 Q643.489 1121.62 641.66 1125.19 Q639.855 1128.73 639.855 1135.86 Q639.855 1142.97 641.66 1146.53 Q643.489 1150.07 647.1 1150.07 Q650.734 1150.07 652.54 1146.53 Q654.369 1142.97 654.369 1135.86 Q654.369 1128.73 652.54 1125.19 Q650.734 1121.62 647.1 1121.62 M647.1 1117.92 Q652.91 1117.92 655.966 1122.53 Q659.045 1127.11 659.045 1135.86 Q659.045 1144.59 655.966 1149.19 Q652.91 1153.78 647.1 1153.78 Q641.29 1153.78 638.211 1149.19 Q635.156 1144.59 635.156 1135.86 Q635.156 1127.11 638.211 1122.53 Q641.29 1117.92 647.1 1117.92 Z" fill="#000000" fill-rule="evenodd" fill-opacity="1" /><path clip-path="url(#clip160)" d="M667.262 1147.22 L672.146 1147.22 L672.146 1153.1 L667.262 1153.1 L667.262 1147.22 Z" fill="#000000" fill-rule="evenodd" fill-opacity="1" /><path clip-path="url(#clip160)" d="M682.378 1118.54 L700.734 1118.54 L700.734 1122.48 L686.66 1122.48 L686.66 1130.95 Q687.679 1130.6 688.697 1130.44 Q689.716 1130.26 690.734 1130.26 Q696.521 1130.26 699.901 1133.43 Q703.28 1136.6 703.28 1142.02 Q703.28 1147.59 699.808 1150.7 Q696.336 1153.78 690.017 1153.78 Q687.841 1153.78 685.572 1153.4 Q683.327 1153.03 680.919 1152.29 L680.919 1147.59 Q683.003 1148.73 685.225 1149.28 Q687.447 1149.84 689.924 1149.84 Q693.929 1149.84 696.267 1147.73 Q698.605 1145.63 698.605 1142.02 Q698.605 1138.4 696.267 1136.3 Q693.929 1134.19 689.924 1134.19 Q688.049 1134.19 686.174 1134.61 Q684.322 1135.03 682.378 1135.9 L682.378 1118.54 Z" fill="#000000" fill-rule="evenodd" fill-opacity="1" /><path clip-path="url(#clip160)" d="M1045.14 1121.62 Q1041.53 1121.62 1039.7 1125.19 Q1037.9 1128.73 1037.9 1135.86 Q1037.9 1142.97 1039.7 1146.53 Q1041.53 1150.07 1045.14 1150.07 Q1048.78 1150.07 1050.58 1146.53 Q1052.41 1142.97 1052.41 1135.86 Q1052.41 1128.73 1050.58 1125.19 Q1048.78 1121.62 1045.14 1121.62 M1045.14 1117.92 Q1050.95 1117.92 1054.01 1122.53 Q1057.09 1127.11 1057.09 1135.86 Q1057.09 1144.59 1054.01 1149.19 Q1050.95 1153.78 1045.14 1153.78 Q1039.33 1153.78 1036.25 1149.19 Q1033.2 1144.59 1033.2 1135.86 Q1033.2 1127.11 1036.25 1122.53 Q1039.33 1117.92 1045.14 1117.92 Z" fill="#000000" fill-rule="evenodd" fill-opacity="1" /><path clip-path="url(#clip160)" d="M1065.3 1147.22 L1070.19 1147.22 L1070.19 1153.1 L1065.3 1153.1 L1065.3 1147.22 Z" fill="#000000" fill-rule="evenodd" fill-opacity="1" /><path clip-path="url(#clip160)" d="M1090.37 1121.62 Q1086.76 1121.62 1084.93 1125.19 Q1083.13 1128.73 1083.13 1135.86 Q1083.13 1142.97 1084.93 1146.53 Q1086.76 1150.07 1090.37 1150.07 Q1094.01 1150.07 1095.81 1146.53 Q1097.64 1142.97 1097.64 1135.86 Q1097.64 1128.73 1095.81 1125.19 Q1094.01 1121.62 1090.37 1121.62 M1090.37 1117.92 Q1096.18 1117.92 1099.24 1122.53 Q1102.32 1127.11 1102.32 1135.86 Q1102.32 1144.59 1099.24 1149.19 Q1096.18 1153.78 1090.37 1153.78 Q1084.56 1153.78 1081.48 1149.19 Q1078.43 1144.59 1078.43 1135.86 Q1078.43 1127.11 1081.48 1122.53 Q1084.56 1117.92 1090.37 1117.92 Z" fill="#000000" fill-rule="evenodd" fill-opacity="1" /><path clip-path="url(#clip160)" d="M1463.09 1121.62 Q1459.48 1121.62 1457.65 1125.19 Q1455.85 1128.73 1455.85 1135.86 Q1455.85 1142.97 1457.65 1146.53 Q1459.48 1150.07 1463.09 1150.07 Q1466.73 1150.07 1468.53 1146.53 Q1470.36 1142.97 1470.36 1135.86 Q1470.36 1128.73 1468.53 1125.19 Q1466.73 1121.62 1463.09 1121.62 M1463.09 1117.92 Q1468.9 1117.92 1471.96 1122.53 Q1475.04 1127.11 1475.04 1135.86 Q1475.04 1144.59 1471.96 1149.19 Q1468.9 1153.78 1463.09 1153.78 Q1457.28 1153.78 1454.2 1149.19 Q1451.15 1144.59 1451.15 1135.86 Q1451.15 1127.11 1454.2 1122.53 Q1457.28 1117.92 1463.09 1117.92 Z" fill="#000000" fill-rule="evenodd" fill-opacity="1" /><path clip-path="url(#clip160)" d="M1483.25 1147.22 L1488.14 1147.22 L1488.14 1153.1 L1483.25 1153.1 L1483.25 1147.22 Z" fill="#000000" fill-rule="evenodd" fill-opacity="1" /><path clip-path="url(#clip160)" d="M1498.37 1118.54 L1516.73 1118.54 L1516.73 1122.48 L1502.65 1122.48 L1502.65 1130.95 Q1503.67 1130.6 1504.69 1130.44 Q1505.71 1130.26 1506.73 1130.26 Q1512.51 1130.26 1515.89 1133.43 Q1519.27 1136.6 1519.27 1142.02 Q1519.27 1147.59 1515.8 1150.7 Q1512.33 1153.78 1506.01 1153.78 Q1503.83 1153.78 1501.56 1153.4 Q1499.32 1153.03 1496.91 1152.29 L1496.91 1147.59 Q1498.99 1148.73 1501.22 1149.28 Q1503.44 1149.84 1505.92 1149.84 Q1509.92 1149.84 1512.26 1147.73 Q1514.6 1145.63 1514.6 1142.02 Q1514.6 1138.4 1512.26 1136.3 Q1509.92 1134.19 1505.92 1134.19 Q1504.04 1134.19 1502.17 1134.61 Q1500.31 1135.03 1498.37 1135.9 L1498.37 1118.54 Z" fill="#000000" fill-rule="evenodd" fill-opacity="1" /><path clip-path="url(#clip160)" d="M1869.81 1149.17 L1877.45 1149.17 L1877.45 1122.8 L1869.14 1124.47 L1869.14 1120.21 L1877.41 1118.54 L1882.08 1118.54 L1882.08 1149.17 L1889.72 1149.17 L1889.72 1153.1 L1869.81 1153.1 L1869.81 1149.17 Z" fill="#000000" fill-rule="evenodd" fill-opacity="1" /><path clip-path="url(#clip160)" d="M1899.17 1147.22 L1904.05 1147.22 L1904.05 1153.1 L1899.17 1153.1 L1899.17 1147.22 Z" fill="#000000" fill-rule="evenodd" fill-opacity="1" /><path clip-path="url(#clip160)" d="M1924.24 1121.62 Q1920.62 1121.62 1918.8 1125.19 Q1916.99 1128.73 1916.99 1135.86 Q1916.99 1142.97 1918.8 1146.53 Q1920.62 1150.07 1924.24 1150.07 Q1927.87 1150.07 1929.68 1146.53 Q1931.5 1142.97 1931.5 1135.86 Q1931.5 1128.73 1929.68 1125.19 Q1927.87 1121.62 1924.24 1121.62 M1924.24 1117.92 Q1930.05 1117.92 1933.1 1122.53 Q1936.18 1127.11 1936.18 1135.86 Q1936.18 1144.59 1933.1 1149.19 Q1930.05 1153.78 1924.24 1153.78 Q1918.43 1153.78 1915.35 1149.19 Q1912.29 1144.59 1912.29 1135.86 Q1912.29 1127.11 1915.35 1122.53 Q1918.43 1117.92 1924.24 1117.92 Z" fill="#000000" fill-rule="evenodd" fill-opacity="1" /><polyline clip-path="url(#clip162)" style="stroke:#000000; stroke-linecap:butt; stroke-linejoin:round; stroke-width:2; stroke-opacity:0.1; fill:none" points="
  182.76,1064.28 1952.76,1064.28 
  "/>
<polyline clip-path="url(#clip162)" style="stroke:#000000; stroke-linecap:butt; stroke-linejoin:round; stroke-width:2; stroke-opacity:0.1; fill:none" points="
  182.76,869.782 1952.76,869.782 
  "/>
<polyline clip-path="url(#clip162)" style="stroke:#000000; stroke-linecap:butt; stroke-linejoin:round; stroke-width:2; stroke-opacity:0.1; fill:none" points="
  182.76,675.283 1952.76,675.283 
  "/>
<polyline clip-path="url(#clip162)" style="stroke:#000000; stroke-linecap:butt; stroke-linejoin:round; stroke-width:2; stroke-opacity:0.1; fill:none" points="
  182.76,480.783 1952.76,480.783 
  "/>
<polyline clip-path="url(#clip162)" style="stroke:#000000; stroke-linecap:butt; stroke-linejoin:round; stroke-width:2; stroke-opacity:0.1; fill:none" points="
  182.76,286.284 1952.76,286.284 
  "/>
<polyline clip-path="url(#clip162)" style="stroke:#000000; stroke-linecap:butt; stroke-linejoin:round; stroke-width:2; stroke-opacity:0.1; fill:none" points="
  182.76,91.7846 1952.76,91.7846 
  "/>
<polyline clip-path="url(#clip160)" style="stroke:#000000; stroke-linecap:butt; stroke-linejoin:round; stroke-width:4; stroke-opacity:1; fill:none" points="
  182.76,1093.9 182.76,47.2441 
  "/>
<polyline clip-path="url(#clip160)" style="stroke:#000000; stroke-linecap:butt; stroke-linejoin:round; stroke-width:4; stroke-opacity:1; fill:none" points="
  182.76,1064.28 201.658,1064.28 
  "/>
<polyline clip-path="url(#clip160)" style="stroke:#000000; stroke-linecap:butt; stroke-linejoin:round; stroke-width:4; stroke-opacity:1; fill:none" points="
  182.76,869.782 201.658,869.782 
  "/>
<polyline clip-path="url(#clip160)" style="stroke:#000000; stroke-linecap:butt; stroke-linejoin:round; stroke-width:4; stroke-opacity:1; fill:none" points="
  182.76,675.283 201.658,675.283 
  "/>
<polyline clip-path="url(#clip160)" style="stroke:#000000; stroke-linecap:butt; stroke-linejoin:round; stroke-width:4; stroke-opacity:1; fill:none" points="
  182.76,480.783 201.658,480.783 
  "/>
<polyline clip-path="url(#clip160)" style="stroke:#000000; stroke-linecap:butt; stroke-linejoin:round; stroke-width:4; stroke-opacity:1; fill:none" points="
  182.76,286.284 201.658,286.284 
  "/>
<polyline clip-path="url(#clip160)" style="stroke:#000000; stroke-linecap:butt; stroke-linejoin:round; stroke-width:4; stroke-opacity:1; fill:none" points="
  182.76,91.7846 201.658,91.7846 
  "/>
<path clip-path="url(#clip160)" d="M65.4226 1050.08 Q61.8115 1050.08 59.9828 1053.64 Q58.1773 1057.19 58.1773 1064.32 Q58.1773 1071.42 59.9828 1074.99 Q61.8115 1078.53 65.4226 1078.53 Q69.0569 1078.53 70.8624 1074.99 Q72.6911 1071.42 72.6911 1064.32 Q72.6911 1057.19 70.8624 1053.64 Q69.0569 1050.08 65.4226 1050.08 M65.4226 1046.38 Q71.2328 1046.38 74.2883 1050.98 Q77.367 1055.57 77.367 1064.32 Q77.367 1073.04 74.2883 1077.65 Q71.2328 1082.23 65.4226 1082.23 Q59.6125 1082.23 56.5338 1077.65 Q53.4782 1073.04 53.4782 1064.32 Q53.4782 1055.57 56.5338 1050.98 Q59.6125 1046.38 65.4226 1046.38 Z" fill="#000000" fill-rule="evenodd" fill-opacity="1" /><path clip-path="url(#clip160)" d="M85.5845 1075.68 L90.4688 1075.68 L90.4688 1081.56 L85.5845 1081.56 L85.5845 1075.68 Z" fill="#000000" fill-rule="evenodd" fill-opacity="1" /><path clip-path="url(#clip160)" d="M110.654 1050.08 Q107.043 1050.08 105.214 1053.64 Q103.409 1057.19 103.409 1064.32 Q103.409 1071.42 105.214 1074.99 Q107.043 1078.53 110.654 1078.53 Q114.288 1078.53 116.094 1074.99 Q117.922 1071.42 117.922 1064.32 Q117.922 1057.19 116.094 1053.64 Q114.288 1050.08 110.654 1050.08 M110.654 1046.38 Q116.464 1046.38 119.52 1050.98 Q122.598 1055.57 122.598 1064.32 Q122.598 1073.04 119.52 1077.65 Q116.464 1082.23 110.654 1082.23 Q104.844 1082.23 101.765 1077.65 Q98.7095 1073.04 98.7095 1064.32 Q98.7095 1055.57 101.765 1050.98 Q104.844 1046.38 110.654 1046.38 Z" fill="#000000" fill-rule="evenodd" fill-opacity="1" /><path clip-path="url(#clip160)" d="M140.816 1050.08 Q137.205 1050.08 135.376 1053.64 Q133.57 1057.19 133.57 1064.32 Q133.57 1071.42 135.376 1074.99 Q137.205 1078.53 140.816 1078.53 Q144.45 1078.53 146.256 1074.99 Q148.084 1071.42 148.084 1064.32 Q148.084 1057.19 146.256 1053.64 Q144.45 1050.08 140.816 1050.08 M140.816 1046.38 Q146.626 1046.38 149.681 1050.98 Q152.76 1055.57 152.76 1064.32 Q152.76 1073.04 149.681 1077.65 Q146.626 1082.23 140.816 1082.23 Q135.006 1082.23 131.927 1077.65 Q128.871 1073.04 128.871 1064.32 Q128.871 1055.57 131.927 1050.98 Q135.006 1046.38 140.816 1046.38 Z" fill="#000000" fill-rule="evenodd" fill-opacity="1" /><path clip-path="url(#clip160)" d="M66.6495 855.581 Q63.0384 855.581 61.2097 859.146 Q59.4041 862.687 59.4041 869.817 Q59.4041 876.923 61.2097 880.488 Q63.0384 884.03 66.6495 884.03 Q70.2837 884.03 72.0892 880.488 Q73.9179 876.923 73.9179 869.817 Q73.9179 862.687 72.0892 859.146 Q70.2837 855.581 66.6495 855.581 M66.6495 851.877 Q72.4596 851.877 75.5152 856.484 Q78.5938 861.067 78.5938 869.817 Q78.5938 878.544 75.5152 883.15 Q72.4596 887.733 66.6495 887.733 Q60.8393 887.733 57.7606 883.15 Q54.7051 878.544 54.7051 869.817 Q54.7051 861.067 57.7606 856.484 Q60.8393 851.877 66.6495 851.877 Z" fill="#000000" fill-rule="evenodd" fill-opacity="1" /><path clip-path="url(#clip160)" d="M86.8114 881.182 L91.6956 881.182 L91.6956 887.062 L86.8114 887.062 L86.8114 881.182 Z" fill="#000000" fill-rule="evenodd" fill-opacity="1" /><path clip-path="url(#clip160)" d="M111.881 855.581 Q108.27 855.581 106.441 859.146 Q104.635 862.687 104.635 869.817 Q104.635 876.923 106.441 880.488 Q108.27 884.03 111.881 884.03 Q115.515 884.03 117.32 880.488 Q119.149 876.923 119.149 869.817 Q119.149 862.687 117.32 859.146 Q115.515 855.581 111.881 855.581 M111.881 851.877 Q117.691 851.877 120.746 856.484 Q123.825 861.067 123.825 869.817 Q123.825 878.544 120.746 883.15 Q117.691 887.733 111.881 887.733 Q106.071 887.733 102.992 883.15 Q99.9363 878.544 99.9363 869.817 Q99.9363 861.067 102.992 856.484 Q106.071 851.877 111.881 851.877 Z" fill="#000000" fill-rule="evenodd" fill-opacity="1" /><path clip-path="url(#clip160)" d="M132.853 883.127 L140.492 883.127 L140.492 856.761 L132.182 858.428 L132.182 854.169 L140.445 852.502 L145.121 852.502 L145.121 883.127 L152.76 883.127 L152.76 887.062 L132.853 887.062 L132.853 883.127 Z" fill="#000000" fill-rule="evenodd" fill-opacity="1" /><path clip-path="url(#clip160)" d="M67.0198 661.081 Q63.4087 661.081 61.58 664.646 Q59.7745 668.188 59.7745 675.317 Q59.7745 682.424 61.58 685.989 Q63.4087 689.53 67.0198 689.53 Q70.6541 689.53 72.4596 685.989 Q74.2883 682.424 74.2883 675.317 Q74.2883 668.188 72.4596 664.646 Q70.6541 661.081 67.0198 661.081 M67.0198 657.378 Q72.83 657.378 75.8855 661.984 Q78.9642 666.567 78.9642 675.317 Q78.9642 684.044 75.8855 688.651 Q72.83 693.234 67.0198 693.234 Q61.2097 693.234 58.131 688.651 Q55.0754 684.044 55.0754 675.317 Q55.0754 666.567 58.131 661.984 Q61.2097 657.378 67.0198 657.378 Z" fill="#000000" fill-rule="evenodd" fill-opacity="1" /><path clip-path="url(#clip160)" d="M87.1818 686.683 L92.066 686.683 L92.066 692.563 L87.1818 692.563 L87.1818 686.683 Z" fill="#000000" fill-rule="evenodd" fill-opacity="1" /><path clip-path="url(#clip160)" d="M112.251 661.081 Q108.64 661.081 106.811 664.646 Q105.006 668.188 105.006 675.317 Q105.006 682.424 106.811 685.989 Q108.64 689.53 112.251 689.53 Q115.885 689.53 117.691 685.989 Q119.52 682.424 119.52 675.317 Q119.52 668.188 117.691 664.646 Q115.885 661.081 112.251 661.081 M112.251 657.378 Q118.061 657.378 121.117 661.984 Q124.195 666.567 124.195 675.317 Q124.195 684.044 121.117 688.651 Q118.061 693.234 112.251 693.234 Q106.441 693.234 103.362 688.651 Q100.307 684.044 100.307 675.317 Q100.307 666.567 103.362 661.984 Q106.441 657.378 112.251 657.378 Z" fill="#000000" fill-rule="evenodd" fill-opacity="1" /><path clip-path="url(#clip160)" d="M136.441 688.628 L152.76 688.628 L152.76 692.563 L130.816 692.563 L130.816 688.628 Q133.478 685.873 138.061 681.243 Q142.668 676.591 143.848 675.248 Q146.093 672.725 146.973 670.989 Q147.876 669.23 147.876 667.54 Q147.876 664.785 145.931 663.049 Q144.01 661.313 140.908 661.313 Q138.709 661.313 136.256 662.077 Q133.825 662.841 131.047 664.392 L131.047 659.669 Q133.871 658.535 136.325 657.956 Q138.779 657.378 140.816 657.378 Q146.186 657.378 149.38 660.063 Q152.575 662.748 152.575 667.239 Q152.575 669.368 151.765 671.29 Q150.978 673.188 148.871 675.78 Q148.293 676.452 145.191 679.669 Q142.089 682.864 136.441 688.628 Z" fill="#000000" fill-rule="evenodd" fill-opacity="1" /><path clip-path="url(#clip160)" d="M66.0708 466.582 Q62.4597 466.582 60.631 470.147 Q58.8254 473.688 58.8254 480.818 Q58.8254 487.925 60.631 491.489 Q62.4597 495.031 66.0708 495.031 Q69.705 495.031 71.5105 491.489 Q73.3392 487.925 73.3392 480.818 Q73.3392 473.688 71.5105 470.147 Q69.705 466.582 66.0708 466.582 M66.0708 462.878 Q71.8809 462.878 74.9365 467.485 Q78.0151 472.068 78.0151 480.818 Q78.0151 489.545 74.9365 494.151 Q71.8809 498.735 66.0708 498.735 Q60.2606 498.735 57.1819 494.151 Q54.1264 489.545 54.1264 480.818 Q54.1264 472.068 57.1819 467.485 Q60.2606 462.878 66.0708 462.878 Z" fill="#000000" fill-rule="evenodd" fill-opacity="1" /><path clip-path="url(#clip160)" d="M86.2327 492.184 L91.1169 492.184 L91.1169 498.063 L86.2327 498.063 L86.2327 492.184 Z" fill="#000000" fill-rule="evenodd" fill-opacity="1" /><path clip-path="url(#clip160)" d="M111.302 466.582 Q107.691 466.582 105.862 470.147 Q104.057 473.688 104.057 480.818 Q104.057 487.925 105.862 491.489 Q107.691 495.031 111.302 495.031 Q114.936 495.031 116.742 491.489 Q118.57 487.925 118.57 480.818 Q118.57 473.688 116.742 470.147 Q114.936 466.582 111.302 466.582 M111.302 462.878 Q117.112 462.878 120.168 467.485 Q123.246 472.068 123.246 480.818 Q123.246 489.545 120.168 494.151 Q117.112 498.735 111.302 498.735 Q105.492 498.735 102.413 494.151 Q99.3576 489.545 99.3576 480.818 Q99.3576 472.068 102.413 467.485 Q105.492 462.878 111.302 462.878 Z" fill="#000000" fill-rule="evenodd" fill-opacity="1" /><path clip-path="url(#clip160)" d="M145.631 479.429 Q148.987 480.147 150.862 482.415 Q152.76 484.684 152.76 488.017 Q152.76 493.133 149.242 495.934 Q145.723 498.735 139.242 498.735 Q137.066 498.735 134.751 498.295 Q132.459 497.878 130.006 497.022 L130.006 492.508 Q131.95 493.642 134.265 494.221 Q136.58 494.799 139.103 494.799 Q143.501 494.799 145.793 493.063 Q148.107 491.327 148.107 488.017 Q148.107 484.962 145.955 483.249 Q143.825 481.513 140.006 481.513 L135.978 481.513 L135.978 477.67 L140.191 477.67 Q143.64 477.67 145.468 476.304 Q147.297 474.915 147.297 472.323 Q147.297 469.661 145.399 468.249 Q143.524 466.814 140.006 466.814 Q138.084 466.814 135.885 467.23 Q133.686 467.647 131.047 468.526 L131.047 464.36 Q133.709 463.619 136.024 463.249 Q138.362 462.878 140.422 462.878 Q145.746 462.878 148.848 465.309 Q151.95 467.716 151.95 471.837 Q151.95 474.707 150.306 476.698 Q148.663 478.665 145.631 479.429 Z" fill="#000000" fill-rule="evenodd" fill-opacity="1" /><path clip-path="url(#clip160)" d="M64.9365 272.083 Q61.3254 272.083 59.4967 275.647 Q57.6912 279.189 57.6912 286.319 Q57.6912 293.425 59.4967 296.99 Q61.3254 300.532 64.9365 300.532 Q68.5707 300.532 70.3763 296.99 Q72.205 293.425 72.205 286.319 Q72.205 279.189 70.3763 275.647 Q68.5707 272.083 64.9365 272.083 M64.9365 268.379 Q70.7467 268.379 73.8022 272.985 Q76.8809 277.569 76.8809 286.319 Q76.8809 295.046 73.8022 299.652 Q70.7467 304.235 64.9365 304.235 Q59.1264 304.235 56.0477 299.652 Q52.9921 295.046 52.9921 286.319 Q52.9921 277.569 56.0477 272.985 Q59.1264 268.379 64.9365 268.379 Z" fill="#000000" fill-rule="evenodd" fill-opacity="1" /><path clip-path="url(#clip160)" d="M85.0984 297.684 L89.9827 297.684 L89.9827 303.564 L85.0984 303.564 L85.0984 297.684 Z" fill="#000000" fill-rule="evenodd" fill-opacity="1" /><path clip-path="url(#clip160)" d="M110.168 272.083 Q106.557 272.083 104.728 275.647 Q102.922 279.189 102.922 286.319 Q102.922 293.425 104.728 296.99 Q106.557 300.532 110.168 300.532 Q113.802 300.532 115.608 296.99 Q117.436 293.425 117.436 286.319 Q117.436 279.189 115.608 275.647 Q113.802 272.083 110.168 272.083 M110.168 268.379 Q115.978 268.379 119.033 272.985 Q122.112 277.569 122.112 286.319 Q122.112 295.046 119.033 299.652 Q115.978 304.235 110.168 304.235 Q104.358 304.235 101.279 299.652 Q98.2234 295.046 98.2234 286.319 Q98.2234 277.569 101.279 272.985 Q104.358 268.379 110.168 268.379 Z" fill="#000000" fill-rule="evenodd" fill-opacity="1" /><path clip-path="url(#clip160)" d="M143.177 273.078 L131.371 291.527 L143.177 291.527 L143.177 273.078 M141.95 269.004 L147.83 269.004 L147.83 291.527 L152.76 291.527 L152.76 295.416 L147.83 295.416 L147.83 303.564 L143.177 303.564 L143.177 295.416 L127.575 295.416 L127.575 290.902 L141.95 269.004 Z" fill="#000000" fill-rule="evenodd" fill-opacity="1" /><path clip-path="url(#clip160)" d="M66.418 77.5833 Q62.8069 77.5833 60.9782 81.1481 Q59.1726 84.6898 59.1726 91.8194 Q59.1726 98.9258 60.9782 102.491 Q62.8069 106.032 66.418 106.032 Q70.0522 106.032 71.8578 102.491 Q73.6865 98.9258 73.6865 91.8194 Q73.6865 84.6898 71.8578 81.1481 Q70.0522 77.5833 66.418 77.5833 M66.418 73.8796 Q72.2281 73.8796 75.2837 78.4861 Q78.3624 83.0694 78.3624 91.8194 Q78.3624 100.546 75.2837 105.153 Q72.2281 109.736 66.418 109.736 Q60.6078 109.736 57.5291 105.153 Q54.4736 100.546 54.4736 91.8194 Q54.4736 83.0694 57.5291 78.4861 Q60.6078 73.8796 66.418 73.8796 Z" fill="#000000" fill-rule="evenodd" fill-opacity="1" /><path clip-path="url(#clip160)" d="M86.5799 103.185 L91.4641 103.185 L91.4641 109.065 L86.5799 109.065 L86.5799 103.185 Z" fill="#000000" fill-rule="evenodd" fill-opacity="1" /><path clip-path="url(#clip160)" d="M111.649 77.5833 Q108.038 77.5833 106.209 81.1481 Q104.404 84.6898 104.404 91.8194 Q104.404 98.9258 106.209 102.491 Q108.038 106.032 111.649 106.032 Q115.283 106.032 117.089 102.491 Q118.918 98.9258 118.918 91.8194 Q118.918 84.6898 117.089 81.1481 Q115.283 77.5833 111.649 77.5833 M111.649 73.8796 Q117.459 73.8796 120.515 78.4861 Q123.594 83.0694 123.594 91.8194 Q123.594 100.546 120.515 105.153 Q117.459 109.736 111.649 109.736 Q105.839 109.736 102.76 105.153 Q99.7048 100.546 99.7048 91.8194 Q99.7048 83.0694 102.76 78.4861 Q105.839 73.8796 111.649 73.8796 Z" fill="#000000" fill-rule="evenodd" fill-opacity="1" /><path clip-path="url(#clip160)" d="M131.857 74.5046 L150.214 74.5046 L150.214 78.4398 L136.14 78.4398 L136.14 86.912 Q137.158 86.5648 138.177 86.4027 Q139.195 86.2175 140.214 86.2175 Q146.001 86.2175 149.38 89.3888 Q152.76 92.5601 152.76 97.9767 Q152.76 103.555 149.288 106.657 Q145.816 109.736 139.496 109.736 Q137.32 109.736 135.052 109.366 Q132.807 108.995 130.399 108.254 L130.399 103.555 Q132.482 104.69 134.705 105.245 Q136.927 105.801 139.404 105.801 Q143.408 105.801 145.746 103.694 Q148.084 101.588 148.084 97.9767 Q148.084 94.3657 145.746 92.2592 Q143.408 90.1527 139.404 90.1527 Q137.529 90.1527 135.654 90.5694 Q133.802 90.986 131.857 91.8657 L131.857 74.5046 Z" fill="#000000" fill-rule="evenodd" fill-opacity="1" /><polyline clip-path="url(#clip162)" style="stroke:#009af9; stroke-linecap:butt; stroke-linejoin:round; stroke-width:4; stroke-opacity:1; fill:none" points="
  232.854,1064.28 239.56,1007.28 246.266,951.292 252.972,896.385 259.679,842.642 266.385,790.143 273.091,738.967 279.797,689.191 286.503,640.891 293.209,594.143 
  299.915,549.02 306.621,505.593 313.327,463.932 320.033,424.103 326.739,386.173 333.445,350.202 340.151,316.251 346.857,284.375 353.563,254.626 360.269,227.055 
  366.975,201.704 373.681,178.617 380.388,157.827 387.094,139.367 393.8,123.263 400.506,109.536 407.212,98.2 413.918,89.2656 420.624,82.7354 427.33,78.6058 
  434.036,76.8665 440.742,77.5004 447.448,80.4829 454.154,85.7819 460.86,93.3577 467.566,103.163 474.272,115.141 480.978,129.23 487.684,145.356 494.39,163.439 
  501.096,183.392 507.803,205.116 514.509,228.507 521.215,253.452 527.921,279.83 534.627,307.513 541.333,336.367 548.039,366.248 554.745,397.011 561.451,428.502 
  568.157,460.563 574.863,493.034 581.569,525.752 588.275,558.551 594.981,591.265 601.687,623.731 608.393,655.786 615.099,687.272 621.805,718.035 628.511,747.929 
  635.218,776.817 641.924,804.571 648.63,831.075 655.336,856.226 662.042,879.937 668.748,902.136 675.454,922.766 682.16,941.792 688.866,959.195 695.572,974.975 
  702.278,989.151 708.984,1001.76 715.69,1012.86 722.396,1022.51 729.102,1030.81 735.808,1037.85 742.514,1043.74 749.22,1048.58 755.927,1052.51 762.633,1055.63 
  769.339,1058.06 776.045,1059.91 782.751,1061.29 789.457,1062.3 796.163,1063 802.869,1063.49 809.575,1063.81 816.281,1064.01 822.987,1064.13 829.693,1064.2 
  836.399,1064.24 843.105,1064.26 849.811,1064.27 856.517,1064.28 863.223,1064.28 869.929,1064.28 876.635,1064.28 883.342,1064.28 890.048,1064.28 896.754,1064.28 
  903.46,1064.28 910.166,1064.28 916.872,1064.28 923.578,1064.28 930.284,1064.28 936.99,1064.28 943.696,1064.28 950.402,1064.28 957.108,1064.28 963.814,1064.28 
  970.52,1064.28 977.226,1064.28 983.932,1064.28 990.638,1064.28 997.344,1064.28 1004.05,1064.28 1010.76,1064.28 1017.46,1064.28 1024.17,1064.28 1030.87,1064.28 
  1037.58,1064.28 1044.29,1064.28 1050.99,1064.28 1057.7,1064.28 1064.4,1064.28 1071.11,1064.28 1077.82,1064.28 1084.52,1064.28 1091.23,1064.28 1097.94,1064.28 
  1104.64,1064.28 1111.35,1064.28 1118.05,1064.28 1124.76,1064.28 1131.47,1064.28 1138.17,1064.28 1144.88,1064.28 1151.58,1064.28 1158.29,1064.28 1165,1064.28 
  1171.7,1064.28 1178.41,1064.28 1185.11,1064.28 1191.82,1064.28 1198.53,1064.28 1205.23,1064.28 1211.94,1064.28 1218.64,1064.28 1225.35,1064.28 1232.06,1064.28 
  1238.76,1064.28 1245.47,1064.28 1252.17,1064.28 1258.88,1064.28 1265.59,1064.28 1272.29,1064.28 1279,1064.28 1285.7,1064.27 1292.41,1064.26 1299.12,1064.24 
  1305.82,1064.2 1312.53,1064.13 1319.24,1064.01 1325.94,1063.81 1332.65,1063.49 1339.35,1063 1346.06,1062.3 1352.77,1061.29 1359.47,1059.91 1366.18,1058.06 
  1372.88,1055.63 1379.59,1052.51 1386.3,1048.58 1393,1043.74 1399.71,1037.85 1406.41,1030.81 1413.12,1022.51 1419.83,1012.86 1426.53,1001.76 1433.24,989.151 
  1439.94,974.975 1446.65,959.195 1453.36,941.792 1460.06,922.766 1466.77,902.136 1473.47,879.937 1480.18,856.226 1486.89,831.075 1493.59,804.571 1500.3,776.817 
  1507,747.929 1513.71,718.035 1520.42,687.272 1527.12,655.786 1533.83,623.731 1540.53,591.265 1547.24,558.551 1553.95,525.752 1560.65,493.034 1567.36,460.563 
  1574.07,428.502 1580.77,397.011 1587.48,366.248 1594.18,336.367 1600.89,307.513 1607.6,279.83 1614.3,253.452 1621.01,228.507 1627.71,205.116 1634.42,183.392 
  1641.13,163.439 1647.83,145.356 1654.54,129.23 1661.24,115.141 1667.95,103.163 1674.66,93.3577 1681.36,85.7819 1688.07,80.4829 1694.77,77.5004 1701.48,76.8665 
  1708.19,78.6058 1714.89,82.7354 1721.6,89.2656 1728.3,98.2 1735.01,109.536 1741.72,123.263 1748.42,139.367 1755.13,157.827 1761.83,178.617 1768.54,201.704 
  1775.25,227.055 1781.95,254.626 1788.66,284.375 1795.36,316.251 1802.07,350.202 1808.78,386.173 1815.48,424.103 1822.19,463.932 1828.9,505.593 1835.6,549.02 
  1842.31,594.143 1849.01,640.891 1855.72,689.191 1862.43,738.967 1869.13,790.143 1875.84,842.642 1882.54,896.385 1889.25,951.292 1895.96,1007.28 1902.66,1064.28 
  
  "/>
<path clip-path="url(#clip160)" d="
M1580.84 185.813 L1893.76 185.813 L1893.76 82.1328 L1580.84 82.1328  Z
  " fill="#ffffff" fill-rule="evenodd" fill-opacity="1"/>
<polyline clip-path="url(#clip160)" style="stroke:#000000; stroke-linecap:butt; stroke-linejoin:round; stroke-width:4; stroke-opacity:1; fill:none" points="
  1580.84,185.813 1893.76,185.813 1893.76,82.1328 1580.84,82.1328 1580.84,185.813 
  "/>
<polyline clip-path="url(#clip160)" style="stroke:#009af9; stroke-linecap:butt; stroke-linejoin:round; stroke-width:4; stroke-opacity:1; fill:none" points="
  1600.84,133.973 1720.84,133.973 
  "/>
<path clip-path="url(#clip160)" d="M1740.84 116.693 L1745.52 116.693 L1745.52 130.859 L1762.51 130.859 L1762.51 116.693 L1767.18 116.693 L1767.18 151.253 L1762.51 151.253 L1762.51 134.795 L1745.52 134.795 L1745.52 151.253 L1740.84 151.253 L1740.84 116.693 Z" fill="#000000" fill-rule="evenodd" fill-opacity="1" /><path clip-path="url(#clip160)" d="M1798.48 137.225 L1798.48 139.308 L1778.9 139.308 Q1779.17 143.706 1781.53 146.021 Q1783.92 148.313 1788.15 148.313 Q1790.61 148.313 1792.9 147.711 Q1795.21 147.109 1797.48 145.906 L1797.48 149.933 Q1795.19 150.906 1792.78 151.415 Q1790.38 151.924 1787.9 151.924 Q1781.7 151.924 1778.06 148.313 Q1774.45 144.702 1774.45 138.544 Q1774.45 132.179 1777.88 128.452 Q1781.33 124.702 1787.16 124.702 Q1792.39 124.702 1795.42 128.082 Q1798.48 131.438 1798.48 137.225 M1794.22 135.975 Q1794.17 132.48 1792.25 130.396 Q1790.35 128.313 1787.21 128.313 Q1783.64 128.313 1781.49 130.327 Q1779.36 132.341 1779.03 135.998 L1794.22 135.975 Z" fill="#000000" fill-rule="evenodd" fill-opacity="1" /><path clip-path="url(#clip160)" d="M1805.47 115.234 L1809.73 115.234 L1809.73 151.253 L1805.47 151.253 L1805.47 115.234 Z" fill="#000000" fill-rule="evenodd" fill-opacity="1" /><path clip-path="url(#clip160)" d="M1818.64 115.234 L1822.9 115.234 L1822.9 151.253 L1818.64 151.253 L1818.64 115.234 Z" fill="#000000" fill-rule="evenodd" fill-opacity="1" /><path clip-path="url(#clip160)" d="M1841.86 128.313 Q1838.43 128.313 1836.44 130.998 Q1834.45 133.66 1834.45 138.313 Q1834.45 142.966 1836.42 145.651 Q1838.41 148.313 1841.86 148.313 Q1845.26 148.313 1847.25 145.628 Q1849.24 142.943 1849.24 138.313 Q1849.24 133.707 1847.25 131.021 Q1845.26 128.313 1841.86 128.313 M1841.86 124.702 Q1847.41 124.702 1850.58 128.313 Q1853.76 131.924 1853.76 138.313 Q1853.76 144.679 1850.58 148.313 Q1847.41 151.924 1841.86 151.924 Q1836.28 151.924 1833.11 148.313 Q1829.96 144.679 1829.96 138.313 Q1829.96 131.924 1833.11 128.313 Q1836.28 124.702 1841.86 124.702 Z" fill="#000000" fill-rule="evenodd" fill-opacity="1" /></svg>
