<svg xmlns="http://www.w3.org/2000/svg" width="128" height="128" xml:space="preserve"><circle fill="#C2D5D8" cx="64" cy="63.801" r="64"/><path fill="#198058" d="M94 63.799H34c-.703 0-1.375.298-1.848.82C27.047 70.227 24 77.824 24 84.932v28.813c10.958 8.787 24.86 14.057 40 14.057 15.141 0 29.042-5.27 40-14.057V84.93c0-7.102-3.047-14.695-8.148-20.311a2.508 2.508 0 0 0-1.852-.82z"/><path fill="#109963" d="M92.25 73.436V69.34c0-9.778-12.938-3.039-28.25-3.039s-28.25-6.739-28.25 3.039l.004 4.094c-2.34 1.059-3.682 3.117-3.682 6.867l.024 39.346.051.086.124.104A64.383 64.383 0 0 0 64 128.2c11.111 0 22.117-2.91 31.878-8.447l.05-.027V80.301c0-3.748-1.34-5.807-3.678-6.865z"/><path fill="#1E9969" d="M28 105.801a1 1 0 0 1-1-1V84.932c0-6.137 2.587-12.785 6.92-17.787a1 1 0 0 1 1.512 1.31C31.405 73.102 29 79.262 29 84.932v19.869a1 1 0 0 1-1 1z"/><path fill="#146646" d="M94 63.799h-3c.705 0 1.377.298 1.852.822C97.954 70.234 101 77.828 101 84.932v31.072a67.573 67.573 0 0 0 3-2.26V84.93c0-7.102-3.047-14.695-8.148-20.311a2.508 2.508 0 0 0-1.852-.82z"/><path fill="#198058" d="M96.236 52.682C93.613 47.438 81.833 36.299 64 36.299S34.386 47.438 31.764 52.682C30.69 54.562 29 58.537 29 61.299c0 12.199 16.027 22.5 35 22.5s35-10.303 35-22.5c0-2.762-1.689-6.737-2.764-8.617z"/><path fill="#13B374" d="M64 83.801c11.85 0 22.55-4.02 28.914-10.01a6.867 6.867 0 0 0-.664-.355V69.34c0-9.778-12.938-3.039-28.25-3.039s-28.25-6.739-28.25 3.039l.004 4.094c-.234.105-.453.23-.669.357 6.364 5.99 17.065 10.01 28.915 10.01z"/><path fill="#146646" d="M96.236 52.682C93.613 47.438 81.833 36.299 64 36.299c-.506 0-1.004.012-1.5.029 16.992.6 28.188 11.257 30.736 16.353C94.311 54.562 96 58.537 96 61.299c0 11.875-15.189 21.951-33.5 22.476.498.016.997.023 1.5.023 18.973 0 35-10.303 35-22.5 0-2.761-1.689-6.736-2.764-8.616z"/><path fill="#12A66B" d="M92.914 73.791a6.867 6.867 0 0 0-.664-.355v-2.188c-5.607 7.09-16.907 12.16-29.75 12.527.498.016.997.023 1.5.023 11.85.003 22.55-4.017 28.914-10.007z"/><path fill="#FFC066" d="M41.5 53.799c-5.515 0-10-4.485-10-10s4.485-10 10-10 10 4.485 10 10-4.485 10-10 10z"/><path fill="#FFD599" d="m37.253 41.175-2.011-2.346a7.937 7.937 0 0 0-1.742 4.97c0 .197.016.39.029.583h3.028c-.021-.193-.058-.383-.058-.583a4.933 4.933 0 0 1 .754-2.624zM39.24 39.365A5.08 5.08 0 0 1 41 38.85v-3.024a7.938 7.938 0 0 0-3.751 1.216l1.991 2.323z"/><path fill="#242424" d="M41.5 40.189c-3.361 0-7.14 1.39-8.333 3.61 1.193 2.222 4.972 3.61 8.333 3.61 3.306 0 6.972-1.473 8.333-3.61-1.361-2.137-5.027-3.61-8.333-3.61z"/><path fill="#333" d="M33.523 43.265a7.918 7.918 0 0 0-.023.535c0 .183.015.361.027.54l.033.043h2.997c-.021-.193-.058-.383-.058-.583 0-.965.276-1.863.753-2.624l-.189-.222c-1.495.531-2.778 1.322-3.54 2.311z"/><path fill="#F5F5F5" d="M41.5 53.799c-5.515 0-10-4.485-10-10s4.485-10 10-10 10 4.485 10 10-4.485 10-10 10z"/><path fill="#242424" d="M41.5 40.189c-3.361 0-7.14 1.39-8.333 3.61 1.193 2.222 4.972 3.61 8.333 3.61 3.306 0 6.972-1.473 8.333-3.61-1.361-2.137-5.027-3.61-8.333-3.61z"/><path fill="#333" d="M33.523 43.265a7.918 7.918 0 0 0-.023.535c0 .183.015.361.027.54l.033.043h2.997c-.021-.193-.058-.383-.058-.583 0-.965.276-1.863.753-2.624l-.189-.222c-1.495.531-2.778 1.322-3.54 2.311z"/><path fill="#F5F5F5" d="M86.5 53.799c-5.516 0-10-4.485-10-10s4.484-10 10-10 10 4.485 10 10-4.484 10-10 10z"/><path fill="#242424" d="M86.5 40.189c-3.361 0-7.141 1.39-8.333 3.61 1.192 2.222 4.972 3.61 8.333 3.61 3.307 0 6.973-1.473 8.333-3.61-1.36-2.137-5.026-3.61-8.333-3.61z"/><path fill="#333" d="M78.523 43.265a7.918 7.918 0 0 0-.023.535c0 .183.016.361.027.54l.033.043h2.996c-.021-.193-.058-.383-.058-.583 0-.965.276-1.863.753-2.624l-.189-.222c-1.494.531-2.777 1.322-3.539 2.311z"/><path fill="#242424" d="M89.784 63.576c-2.774-1.016-6.955-.388-12.009.382-4.141.63-8.83 1.343-13.775 1.343-4.946 0-9.637-.713-13.775-1.343-5.054-.77-9.233-1.396-12.009-.382-.305.11-.903.739-.629 1.422.122.303.917.615 1.163.514 2.252-.928 6.427-.299 11.174.424 4.209.641 8.979 1.365 14.076 1.365 5.098 0 9.867-.727 14.076-1.365 4.746-.723 8.922-1.352 11.174-.424.246.104 1.041-.211 1.163-.514.275-.683-.324-1.311-.629-1.422z"/></svg>