<svg xmlns="http://www.w3.org/2000/svg" xmlns:xlink="http://www.w3.org/1999/xlink" width="128" height="128" xml:space="preserve"><circle fill="#88C5CC" cx="64" cy="64" r="64"/><defs><circle id="a" cx="64" cy="64" r="64"/></defs><clipPath id="b"><use xlink:href="#a" overflow="visible"/></clipPath><path clip-path="url(#b)" fill="#1A1A1A" d="M26.696 84.357c-4.951-2.646-13.815-6.102-10.478-13.584s23.119-27.215 29.24-32.234c9.757-8.002 27.154-10.495 39.145-4.145 14.563 7.714 21.871 21.067 7.48 27.056-17.611-.808-65.387 22.907-65.387 22.907z"/><defs><circle id="c" cx="64" cy="64" r="64"/></defs><clipPath id="d"><use xlink:href="#c" overflow="visible"/></clipPath><g clip-path="url(#d)" fill="#F5F5F5"><path d="M51.185 46.619c3.652 2.743 8.396 4.229 12.939 4.395.249.01.465-.029.652-.106 1.881.628 4.135.6 5.883-.237 1.093-.521.959-1.69.291-2.367-.182-.646-.699-1.212-1.473-1.207-1.801.015-3.822.287-5.479-.568a1.53 1.53 0 0 0-1.038-.155c-3.505-1.459-5.913-4.786-8.028-7.791a241.367 241.367 0 0 1-2.847-4.122 33.952 33.952 0 0 0-2.978 1.56c2.308 3.773 4.989 7.642 8.252 10.418a22.484 22.484 0 0 1-3.886-1.988c-2.559-1.646-3.971-4.954-5.141-7.943a28.827 28.827 0 0 0-2.602 1.829c1.287 3.126 2.797 6.288 5.455 8.282zM53.085 68.717c-1.49-1.357-3.713.854-2.218 2.217.62.565 1.256 1.125 1.895 1.68 1.064-.438 2.145-.877 3.229-1.313-.969-.853-1.945-1.705-2.906-2.584zM34.687 48.931c1.6 2.604 2.412 5.814 4.425 8.155 2.979 3.468 7.207 5.06 11.42 6.539 4.141 1.454 8.598 2.678 12.24 5.047 1.206-.449 2.415-.893 3.616-1.318a19.219 19.219 0 0 0-2.007-1.533c-4.576-3.051-10.624-4.297-15.731-6.198-5.725-2.132-9.472-7.332-12.032-12.867-.66.655-1.341 1.333-2.023 2.023.03.049.058.1.092.152zM26.696 84.357s.387-.191 1.09-.534a17.768 17.768 0 0 0-.939-1.446c-2.686-3.65-6.963-5.988-11.276-7.501.313 1.927 1.547 3.503 3.172 4.835a19.95 19.95 0 0 1 2.979 2.019c1.724.999 3.517 1.848 4.974 2.627zM42.823 67.26c1.81.887 3.397-1.814 1.582-2.707-5.666-2.779-9.765-7.33-12.966-12.546-.744.777-1.489 1.563-2.229 2.351 3.405 5.364 7.771 10.036 13.613 12.902zM52.752 54.588c1.771.98 3.353-1.727 1.582-2.707-4.732-2.623-8.328-6.835-10.953-11.545-.708.634-1.493 1.358-2.337 2.147 2.856 4.936 6.669 9.313 11.708 12.105zM78.104 40.041c.209 1.989 3.348 2.009 3.135 0-.295-2.761-1.459-5.25-2.23-7.861a34.246 34.246 0 0 0-3.424-.793c.637 2.945 2.195 5.637 2.519 8.654z"/><path d="M98.36 46.698a19.732 19.732 0 0 0-1.785-2.729c-4.392 5.063-13.868 7.08-19.039 2.201-2.779-2.625-3.44-6.696-6.68-9.086-2.638-1.94-5.222-3.802-7.699-5.846a41.598 41.598 0 0 0-3.907.737c3.523 3.029 7.4 5.487 10.854 8.606 3.813 3.449 4.047 8.199 9.141 10.381 6.102 2.617 14.553.571 19.115-4.264zM28.806 81.783c.241.409.482.807.724 1.198.806-.388 1.763-.843 2.854-1.355-1.104-1.755-2.135-3.581-3.265-5.396-2.538-4.071-5.521-7.826-8.82-11.303-.052-.055-.104-.093-.154-.136a60.173 60.173 0 0 0-1.883 2.548c4.131 4.393 7.501 9.247 10.544 14.444zM36.052 71.999c1.267 1.938 2.247 4.212 3.153 6.479.835-.377 1.695-.766 2.586-1.158-.266-.605-.521-1.202-.778-1.787.057.031.106.068.164.102.673.396 1.365.729 2.07 1.041a378.427 378.427 0 0 1 4.561-1.979c-3.578-1.453-6.795-2.949-9.957-5.207a19.781 19.781 0 0 0-3.26-3.682c-2.241-1.97-3.383-4.6-5.23-6.856a22.182 22.182 0 0 0-2.234-2.335 173.575 173.575 0 0 0-2.695 3.016c3.833 4.364 7.233 8.702 11.62 12.366zM65.536 57.587c3.514-.133 7.07-.918 10.554-1.057 5.417-.214 9.198 1.539 11.724 5.113 1.344-.154 2.59-.229 3.727-.209-1.547-2.988-3.924-5.799-6.939-6.921-3.369-1.254-6.621-1.192-10.182-1.053-4.417.175-9.07 1.735-13.4.612-.829-.215-1.451.203-1.75.794-1.009.51-1.165 2.438.264 3.013 4.479 1.798 7.937 4.66 10.608 8.181 1.015-.338 2.019-.664 3.011-.977-2.064-2.895-4.554-5.459-7.617-7.496z"/></g><defs><circle id="e" cx="64" cy="64" r="64"/></defs><clipPath id="f"><use xlink:href="#e" overflow="visible"/></clipPath><path clip-path="url(#f)" fill="#F5F5F5" d="M95.094 96.041a18.461 18.461 0 0 1-3.47-2.014c-5.813-4.229-22.447.23-24.061-13.125-11.974 6.156-4.837 38.453-24.406 52.727-13.586-5.523-29.472-20.722-33.616-23.021 8.521-18.422 39.256-81.737 70.456-66.772 3.579-2.274 6.704-3.799 7.599-3.225.699.45.203 8.397.203 10.471 3.768 5.802 13.809 14.65 20.294 23.07-4.477 6.806-7.85 16.432-12.999 21.889z"/><defs><circle id="g" cx="64" cy="64" r="64"/></defs><clipPath id="h"><use xlink:href="#g" overflow="visible"/></clipPath><path clip-path="url(#h)" fill="#E6E6E6" d="M104.638 75.063a11.488 11.488 0 0 1 3.319-1.088C101.465 65.607 91.54 56.84 87.8 51.079c0-2.072.496-10.021-.203-10.471-.29-.188-.822-.151-1.529.063.604 3.479-2.408 8.744-2.408 10.406 3.899 6.015 14.534 15.297 20.978 23.986z"/><defs><circle id="i" cx="64" cy="64" r="64"/></defs><clipPath id="j"><use xlink:href="#i" overflow="visible"/></clipPath><path clip-path="url(#j)" fill="#CCC" d="M77.78 45.446c.635-.69 1.678-1.294 2.218-1.612-4.229-2.203-8.728-2.455-11.813-2.162 2.548.24 7.123 2.103 9.595 3.774z"/><defs><circle id="k" cx="64" cy="64" r="64"/></defs><clipPath id="l"><use xlink:href="#k" overflow="visible"/></clipPath><path clip-path="url(#l)" fill="#CCC" d="M67.565 76.646c-16.406 11.223-9.354 41.004-27.055 55.801.891.43 1.772.826 2.646 1.184 19.569-14.271 12.435-46.57 24.405-52.727-.342-.906-.342-2.533.004-4.258z"/><defs><circle id="m" cx="64" cy="64" r="64"/></defs><clipPath id="n"><use xlink:href="#m" overflow="visible"/></clipPath><path clip-path="url(#n)" fill="#242424" d="M108.092 74.153c-5.341.782-10.467 6.021-12.411 13.312-.795 2.971-.945 5.9-.579 8.566 7.451 3.246 13.966-.652 17.36-4.996 3.423-4.379.541-10.508-4.37-16.882z"/><defs><circle id="o" cx="64" cy="64" r="64"/></defs><clipPath id="p"><use xlink:href="#o" overflow="visible"/></clipPath><g clip-path="url(#p)" fill="#1A1A1A"><path d="M49.109 127.799a34.745 34.745 0 0 0 3.32-5.252c-4.623-2.994-9.816-5.199-14.556-8.094-4.438-2.713-7.302-7.479-10.278-11.586a34.962 34.962 0 0 1-6.284-15.352 241.476 241.476 0 0 0-2.292 4.135c1.987 7.355 6.151 13.568 10.998 19.729.414.527.853 1.023 1.304 1.504-3.936-1.354-7.868-2.664-11.765-4.227-3.231-1.293-4.839-3.344-6.216-6.021-.604 1.23-1.17 2.396-1.691 3.488 1.687 2.635 3.833 4.205 7.073 5.559 10.202 4.254 24.052 6.298 30.387 16.117zM70.661 50.669c1.092-.521.957-1.689.289-2.367-.182-.646-.698-1.212-1.471-1.207-1.801.015-7.545.541-9.979-2.984a37.58 37.58 0 0 0-2.975 1.541c.276.261.545.539.832.783-.418-.164-.817-.364-1.226-.555a45.404 45.404 0 0 0-3.058 1.979c3.322 1.944 7.247 3.018 11.044 3.155.257.008 4.796.492 6.544-.345zM92.858 64.611c-1.259-3.965-4.178-8.576-8.262-10.097-3.367-1.254-6.62-1.192-10.182-1.053-4.417.175-9.07 1.735-13.4.612-.829-.215-1.451.203-1.75.794-1.009.51-1.165 2.438.264 3.013 13.167 5.287 17.488 19.76 19.134 33.135 1.057.205 2.128.369 3.188.518-1.545-13.016-5.43-26.703-16.313-33.946 3.514-.133 7.07-.918 10.554-1.057 7.55-.299 11.937 3.203 14.144 10.168 2.777 8.771.6 17.456-1.379 26.063 1.067.313 2.016.717 2.771 1.268.032.021.063.041.095.064 2.115-9.847 4.369-19.272 1.136-29.482zM99.462 73.551c-1.227 1.574.979 3.813 2.217 2.217 1.582-2.039 2.074-4.412 2.02-6.865a203.9 203.9 0 0 0-3.602-3.918c.724 3.035 1.095 6.337-.635 8.566z"/><path d="M64.382 65.818c-4.576-3.049-10.624-4.295-15.731-6.198-1.985-.74-3.729-1.858-5.271-3.224a90.892 90.892 0 0 0-2.333 2.538c2.743 2.231 6.114 3.506 9.486 4.69 6.229 2.188 13.191 3.834 16.986 9.694 2.639 4.07 3.055 9.115 3.025 14.1.865.844 1.876 1.502 2.979 2.027-.056-9.017-.85-18.103-9.141-23.627zM50.861 49.518a62.093 62.093 0 0 0-2.45 2.035 26.327 26.327 0 0 0 4.343 3.034c1.771.98 3.353-1.727 1.582-2.707a23.479 23.479 0 0 1-3.475-2.362zM79.102 69.049c3.906 7.344 5.192 14.877 5.47 22.861 1.106.16 2.17.336 3.155.563-.247-8.771-1.641-16.965-5.921-25.006-.95-1.785-3.655-.201-2.704 1.582zM51.893 83.143c-1.073-1.707-3.786-.135-2.706 1.582 2.045 3.254 5.115 5.604 7.254 8.783 1.06 1.578 1.982 3.226 2.927 4.857.307-1.535.618-3.016.951-4.438a53.519 53.519 0 0 0-1.896-3.08c-1.892-2.814-4.714-4.818-6.53-7.704zM38.569 99.209c-.942-1.789-3.648-.205-2.706 1.582 2.667 5.064 4.312 10.471 8.688 14.395 2.6 2.328 5.602 4.123 8.536 6.023.486-1.037.944-2.09 1.356-3.162-1.803-1.229-3.645-2.395-5.448-3.524-5.82-3.648-7.414-9.593-10.426-15.314z"/><path d="M53.085 68.717c-1.49-1.357-3.713.854-2.218 2.217 4.63 4.228 10.021 7.945 12.893 13.623.618-.976 1.326-1.813 2.138-2.504-3.171-5.365-8.147-9.076-12.813-13.336zM50.586 107.57c-3.034-4.355-4.28-9.705-8.604-13.119-1.57-1.238-3.804.965-2.217 2.217 4.779 3.773 6.38 10.387 10.063 15.113 1.471 1.885 3.23 3.447 5.179 4.734a62.437 62.437 0 0 0 1.048-3.289 24.174 24.174 0 0 1-5.469-5.656zM26.572 88.938c1.513 5.199 2.7 10.533 5.239 15.381.938 1.793 3.645.209 2.706-1.58-3.354-6.406-3.41-14.561-7.672-20.361a16.404 16.404 0 0 0-1.494-1.73c-.595.974-1.175 1.938-1.745 2.904a13.892 13.892 0 0 1 2.966 5.386zM35.071 66.258c-.719.95-1.425 1.914-2.123 2.887.99.984 2.012 1.943 3.104 2.854 2.447 3.743 3.836 8.755 5.656 12.513 4.376 9.041 8.648 16.971 15.646 23.697.28-1.229.541-2.449.79-3.662-6.849-7.195-11.04-15.822-15.408-25.138-.631-1.345-1.181-2.634-1.726-3.878.058.031.107.068.165.102 4.024 2.365 8.766 2.963 12.794 5.482 3.881 2.426 5.67 5.909 7.153 9.715.468-1.609.997-3.092 1.622-4.416-.588-1.223-1.26-2.404-2.104-3.508-2.294-2.995-6.031-5.541-9.521-6.9-4.97-1.938-9.163-3.586-13.272-6.52a19.522 19.522 0 0 0-2.776-3.228zM44.405 64.553a26.875 26.875 0 0 1-5.265-3.409 130.35 130.35 0 0 0-1.996 2.439 29.117 29.117 0 0 0 5.679 3.677c1.81.886 3.399-1.817 1.582-2.707zM36.945 91.426c1.623 1.211 3.184-1.512 1.582-2.705-4.396-3.28-6.578-7.94-9.409-12.488-.158-.256-.337-.5-.5-.754-.637.977-1.262 1.951-1.876 2.931a98.331 98.331 0 0 1 2.063 3.377c2.259 3.852 4.536 6.949 8.14 9.639z"/></g><defs><circle id="q" cx="64" cy="64" r="64"/></defs><clipPath id="r"><use xlink:href="#q" overflow="visible"/></clipPath><circle clip-path="url(#r)" fill="#242424" cx="80.918" cy="59.259" r="1.381"/></svg>