<?xml version="1.0" encoding="utf-8"?>
<svg xmlns="http://www.w3.org/2000/svg" xmlns:xlink="http://www.w3.org/1999/xlink" width="500" height="300" viewBox="0 0 2000 1200">
<defs>
  <clipPath id="clip860">
    <rect x="0" y="0" width="2000" height="1200"/>
  </clipPath>
</defs>
<path clip-path="url(#clip860)" d="
M0 1200 L2000 1200 L2000 0 L0 0  Z
  " fill="#ffffff" fill-rule="evenodd" fill-opacity="1"/>
<defs>
  <clipPath id="clip861">
    <rect x="400" y="0" width="1401" height="1200"/>
  </clipPath>
</defs>
<path clip-path="url(#clip860)" d="
M182.76 1093.9 L1952.76 1093.9 L1952.76 47.2441 L182.76 47.2441  Z
  " fill="#ffffff" fill-rule="evenodd" fill-opacity="1"/>
<defs>
  <clipPath id="clip862">
    <rect x="182" y="47" width="1771" height="1048"/>
  </clipPath>
</defs>
<polyline clip-path="url(#clip862)" style="stroke:#000000; stroke-linecap:butt; stroke-linejoin:round; stroke-width:2; stroke-opacity:0.1; fill:none" points="
  232.854,1093.9 232.854,47.2441 
  "/>
<polyline clip-path="url(#clip862)" style="stroke:#000000; stroke-linecap:butt; stroke-linejoin:round; stroke-width:2; stroke-opacity:0.1; fill:none" points="
  650.306,1093.9 650.306,47.2441 
  "/>
<polyline clip-path="url(#clip862)" style="stroke:#000000; stroke-linecap:butt; stroke-linejoin:round; stroke-width:2; stroke-opacity:0.1; fill:none" points="
  1067.76,1093.9 1067.76,47.2441 
  "/>
<polyline clip-path="url(#clip862)" style="stroke:#000000; stroke-linecap:butt; stroke-linejoin:round; stroke-width:2; stroke-opacity:0.1; fill:none" points="
  1485.21,1093.9 1485.21,47.2441 
  "/>
<polyline clip-path="url(#clip862)" style="stroke:#000000; stroke-linecap:butt; stroke-linejoin:round; stroke-width:2; stroke-opacity:0.1; fill:none" points="
  1902.66,1093.9 1902.66,47.2441 
  "/>
<polyline clip-path="url(#clip860)" style="stroke:#000000; stroke-linecap:butt; stroke-linejoin:round; stroke-width:4; stroke-opacity:1; fill:none" points="
  182.76,1093.9 1952.76,1093.9 
  "/>
<polyline clip-path="url(#clip860)" style="stroke:#000000; stroke-linecap:butt; stroke-linejoin:round; stroke-width:4; stroke-opacity:1; fill:none" points="
  232.854,1093.9 232.854,1075.01 
  "/>
<polyline clip-path="url(#clip860)" style="stroke:#000000; stroke-linecap:butt; stroke-linejoin:round; stroke-width:4; stroke-opacity:1; fill:none" points="
  650.306,1093.9 650.306,1075.01 
  "/>
<polyline clip-path="url(#clip860)" style="stroke:#000000; stroke-linecap:butt; stroke-linejoin:round; stroke-width:4; stroke-opacity:1; fill:none" points="
  1067.76,1093.9 1067.76,1075.01 
  "/>
<polyline clip-path="url(#clip860)" style="stroke:#000000; stroke-linecap:butt; stroke-linejoin:round; stroke-width:4; stroke-opacity:1; fill:none" points="
  1485.21,1093.9 1485.21,1075.01 
  "/>
<polyline clip-path="url(#clip860)" style="stroke:#000000; stroke-linecap:butt; stroke-linejoin:round; stroke-width:4; stroke-opacity:1; fill:none" points="
  1902.66,1093.9 1902.66,1075.01 
  "/>
<path clip-path="url(#clip860)" d="M179.382 1136.28 L209.058 1136.28 L209.058 1140.21 L179.382 1140.21 L179.382 1136.28 Z" fill="#000000" fill-rule="evenodd" fill-opacity="1" /><path clip-path="url(#clip860)" d="M219.961 1149.17 L227.6 1149.17 L227.6 1122.8 L219.29 1124.47 L219.29 1120.21 L227.553 1118.54 L232.229 1118.54 L232.229 1149.17 L239.868 1149.17 L239.868 1153.1 L219.961 1153.1 L219.961 1149.17 Z" fill="#000000" fill-rule="evenodd" fill-opacity="1" /><path clip-path="url(#clip860)" d="M249.313 1147.22 L254.197 1147.22 L254.197 1153.1 L249.313 1153.1 L249.313 1147.22 Z" fill="#000000" fill-rule="evenodd" fill-opacity="1" /><path clip-path="url(#clip860)" d="M274.382 1121.62 Q270.771 1121.62 268.942 1125.19 Q267.137 1128.73 267.137 1135.86 Q267.137 1142.97 268.942 1146.53 Q270.771 1150.07 274.382 1150.07 Q278.016 1150.07 279.822 1146.53 Q281.65 1142.97 281.65 1135.86 Q281.65 1128.73 279.822 1125.19 Q278.016 1121.62 274.382 1121.62 M274.382 1117.92 Q280.192 1117.92 283.248 1122.53 Q286.326 1127.11 286.326 1135.86 Q286.326 1144.59 283.248 1149.19 Q280.192 1153.78 274.382 1153.78 Q268.572 1153.78 265.493 1149.19 Q262.438 1144.59 262.438 1135.86 Q262.438 1127.11 265.493 1122.53 Q268.572 1117.92 274.382 1117.92 Z" fill="#000000" fill-rule="evenodd" fill-opacity="1" /><path clip-path="url(#clip860)" d="M597.332 1136.28 L627.008 1136.28 L627.008 1140.21 L597.332 1140.21 L597.332 1136.28 Z" fill="#000000" fill-rule="evenodd" fill-opacity="1" /><path clip-path="url(#clip860)" d="M647.1 1121.62 Q643.489 1121.62 641.66 1125.19 Q639.855 1128.73 639.855 1135.86 Q639.855 1142.97 641.66 1146.53 Q643.489 1150.07 647.1 1150.07 Q650.734 1150.07 652.54 1146.53 Q654.369 1142.97 654.369 1135.86 Q654.369 1128.73 652.54 1125.19 Q650.734 1121.62 647.1 1121.62 M647.1 1117.92 Q652.91 1117.92 655.966 1122.53 Q659.045 1127.11 659.045 1135.86 Q659.045 1144.59 655.966 1149.19 Q652.91 1153.78 647.1 1153.78 Q641.29 1153.78 638.211 1149.19 Q635.156 1144.59 635.156 1135.86 Q635.156 1127.11 638.211 1122.53 Q641.29 1117.92 647.1 1117.92 Z" fill="#000000" fill-rule="evenodd" fill-opacity="1" /><path clip-path="url(#clip860)" d="M667.262 1147.22 L672.146 1147.22 L672.146 1153.1 L667.262 1153.1 L667.262 1147.22 Z" fill="#000000" fill-rule="evenodd" fill-opacity="1" /><path clip-path="url(#clip860)" d="M682.378 1118.54 L700.734 1118.54 L700.734 1122.48 L686.66 1122.48 L686.66 1130.95 Q687.679 1130.6 688.697 1130.44 Q689.716 1130.26 690.734 1130.26 Q696.521 1130.26 699.901 1133.43 Q703.28 1136.6 703.28 1142.02 Q703.28 1147.59 699.808 1150.7 Q696.336 1153.78 690.017 1153.78 Q687.841 1153.78 685.572 1153.4 Q683.327 1153.03 680.919 1152.29 L680.919 1147.59 Q683.003 1148.73 685.225 1149.28 Q687.447 1149.84 689.924 1149.84 Q693.929 1149.84 696.267 1147.73 Q698.605 1145.63 698.605 1142.02 Q698.605 1138.4 696.267 1136.3 Q693.929 1134.19 689.924 1134.19 Q688.049 1134.19 686.174 1134.61 Q684.322 1135.03 682.378 1135.9 L682.378 1118.54 Z" fill="#000000" fill-rule="evenodd" fill-opacity="1" /><path clip-path="url(#clip860)" d="M1045.14 1121.62 Q1041.53 1121.62 1039.7 1125.19 Q1037.9 1128.73 1037.9 1135.86 Q1037.9 1142.97 1039.7 1146.53 Q1041.53 1150.07 1045.14 1150.07 Q1048.78 1150.07 1050.58 1146.53 Q1052.41 1142.97 1052.41 1135.86 Q1052.41 1128.73 1050.58 1125.19 Q1048.78 1121.62 1045.14 1121.62 M1045.14 1117.92 Q1050.95 1117.92 1054.01 1122.53 Q1057.09 1127.11 1057.09 1135.86 Q1057.09 1144.59 1054.01 1149.19 Q1050.95 1153.78 1045.14 1153.78 Q1039.33 1153.78 1036.25 1149.19 Q1033.2 1144.59 1033.2 1135.86 Q1033.2 1127.11 1036.25 1122.53 Q1039.33 1117.92 1045.14 1117.92 Z" fill="#000000" fill-rule="evenodd" fill-opacity="1" /><path clip-path="url(#clip860)" d="M1065.3 1147.22 L1070.19 1147.22 L1070.19 1153.1 L1065.3 1153.1 L1065.3 1147.22 Z" fill="#000000" fill-rule="evenodd" fill-opacity="1" /><path clip-path="url(#clip860)" d="M1090.37 1121.62 Q1086.76 1121.62 1084.93 1125.19 Q1083.13 1128.73 1083.13 1135.86 Q1083.13 1142.97 1084.93 1146.53 Q1086.76 1150.07 1090.37 1150.07 Q1094.01 1150.07 1095.81 1146.53 Q1097.64 1142.97 1097.64 1135.86 Q1097.64 1128.73 1095.81 1125.19 Q1094.01 1121.62 1090.37 1121.62 M1090.37 1117.92 Q1096.18 1117.92 1099.24 1122.53 Q1102.32 1127.11 1102.32 1135.86 Q1102.32 1144.59 1099.24 1149.19 Q1096.18 1153.78 1090.37 1153.78 Q1084.56 1153.78 1081.48 1149.19 Q1078.43 1144.59 1078.43 1135.86 Q1078.43 1127.11 1081.48 1122.53 Q1084.56 1117.92 1090.37 1117.92 Z" fill="#000000" fill-rule="evenodd" fill-opacity="1" /><path clip-path="url(#clip860)" d="M1463.09 1121.62 Q1459.48 1121.62 1457.65 1125.19 Q1455.85 1128.73 1455.85 1135.86 Q1455.85 1142.97 1457.65 1146.53 Q1459.48 1150.07 1463.09 1150.07 Q1466.73 1150.07 1468.53 1146.53 Q1470.36 1142.97 1470.36 1135.86 Q1470.36 1128.73 1468.53 1125.19 Q1466.73 1121.62 1463.09 1121.62 M1463.09 1117.92 Q1468.9 1117.92 1471.96 1122.53 Q1475.04 1127.11 1475.04 1135.86 Q1475.04 1144.59 1471.96 1149.19 Q1468.9 1153.78 1463.09 1153.78 Q1457.28 1153.78 1454.2 1149.19 Q1451.15 1144.59 1451.15 1135.86 Q1451.15 1127.11 1454.2 1122.53 Q1457.28 1117.92 1463.09 1117.92 Z" fill="#000000" fill-rule="evenodd" fill-opacity="1" /><path clip-path="url(#clip860)" d="M1483.25 1147.22 L1488.14 1147.22 L1488.14 1153.1 L1483.25 1153.1 L1483.25 1147.22 Z" fill="#000000" fill-rule="evenodd" fill-opacity="1" /><path clip-path="url(#clip860)" d="M1498.37 1118.54 L1516.73 1118.54 L1516.73 1122.48 L1502.65 1122.48 L1502.65 1130.95 Q1503.67 1130.6 1504.69 1130.44 Q1505.71 1130.26 1506.73 1130.26 Q1512.51 1130.26 1515.89 1133.43 Q1519.27 1136.6 1519.27 1142.02 Q1519.27 1147.59 1515.8 1150.7 Q1512.33 1153.78 1506.01 1153.78 Q1503.83 1153.78 1501.56 1153.4 Q1499.32 1153.03 1496.91 1152.29 L1496.91 1147.59 Q1498.99 1148.73 1501.22 1149.28 Q1503.44 1149.84 1505.92 1149.84 Q1509.92 1149.84 1512.26 1147.73 Q1514.6 1145.63 1514.6 1142.02 Q1514.6 1138.4 1512.26 1136.3 Q1509.92 1134.19 1505.92 1134.19 Q1504.04 1134.19 1502.17 1134.61 Q1500.31 1135.03 1498.37 1135.9 L1498.37 1118.54 Z" fill="#000000" fill-rule="evenodd" fill-opacity="1" /><path clip-path="url(#clip860)" d="M1869.81 1149.17 L1877.45 1149.17 L1877.45 1122.8 L1869.14 1124.47 L1869.14 1120.21 L1877.41 1118.54 L1882.08 1118.54 L1882.08 1149.17 L1889.72 1149.17 L1889.72 1153.1 L1869.81 1153.1 L1869.81 1149.17 Z" fill="#000000" fill-rule="evenodd" fill-opacity="1" /><path clip-path="url(#clip860)" d="M1899.17 1147.22 L1904.05 1147.22 L1904.05 1153.1 L1899.17 1153.1 L1899.17 1147.22 Z" fill="#000000" fill-rule="evenodd" fill-opacity="1" /><path clip-path="url(#clip860)" d="M1924.24 1121.62 Q1920.62 1121.62 1918.8 1125.19 Q1916.99 1128.73 1916.99 1135.86 Q1916.99 1142.97 1918.8 1146.53 Q1920.62 1150.07 1924.24 1150.07 Q1927.87 1150.07 1929.68 1146.53 Q1931.5 1142.97 1931.5 1135.86 Q1931.5 1128.73 1929.68 1125.19 Q1927.87 1121.62 1924.24 1121.62 M1924.24 1117.92 Q1930.05 1117.92 1933.1 1122.53 Q1936.18 1127.11 1936.18 1135.86 Q1936.18 1144.59 1933.1 1149.19 Q1930.05 1153.78 1924.24 1153.78 Q1918.43 1153.78 1915.35 1149.19 Q1912.29 1144.59 1912.29 1135.86 Q1912.29 1127.11 1915.35 1122.53 Q1918.43 1117.92 1924.24 1117.92 Z" fill="#000000" fill-rule="evenodd" fill-opacity="1" /><polyline clip-path="url(#clip862)" style="stroke:#000000; stroke-linecap:butt; stroke-linejoin:round; stroke-width:2; stroke-opacity:0.1; fill:none" points="
  182.76,1064.28 1952.76,1064.28 
  "/>
<polyline clip-path="url(#clip862)" style="stroke:#000000; stroke-linecap:butt; stroke-linejoin:round; stroke-width:2; stroke-opacity:0.1; fill:none" points="
  182.76,869.78 1952.76,869.78 
  "/>
<polyline clip-path="url(#clip862)" style="stroke:#000000; stroke-linecap:butt; stroke-linejoin:round; stroke-width:2; stroke-opacity:0.1; fill:none" points="
  182.76,675.278 1952.76,675.278 
  "/>
<polyline clip-path="url(#clip862)" style="stroke:#000000; stroke-linecap:butt; stroke-linejoin:round; stroke-width:2; stroke-opacity:0.1; fill:none" points="
  182.76,480.777 1952.76,480.777 
  "/>
<polyline clip-path="url(#clip862)" style="stroke:#000000; stroke-linecap:butt; stroke-linejoin:round; stroke-width:2; stroke-opacity:0.1; fill:none" points="
  182.76,286.275 1952.76,286.275 
  "/>
<polyline clip-path="url(#clip862)" style="stroke:#000000; stroke-linecap:butt; stroke-linejoin:round; stroke-width:2; stroke-opacity:0.1; fill:none" points="
  182.76,91.7733 1952.76,91.7733 
  "/>
<polyline clip-path="url(#clip860)" style="stroke:#000000; stroke-linecap:butt; stroke-linejoin:round; stroke-width:4; stroke-opacity:1; fill:none" points="
  182.76,1093.9 182.76,47.2441 
  "/>
<polyline clip-path="url(#clip860)" style="stroke:#000000; stroke-linecap:butt; stroke-linejoin:round; stroke-width:4; stroke-opacity:1; fill:none" points="
  182.76,1064.28 201.658,1064.28 
  "/>
<polyline clip-path="url(#clip860)" style="stroke:#000000; stroke-linecap:butt; stroke-linejoin:round; stroke-width:4; stroke-opacity:1; fill:none" points="
  182.76,869.78 201.658,869.78 
  "/>
<polyline clip-path="url(#clip860)" style="stroke:#000000; stroke-linecap:butt; stroke-linejoin:round; stroke-width:4; stroke-opacity:1; fill:none" points="
  182.76,675.278 201.658,675.278 
  "/>
<polyline clip-path="url(#clip860)" style="stroke:#000000; stroke-linecap:butt; stroke-linejoin:round; stroke-width:4; stroke-opacity:1; fill:none" points="
  182.76,480.777 201.658,480.777 
  "/>
<polyline clip-path="url(#clip860)" style="stroke:#000000; stroke-linecap:butt; stroke-linejoin:round; stroke-width:4; stroke-opacity:1; fill:none" points="
  182.76,286.275 201.658,286.275 
  "/>
<polyline clip-path="url(#clip860)" style="stroke:#000000; stroke-linecap:butt; stroke-linejoin:round; stroke-width:4; stroke-opacity:1; fill:none" points="
  182.76,91.7733 201.658,91.7733 
  "/>
<path clip-path="url(#clip860)" d="M65.4226 1050.08 Q61.8115 1050.08 59.9828 1053.64 Q58.1773 1057.19 58.1773 1064.32 Q58.1773 1071.42 59.9828 1074.99 Q61.8115 1078.53 65.4226 1078.53 Q69.0569 1078.53 70.8624 1074.99 Q72.6911 1071.42 72.6911 1064.32 Q72.6911 1057.19 70.8624 1053.64 Q69.0569 1050.08 65.4226 1050.08 M65.4226 1046.38 Q71.2328 1046.38 74.2883 1050.98 Q77.367 1055.57 77.367 1064.32 Q77.367 1073.04 74.2883 1077.65 Q71.2328 1082.23 65.4226 1082.23 Q59.6125 1082.23 56.5338 1077.65 Q53.4782 1073.04 53.4782 1064.32 Q53.4782 1055.57 56.5338 1050.98 Q59.6125 1046.38 65.4226 1046.38 Z" fill="#000000" fill-rule="evenodd" fill-opacity="1" /><path clip-path="url(#clip860)" d="M85.5845 1075.68 L90.4688 1075.68 L90.4688 1081.56 L85.5845 1081.56 L85.5845 1075.68 Z" fill="#000000" fill-rule="evenodd" fill-opacity="1" /><path clip-path="url(#clip860)" d="M110.654 1050.08 Q107.043 1050.08 105.214 1053.64 Q103.409 1057.19 103.409 1064.32 Q103.409 1071.42 105.214 1074.99 Q107.043 1078.53 110.654 1078.53 Q114.288 1078.53 116.094 1074.99 Q117.922 1071.42 117.922 1064.32 Q117.922 1057.19 116.094 1053.64 Q114.288 1050.08 110.654 1050.08 M110.654 1046.38 Q116.464 1046.38 119.52 1050.98 Q122.598 1055.57 122.598 1064.32 Q122.598 1073.04 119.52 1077.65 Q116.464 1082.23 110.654 1082.23 Q104.844 1082.23 101.765 1077.65 Q98.7095 1073.04 98.7095 1064.32 Q98.7095 1055.57 101.765 1050.98 Q104.844 1046.38 110.654 1046.38 Z" fill="#000000" fill-rule="evenodd" fill-opacity="1" /><path clip-path="url(#clip860)" d="M140.816 1050.08 Q137.205 1050.08 135.376 1053.64 Q133.57 1057.19 133.57 1064.32 Q133.57 1071.42 135.376 1074.99 Q137.205 1078.53 140.816 1078.53 Q144.45 1078.53 146.256 1074.99 Q148.084 1071.42 148.084 1064.32 Q148.084 1057.19 146.256 1053.64 Q144.45 1050.08 140.816 1050.08 M140.816 1046.38 Q146.626 1046.38 149.681 1050.98 Q152.76 1055.57 152.76 1064.32 Q152.76 1073.04 149.681 1077.65 Q146.626 1082.23 140.816 1082.23 Q135.006 1082.23 131.927 1077.65 Q128.871 1073.04 128.871 1064.32 Q128.871 1055.57 131.927 1050.98 Q135.006 1046.38 140.816 1046.38 Z" fill="#000000" fill-rule="evenodd" fill-opacity="1" /><path clip-path="url(#clip860)" d="M66.6495 855.578 Q63.0384 855.578 61.2097 859.143 Q59.4041 862.685 59.4041 869.815 Q59.4041 876.921 61.2097 880.486 Q63.0384 884.027 66.6495 884.027 Q70.2837 884.027 72.0892 880.486 Q73.9179 876.921 73.9179 869.815 Q73.9179 862.685 72.0892 859.143 Q70.2837 855.578 66.6495 855.578 M66.6495 851.875 Q72.4596 851.875 75.5152 856.481 Q78.5938 861.065 78.5938 869.815 Q78.5938 878.541 75.5152 883.148 Q72.4596 887.731 66.6495 887.731 Q60.8393 887.731 57.7606 883.148 Q54.7051 878.541 54.7051 869.815 Q54.7051 861.065 57.7606 856.481 Q60.8393 851.875 66.6495 851.875 Z" fill="#000000" fill-rule="evenodd" fill-opacity="1" /><path clip-path="url(#clip860)" d="M86.8114 881.18 L91.6956 881.18 L91.6956 887.06 L86.8114 887.06 L86.8114 881.18 Z" fill="#000000" fill-rule="evenodd" fill-opacity="1" /><path clip-path="url(#clip860)" d="M111.881 855.578 Q108.27 855.578 106.441 859.143 Q104.635 862.685 104.635 869.815 Q104.635 876.921 106.441 880.486 Q108.27 884.027 111.881 884.027 Q115.515 884.027 117.32 880.486 Q119.149 876.921 119.149 869.815 Q119.149 862.685 117.32 859.143 Q115.515 855.578 111.881 855.578 M111.881 851.875 Q117.691 851.875 120.746 856.481 Q123.825 861.065 123.825 869.815 Q123.825 878.541 120.746 883.148 Q117.691 887.731 111.881 887.731 Q106.071 887.731 102.992 883.148 Q99.9363 878.541 99.9363 869.815 Q99.9363 861.065 102.992 856.481 Q106.071 851.875 111.881 851.875 Z" fill="#000000" fill-rule="evenodd" fill-opacity="1" /><path clip-path="url(#clip860)" d="M132.853 883.125 L140.492 883.125 L140.492 856.759 L132.182 858.426 L132.182 854.166 L140.445 852.5 L145.121 852.5 L145.121 883.125 L152.76 883.125 L152.76 887.06 L132.853 887.06 L132.853 883.125 Z" fill="#000000" fill-rule="evenodd" fill-opacity="1" /><path clip-path="url(#clip860)" d="M67.0198 661.077 Q63.4087 661.077 61.58 664.642 Q59.7745 668.183 59.7745 675.313 Q59.7745 682.419 61.58 685.984 Q63.4087 689.526 67.0198 689.526 Q70.6541 689.526 72.4596 685.984 Q74.2883 682.419 74.2883 675.313 Q74.2883 668.183 72.4596 664.642 Q70.6541 661.077 67.0198 661.077 M67.0198 657.373 Q72.83 657.373 75.8855 661.98 Q78.9642 666.563 78.9642 675.313 Q78.9642 684.04 75.8855 688.646 Q72.83 693.229 67.0198 693.229 Q61.2097 693.229 58.131 688.646 Q55.0754 684.04 55.0754 675.313 Q55.0754 666.563 58.131 661.98 Q61.2097 657.373 67.0198 657.373 Z" fill="#000000" fill-rule="evenodd" fill-opacity="1" /><path clip-path="url(#clip860)" d="M87.1818 686.679 L92.066 686.679 L92.066 692.558 L87.1818 692.558 L87.1818 686.679 Z" fill="#000000" fill-rule="evenodd" fill-opacity="1" /><path clip-path="url(#clip860)" d="M112.251 661.077 Q108.64 661.077 106.811 664.642 Q105.006 668.183 105.006 675.313 Q105.006 682.419 106.811 685.984 Q108.64 689.526 112.251 689.526 Q115.885 689.526 117.691 685.984 Q119.52 682.419 119.52 675.313 Q119.52 668.183 117.691 664.642 Q115.885 661.077 112.251 661.077 M112.251 657.373 Q118.061 657.373 121.117 661.98 Q124.195 666.563 124.195 675.313 Q124.195 684.04 121.117 688.646 Q118.061 693.229 112.251 693.229 Q106.441 693.229 103.362 688.646 Q100.307 684.04 100.307 675.313 Q100.307 666.563 103.362 661.98 Q106.441 657.373 112.251 657.373 Z" fill="#000000" fill-rule="evenodd" fill-opacity="1" /><path clip-path="url(#clip860)" d="M136.441 688.623 L152.76 688.623 L152.76 692.558 L130.816 692.558 L130.816 688.623 Q133.478 685.868 138.061 681.239 Q142.668 676.586 143.848 675.243 Q146.093 672.72 146.973 670.984 Q147.876 669.225 147.876 667.535 Q147.876 664.781 145.931 663.044 Q144.01 661.308 140.908 661.308 Q138.709 661.308 136.256 662.072 Q133.825 662.836 131.047 664.387 L131.047 659.665 Q133.871 658.531 136.325 657.952 Q138.779 657.373 140.816 657.373 Q146.186 657.373 149.38 660.058 Q152.575 662.744 152.575 667.234 Q152.575 669.364 151.765 671.285 Q150.978 673.183 148.871 675.776 Q148.293 676.447 145.191 679.665 Q142.089 682.859 136.441 688.623 Z" fill="#000000" fill-rule="evenodd" fill-opacity="1" /><path clip-path="url(#clip860)" d="M66.0708 466.575 Q62.4597 466.575 60.631 470.14 Q58.8254 473.682 58.8254 480.811 Q58.8254 487.918 60.631 491.483 Q62.4597 495.024 66.0708 495.024 Q69.705 495.024 71.5105 491.483 Q73.3392 487.918 73.3392 480.811 Q73.3392 473.682 71.5105 470.14 Q69.705 466.575 66.0708 466.575 M66.0708 462.872 Q71.8809 462.872 74.9365 467.478 Q78.0151 472.061 78.0151 480.811 Q78.0151 489.538 74.9365 494.145 Q71.8809 498.728 66.0708 498.728 Q60.2606 498.728 57.1819 494.145 Q54.1264 489.538 54.1264 480.811 Q54.1264 472.061 57.1819 467.478 Q60.2606 462.872 66.0708 462.872 Z" fill="#000000" fill-rule="evenodd" fill-opacity="1" /><path clip-path="url(#clip860)" d="M86.2327 492.177 L91.1169 492.177 L91.1169 498.057 L86.2327 498.057 L86.2327 492.177 Z" fill="#000000" fill-rule="evenodd" fill-opacity="1" /><path clip-path="url(#clip860)" d="M111.302 466.575 Q107.691 466.575 105.862 470.14 Q104.057 473.682 104.057 480.811 Q104.057 487.918 105.862 491.483 Q107.691 495.024 111.302 495.024 Q114.936 495.024 116.742 491.483 Q118.57 487.918 118.57 480.811 Q118.57 473.682 116.742 470.14 Q114.936 466.575 111.302 466.575 M111.302 462.872 Q117.112 462.872 120.168 467.478 Q123.246 472.061 123.246 480.811 Q123.246 489.538 120.168 494.145 Q117.112 498.728 111.302 498.728 Q105.492 498.728 102.413 494.145 Q99.3576 489.538 99.3576 480.811 Q99.3576 472.061 102.413 467.478 Q105.492 462.872 111.302 462.872 Z" fill="#000000" fill-rule="evenodd" fill-opacity="1" /><path clip-path="url(#clip860)" d="M145.631 479.422 Q148.987 480.14 150.862 482.408 Q152.76 484.677 152.76 488.01 Q152.76 493.126 149.242 495.927 Q145.723 498.728 139.242 498.728 Q137.066 498.728 134.751 498.288 Q132.459 497.871 130.006 497.015 L130.006 492.501 Q131.95 493.635 134.265 494.214 Q136.58 494.793 139.103 494.793 Q143.501 494.793 145.793 493.057 Q148.107 491.32 148.107 488.01 Q148.107 484.955 145.955 483.242 Q143.825 481.506 140.006 481.506 L135.978 481.506 L135.978 477.663 L140.191 477.663 Q143.64 477.663 145.468 476.297 Q147.297 474.909 147.297 472.316 Q147.297 469.654 145.399 468.242 Q143.524 466.807 140.006 466.807 Q138.084 466.807 135.885 467.223 Q133.686 467.64 131.047 468.52 L131.047 464.353 Q133.709 463.612 136.024 463.242 Q138.362 462.872 140.422 462.872 Q145.746 462.872 148.848 465.302 Q151.95 467.71 151.95 471.83 Q151.95 474.7 150.306 476.691 Q148.663 478.659 145.631 479.422 Z" fill="#000000" fill-rule="evenodd" fill-opacity="1" /><path clip-path="url(#clip860)" d="M64.9365 272.074 Q61.3254 272.074 59.4967 275.638 Q57.6912 279.18 57.6912 286.31 Q57.6912 293.416 59.4967 296.981 Q61.3254 300.523 64.9365 300.523 Q68.5707 300.523 70.3763 296.981 Q72.205 293.416 72.205 286.31 Q72.205 279.18 70.3763 275.638 Q68.5707 272.074 64.9365 272.074 M64.9365 268.37 Q70.7467 268.37 73.8022 272.976 Q76.8809 277.56 76.8809 286.31 Q76.8809 295.036 73.8022 299.643 Q70.7467 304.226 64.9365 304.226 Q59.1264 304.226 56.0477 299.643 Q52.9921 295.036 52.9921 286.31 Q52.9921 277.56 56.0477 272.976 Q59.1264 268.37 64.9365 268.37 Z" fill="#000000" fill-rule="evenodd" fill-opacity="1" /><path clip-path="url(#clip860)" d="M85.0984 297.675 L89.9827 297.675 L89.9827 303.555 L85.0984 303.555 L85.0984 297.675 Z" fill="#000000" fill-rule="evenodd" fill-opacity="1" /><path clip-path="url(#clip860)" d="M110.168 272.074 Q106.557 272.074 104.728 275.638 Q102.922 279.18 102.922 286.31 Q102.922 293.416 104.728 296.981 Q106.557 300.523 110.168 300.523 Q113.802 300.523 115.608 296.981 Q117.436 293.416 117.436 286.31 Q117.436 279.18 115.608 275.638 Q113.802 272.074 110.168 272.074 M110.168 268.37 Q115.978 268.37 119.033 272.976 Q122.112 277.56 122.112 286.31 Q122.112 295.036 119.033 299.643 Q115.978 304.226 110.168 304.226 Q104.358 304.226 101.279 299.643 Q98.2234 295.036 98.2234 286.31 Q98.2234 277.56 101.279 272.976 Q104.358 268.37 110.168 268.37 Z" fill="#000000" fill-rule="evenodd" fill-opacity="1" /><path clip-path="url(#clip860)" d="M143.177 273.069 L131.371 291.518 L143.177 291.518 L143.177 273.069 M141.95 268.995 L147.83 268.995 L147.83 291.518 L152.76 291.518 L152.76 295.407 L147.83 295.407 L147.83 303.555 L143.177 303.555 L143.177 295.407 L127.575 295.407 L127.575 290.893 L141.95 268.995 Z" fill="#000000" fill-rule="evenodd" fill-opacity="1" /><path clip-path="url(#clip860)" d="M66.418 77.572 Q62.8069 77.572 60.9782 81.1368 Q59.1726 84.6785 59.1726 91.808 Q59.1726 98.9145 60.9782 102.479 Q62.8069 106.021 66.418 106.021 Q70.0522 106.021 71.8578 102.479 Q73.6865 98.9145 73.6865 91.808 Q73.6865 84.6785 71.8578 81.1368 Q70.0522 77.572 66.418 77.572 M66.418 73.8683 Q72.2281 73.8683 75.2837 78.4748 Q78.3624 83.0581 78.3624 91.808 Q78.3624 100.535 75.2837 105.141 Q72.2281 109.725 66.418 109.725 Q60.6078 109.725 57.5291 105.141 Q54.4736 100.535 54.4736 91.808 Q54.4736 83.0581 57.5291 78.4748 Q60.6078 73.8683 66.418 73.8683 Z" fill="#000000" fill-rule="evenodd" fill-opacity="1" /><path clip-path="url(#clip860)" d="M86.5799 103.174 L91.4641 103.174 L91.4641 109.053 L86.5799 109.053 L86.5799 103.174 Z" fill="#000000" fill-rule="evenodd" fill-opacity="1" /><path clip-path="url(#clip860)" d="M111.649 77.572 Q108.038 77.572 106.209 81.1368 Q104.404 84.6785 104.404 91.808 Q104.404 98.9145 106.209 102.479 Q108.038 106.021 111.649 106.021 Q115.283 106.021 117.089 102.479 Q118.918 98.9145 118.918 91.808 Q118.918 84.6785 117.089 81.1368 Q115.283 77.572 111.649 77.572 M111.649 73.8683 Q117.459 73.8683 120.515 78.4748 Q123.594 83.0581 123.594 91.808 Q123.594 100.535 120.515 105.141 Q117.459 109.725 111.649 109.725 Q105.839 109.725 102.76 105.141 Q99.7048 100.535 99.7048 91.808 Q99.7048 83.0581 102.76 78.4748 Q105.839 73.8683 111.649 73.8683 Z" fill="#000000" fill-rule="evenodd" fill-opacity="1" /><path clip-path="url(#clip860)" d="M131.857 74.4933 L150.214 74.4933 L150.214 78.4285 L136.14 78.4285 L136.14 86.9007 Q137.158 86.5534 138.177 86.3914 Q139.195 86.2062 140.214 86.2062 Q146.001 86.2062 149.38 89.3775 Q152.76 92.5488 152.76 97.9654 Q152.76 103.544 149.288 106.646 Q145.816 109.725 139.496 109.725 Q137.32 109.725 135.052 109.354 Q132.807 108.984 130.399 108.243 L130.399 103.544 Q132.482 104.678 134.705 105.234 Q136.927 105.789 139.404 105.789 Q143.408 105.789 145.746 103.683 Q148.084 101.577 148.084 97.9654 Q148.084 94.3543 145.746 92.2479 Q143.408 90.1414 139.404 90.1414 Q137.529 90.1414 135.654 90.5581 Q133.802 90.9747 131.857 91.8543 L131.857 74.4933 Z" fill="#000000" fill-rule="evenodd" fill-opacity="1" /><polyline clip-path="url(#clip862)" style="stroke:#009af9; stroke-linecap:butt; stroke-linejoin:round; stroke-width:4; stroke-opacity:1; fill:none" points="
  232.854,1064.28 238.439,1016.75 244.024,969.901 249.608,923.788 255.193,878.455 260.778,833.948 266.362,790.313 271.947,747.595 277.531,705.839 283.116,665.09 
  288.701,625.39 294.285,586.783 299.87,549.31 305.455,513.014 311.039,477.934 316.624,444.11 322.209,411.579 327.793,380.379 333.378,350.545 338.962,322.11 
  344.547,295.109 350.132,269.57 355.716,245.525 361.301,222.999 366.886,202.019 372.47,182.607 378.055,164.785 383.64,148.571 389.224,133.983 394.809,121.034 
  400.394,109.734 405.978,100.094 411.563,92.1179 417.147,85.8092 422.732,81.1673 428.317,78.1887 433.901,76.8665 439.486,77.1906 445.071,79.1472 450.655,82.719 
  456.24,87.885 461.825,94.6205 467.409,102.897 472.994,112.682 478.578,123.939 484.163,136.628 489.748,150.705 495.332,166.121 500.917,182.824 506.502,200.758 
  512.086,219.863 517.671,240.074 523.256,261.325 528.84,283.543 534.425,306.653 540.01,330.579 545.594,355.237 551.179,380.544 556.763,406.413 562.348,432.754 
  567.933,459.476 573.517,486.487 579.102,513.691 584.687,540.994 590.271,568.299 595.856,595.512 601.441,622.538 607.025,649.283 612.61,675.655 618.194,701.565 
  623.779,726.926 629.364,751.655 634.948,775.675 640.533,798.912 646.118,821.297 651.702,842.77 657.287,863.275 662.872,882.765 668.456,901.201 674.041,918.55 
  679.626,934.79 685.21,949.908 690.795,963.898 696.379,976.765 701.964,988.521 707.549,999.19 713.133,1008.8 718.718,1017.39 724.303,1025.01 729.887,1031.7 
  735.472,1037.53 741.057,1042.55 746.641,1046.83 752.226,1050.45 757.81,1053.46 763.395,1055.93 768.98,1057.94 774.564,1059.55 780.149,1060.81 785.734,1061.78 
  791.318,1062.52 796.903,1063.07 802.488,1063.46 808.072,1063.75 813.657,1063.94 819.242,1064.07 824.826,1064.16 830.411,1064.21 835.995,1064.24 841.58,1064.26 
  847.165,1064.27 852.749,1064.28 858.334,1064.28 863.919,1064.28 869.503,1064.28 875.088,1064.28 880.673,1064.28 886.257,1064.28 891.842,1064.28 897.426,1064.28 
  903.011,1064.28 908.596,1064.28 914.18,1064.28 919.765,1064.28 925.35,1064.28 930.934,1064.28 936.519,1064.28 942.104,1064.28 947.688,1064.28 953.273,1064.28 
  958.858,1064.28 964.442,1064.28 970.027,1064.28 975.611,1064.28 981.196,1064.28 986.781,1064.28 992.365,1064.28 997.95,1064.28 1003.53,1064.28 1009.12,1064.28 
  1014.7,1064.28 1020.29,1064.28 1025.87,1064.28 1031.46,1064.28 1037.04,1064.28 1042.63,1064.28 1048.21,1064.28 1053.8,1064.28 1059.38,1064.28 1064.97,1064.28 
  1070.55,1064.28 1076.13,1064.28 1081.72,1064.28 1087.3,1064.28 1092.89,1064.28 1098.47,1064.28 1104.06,1064.28 1109.64,1064.28 1115.23,1064.28 1120.81,1064.28 
  1126.4,1064.28 1131.98,1064.28 1137.57,1064.28 1143.15,1064.28 1148.74,1064.28 1154.32,1064.28 1159.9,1064.28 1165.49,1064.28 1171.07,1064.28 1176.66,1064.28 
  1182.24,1064.28 1187.83,1064.28 1193.41,1064.28 1199,1064.28 1204.58,1064.28 1210.17,1064.28 1215.75,1064.28 1221.34,1064.28 1226.92,1064.28 1232.5,1064.28 
  1238.09,1064.28 1243.67,1064.28 1249.26,1064.28 1254.84,1064.28 1260.43,1064.28 1266.01,1064.28 1271.6,1064.28 1277.18,1064.28 1282.77,1064.28 1288.35,1064.27 
  1293.94,1064.26 1299.52,1064.24 1305.11,1064.21 1310.69,1064.16 1316.27,1064.07 1321.86,1063.94 1327.44,1063.75 1333.03,1063.46 1338.61,1063.07 1344.2,1062.52 
  1349.78,1061.78 1355.37,1060.81 1360.95,1059.55 1366.54,1057.94 1372.12,1055.93 1377.71,1053.46 1383.29,1050.45 1388.87,1046.83 1394.46,1042.55 1400.04,1037.53 
  1405.63,1031.7 1411.21,1025.01 1416.8,1017.39 1422.38,1008.8 1427.97,999.19 1433.55,988.521 1439.14,976.765 1444.72,963.898 1450.31,949.908 1455.89,934.79 
  1461.48,918.55 1467.06,901.201 1472.64,882.765 1478.23,863.275 1483.81,842.77 1489.4,821.297 1494.98,798.912 1500.57,775.675 1506.15,751.655 1511.74,726.926 
  1517.32,701.565 1522.91,675.655 1528.49,649.283 1534.08,622.538 1539.66,595.512 1545.24,568.299 1550.83,540.994 1556.41,513.691 1562,486.487 1567.58,459.476 
  1573.17,432.754 1578.75,406.413 1584.34,380.544 1589.92,355.237 1595.51,330.579 1601.09,306.653 1606.68,283.543 1612.26,261.325 1617.85,240.074 1623.43,219.863 
  1629.01,200.758 1634.6,182.824 1640.18,166.121 1645.77,150.705 1651.35,136.628 1656.94,123.939 1662.52,112.682 1668.11,102.897 1673.69,94.6205 1679.28,87.885 
  1684.86,82.719 1690.45,79.1472 1696.03,77.1906 1701.61,76.8665 1707.2,78.1887 1712.78,81.1673 1718.37,85.8092 1723.95,92.1179 1729.54,100.094 1735.12,109.734 
  1740.71,121.034 1746.29,133.983 1751.88,148.571 1757.46,164.785 1763.05,182.607 1768.63,202.019 1774.21,222.999 1779.8,245.525 1785.38,269.57 1790.97,295.109 
  1796.55,322.11 1802.14,350.545 1807.72,380.379 1813.31,411.579 1818.89,444.11 1824.48,477.934 1830.06,513.014 1835.65,549.31 1841.23,586.783 1846.82,625.39 
  1852.4,665.09 1857.98,705.839 1863.57,747.595 1869.15,790.313 1874.74,833.948 1880.32,878.455 1885.91,923.788 1891.49,969.901 1897.08,1016.75 1902.66,1064.28 
  
  "/>
<path clip-path="url(#clip860)" d="
M1580.84 185.813 L1893.76 185.813 L1893.76 82.1328 L1580.84 82.1328  Z
  " fill="#ffffff" fill-rule="evenodd" fill-opacity="1"/>
<polyline clip-path="url(#clip860)" style="stroke:#000000; stroke-linecap:butt; stroke-linejoin:round; stroke-width:4; stroke-opacity:1; fill:none" points="
  1580.84,185.813 1893.76,185.813 1893.76,82.1328 1580.84,82.1328 1580.84,185.813 
  "/>
<polyline clip-path="url(#clip860)" style="stroke:#009af9; stroke-linecap:butt; stroke-linejoin:round; stroke-width:4; stroke-opacity:1; fill:none" points="
  1600.84,133.973 1720.84,133.973 
  "/>
<path clip-path="url(#clip860)" d="M1740.84 116.693 L1745.52 116.693 L1745.52 130.859 L1762.51 130.859 L1762.51 116.693 L1767.18 116.693 L1767.18 151.253 L1762.51 151.253 L1762.51 134.795 L1745.52 134.795 L1745.52 151.253 L1740.84 151.253 L1740.84 116.693 Z" fill="#000000" fill-rule="evenodd" fill-opacity="1" /><path clip-path="url(#clip860)" d="M1798.48 137.225 L1798.48 139.308 L1778.9 139.308 Q1779.17 143.706 1781.53 146.021 Q1783.92 148.313 1788.15 148.313 Q1790.61 148.313 1792.9 147.711 Q1795.21 147.109 1797.48 145.906 L1797.48 149.933 Q1795.19 150.906 1792.78 151.415 Q1790.38 151.924 1787.9 151.924 Q1781.7 151.924 1778.06 148.313 Q1774.45 144.702 1774.45 138.544 Q1774.45 132.179 1777.88 128.452 Q1781.33 124.702 1787.16 124.702 Q1792.39 124.702 1795.42 128.082 Q1798.48 131.438 1798.48 137.225 M1794.22 135.975 Q1794.17 132.48 1792.25 130.396 Q1790.35 128.313 1787.21 128.313 Q1783.64 128.313 1781.49 130.327 Q1779.36 132.341 1779.03 135.998 L1794.22 135.975 Z" fill="#000000" fill-rule="evenodd" fill-opacity="1" /><path clip-path="url(#clip860)" d="M1805.47 115.234 L1809.73 115.234 L1809.73 151.253 L1805.47 151.253 L1805.47 115.234 Z" fill="#000000" fill-rule="evenodd" fill-opacity="1" /><path clip-path="url(#clip860)" d="M1818.64 115.234 L1822.9 115.234 L1822.9 151.253 L1818.64 151.253 L1818.64 115.234 Z" fill="#000000" fill-rule="evenodd" fill-opacity="1" /><path clip-path="url(#clip860)" d="M1841.86 128.313 Q1838.43 128.313 1836.44 130.998 Q1834.45 133.66 1834.45 138.313 Q1834.45 142.966 1836.42 145.651 Q1838.41 148.313 1841.86 148.313 Q1845.26 148.313 1847.25 145.628 Q1849.24 142.943 1849.24 138.313 Q1849.24 133.707 1847.25 131.021 Q1845.26 128.313 1841.86 128.313 M1841.86 124.702 Q1847.41 124.702 1850.58 128.313 Q1853.76 131.924 1853.76 138.313 Q1853.76 144.679 1850.58 148.313 Q1847.41 151.924 1841.86 151.924 Q1836.28 151.924 1833.11 148.313 Q1829.96 144.679 1829.96 138.313 Q1829.96 131.924 1833.11 128.313 Q1836.28 124.702 1841.86 124.702 Z" fill="#000000" fill-rule="evenodd" fill-opacity="1" /></svg>
