<?xml version="1.0" encoding="UTF-8"?>
<svg xmlns="http://www.w3.org/2000/svg"
     xmlns:xlink="http://www.w3.org/1999/xlink"
     xmlns:gadfly="http://www.gadflyjl.org/ns"
     version="1.2"
     width="141.42mm" height="100mm" viewBox="0 0 141.42 100"
     stroke="none"
     fill="#000000"
     stroke-width="0.3"
     font-size="3.88"
>
<defs>
  <marker id="arrow" markerWidth="15" markerHeight="7" refX="5" refY="3.5" orient="auto" markerUnits="strokeWidth">
    <path d="M0,0 L15,3.5 L0,7 z" stroke="context-stroke" fill="context-stroke"/>
  </marker>
</defs>
<g class="plotroot xscalable yscalable" id="img-9edf9025-1">
  <g font-size="3.88" font-family="'PT Sans','Helvetica Neue','Helvetica',sans-serif" fill="#564A55" stroke="#000000" stroke-opacity="0.000" id="img-9edf9025-2">
    <g transform="translate(77.18,88.39)">
      <g class="primitive">
        <text text-anchor="middle" dy="0.6em">x</text>
      </g>
    </g>
  </g>
  <g class="guide xlabels" font-size="2.82" font-family="'PT Sans Caption','Helvetica Neue','Helvetica',sans-serif" fill="#6C606B" id="img-9edf9025-3">
    <g transform="translate(19.94,81.72)">
      <g class="primitive">
        <text text-anchor="middle" dy="0.6em">0</text>
      </g>
    </g>
    <g transform="translate(48.56,81.72)">
      <g class="primitive">
        <text text-anchor="middle" dy="0.6em">1</text>
      </g>
    </g>
    <g transform="translate(77.18,81.72)">
      <g class="primitive">
        <text text-anchor="middle" dy="0.6em">2</text>
      </g>
    </g>
    <g transform="translate(105.8,81.72)">
      <g class="primitive">
        <text text-anchor="middle" dy="0.6em">3</text>
      </g>
    </g>
    <g transform="translate(134.42,81.72)">
      <g class="primitive">
        <text text-anchor="middle" dy="0.6em">4</text>
      </g>
    </g>
  </g>
  <g clip-path="url(#img-9edf9025-4)">
    <g id="img-9edf9025-5">
      <g pointer-events="visible" stroke-width="0.3" fill="#000000" fill-opacity="0.000" stroke="#000000" stroke-opacity="0.000" class="guide background" id="img-9edf9025-6">
        <g transform="translate(77.18,42.86)" id="img-9edf9025-7">
          <path d="M-59.24,-37.86 L59.24,-37.86 59.24,37.86 -59.24,37.86  z" class="primitive"/>
        </g>
      </g>
      <g class="guide ygridlines xfixed" stroke-dasharray="0.5,0.5" stroke-width="0.2" stroke="#D0D0E0" id="img-9edf9025-8">
        <g transform="translate(77.18,78.71)" id="img-9edf9025-9">
          <path fill="none" d="M-59.24,0 L59.24,0 " class="primitive"/>
        </g>
        <g transform="translate(77.18,54.81)" id="img-9edf9025-10">
          <path fill="none" d="M-59.24,0 L59.24,0 " class="primitive"/>
        </g>
        <g transform="translate(77.18,30.9)" id="img-9edf9025-11">
          <path fill="none" d="M-59.24,0 L59.24,0 " class="primitive"/>
        </g>
        <g transform="translate(77.18,7)" id="img-9edf9025-12">
          <path fill="none" d="M-59.24,0 L59.24,0 " class="primitive"/>
        </g>
      </g>
      <g class="guide xgridlines yfixed" stroke-dasharray="0.5,0.5" stroke-width="0.2" stroke="#D0D0E0" id="img-9edf9025-13">
        <g transform="translate(19.94,42.86)" id="img-9edf9025-14">
          <path fill="none" d="M0,-37.86 L0,37.86 " class="primitive"/>
        </g>
        <g transform="translate(48.56,42.86)" id="img-9edf9025-15">
          <path fill="none" d="M0,-37.86 L0,37.86 " class="primitive"/>
        </g>
        <g transform="translate(77.18,42.86)" id="img-9edf9025-16">
          <path fill="none" d="M0,-37.86 L0,37.86 " class="primitive"/>
        </g>
        <g transform="translate(105.8,42.86)" id="img-9edf9025-17">
          <path fill="none" d="M0,-37.86 L0,37.86 " class="primitive"/>
        </g>
        <g transform="translate(134.42,42.86)" id="img-9edf9025-18">
          <path fill="none" d="M0,-37.86 L0,37.86 " class="primitive"/>
        </g>
      </g>
      <g class="plotpanel" id="img-9edf9025-19">
        <metadata>
          <boundingbox value="17.939166666666665mm 5.0mm 118.48218957064284mm 75.715mm"/>
          <unitbox value="-0.06987986541839758 1.041832252666806 4.139759730836795 -1.5836645053336125"/>
        </metadata>
        <g stroke-width="0.3" fill="#000000" fill-opacity="0.000" class="geometry" id="img-9edf9025-20">
          <g class="color_LCHab{Float32}(70.0,_60.0,_240.0)" stroke-dasharray="none" stroke="#00BFFF" id="img-9edf9025-21">
            <g transform="translate(64.9,45.32)" id="img-9edf9025-22">
              <path fill="none" d="M-44.96,-30.74 L-44.78,-30.9 -44.6,-31.05 -44.42,-31.2 -44.24,-31.34 -44.06,-31.48 -43.88,-31.61 -43.7,-31.73 -43.52,-31.85 -43.34,-31.96 -43.16,-32.06 -42.97,-32.16 -42.79,-32.25 -42.61,-32.33 -42.43,-32.4 -42.25,-32.47 -42.07,-32.54 -41.89,-32.59 -41.71,-32.64 -41.53,-32.68 -41.35,-32.71 -41.17,-32.74 -40.99,-32.76 -40.81,-32.77 -40.63,-32.77 -40.45,-32.76 -40.27,-32.75 -40.09,-32.73 -39.91,-32.71 -39.73,-32.67 -39.55,-32.63 -39.37,-32.58 -39.19,-32.52 -39.01,-32.45 -38.83,-32.37 -38.65,-32.29 -38.47,-32.2 -38.29,-32.1 -38.11,-32 -37.93,-31.88 -37.75,-31.76 -37.57,-31.63 -37.39,-31.49 -37.21,-31.34 -37.03,-31.18 -36.85,-31.02 -36.67,-30.85 -36.49,-30.67 -36.31,-30.48 -36.13,-30.29 -35.95,-30.09 -35.77,-29.87 -35.59,-29.66 -35.41,-29.43 -35.23,-29.19 -35.05,-28.95 -34.87,-28.7 -34.69,-28.44 -34.51,-28.18 -34.33,-27.91 -34.15,-27.63 -33.97,-27.34 -33.79,-27.04 -33.61,-26.74 -33.42,-26.43 -33.24,-26.12 -33.06,-25.8 -32.88,-25.47 -32.7,-25.13 -32.52,-24.79 -32.34,-24.44 -32.16,-24.08 -31.98,-23.72 -31.8,-23.35 -31.62,-22.98 -31.44,-22.6 -31.26,-22.21 -31.08,-21.82 -30.9,-21.42 -30.72,-21.02 -30.54,-20.61 -30.36,-20.2 -30.18,-19.79 -30,-19.36 -29.82,-18.94 -29.64,-18.51 -29.46,-18.07 -29.28,-17.64 -29.1,-17.19 -28.92,-16.75 -28.74,-16.3 -28.56,-15.85 -28.38,-15.39 -28.2,-14.94 -28.02,-14.48 -27.84,-14.01 -27.66,-13.55 -27.48,-13.08 -27.3,-12.61 -27.12,-12.14 -26.94,-11.67 -26.76,-11.2 -26.58,-10.73 -26.4,-10.26 -26.22,-9.78 -26.04,-9.31 -25.86,-8.84 -25.68,-8.37 -25.5,-7.89 -25.32,-7.42 -25.14,-6.95 -24.96,-6.49 -24.78,-6.02 -24.6,-5.55 -24.42,-5.09 -24.24,-4.63 -24.06,-4.18 -23.87,-3.72 -23.69,-3.27 -23.51,-2.82 -23.33,-2.38 -23.15,-1.94 -22.97,-1.51 -22.79,-1.08 -22.61,-0.65 -22.43,-0.23 -22.25,0.18 -22.07,0.59 -21.89,1 -21.71,1.4 -21.53,1.79 -21.35,2.17 -21.17,2.55 -20.99,2.92 -20.81,3.29 -20.63,3.65 -20.45,4 -20.27,4.34 -20.09,4.67 -19.91,5 -19.73,5.31 -19.55,5.62 -19.37,5.92 -19.19,6.21 -19.01,6.49 -18.83,6.77 -18.65,7.03 -18.47,7.28 -18.29,7.52 -18.11,7.76 -17.93,7.98 -17.75,8.19 -17.57,8.39 -17.39,8.59 -17.21,8.77 -17.03,8.94 -16.85,9.1 -16.67,9.25 -16.49,9.38 -16.31,9.51 -16.13,9.63 -15.95,9.73 -15.77,9.83 -15.59,9.91 -15.41,9.98 -15.23,10.05 -15.05,10.1 -14.87,10.14 -14.69,10.16 -14.51,10.18 -14.32,10.19 -14.14,10.18 -13.96,10.17 -13.78,10.14 -13.6,10.11 -13.42,10.06 -13.24,10.01 -13.06,9.94 -12.88,9.87 -12.7,9.78 -12.52,9.69 -12.34,9.58 -12.16,9.47 -11.98,9.35 -11.8,9.22 -11.62,9.08 -11.44,8.94 -11.26,8.78 -11.08,8.62 -10.9,8.45 -10.72,8.28 -10.54,8.1 -10.36,7.91 -10.18,7.71 -10,7.51 -9.82,7.31 -9.64,7.1 -9.46,6.89 -9.28,6.67 -9.1,6.45 -8.92,6.23 -8.74,6 -8.56,5.77 -8.38,5.54 -8.2,5.31 -8.02,5.07 -7.84,4.84 -7.66,4.6 -7.48,4.37 -7.3,4.14 -7.12,3.9 -6.94,3.67 -6.76,3.44 -6.58,3.22 -6.4,3 -6.22,2.78 -6.04,2.56 -5.86,2.35 -5.68,2.14 -5.5,1.94 -5.32,1.75 -5.14,1.56 -4.96,1.37 -4.77,1.2 -4.59,1.03 -4.41,0.87 -4.23,0.71 -4.05,0.57 -3.87,0.43 -3.69,0.31 -3.51,0.19 -3.33,0.08 -3.15,-0.02 -2.97,-0.1 -2.79,-0.18 -2.61,-0.25 -2.43,-0.3 -2.25,-0.35 -2.07,-0.38 -1.89,-0.4 -1.71,-0.41 -1.53,-0.41 -1.35,-0.39 -1.17,-0.37 -0.99,-0.33 -0.81,-0.28 -0.63,-0.22 -0.45,-0.15 -0.27,-0.06 -0.09,0.04 0.09,0.14 0.27,0.26 0.45,0.39 0.63,0.53 0.81,0.69 0.99,0.85 1.17,1.02 1.35,1.2 1.53,1.39 1.71,1.59 1.89,1.8 2.07,2.02 2.25,2.24 2.43,2.47 2.61,2.71 2.79,2.95 2.97,3.2 3.15,3.46 3.33,3.72 3.51,3.98 3.69,4.24 3.87,4.51 4.05,4.78 4.23,5.05 4.41,5.32 4.59,5.6 4.77,5.87 4.96,6.13 5.14,6.4 5.32,6.66 5.5,6.92 5.68,7.18 5.86,7.43 6.04,7.67 6.22,7.91 6.4,8.14 6.58,8.36 6.76,8.58 6.94,8.78 7.12,8.98 7.3,9.16 7.48,9.34 7.66,9.5 7.84,9.66 8.02,9.8 8.2,9.93 8.38,10.04 8.56,10.15 8.74,10.24 8.92,10.32 9.1,10.38 9.28,10.43 9.46,10.47 9.64,10.49 9.82,10.5 10,10.5 10.18,10.49 10.36,10.46 10.54,10.42 10.72,10.37 10.9,10.3 11.08,10.23 11.26,10.14 11.44,10.05 11.62,9.94 11.8,9.83 11.98,9.71 12.16,9.58 12.34,9.45 12.52,9.31 12.7,9.17 12.88,9.02 13.06,8.87 13.24,8.72 13.42,8.57 13.6,8.43 13.78,8.28 13.96,8.14 14.14,8 14.32,7.87 14.51,7.74 14.69,7.62 14.87,7.51 15.05,7.41 15.23,7.32 15.41,7.25 15.59,7.18 15.77,7.13 15.95,7.1 16.13,7.08 16.31,7.07 16.49,7.09 16.67,7.12 16.85,7.16 17.03,7.23 17.21,7.31 17.39,7.42 17.57,7.54 17.75,7.68 17.93,7.83 18.11,8.01 18.29,8.2 18.47,8.41 18.65,8.64 18.83,8.88 19.01,9.13 19.19,9.4 19.37,9.68 19.55,9.97 19.73,10.27 19.91,10.58 20.09,10.9 20.27,11.22 20.45,11.54 20.63,11.86 20.81,12.18 20.99,12.5 21.17,12.82 21.35,13.12 21.53,13.42 21.71,13.7 21.89,13.97 22.07,14.23 22.25,14.47 22.43,14.69 22.61,14.88 22.79,15.06 22.97,15.2 23.15,15.33 23.33,15.42 23.51,15.48 23.69,15.52 23.87,15.52 24.06,15.49 24.24,15.43 24.42,15.33 24.6,15.2 24.78,15.04 24.96,14.84 25.14,14.62 25.32,14.36 25.5,14.07 25.68,13.76 25.86,13.41 26.04,13.04 26.22,12.65 26.4,12.24 26.58,11.81 26.76,11.37 26.94,10.91 27.12,10.45 27.3,9.97 27.48,9.5 27.66,9.03 27.84,8.56 28.02,8.1 28.2,7.65 28.38,7.22 28.56,6.81 28.74,6.42 28.92,6.05 29.1,5.71 29.28,5.41 29.46,5.13 29.64,4.9 29.82,4.7 30,4.54 30.18,4.42 30.36,4.35 30.54,4.32 30.72,4.33 30.9,4.38 31.08,4.48 31.26,4.61 31.44,4.79 31.62,5 31.8,5.25 31.98,5.53 32.16,5.85 32.34,6.18 32.52,6.54 32.7,6.92 32.88,7.31 33.06,7.71 33.24,8.11 33.42,8.52 33.61,8.92 33.79,9.31 33.97,9.69 34.15,10.06 34.33,10.4 34.51,10.72 34.69,11.01 34.87,11.27 35.05,11.49 35.23,11.68 35.41,11.84 35.59,11.95 35.77,12.03 35.95,12.07 36.13,12.08 36.31,12.04 36.49,11.98 36.67,11.88 36.85,11.76 37.03,11.61 37.21,11.44 37.39,11.25 37.57,11.05 37.75,10.85 37.93,10.64 38.11,10.43 38.29,10.22 38.47,10.03 38.65,9.85 38.83,9.69 39.01,9.55 39.19,9.43 39.37,9.33 39.55,9.26 39.73,9.22 39.91,9.2 40.09,9.21 40.27,9.24 40.45,9.29 40.63,9.36 40.81,9.45 40.99,9.54 41.17,9.64 41.35,9.74 41.53,9.84 41.71,9.93 41.89,10 42.07,10.05 42.25,10.09 42.43,10.09 42.61,10.07 42.79,10.01 42.97,9.93 43.16,9.81 43.34,9.65 43.52,9.47 43.7,9.27 43.88,9.04 44.06,8.8 44.24,8.54 44.42,8.29 44.6,8.04 44.78,7.8 44.96,7.59 " class="primitive"/>
            </g>
          </g>
        </g>
      </g>
    </g>
  </g>
  <g class="guide ylabels" font-size="2.82" font-family="'PT Sans Caption','Helvetica Neue','Helvetica',sans-serif" fill="#6C606B" id="img-9edf9025-23">
    <g transform="translate(16.94,78.71)" id="img-9edf9025-24">
      <g class="primitive">
        <text text-anchor="end" dy="0.35em">-0.5</text>
      </g>
    </g>
    <g transform="translate(16.94,54.81)" id="img-9edf9025-25">
      <g class="primitive">
        <text text-anchor="end" dy="0.35em">0.0</text>
      </g>
    </g>
    <g transform="translate(16.94,30.9)" id="img-9edf9025-26">
      <g class="primitive">
        <text text-anchor="end" dy="0.35em">0.5</text>
      </g>
    </g>
    <g transform="translate(16.94,7)" id="img-9edf9025-27">
      <g class="primitive">
        <text text-anchor="end" dy="0.35em">1.0</text>
      </g>
    </g>
  </g>
  <g font-size="3.88" font-family="'PT Sans','Helvetica Neue','Helvetica',sans-serif" fill="#564A55" stroke="#000000" stroke-opacity="0.000" id="img-9edf9025-28">
    <g transform="translate(8.81,42.86)" id="img-9edf9025-29">
      <g class="primitive">
        <text text-anchor="end" dy="0.35em">y</text>
      </g>
    </g>
  </g>
</g>
<defs>
  <clipPath id="img-9edf9025-4">
    <path d="M17.94,5 L136.42,5 136.42,80.72 17.94,80.72 " />
  </clipPath>
</defs>
</svg>
