<?xml version="1.0" encoding="utf-8"?>
<svg xmlns="http://www.w3.org/2000/svg" xmlns:xlink="http://www.w3.org/1999/xlink" width="600" height="400" viewBox="0 0 2400 1600">
<defs>
  <clipPath id="clip280">
    <rect x="0" y="0" width="2400" height="1600"/>
  </clipPath>
</defs>
<path clip-path="url(#clip280)" d="
M0 1600 L2400 1600 L2400 0 L0 0  Z
  " fill="#ffffff" fill-rule="evenodd" fill-opacity="1"/>
<defs>
  <clipPath id="clip281">
    <rect x="480" y="0" width="1681" height="1600"/>
  </clipPath>
</defs>
<path clip-path="url(#clip280)" d="
M86.9921 1521.01 L2352.76 1521.01 L2352.76 47.2441 L86.9921 47.2441  Z
  " fill="#ffffff" fill-rule="evenodd" fill-opacity="1"/>
<defs>
  <clipPath id="clip282">
    <rect x="86" y="47" width="2267" height="1475"/>
  </clipPath>
</defs>
<polyline clip-path="url(#clip282)" style="stroke:#000000; stroke-linecap:butt; stroke-linejoin:round; stroke-width:2; stroke-opacity:0.1; fill:none" points="
  151.118,1521.01 151.118,47.2441 
  "/>
<polyline clip-path="url(#clip282)" style="stroke:#000000; stroke-linecap:butt; stroke-linejoin:round; stroke-width:2; stroke-opacity:0.1; fill:none" points="
  831.509,1521.01 831.509,47.2441 
  "/>
<polyline clip-path="url(#clip282)" style="stroke:#000000; stroke-linecap:butt; stroke-linejoin:round; stroke-width:2; stroke-opacity:0.1; fill:none" points="
  1511.9,1521.01 1511.9,47.2441 
  "/>
<polyline clip-path="url(#clip282)" style="stroke:#000000; stroke-linecap:butt; stroke-linejoin:round; stroke-width:2; stroke-opacity:0.1; fill:none" points="
  2192.29,1521.01 2192.29,47.2441 
  "/>
<polyline clip-path="url(#clip280)" style="stroke:#000000; stroke-linecap:butt; stroke-linejoin:round; stroke-width:4; stroke-opacity:1; fill:none" points="
  86.9921,1521.01 2352.76,1521.01 
  "/>
<polyline clip-path="url(#clip280)" style="stroke:#000000; stroke-linecap:butt; stroke-linejoin:round; stroke-width:4; stroke-opacity:1; fill:none" points="
  151.118,1521.01 151.118,1502.11 
  "/>
<polyline clip-path="url(#clip280)" style="stroke:#000000; stroke-linecap:butt; stroke-linejoin:round; stroke-width:4; stroke-opacity:1; fill:none" points="
  831.509,1521.01 831.509,1502.11 
  "/>
<polyline clip-path="url(#clip280)" style="stroke:#000000; stroke-linecap:butt; stroke-linejoin:round; stroke-width:4; stroke-opacity:1; fill:none" points="
  1511.9,1521.01 1511.9,1502.11 
  "/>
<polyline clip-path="url(#clip280)" style="stroke:#000000; stroke-linecap:butt; stroke-linejoin:round; stroke-width:4; stroke-opacity:1; fill:none" points="
  2192.29,1521.01 2192.29,1502.11 
  "/>
<path clip-path="url(#clip280)" d="M151.118 1551.93 Q147.506 1551.93 145.678 1555.49 Q143.872 1559.03 143.872 1566.16 Q143.872 1573.27 145.678 1576.83 Q147.506 1580.38 151.118 1580.38 Q154.752 1580.38 156.557 1576.83 Q158.386 1573.27 158.386 1566.16 Q158.386 1559.03 156.557 1555.49 Q154.752 1551.93 151.118 1551.93 M151.118 1548.22 Q156.928 1548.22 159.983 1552.83 Q163.062 1557.41 163.062 1566.16 Q163.062 1574.89 159.983 1579.5 Q156.928 1584.08 151.118 1584.08 Q145.307 1584.08 142.229 1579.5 Q139.173 1574.89 139.173 1566.16 Q139.173 1557.41 142.229 1552.83 Q145.307 1548.22 151.118 1548.22 Z" fill="#000000" fill-rule="evenodd" fill-opacity="1" /><path clip-path="url(#clip280)" d="M821.891 1579.47 L829.53 1579.47 L829.53 1553.11 L821.22 1554.77 L821.22 1550.51 L829.484 1548.85 L834.159 1548.85 L834.159 1579.47 L841.798 1579.47 L841.798 1583.41 L821.891 1583.41 L821.891 1579.47 Z" fill="#000000" fill-rule="evenodd" fill-opacity="1" /><path clip-path="url(#clip280)" d="M1506.55 1579.47 L1522.87 1579.47 L1522.87 1583.41 L1500.93 1583.41 L1500.93 1579.47 Q1503.59 1576.72 1508.17 1572.09 Q1512.78 1567.44 1513.96 1566.09 Q1516.21 1563.57 1517.09 1561.83 Q1517.99 1560.07 1517.99 1558.38 Q1517.99 1555.63 1516.04 1553.89 Q1514.12 1552.16 1511.02 1552.16 Q1508.82 1552.16 1506.37 1552.92 Q1503.94 1553.69 1501.16 1555.24 L1501.16 1550.51 Q1503.98 1549.38 1506.44 1548.8 Q1508.89 1548.22 1510.93 1548.22 Q1516.3 1548.22 1519.49 1550.91 Q1522.69 1553.59 1522.69 1558.08 Q1522.69 1560.21 1521.88 1562.13 Q1521.09 1564.03 1518.98 1566.63 Q1518.41 1567.3 1515.3 1570.51 Q1512.2 1573.71 1506.55 1579.47 Z" fill="#000000" fill-rule="evenodd" fill-opacity="1" /><path clip-path="url(#clip280)" d="M2196.54 1564.77 Q2199.9 1565.49 2201.77 1567.76 Q2203.67 1570.03 2203.67 1573.36 Q2203.67 1578.48 2200.15 1581.28 Q2196.63 1584.08 2190.15 1584.08 Q2187.97 1584.08 2185.66 1583.64 Q2183.37 1583.22 2180.91 1582.37 L2180.91 1577.85 Q2182.86 1578.99 2185.17 1579.57 Q2187.49 1580.14 2190.01 1580.14 Q2194.41 1580.14 2196.7 1578.41 Q2199.02 1576.67 2199.02 1573.36 Q2199.02 1570.31 2196.86 1568.59 Q2194.73 1566.86 2190.91 1566.86 L2186.89 1566.86 L2186.89 1563.01 L2191.1 1563.01 Q2194.55 1563.01 2196.38 1561.65 Q2198.21 1560.26 2198.21 1557.67 Q2198.21 1555.01 2196.31 1553.59 Q2194.43 1552.16 2190.91 1552.16 Q2188.99 1552.16 2186.79 1552.57 Q2184.6 1552.99 2181.96 1553.87 L2181.96 1549.7 Q2184.62 1548.96 2186.93 1548.59 Q2189.27 1548.22 2191.33 1548.22 Q2196.66 1548.22 2199.76 1550.65 Q2202.86 1553.06 2202.86 1557.18 Q2202.86 1560.05 2201.22 1562.04 Q2199.57 1564.01 2196.54 1564.77 Z" fill="#000000" fill-rule="evenodd" fill-opacity="1" /><polyline clip-path="url(#clip282)" style="stroke:#000000; stroke-linecap:butt; stroke-linejoin:round; stroke-width:2; stroke-opacity:0.1; fill:none" points="
  86.9921,1305.76 2352.76,1305.76 
  "/>
<polyline clip-path="url(#clip282)" style="stroke:#000000; stroke-linecap:butt; stroke-linejoin:round; stroke-width:2; stroke-opacity:0.1; fill:none" points="
  86.9921,1030.45 2352.76,1030.45 
  "/>
<polyline clip-path="url(#clip282)" style="stroke:#000000; stroke-linecap:butt; stroke-linejoin:round; stroke-width:2; stroke-opacity:0.1; fill:none" points="
  86.9921,755.137 2352.76,755.137 
  "/>
<polyline clip-path="url(#clip282)" style="stroke:#000000; stroke-linecap:butt; stroke-linejoin:round; stroke-width:2; stroke-opacity:0.1; fill:none" points="
  86.9921,479.827 2352.76,479.827 
  "/>
<polyline clip-path="url(#clip282)" style="stroke:#000000; stroke-linecap:butt; stroke-linejoin:round; stroke-width:2; stroke-opacity:0.1; fill:none" points="
  86.9921,204.516 2352.76,204.516 
  "/>
<polyline clip-path="url(#clip280)" style="stroke:#000000; stroke-linecap:butt; stroke-linejoin:round; stroke-width:4; stroke-opacity:1; fill:none" points="
  86.9921,1521.01 86.9921,47.2441 
  "/>
<polyline clip-path="url(#clip280)" style="stroke:#000000; stroke-linecap:butt; stroke-linejoin:round; stroke-width:4; stroke-opacity:1; fill:none" points="
  86.9921,1305.76 105.89,1305.76 
  "/>
<polyline clip-path="url(#clip280)" style="stroke:#000000; stroke-linecap:butt; stroke-linejoin:round; stroke-width:4; stroke-opacity:1; fill:none" points="
  86.9921,1030.45 105.89,1030.45 
  "/>
<polyline clip-path="url(#clip280)" style="stroke:#000000; stroke-linecap:butt; stroke-linejoin:round; stroke-width:4; stroke-opacity:1; fill:none" points="
  86.9921,755.137 105.89,755.137 
  "/>
<polyline clip-path="url(#clip280)" style="stroke:#000000; stroke-linecap:butt; stroke-linejoin:round; stroke-width:4; stroke-opacity:1; fill:none" points="
  86.9921,479.827 105.89,479.827 
  "/>
<polyline clip-path="url(#clip280)" style="stroke:#000000; stroke-linecap:butt; stroke-linejoin:round; stroke-width:4; stroke-opacity:1; fill:none" points="
  86.9921,204.516 105.89,204.516 
  "/>
<path clip-path="url(#clip280)" d="M-6.18349 1291.56 Q-9.79459 1291.56 -11.6233 1295.12 Q-13.4288 1298.66 -13.4288 1305.79 Q-13.4288 1312.9 -11.6233 1316.46 Q-9.79459 1320 -6.18349 1320 Q-2.54925 1320 -0.743708 1316.46 Q1.08499 1312.9 1.08499 1305.79 Q1.08499 1298.66 -0.743708 1295.12 Q-2.54925 1291.56 -6.18349 1291.56 M-6.18349 1287.85 Q-0.37334 1287.85 2.6822 1292.46 Q5.76089 1297.04 5.76089 1305.79 Q5.76089 1314.52 2.6822 1319.13 Q-0.37334 1323.71 -6.18349 1323.71 Q-11.9936 1323.71 -15.0723 1319.13 Q-18.1279 1314.52 -18.1279 1305.79 Q-18.1279 1297.04 -15.0723 1292.46 Q-11.9936 1287.85 -6.18349 1287.85 Z" fill="#000000" fill-rule="evenodd" fill-opacity="1" /><path clip-path="url(#clip280)" d="M13.9784 1317.16 L18.8627 1317.16 L18.8627 1323.04 L13.9784 1323.04 L13.9784 1317.16 Z" fill="#000000" fill-rule="evenodd" fill-opacity="1" /><path clip-path="url(#clip280)" d="M39.0477 1291.56 Q35.4367 1291.56 33.608 1295.12 Q31.8024 1298.66 31.8024 1305.79 Q31.8024 1312.9 33.608 1316.46 Q35.4367 1320 39.0477 1320 Q42.682 1320 44.4875 1316.46 Q46.3162 1312.9 46.3162 1305.79 Q46.3162 1298.66 44.4875 1295.12 Q42.682 1291.56 39.0477 1291.56 M39.0477 1287.85 Q44.8579 1287.85 47.9134 1292.46 Q50.9921 1297.04 50.9921 1305.79 Q50.9921 1314.52 47.9134 1319.13 Q44.8579 1323.71 39.0477 1323.71 Q33.2376 1323.71 30.1589 1319.13 Q27.1034 1314.52 27.1034 1305.79 Q27.1034 1297.04 30.1589 1292.46 Q33.2376 1287.85 39.0477 1287.85 Z" fill="#000000" fill-rule="evenodd" fill-opacity="1" /><path clip-path="url(#clip280)" d="M-4.58628 1016.25 Q-8.19737 1016.25 -10.0261 1019.81 Q-11.8316 1023.35 -11.8316 1030.48 Q-11.8316 1037.59 -10.0261 1041.15 Q-8.19737 1044.69 -4.58628 1044.69 Q-0.95204 1044.69 0.853506 1041.15 Q2.6822 1037.59 2.6822 1030.48 Q2.6822 1023.35 0.853506 1019.81 Q-0.95204 1016.25 -4.58628 1016.25 M-4.58628 1012.54 Q1.22387 1012.54 4.27941 1017.15 Q7.3581 1021.73 7.3581 1030.48 Q7.3581 1039.21 4.27941 1043.81 Q1.22387 1048.4 -4.58628 1048.4 Q-10.3964 1048.4 -13.4751 1043.81 Q-16.5307 1039.21 -16.5307 1030.48 Q-16.5307 1021.73 -13.4751 1017.15 Q-10.3964 1012.54 -4.58628 1012.54 Z" fill="#000000" fill-rule="evenodd" fill-opacity="1" /><path clip-path="url(#clip280)" d="M15.5756 1041.85 L20.4599 1041.85 L20.4599 1047.73 L15.5756 1047.73 L15.5756 1041.85 Z" fill="#000000" fill-rule="evenodd" fill-opacity="1" /><path clip-path="url(#clip280)" d="M34.6728 1043.79 L50.9921 1043.79 L50.9921 1047.73 L29.0478 1047.73 L29.0478 1043.79 Q31.7098 1041.04 36.2931 1036.41 Q40.8996 1031.75 42.0801 1030.41 Q44.3255 1027.89 45.2051 1026.15 Q46.1079 1024.39 46.1079 1022.7 Q46.1079 1019.95 44.1635 1018.21 Q42.2422 1016.48 39.1403 1016.48 Q36.9413 1016.48 34.4876 1017.24 Q32.057 1018 29.2793 1019.56 L29.2793 1014.83 Q32.1033 1013.7 34.557 1013.12 Q37.0107 1012.54 39.0477 1012.54 Q44.4181 1012.54 47.6125 1015.23 Q50.8069 1017.91 50.8069 1022.4 Q50.8069 1024.53 49.9968 1026.45 Q49.2097 1028.35 47.1033 1030.94 Q46.5246 1031.62 43.4227 1034.83 Q40.3209 1038.03 34.6728 1043.79 Z" fill="#000000" fill-rule="evenodd" fill-opacity="1" /><path clip-path="url(#clip280)" d="M-6.6696 740.935 Q-10.2807 740.935 -12.1094 744.5 Q-13.9149 748.042 -13.9149 755.171 Q-13.9149 762.278 -12.1094 765.843 Q-10.2807 769.384 -6.6696 769.384 Q-3.03536 769.384 -1.22982 765.843 Q0.598877 762.278 0.598877 755.171 Q0.598877 748.042 -1.22982 744.5 Q-3.03536 740.935 -6.6696 740.935 M-6.6696 737.232 Q-0.859448 737.232 2.19609 741.838 Q5.27478 746.421 5.27478 755.171 Q5.27478 763.898 2.19609 768.505 Q-0.859448 773.088 -6.6696 773.088 Q-12.4798 773.088 -15.5584 768.505 Q-18.614 763.898 -18.614 755.171 Q-18.614 746.421 -15.5584 741.838 Q-12.4798 737.232 -6.6696 737.232 Z" fill="#000000" fill-rule="evenodd" fill-opacity="1" /><path clip-path="url(#clip280)" d="M13.4923 766.537 L18.3766 766.537 L18.3766 772.417 L13.4923 772.417 L13.4923 766.537 Z" fill="#000000" fill-rule="evenodd" fill-opacity="1" /><path clip-path="url(#clip280)" d="M41.4088 741.931 L29.6034 760.38 L41.4088 760.38 L41.4088 741.931 M40.182 737.857 L46.0616 737.857 L46.0616 760.38 L50.9921 760.38 L50.9921 764.269 L46.0616 764.269 L46.0616 772.417 L41.4088 772.417 L41.4088 764.269 L25.8071 764.269 L25.8071 759.755 L40.182 737.857 Z" fill="#000000" fill-rule="evenodd" fill-opacity="1" /><path clip-path="url(#clip280)" d="M-6.34553 465.625 Q-9.95662 465.625 -11.7853 469.19 Q-13.5909 472.732 -13.5909 479.861 Q-13.5909 486.968 -11.7853 490.532 Q-9.95662 494.074 -6.34553 494.074 Q-2.71129 494.074 -0.905744 490.532 Q0.92295 486.968 0.92295 479.861 Q0.92295 472.732 -0.905744 469.19 Q-2.71129 465.625 -6.34553 465.625 M-6.34553 461.922 Q-0.535376 461.922 2.52016 466.528 Q5.59885 471.111 5.59885 479.861 Q5.59885 488.588 2.52016 493.194 Q-0.535376 497.778 -6.34553 497.778 Q-12.1557 497.778 -15.2344 493.194 Q-18.2899 488.588 -18.2899 479.861 Q-18.2899 471.111 -15.2344 466.528 Q-12.1557 461.922 -6.34553 461.922 Z" fill="#000000" fill-rule="evenodd" fill-opacity="1" /><path clip-path="url(#clip280)" d="M13.8164 491.227 L18.7006 491.227 L18.7006 497.107 L13.8164 497.107 L13.8164 491.227 Z" fill="#000000" fill-rule="evenodd" fill-opacity="1" /><path clip-path="url(#clip280)" d="M39.4644 477.963 Q36.3163 477.963 34.4644 480.116 Q32.6357 482.269 32.6357 486.019 Q32.6357 489.745 34.4644 491.921 Q36.3163 494.074 39.4644 494.074 Q42.6125 494.074 44.4412 491.921 Q46.2931 489.745 46.2931 486.019 Q46.2931 482.269 44.4412 480.116 Q42.6125 477.963 39.4644 477.963 M48.7468 463.31 L48.7468 467.57 Q46.9875 466.736 45.182 466.296 Q43.3996 465.857 41.6403 465.857 Q37.0107 465.857 34.557 468.982 Q32.1265 472.107 31.7793 478.426 Q33.145 476.412 35.2052 475.347 Q37.2653 474.259 39.7422 474.259 Q44.9505 474.259 47.9597 477.431 Q50.9921 480.579 50.9921 486.019 Q50.9921 491.343 47.844 494.56 Q44.6959 497.778 39.4644 497.778 Q33.4691 497.778 30.2978 493.194 Q27.1265 488.588 27.1265 479.861 Q27.1265 471.667 31.0154 466.806 Q34.9042 461.922 41.4551 461.922 Q43.2144 461.922 44.9968 462.269 Q46.8023 462.616 48.7468 463.31 Z" fill="#000000" fill-rule="evenodd" fill-opacity="1" /><path clip-path="url(#clip280)" d="M-6.0909 190.315 Q-9.70199 190.315 -11.5307 193.88 Q-13.3362 197.421 -13.3362 204.551 Q-13.3362 211.657 -11.5307 215.222 Q-9.70199 218.764 -6.0909 218.764 Q-2.45666 218.764 -0.651116 215.222 Q1.17758 211.657 1.17758 204.551 Q1.17758 197.421 -0.651116 193.88 Q-2.45666 190.315 -6.0909 190.315 M-6.0909 186.611 Q-0.280747 186.611 2.77479 191.218 Q5.85348 195.801 5.85348 204.551 Q5.85348 213.278 2.77479 217.884 Q-0.280747 222.468 -6.0909 222.468 Q-11.9011 222.468 -14.9797 217.884 Q-18.0353 213.278 -18.0353 204.551 Q-18.0353 195.801 -14.9797 191.218 Q-11.9011 186.611 -6.0909 186.611 Z" fill="#000000" fill-rule="evenodd" fill-opacity="1" /><path clip-path="url(#clip280)" d="M14.071 215.917 L18.9553 215.917 L18.9553 221.796 L14.071 221.796 L14.071 215.917 Z" fill="#000000" fill-rule="evenodd" fill-opacity="1" /><path clip-path="url(#clip280)" d="M39.1403 205.384 Q35.807 205.384 33.8857 207.167 Q31.9876 208.949 31.9876 212.074 Q31.9876 215.199 33.8857 216.982 Q35.807 218.764 39.1403 218.764 Q42.4737 218.764 44.3949 216.982 Q46.3162 215.176 46.3162 212.074 Q46.3162 208.949 44.3949 207.167 Q42.4968 205.384 39.1403 205.384 M34.4644 203.394 Q31.4552 202.653 29.7654 200.593 Q28.0987 198.533 28.0987 195.57 Q28.0987 191.426 31.0385 189.019 Q34.0015 186.611 39.1403 186.611 Q44.3023 186.611 47.2421 189.019 Q50.1819 191.426 50.1819 195.57 Q50.1819 198.533 48.4921 200.593 Q46.8255 202.653 43.8394 203.394 Q47.219 204.181 49.094 206.472 Q50.9921 208.764 50.9921 212.074 Q50.9921 217.097 47.9134 219.782 Q44.8579 222.468 39.1403 222.468 Q33.4228 222.468 30.3441 219.782 Q27.2885 217.097 27.2885 212.074 Q27.2885 208.764 29.1867 206.472 Q31.0848 204.181 34.4644 203.394 M32.7515 196.009 Q32.7515 198.695 34.4181 200.199 Q36.1079 201.704 39.1403 201.704 Q42.1496 201.704 43.8394 200.199 Q45.5523 198.695 45.5523 196.009 Q45.5523 193.324 43.8394 191.82 Q42.1496 190.315 39.1403 190.315 Q36.1079 190.315 34.4181 191.82 Q32.7515 193.324 32.7515 196.009 Z" fill="#000000" fill-rule="evenodd" fill-opacity="1" /><polyline clip-path="url(#clip282)" style="stroke:#009af9; stroke-linecap:butt; stroke-linejoin:round; stroke-width:4; stroke-opacity:1; fill:none" points="
  151.118,147.429 155.401,142.831 159.685,138.403 163.968,134.148 168.252,130.068 172.535,126.166 176.819,122.444 181.103,118.906 185.386,115.553 189.67,112.388 
  193.953,109.414 198.237,106.632 202.521,104.044 206.804,101.654 211.088,99.4636 215.371,97.4742 219.655,95.6884 223.939,94.108 228.222,92.735 232.506,91.5713 
  236.789,90.6188 241.073,89.8792 245.357,89.3542 249.64,89.0454 253.924,88.9544 258.207,89.0826 262.491,89.4316 266.775,90.0026 271.058,90.7968 275.342,91.8155 
  279.625,93.0598 283.909,94.5307 288.192,96.2291 292.476,98.1559 296.76,100.312 301.043,102.698 305.327,105.314 309.61,108.161 313.894,111.239 318.178,114.549 
  322.461,118.091 326.745,121.865 331.028,125.871 335.312,130.109 339.596,134.578 343.879,139.279 348.163,144.21 352.446,149.373 356.73,154.765 361.014,160.386 
  365.297,166.235 369.581,172.312 373.864,178.615 378.148,185.144 382.432,191.896 386.715,198.87 390.999,206.065 395.282,213.48 399.566,221.112 403.85,228.96 
  408.133,237.021 412.417,245.294 416.7,253.775 420.984,262.464 425.267,271.357 429.551,280.452 433.835,289.745 438.118,299.235 442.402,308.918 446.685,318.791 
  450.969,328.85 455.253,339.093 459.536,349.516 463.82,360.115 468.103,370.887 472.387,381.827 476.671,392.931 480.954,404.197 485.238,415.618 489.521,427.192 
  493.805,438.912 498.089,450.776 502.372,462.778 506.656,474.912 510.939,487.176 515.223,499.562 519.507,512.066 523.79,524.683 528.074,537.408 532.357,550.234 
  536.641,563.156 540.924,576.168 545.208,589.265 549.492,602.441 553.775,615.689 558.059,629.003 562.342,642.378 566.626,655.806 570.91,669.282 575.193,682.799 
  579.477,696.35 583.76,709.929 588.044,723.529 592.328,737.143 596.611,750.764 600.895,764.385 605.178,778 609.462,791.601 613.746,805.181 618.029,818.734 
  622.313,832.251 626.596,845.726 630.88,859.151 635.164,872.519 639.447,885.822 643.731,899.055 648.014,912.208 652.298,925.275 656.582,938.248 660.865,951.12 
  665.149,963.884 669.432,976.532 673.716,989.057 677.999,1001.45 682.283,1013.71 686.567,1025.82 690.85,1037.78 695.134,1049.58 699.417,1061.22 703.701,1072.68 
  707.985,1083.96 712.268,1095.06 716.552,1105.96 720.835,1116.67 725.119,1127.16 729.403,1137.44 733.686,1147.51 737.97,1157.35 742.253,1166.95 746.537,1176.32 
  750.821,1185.45 755.104,1194.33 759.388,1202.95 763.671,1211.31 767.955,1219.41 772.239,1227.24 776.522,1234.8 780.806,1242.07 785.089,1249.07 789.373,1255.77 
  793.656,1262.19 797.94,1268.31 802.224,1274.14 806.507,1279.66 810.791,1284.88 815.074,1289.79 819.358,1294.4 823.642,1298.69 827.925,1302.67 832.209,1306.33 
  836.492,1309.69 840.776,1312.72 845.06,1315.44 849.343,1317.84 853.627,1319.92 857.91,1321.69 862.194,1323.13 866.478,1324.27 870.761,1325.09 875.045,1325.6 
  879.328,1325.8 883.612,1325.68 887.896,1325.27 892.179,1324.55 896.463,1323.54 900.746,1322.22 905.03,1320.62 909.314,1318.73 913.597,1316.56 917.881,1314.11 
  922.164,1311.4 926.448,1308.41 930.731,1305.17 935.015,1301.68 939.299,1297.94 943.582,1293.96 947.866,1289.75 952.149,1285.32 956.433,1280.68 960.717,1275.83 
  965,1270.78 969.284,1265.55 973.567,1260.14 977.851,1254.56 982.135,1248.82 986.418,1242.94 990.702,1236.92 994.985,1230.78 999.269,1224.52 1003.55,1218.15 
  1007.84,1211.7 1012.12,1205.17 1016.4,1198.57 1020.69,1191.91 1024.97,1185.21 1029.25,1178.48 1033.54,1171.74 1037.82,1164.99 1042.1,1158.25 1046.39,1151.53 
  1050.67,1144.84 1054.96,1138.2 1059.24,1131.62 1063.52,1125.12 1067.81,1118.7 1072.09,1112.38 1076.37,1106.18 1080.66,1100.09 1084.94,1094.15 1089.22,1088.36 
  1093.51,1082.73 1097.79,1077.27 1102.08,1072 1106.36,1066.93 1110.64,1062.07 1114.93,1057.43 1119.21,1053.02 1123.49,1048.86 1127.78,1044.94 1132.06,1041.29 
  1136.34,1037.91 1140.63,1034.81 1144.91,1032 1149.19,1029.48 1153.48,1027.27 1157.76,1025.36 1162.05,1023.78 1166.33,1022.51 1170.61,1021.57 1174.9,1020.96 
  1179.18,1020.68 1183.46,1020.75 1187.75,1021.15 1192.03,1021.89 1196.31,1022.97 1200.6,1024.4 1204.88,1026.16 1209.17,1028.26 1213.45,1030.7 1217.73,1033.48 
  1222.02,1036.58 1226.3,1040.01 1230.58,1043.76 1234.87,1047.82 1239.15,1052.18 1243.43,1056.84 1247.72,1061.79 1252,1067.03 1256.28,1072.52 1260.57,1078.28 
  1264.85,1084.28 1269.14,1090.52 1273.42,1096.97 1277.7,1103.63 1281.99,1110.48 1286.27,1117.5 1290.55,1124.69 1294.84,1132.01 1299.12,1139.46 1303.4,1147.02 
  1307.69,1154.67 1311.97,1162.38 1316.25,1170.15 1320.54,1177.95 1324.82,1185.77 1329.11,1193.57 1333.39,1201.35 1337.67,1209.08 1341.96,1216.74 1346.24,1224.32 
  1350.52,1231.79 1354.81,1239.13 1359.09,1246.32 1363.37,1253.35 1367.66,1260.19 1371.94,1266.82 1376.23,1273.24 1380.51,1279.41 1384.79,1285.33 1389.08,1290.97 
  1393.36,1296.33 1397.64,1301.38 1401.93,1306.11 1406.21,1310.52 1410.49,1314.59 1414.78,1318.3 1419.06,1321.66 1423.34,1324.64 1427.63,1327.25 1431.91,1329.49 
  1436.2,1331.34 1440.48,1332.8 1444.76,1333.88 1449.05,1334.58 1453.33,1334.89 1457.61,1334.82 1461.9,1334.38 1466.18,1333.58 1470.46,1332.42 1474.75,1330.91 
  1479.03,1329.08 1483.31,1326.92 1487.6,1324.47 1491.88,1321.73 1496.17,1318.72 1500.45,1315.47 1504.73,1312 1509.02,1308.33 1513.3,1304.48 1517.58,1300.49 
  1521.87,1296.38 1526.15,1292.17 1530.43,1287.91 1534.72,1283.61 1539,1279.31 1543.29,1275.04 1547.57,1270.83 1551.85,1266.72 1556.14,1262.74 1560.42,1258.92 
  1564.7,1255.28 1568.99,1251.88 1573.27,1248.72 1577.55,1245.86 1581.84,1243.31 1586.12,1241.1 1590.4,1239.27 1594.69,1237.83 1598.97,1236.81 1603.26,1236.24 
  1607.54,1236.13 1611.82,1236.5 1616.11,1237.36 1620.39,1238.74 1624.67,1240.63 1628.96,1243.05 1633.24,1246.01 1637.52,1249.49 1641.81,1253.5 1646.09,1258.03 
  1650.38,1263.08 1654.66,1268.63 1658.94,1274.66 1663.23,1281.15 1667.51,1288.09 1671.79,1295.44 1676.08,1303.17 1680.36,1311.25 1684.64,1319.64 1688.93,1328.29 
  1693.21,1337.18 1697.49,1346.24 1701.78,1355.43 1706.06,1364.7 1710.35,1373.99 1714.63,1383.25 1718.91,1392.42 1723.2,1401.44 1727.48,1410.24 1731.76,1418.78 
  1736.05,1426.99 1740.33,1434.8 1744.61,1442.16 1748.9,1449.02 1753.18,1455.3 1757.46,1460.97 1761.75,1465.96 1766.03,1470.23 1770.32,1473.73 1774.6,1476.43 
  1778.88,1478.27 1783.17,1479.24 1787.45,1479.3 1791.73,1478.43 1796.02,1476.62 1800.3,1473.85 1804.58,1470.13 1808.87,1465.46 1813.15,1459.85 1817.44,1453.32 
  1821.72,1445.89 1826,1437.61 1830.29,1428.5 1834.57,1418.62 1838.85,1408.01 1843.14,1396.76 1847.42,1384.91 1851.7,1372.55 1855.99,1359.76 1860.27,1346.62 
  1864.55,1333.22 1868.84,1319.65 1873.12,1306.02 1877.41,1292.42 1881.69,1278.96 1885.97,1265.73 1890.26,1252.84 1894.54,1240.4 1898.82,1228.49 1903.11,1217.22 
  1907.39,1206.68 1911.67,1196.96 1915.96,1188.14 1920.24,1180.29 1924.53,1173.48 1928.81,1167.77 1933.09,1163.21 1937.38,1159.84 1941.66,1157.69 1945.94,1156.76 
  1950.23,1157.08 1954.51,1158.63 1958.79,1161.39 1963.08,1165.32 1967.36,1170.4 1971.64,1176.55 1975.93,1183.71 1980.21,1191.81 1984.5,1200.75 1988.78,1210.44 
  1993.06,1220.76 1997.35,1231.61 2001.63,1242.85 2005.91,1254.38 2010.2,1266.05 2014.48,1277.73 2018.76,1289.31 2023.05,1300.63 2027.33,1311.59 2031.61,1322.06 
  2035.9,1331.92 2040.18,1341.07 2044.47,1349.42 2048.75,1356.88 2053.03,1363.38 2057.32,1368.87 2061.6,1373.29 2065.88,1376.64 2070.17,1378.89 2074.45,1380.05 
  2078.73,1380.16 2083.02,1379.24 2087.3,1377.36 2091.59,1374.59 2095.87,1371.01 2100.15,1366.72 2104.44,1361.83 2108.72,1356.46 2113,1350.73 2117.29,1344.78 
  2121.57,1338.73 2125.85,1332.71 2130.14,1326.85 2134.42,1321.28 2138.7,1316.09 2142.99,1311.41 2147.27,1307.3 2151.56,1303.84 2155.84,1301.1 2160.12,1299.09 
  2164.41,1297.84 2168.69,1297.34 2172.97,1297.56 2177.26,1298.46 2181.54,1299.96 2185.82,1301.97 2190.11,1304.4 2194.39,1307.12 2198.68,1310 2202.96,1312.91 
  2207.24,1315.7 2211.53,1318.22 2215.81,1320.34 2220.09,1321.92 2224.38,1322.84 2228.66,1323.01 2232.94,1322.33 2237.23,1320.75 2241.51,1318.23 2245.79,1314.79 
  2250.08,1310.43 2254.36,1305.24 2258.65,1299.3 2262.93,1292.75 2267.21,1285.74 2271.5,1278.45 2275.78,1271.1 2280.06,1263.92 2284.35,1257.13 2288.63,1250.99 
  
  "/>
<path clip-path="url(#clip280)" d="
M1984.8 200.05 L2277.23 200.05 L2277.23 96.3696 L1984.8 96.3696  Z
  " fill="#ffffff" fill-rule="evenodd" fill-opacity="1"/>
<polyline clip-path="url(#clip280)" style="stroke:#000000; stroke-linecap:butt; stroke-linejoin:round; stroke-width:4; stroke-opacity:1; fill:none" points="
  1984.8,200.05 2277.23,200.05 2277.23,96.3696 1984.8,96.3696 1984.8,200.05 
  "/>
<polyline clip-path="url(#clip280)" style="stroke:#009af9; stroke-linecap:butt; stroke-linejoin:round; stroke-width:4; stroke-opacity:1; fill:none" points="
  2008.8,148.21 2152.8,148.21 
  "/>
<path clip-path="url(#clip280)" d="M2190.64 167.897 Q2188.84 172.527 2187.12 173.939 Q2185.41 175.351 2182.54 175.351 L2179.14 175.351 L2179.14 171.786 L2181.64 171.786 Q2183.4 171.786 2184.37 170.952 Q2185.34 170.119 2186.52 167.017 L2187.29 165.073 L2176.8 139.564 L2181.31 139.564 L2189.42 159.841 L2197.52 139.564 L2202.03 139.564 L2190.64 167.897 Z" fill="#000000" fill-rule="evenodd" fill-opacity="1" /><path clip-path="url(#clip280)" d="M2209.32 161.554 L2216.96 161.554 L2216.96 135.189 L2208.65 136.855 L2208.65 132.596 L2216.92 130.93 L2221.59 130.93 L2221.59 161.554 L2229.23 161.554 L2229.23 165.49 L2209.32 165.49 L2209.32 161.554 Z" fill="#000000" fill-rule="evenodd" fill-opacity="1" /></svg>
