<?xml version="1.0" encoding="utf-8"?>
<svg xmlns="http://www.w3.org/2000/svg" xmlns:xlink="http://www.w3.org/1999/xlink" width="600" height="400" viewBox="0 0 2400 1600">
<defs>
  <clipPath id="clip570">
    <rect x="0" y="0" width="2400" height="1600"/>
  </clipPath>
</defs>
<path clip-path="url(#clip570)" d="
M0 1600 L2400 1600 L2400 0 L0 0  Z
  " fill="#ffffff" fill-rule="evenodd" fill-opacity="1"/>
<defs>
  <clipPath id="clip571">
    <rect x="480" y="0" width="1681" height="1600"/>
  </clipPath>
</defs>
<path clip-path="url(#clip570)" d="
M156.598 1486.45 L2352.76 1486.45 L2352.76 47.2441 L156.598 47.2441  Z
  " fill="#ffffff" fill-rule="evenodd" fill-opacity="1"/>
<defs>
  <clipPath id="clip572">
    <rect x="156" y="47" width="2197" height="1440"/>
  </clipPath>
</defs>
<polyline clip-path="url(#clip572)" style="stroke:#000000; stroke-linecap:butt; stroke-linejoin:round; stroke-width:2; stroke-opacity:0.1; fill:none" points="
  218.754,1486.45 218.754,47.2441 
  "/>
<polyline clip-path="url(#clip572)" style="stroke:#000000; stroke-linecap:butt; stroke-linejoin:round; stroke-width:2; stroke-opacity:0.1; fill:none" points="
  878.243,1486.45 878.243,47.2441 
  "/>
<polyline clip-path="url(#clip572)" style="stroke:#000000; stroke-linecap:butt; stroke-linejoin:round; stroke-width:2; stroke-opacity:0.1; fill:none" points="
  1537.73,1486.45 1537.73,47.2441 
  "/>
<polyline clip-path="url(#clip572)" style="stroke:#000000; stroke-linecap:butt; stroke-linejoin:round; stroke-width:2; stroke-opacity:0.1; fill:none" points="
  2197.22,1486.45 2197.22,47.2441 
  "/>
<polyline clip-path="url(#clip570)" style="stroke:#000000; stroke-linecap:butt; stroke-linejoin:round; stroke-width:4; stroke-opacity:1; fill:none" points="
  156.598,1486.45 2352.76,1486.45 
  "/>
<polyline clip-path="url(#clip570)" style="stroke:#000000; stroke-linecap:butt; stroke-linejoin:round; stroke-width:4; stroke-opacity:1; fill:none" points="
  218.754,1486.45 218.754,1467.55 
  "/>
<polyline clip-path="url(#clip570)" style="stroke:#000000; stroke-linecap:butt; stroke-linejoin:round; stroke-width:4; stroke-opacity:1; fill:none" points="
  878.243,1486.45 878.243,1467.55 
  "/>
<polyline clip-path="url(#clip570)" style="stroke:#000000; stroke-linecap:butt; stroke-linejoin:round; stroke-width:4; stroke-opacity:1; fill:none" points="
  1537.73,1486.45 1537.73,1467.55 
  "/>
<polyline clip-path="url(#clip570)" style="stroke:#000000; stroke-linecap:butt; stroke-linejoin:round; stroke-width:4; stroke-opacity:1; fill:none" points="
  2197.22,1486.45 2197.22,1467.55 
  "/>
<path clip-path="url(#clip570)" d="M218.754 1517.37 Q215.143 1517.37 213.314 1520.93 Q211.508 1524.47 211.508 1531.6 Q211.508 1538.71 213.314 1542.27 Q215.143 1545.82 218.754 1545.82 Q222.388 1545.82 224.193 1542.27 Q226.022 1538.71 226.022 1531.6 Q226.022 1524.47 224.193 1520.93 Q222.388 1517.37 218.754 1517.37 M218.754 1513.66 Q224.564 1513.66 227.619 1518.27 Q230.698 1522.85 230.698 1531.6 Q230.698 1540.33 227.619 1544.94 Q224.564 1549.52 218.754 1549.52 Q212.943 1549.52 209.865 1544.94 Q206.809 1540.33 206.809 1531.6 Q206.809 1522.85 209.865 1518.27 Q212.943 1513.66 218.754 1513.66 Z" fill="#000000" fill-rule="evenodd" fill-opacity="1" /><path clip-path="url(#clip570)" d="M868.625 1544.91 L876.264 1544.91 L876.264 1518.55 L867.954 1520.21 L867.954 1515.95 L876.218 1514.29 L880.893 1514.29 L880.893 1544.91 L888.532 1544.91 L888.532 1548.85 L868.625 1548.85 L868.625 1544.91 Z" fill="#000000" fill-rule="evenodd" fill-opacity="1" /><path clip-path="url(#clip570)" d="M1532.39 1544.91 L1548.7 1544.91 L1548.7 1548.85 L1526.76 1548.85 L1526.76 1544.91 Q1529.42 1542.16 1534.01 1537.53 Q1538.61 1532.88 1539.79 1531.53 Q1542.04 1529.01 1542.92 1527.27 Q1543.82 1525.51 1543.82 1523.82 Q1543.82 1521.07 1541.88 1519.33 Q1539.95 1517.6 1536.85 1517.6 Q1534.65 1517.6 1532.2 1518.36 Q1529.77 1519.13 1526.99 1520.68 L1526.99 1515.95 Q1529.82 1514.82 1532.27 1514.24 Q1534.72 1513.66 1536.76 1513.66 Q1542.13 1513.66 1545.32 1516.35 Q1548.52 1519.03 1548.52 1523.52 Q1548.52 1525.65 1547.71 1527.57 Q1546.92 1529.47 1544.82 1532.07 Q1544.24 1532.74 1541.14 1535.95 Q1538.03 1539.15 1532.39 1544.91 Z" fill="#000000" fill-rule="evenodd" fill-opacity="1" /><path clip-path="url(#clip570)" d="M2201.47 1530.21 Q2204.83 1530.93 2206.7 1533.2 Q2208.6 1535.47 2208.6 1538.8 Q2208.6 1543.92 2205.08 1546.72 Q2201.56 1549.52 2195.08 1549.52 Q2192.9 1549.52 2190.59 1549.08 Q2188.3 1548.66 2185.84 1547.81 L2185.84 1543.29 Q2187.79 1544.43 2190.1 1545.01 Q2192.42 1545.58 2194.94 1545.58 Q2199.34 1545.58 2201.63 1543.85 Q2203.95 1542.11 2203.95 1538.8 Q2203.95 1535.75 2201.79 1534.03 Q2199.66 1532.3 2195.84 1532.3 L2191.82 1532.3 L2191.82 1528.45 L2196.03 1528.45 Q2199.48 1528.45 2201.31 1527.09 Q2203.14 1525.7 2203.14 1523.11 Q2203.14 1520.45 2201.24 1519.03 Q2199.36 1517.6 2195.84 1517.6 Q2193.92 1517.6 2191.72 1518.01 Q2189.52 1518.43 2186.89 1519.31 L2186.89 1515.14 Q2189.55 1514.4 2191.86 1514.03 Q2194.2 1513.66 2196.26 1513.66 Q2201.59 1513.66 2204.69 1516.09 Q2207.79 1518.5 2207.79 1522.62 Q2207.79 1525.49 2206.15 1527.48 Q2204.5 1529.45 2201.47 1530.21 Z" fill="#000000" fill-rule="evenodd" fill-opacity="1" /><polyline clip-path="url(#clip572)" style="stroke:#000000; stroke-linecap:butt; stroke-linejoin:round; stroke-width:2; stroke-opacity:0.1; fill:none" points="
  156.598,1276.24 2352.76,1276.24 
  "/>
<polyline clip-path="url(#clip572)" style="stroke:#000000; stroke-linecap:butt; stroke-linejoin:round; stroke-width:2; stroke-opacity:0.1; fill:none" points="
  156.598,1007.39 2352.76,1007.39 
  "/>
<polyline clip-path="url(#clip572)" style="stroke:#000000; stroke-linecap:butt; stroke-linejoin:round; stroke-width:2; stroke-opacity:0.1; fill:none" points="
  156.598,738.536 2352.76,738.536 
  "/>
<polyline clip-path="url(#clip572)" style="stroke:#000000; stroke-linecap:butt; stroke-linejoin:round; stroke-width:2; stroke-opacity:0.1; fill:none" points="
  156.598,469.682 2352.76,469.682 
  "/>
<polyline clip-path="url(#clip572)" style="stroke:#000000; stroke-linecap:butt; stroke-linejoin:round; stroke-width:2; stroke-opacity:0.1; fill:none" points="
  156.598,200.828 2352.76,200.828 
  "/>
<polyline clip-path="url(#clip570)" style="stroke:#000000; stroke-linecap:butt; stroke-linejoin:round; stroke-width:4; stroke-opacity:1; fill:none" points="
  156.598,1486.45 156.598,47.2441 
  "/>
<polyline clip-path="url(#clip570)" style="stroke:#000000; stroke-linecap:butt; stroke-linejoin:round; stroke-width:4; stroke-opacity:1; fill:none" points="
  156.598,1276.24 175.496,1276.24 
  "/>
<polyline clip-path="url(#clip570)" style="stroke:#000000; stroke-linecap:butt; stroke-linejoin:round; stroke-width:4; stroke-opacity:1; fill:none" points="
  156.598,1007.39 175.496,1007.39 
  "/>
<polyline clip-path="url(#clip570)" style="stroke:#000000; stroke-linecap:butt; stroke-linejoin:round; stroke-width:4; stroke-opacity:1; fill:none" points="
  156.598,738.536 175.496,738.536 
  "/>
<polyline clip-path="url(#clip570)" style="stroke:#000000; stroke-linecap:butt; stroke-linejoin:round; stroke-width:4; stroke-opacity:1; fill:none" points="
  156.598,469.682 175.496,469.682 
  "/>
<polyline clip-path="url(#clip570)" style="stroke:#000000; stroke-linecap:butt; stroke-linejoin:round; stroke-width:4; stroke-opacity:1; fill:none" points="
  156.598,200.828 175.496,200.828 
  "/>
<path clip-path="url(#clip570)" d="M63.4226 1262.04 Q59.8115 1262.04 57.9828 1265.61 Q56.1773 1269.15 56.1773 1276.28 Q56.1773 1283.39 57.9828 1286.95 Q59.8115 1290.49 63.4226 1290.49 Q67.0569 1290.49 68.8624 1286.95 Q70.6911 1283.39 70.6911 1276.28 Q70.6911 1269.15 68.8624 1265.61 Q67.0569 1262.04 63.4226 1262.04 M63.4226 1258.34 Q69.2328 1258.34 72.2883 1262.95 Q75.367 1267.53 75.367 1276.28 Q75.367 1285.01 72.2883 1289.61 Q69.2328 1294.2 63.4226 1294.2 Q57.6125 1294.2 54.5338 1289.61 Q51.4782 1285.01 51.4782 1276.28 Q51.4782 1267.53 54.5338 1262.95 Q57.6125 1258.34 63.4226 1258.34 Z" fill="#000000" fill-rule="evenodd" fill-opacity="1" /><path clip-path="url(#clip570)" d="M83.5845 1287.65 L88.4688 1287.65 L88.4688 1293.52 L83.5845 1293.52 L83.5845 1287.65 Z" fill="#000000" fill-rule="evenodd" fill-opacity="1" /><path clip-path="url(#clip570)" d="M108.654 1262.04 Q105.043 1262.04 103.214 1265.61 Q101.409 1269.15 101.409 1276.28 Q101.409 1283.39 103.214 1286.95 Q105.043 1290.49 108.654 1290.49 Q112.288 1290.49 114.094 1286.95 Q115.922 1283.39 115.922 1276.28 Q115.922 1269.15 114.094 1265.61 Q112.288 1262.04 108.654 1262.04 M108.654 1258.34 Q114.464 1258.34 117.52 1262.95 Q120.598 1267.53 120.598 1276.28 Q120.598 1285.01 117.52 1289.61 Q114.464 1294.2 108.654 1294.2 Q102.844 1294.2 99.765 1289.61 Q96.7095 1285.01 96.7095 1276.28 Q96.7095 1267.53 99.765 1262.95 Q102.844 1258.34 108.654 1258.34 Z" fill="#000000" fill-rule="evenodd" fill-opacity="1" /><path clip-path="url(#clip570)" d="M65.0198 993.189 Q61.4087 993.189 59.58 996.754 Q57.7745 1000.3 57.7745 1007.43 Q57.7745 1014.53 59.58 1018.1 Q61.4087 1021.64 65.0198 1021.64 Q68.6541 1021.64 70.4596 1018.1 Q72.2883 1014.53 72.2883 1007.43 Q72.2883 1000.3 70.4596 996.754 Q68.6541 993.189 65.0198 993.189 M65.0198 989.486 Q70.83 989.486 73.8855 994.092 Q76.9642 998.675 76.9642 1007.43 Q76.9642 1016.15 73.8855 1020.76 Q70.83 1025.34 65.0198 1025.34 Q59.2097 1025.34 56.131 1020.76 Q53.0754 1016.15 53.0754 1007.43 Q53.0754 998.675 56.131 994.092 Q59.2097 989.486 65.0198 989.486 Z" fill="#000000" fill-rule="evenodd" fill-opacity="1" /><path clip-path="url(#clip570)" d="M85.1818 1018.79 L90.066 1018.79 L90.066 1024.67 L85.1818 1024.67 L85.1818 1018.79 Z" fill="#000000" fill-rule="evenodd" fill-opacity="1" /><path clip-path="url(#clip570)" d="M104.279 1020.74 L120.598 1020.74 L120.598 1024.67 L98.6539 1024.67 L98.6539 1020.74 Q101.316 1017.98 105.899 1013.35 Q110.506 1008.7 111.686 1007.36 Q113.932 1004.83 114.811 1003.1 Q115.714 1001.34 115.714 999.648 Q115.714 996.893 113.77 995.157 Q111.848 993.421 108.746 993.421 Q106.547 993.421 104.094 994.185 Q101.663 994.949 98.8854 996.499 L98.8854 991.777 Q101.709 990.643 104.163 990.064 Q106.617 989.486 108.654 989.486 Q114.024 989.486 117.219 992.171 Q120.413 994.856 120.413 999.347 Q120.413 1001.48 119.603 1003.4 Q118.816 1005.3 116.709 1007.89 Q116.131 1008.56 113.029 1011.78 Q109.927 1014.97 104.279 1020.74 Z" fill="#000000" fill-rule="evenodd" fill-opacity="1" /><path clip-path="url(#clip570)" d="M62.9365 724.335 Q59.3254 724.335 57.4967 727.9 Q55.6912 731.442 55.6912 738.571 Q55.6912 745.678 57.4967 749.242 Q59.3254 752.784 62.9365 752.784 Q66.5707 752.784 68.3763 749.242 Q70.205 745.678 70.205 738.571 Q70.205 731.442 68.3763 727.9 Q66.5707 724.335 62.9365 724.335 M62.9365 720.632 Q68.7467 720.632 71.8022 725.238 Q74.8809 729.821 74.8809 738.571 Q74.8809 747.298 71.8022 751.904 Q68.7467 756.488 62.9365 756.488 Q57.1264 756.488 54.0477 751.904 Q50.9921 747.298 50.9921 738.571 Q50.9921 729.821 54.0477 725.238 Q57.1264 720.632 62.9365 720.632 Z" fill="#000000" fill-rule="evenodd" fill-opacity="1" /><path clip-path="url(#clip570)" d="M83.0984 749.937 L87.9827 749.937 L87.9827 755.816 L83.0984 755.816 L83.0984 749.937 Z" fill="#000000" fill-rule="evenodd" fill-opacity="1" /><path clip-path="url(#clip570)" d="M111.015 725.331 L99.2095 743.78 L111.015 743.78 L111.015 725.331 M109.788 721.256 L115.668 721.256 L115.668 743.78 L120.598 743.78 L120.598 747.668 L115.668 747.668 L115.668 755.816 L111.015 755.816 L111.015 747.668 L95.4132 747.668 L95.4132 743.155 L109.788 721.256 Z" fill="#000000" fill-rule="evenodd" fill-opacity="1" /><path clip-path="url(#clip570)" d="M63.2606 455.481 Q59.6495 455.481 57.8208 459.046 Q56.0152 462.588 56.0152 469.717 Q56.0152 476.824 57.8208 480.388 Q59.6495 483.93 63.2606 483.93 Q66.8948 483.93 68.7004 480.388 Q70.5291 476.824 70.5291 469.717 Q70.5291 462.588 68.7004 459.046 Q66.8948 455.481 63.2606 455.481 M63.2606 451.777 Q69.0707 451.777 72.1263 456.384 Q75.205 460.967 75.205 469.717 Q75.205 478.444 72.1263 483.05 Q69.0707 487.634 63.2606 487.634 Q57.4504 487.634 54.3717 483.05 Q51.3162 478.444 51.3162 469.717 Q51.3162 460.967 54.3717 456.384 Q57.4504 451.777 63.2606 451.777 Z" fill="#000000" fill-rule="evenodd" fill-opacity="1" /><path clip-path="url(#clip570)" d="M83.4225 481.083 L88.3067 481.083 L88.3067 486.962 L83.4225 486.962 L83.4225 481.083 Z" fill="#000000" fill-rule="evenodd" fill-opacity="1" /><path clip-path="url(#clip570)" d="M109.071 467.819 Q105.922 467.819 104.071 469.972 Q102.242 472.124 102.242 475.874 Q102.242 479.601 104.071 481.777 Q105.922 483.93 109.071 483.93 Q112.219 483.93 114.047 481.777 Q115.899 479.601 115.899 475.874 Q115.899 472.124 114.047 469.972 Q112.219 467.819 109.071 467.819 M118.353 453.166 L118.353 457.426 Q116.594 456.592 114.788 456.152 Q113.006 455.713 111.246 455.713 Q106.617 455.713 104.163 458.838 Q101.733 461.963 101.385 468.282 Q102.751 466.268 104.811 465.203 Q106.871 464.115 109.348 464.115 Q114.557 464.115 117.566 467.287 Q120.598 470.435 120.598 475.874 Q120.598 481.199 117.45 484.416 Q114.302 487.634 109.071 487.634 Q103.075 487.634 99.9039 483.05 Q96.7326 478.444 96.7326 469.717 Q96.7326 461.523 100.621 456.662 Q104.51 451.777 111.061 451.777 Q112.82 451.777 114.603 452.125 Q116.408 452.472 118.353 453.166 Z" fill="#000000" fill-rule="evenodd" fill-opacity="1" /><path clip-path="url(#clip570)" d="M63.5152 186.627 Q59.9041 186.627 58.0754 190.192 Q56.2699 193.733 56.2699 200.863 Q56.2699 207.969 58.0754 211.534 Q59.9041 215.076 63.5152 215.076 Q67.1494 215.076 68.955 211.534 Q70.7837 207.969 70.7837 200.863 Q70.7837 193.733 68.955 190.192 Q67.1494 186.627 63.5152 186.627 M63.5152 182.923 Q69.3254 182.923 72.3809 187.53 Q75.4596 192.113 75.4596 200.863 Q75.4596 209.59 72.3809 214.196 Q69.3254 218.78 63.5152 218.78 Q57.7051 218.78 54.6264 214.196 Q51.5708 209.59 51.5708 200.863 Q51.5708 192.113 54.6264 187.53 Q57.7051 182.923 63.5152 182.923 Z" fill="#000000" fill-rule="evenodd" fill-opacity="1" /><path clip-path="url(#clip570)" d="M83.6771 212.229 L88.5614 212.229 L88.5614 218.108 L83.6771 218.108 L83.6771 212.229 Z" fill="#000000" fill-rule="evenodd" fill-opacity="1" /><path clip-path="url(#clip570)" d="M108.746 201.696 Q105.413 201.696 103.492 203.479 Q101.594 205.261 101.594 208.386 Q101.594 211.511 103.492 213.293 Q105.413 215.076 108.746 215.076 Q112.08 215.076 114.001 213.293 Q115.922 211.488 115.922 208.386 Q115.922 205.261 114.001 203.479 Q112.103 201.696 108.746 201.696 M104.071 199.706 Q101.061 198.965 99.3715 196.905 Q97.7048 194.844 97.7048 191.882 Q97.7048 187.738 100.645 185.331 Q103.608 182.923 108.746 182.923 Q113.908 182.923 116.848 185.331 Q119.788 187.738 119.788 191.882 Q119.788 194.844 118.098 196.905 Q116.432 198.965 113.445 199.706 Q116.825 200.493 118.7 202.784 Q120.598 205.076 120.598 208.386 Q120.598 213.409 117.52 216.094 Q114.464 218.78 108.746 218.78 Q103.029 218.78 99.9502 216.094 Q96.8947 213.409 96.8947 208.386 Q96.8947 205.076 98.7928 202.784 Q100.691 200.493 104.071 199.706 M102.358 192.321 Q102.358 195.007 104.024 196.511 Q105.714 198.016 108.746 198.016 Q111.756 198.016 113.445 196.511 Q115.158 195.007 115.158 192.321 Q115.158 189.636 113.445 188.132 Q111.756 186.627 108.746 186.627 Q105.714 186.627 104.024 188.132 Q102.358 189.636 102.358 192.321 Z" fill="#000000" fill-rule="evenodd" fill-opacity="1" /><polyline clip-path="url(#clip572)" style="stroke:#009af9; stroke-linecap:butt; stroke-linejoin:round; stroke-width:4; stroke-opacity:1; fill:none" points="
  218.754,145.08 222.906,140.59 227.058,136.265 231.21,132.11 235.362,128.125 239.514,124.315 243.666,120.681 247.818,117.225 251.97,113.951 256.122,110.861 
  260.274,107.956 264.426,105.239 268.578,102.712 272.73,100.378 276.882,98.239 281.034,96.2963 285.186,94.5523 289.338,93.009 293.49,91.6682 297.642,90.5319 
  301.794,89.6017 305.946,88.8794 310.098,88.3667 314.25,88.0652 318.402,87.9763 322.554,88.1015 326.706,88.4423 330.858,88.9999 335.01,89.7755 339.162,90.7703 
  343.314,91.9854 347.466,93.4218 351.618,95.0804 355.77,96.962 359.922,99.0674 364.074,101.397 368.226,103.952 372.378,106.732 376.53,109.739 380.682,112.971 
  384.834,116.43 388.986,120.115 393.138,124.027 397.29,128.165 401.442,132.53 405.594,137.121 409.746,141.937 413.898,146.978 418.05,152.243 422.202,157.733 
  426.354,163.445 430.506,169.379 434.658,175.535 438.81,181.91 442.962,188.504 447.114,195.314 451.266,202.341 455.418,209.582 459.57,217.035 463.722,224.698 
  467.874,232.571 472.026,240.649 476.177,248.932 480.329,257.417 484.481,266.102 488.633,274.983 492.785,284.059 496.937,293.326 501.089,302.782 505.241,312.423 
  509.393,322.247 513.545,332.249 517.697,342.428 521.849,352.778 526.001,363.297 530.153,373.981 534.305,384.825 538.457,395.826 542.609,406.98 546.761,418.282 
  550.913,429.728 555.065,441.313 559.217,453.033 563.369,464.884 567.521,476.859 571.673,488.955 575.825,501.166 579.977,513.487 584.129,525.913 588.281,538.438 
  592.433,551.057 596.585,563.765 600.737,576.555 604.889,589.421 609.041,602.359 613.193,615.361 617.345,628.422 621.497,641.536 625.649,654.695 629.801,667.895 
  633.953,681.129 638.105,694.389 642.257,707.67 646.409,720.964 650.561,734.266 654.713,747.568 658.865,760.864 663.017,774.146 667.169,787.408 671.321,800.642 
  675.473,813.842 679.625,827.001 683.777,840.111 687.929,853.166 692.081,866.158 696.233,879.079 700.385,891.924 704.537,904.685 708.689,917.354 712.841,929.924 
  716.993,942.388 721.145,954.74 725.297,966.971 729.449,979.075 733.601,991.045 737.753,1002.87 741.905,1014.55 746.057,1026.08 750.209,1037.44 754.361,1048.64 
  758.513,1059.65 762.665,1070.49 766.817,1081.14 770.969,1091.59 775.121,1101.84 779.273,1111.88 783.425,1121.71 787.577,1131.31 791.729,1140.7 795.881,1149.85 
  800.033,1158.76 804.185,1167.43 808.337,1175.85 812.489,1184.01 816.641,1191.92 820.793,1199.57 824.945,1206.95 829.097,1214.05 833.249,1220.88 837.401,1227.43 
  841.553,1233.7 845.705,1239.68 849.857,1245.37 854.009,1250.76 858.161,1255.86 862.313,1260.65 866.465,1265.15 870.617,1269.34 874.769,1273.23 878.921,1276.81 
  883.073,1280.08 887.225,1283.04 891.377,1285.7 895.529,1288.04 899.681,1290.07 903.833,1291.8 907.985,1293.21 912.137,1294.32 916.289,1295.12 920.441,1295.62 
  924.593,1295.81 928.745,1295.71 932.897,1295.3 937.049,1294.6 941.201,1293.61 945.353,1292.33 949.505,1290.76 953.657,1288.92 957.809,1286.8 961.961,1284.41 
  966.113,1281.75 970.265,1278.84 974.417,1275.67 978.569,1272.26 982.721,1268.61 986.873,1264.72 991.025,1260.62 995.177,1256.29 999.329,1251.75 1003.48,1247.02 
  1007.63,1242.09 1011.79,1236.98 1015.94,1231.7 1020.09,1226.25 1024.24,1220.65 1028.39,1214.9 1032.55,1209.02 1036.7,1203.02 1040.85,1196.91 1045,1190.7 
  1049.15,1184.39 1053.31,1178.01 1057.46,1171.57 1061.61,1165.07 1065.76,1158.53 1069.91,1151.96 1074.07,1145.37 1078.22,1138.78 1082.37,1132.19 1086.52,1125.63 
  1090.67,1119.1 1094.83,1112.62 1098.98,1106.2 1103.13,1099.84 1107.28,1093.58 1111.43,1087.4 1115.59,1081.34 1119.74,1075.4 1123.89,1069.6 1128.04,1063.94 
  1132.19,1058.44 1136.35,1053.12 1140.5,1047.97 1144.65,1043.02 1148.8,1038.27 1152.95,1033.74 1157.11,1029.44 1161.26,1025.37 1165.41,1021.55 1169.56,1017.98 
  1173.71,1014.68 1177.87,1011.65 1182.02,1008.91 1186.17,1006.45 1190.32,1004.29 1194.47,1002.43 1198.63,1000.88 1202.78,999.64 1206.93,998.722 1211.08,998.127 
  1215.23,997.858 1219.39,997.918 1223.54,998.309 1227.69,999.033 1231.84,1000.09 1235.99,1001.48 1240.15,1003.2 1244.3,1005.26 1248.45,1007.64 1252.6,1010.35 
  1256.75,1013.38 1260.91,1016.73 1265.06,1020.39 1269.21,1024.35 1273.36,1028.61 1277.51,1033.17 1281.67,1038 1285.82,1043.11 1289.97,1048.48 1294.12,1054.1 
  1298.27,1059.96 1302.43,1066.05 1306.58,1072.35 1310.73,1078.86 1314.88,1085.55 1319.03,1092.41 1323.19,1099.42 1327.34,1106.57 1331.49,1113.85 1335.64,1121.23 
  1339.79,1128.7 1343.95,1136.23 1348.1,1143.82 1352.25,1151.44 1356.4,1159.07 1360.55,1166.69 1364.71,1174.29 1368.86,1181.84 1373.01,1189.32 1377.16,1196.72 
  1381.31,1204.01 1385.46,1211.18 1389.62,1218.2 1393.77,1225.06 1397.92,1231.74 1402.07,1238.23 1406.22,1244.49 1410.38,1250.52 1414.53,1256.29 1418.68,1261.81 
  1422.83,1267.04 1426.98,1271.97 1431.14,1276.59 1435.29,1280.9 1439.44,1284.87 1443.59,1288.49 1447.74,1291.77 1451.9,1294.69 1456.05,1297.24 1460.2,1299.42 
  1464.35,1301.23 1468.5,1302.66 1472.66,1303.71 1476.81,1304.39 1480.96,1304.69 1485.11,1304.63 1489.26,1304.2 1493.42,1303.41 1497.57,1302.28 1501.72,1300.81 
  1505.87,1299.02 1510.02,1296.91 1514.18,1294.52 1518.33,1291.84 1522.48,1288.9 1526.63,1285.73 1530.78,1282.34 1534.94,1278.76 1539.09,1275 1543.24,1271.1 
  1547.39,1267.09 1551.54,1262.98 1555.7,1258.81 1559.85,1254.62 1564,1250.42 1568.15,1246.25 1572.3,1242.14 1576.46,1238.13 1580.61,1234.24 1584.76,1230.5 
  1588.91,1226.96 1593.06,1223.63 1597.22,1220.55 1601.37,1217.75 1605.52,1215.26 1609.67,1213.1 1613.82,1211.31 1617.98,1209.91 1622.13,1208.91 1626.28,1208.35 
  1630.43,1208.25 1634.58,1208.61 1638.74,1209.45 1642.89,1210.8 1647.04,1212.65 1651.19,1215.01 1655.34,1217.89 1659.5,1221.3 1663.65,1225.21 1667.8,1229.64 
  1671.95,1234.57 1676.1,1239.99 1680.26,1245.88 1684.41,1252.22 1688.56,1258.99 1692.71,1266.17 1696.86,1273.72 1701.02,1281.61 1705.17,1289.8 1709.32,1298.25 
  1713.47,1306.93 1717.62,1315.78 1721.78,1324.76 1725.93,1333.81 1730.08,1342.88 1734.23,1351.92 1738.38,1360.88 1742.54,1369.68 1746.69,1378.28 1750.84,1386.62 
  1754.99,1394.63 1759.14,1402.26 1763.3,1409.45 1767.45,1416.15 1771.6,1422.29 1775.75,1427.82 1779.9,1432.69 1784.06,1436.86 1788.21,1440.28 1792.36,1442.91 
  1796.51,1444.71 1800.66,1445.66 1804.82,1445.72 1808.97,1444.87 1813.12,1443.1 1817.27,1440.4 1821.42,1436.76 1825.58,1432.2 1829.73,1426.72 1833.88,1420.35 
  1838.03,1413.1 1842.18,1405 1846.34,1396.11 1850.49,1386.46 1854.64,1376.1 1858.79,1365.11 1862.94,1353.54 1867.1,1341.47 1871.25,1328.98 1875.4,1316.15 
  1879.55,1303.06 1883.7,1289.81 1887.86,1276.5 1892.01,1263.22 1896.16,1250.07 1900.31,1237.16 1904.46,1224.57 1908.62,1212.42 1912.77,1200.79 1916.92,1189.79 
  1921.07,1179.49 1925.22,1170 1929.38,1161.38 1933.53,1153.72 1937.68,1147.07 1941.83,1141.5 1945.98,1137.04 1950.14,1133.75 1954.29,1131.65 1958.44,1130.75 
  1962.59,1131.05 1966.74,1132.57 1970.9,1135.26 1975.05,1139.1 1979.2,1144.06 1983.35,1150.07 1987.5,1157.06 1991.66,1164.97 1995.81,1173.7 1999.96,1183.16 
  2004.11,1193.24 2008.26,1203.83 2012.42,1214.82 2016.57,1226.07 2020.72,1237.47 2024.87,1248.88 2029.02,1260.18 2033.18,1271.24 2037.33,1281.94 2041.48,1292.16 
  2045.63,1301.79 2049.78,1310.73 2053.94,1318.89 2058.09,1326.17 2062.24,1332.52 2066.39,1337.87 2070.54,1342.2 2074.7,1345.46 2078.85,1347.66 2083,1348.8 
  2087.15,1348.9 2091.3,1348 2095.46,1346.17 2099.61,1343.46 2103.76,1339.96 2107.91,1335.78 2112.06,1331 2116.22,1325.76 2120.37,1320.17 2124.52,1314.35 
  2128.67,1308.44 2132.82,1302.57 2136.98,1296.85 2141.13,1291.4 2145.28,1286.34 2149.43,1281.76 2153.58,1277.75 2157.74,1274.38 2161.89,1271.69 2166.04,1269.73 
  2170.19,1268.51 2174.34,1268.03 2178.5,1268.24 2182.65,1269.12 2186.8,1270.58 2190.95,1272.55 2195.1,1274.92 2199.26,1277.57 2203.41,1280.39 2207.56,1283.23 
  2211.71,1285.95 2215.86,1288.41 2220.02,1290.48 2224.17,1292.03 2228.32,1292.93 2232.47,1293.09 2236.62,1292.43 2240.78,1290.88 2244.93,1288.43 2249.08,1285.06 
  2253.23,1280.81 2257.38,1275.74 2261.54,1269.94 2265.69,1263.54 2269.84,1256.69 2273.99,1249.58 2278.14,1242.4 2282.3,1235.38 2286.45,1228.76 2290.6,1222.76 
  
  "/>
<path clip-path="url(#clip570)" d="
M1987.12 198.898 L2279.55 198.898 L2279.55 95.2176 L1987.12 95.2176  Z
  " fill="#ffffff" fill-rule="evenodd" fill-opacity="1"/>
<polyline clip-path="url(#clip570)" style="stroke:#000000; stroke-linecap:butt; stroke-linejoin:round; stroke-width:4; stroke-opacity:1; fill:none" points="
  1987.12,198.898 2279.55,198.898 2279.55,95.2176 1987.12,95.2176 1987.12,198.898 
  "/>
<polyline clip-path="url(#clip570)" style="stroke:#009af9; stroke-linecap:butt; stroke-linejoin:round; stroke-width:4; stroke-opacity:1; fill:none" points="
  2011.12,147.058 2155.12,147.058 
  "/>
<path clip-path="url(#clip570)" d="M2192.96 166.745 Q2191.16 171.375 2189.44 172.787 Q2187.73 174.199 2184.86 174.199 L2181.46 174.199 L2181.46 170.634 L2183.96 170.634 Q2185.72 170.634 2186.69 169.8 Q2187.66 168.967 2188.84 165.865 L2189.61 163.921 L2179.12 138.412 L2183.63 138.412 L2191.74 158.689 L2199.84 138.412 L2204.35 138.412 L2192.96 166.745 Z" fill="#000000" fill-rule="evenodd" fill-opacity="1" /><path clip-path="url(#clip570)" d="M2211.64 160.402 L2219.28 160.402 L2219.28 134.037 L2210.97 135.703 L2210.97 131.444 L2219.24 129.778 L2223.91 129.778 L2223.91 160.402 L2231.55 160.402 L2231.55 164.338 L2211.64 164.338 L2211.64 160.402 Z" fill="#000000" fill-rule="evenodd" fill-opacity="1" /></svg>
